%TF.GenerationSoftware,KiCad,Pcbnew,(5.1.9)-1*%
%TF.CreationDate,2022-01-29T15:00:03-05:00*%
%TF.ProjectId,BatteryMaster,42617474-6572-4794-9d61-737465722e6b,rev?*%
%TF.SameCoordinates,Original*%
%TF.FileFunction,Soldermask,Bot*%
%TF.FilePolarity,Negative*%
%FSLAX46Y46*%
G04 Gerber Fmt 4.6, Leading zero omitted, Abs format (unit mm)*
G04 Created by KiCad (PCBNEW (5.1.9)-1) date 2022-01-29 15:00:03*
%MOMM*%
%LPD*%
G01*
G04 APERTURE LIST*
%ADD10O,10.000000X3.200000*%
%ADD11O,0.900000X1.400000*%
%ADD12O,1.700000X1.700000*%
%ADD13R,1.700000X1.700000*%
%ADD14R,1.000000X1.500000*%
%ADD15O,1.500000X1.500000*%
%ADD16R,1.500000X1.500000*%
%ADD17R,0.900000X0.800000*%
%ADD18R,1.060000X0.650000*%
%ADD19R,2.000000X1.500000*%
%ADD20R,2.000000X3.800000*%
%ADD21O,1.400000X0.900000*%
%ADD22O,1.000000X1.000000*%
%ADD23R,1.000000X1.000000*%
%ADD24C,1.500000*%
%ADD25O,0.650000X0.400000*%
%ADD26R,0.300000X0.400000*%
%ADD27R,1.650000X2.400000*%
%ADD28R,0.650000X1.000000*%
%ADD29R,1.220000X0.400000*%
%ADD30R,1.060000X0.400000*%
%ADD31C,5.600000*%
%ADD32C,3.600000*%
G04 APERTURE END LIST*
D10*
%TO.C,BT1*%
X121920000Y-70902000D03*
X121920000Y-138902000D03*
%TD*%
D11*
%TO.C,TH4*%
X117368000Y-144780000D03*
G36*
G01*
X119068000Y-144305000D02*
X119068000Y-145255000D01*
G75*
G02*
X118843000Y-145480000I-225000J0D01*
G01*
X118393000Y-145480000D01*
G75*
G02*
X118168000Y-145255000I0J225000D01*
G01*
X118168000Y-144305000D01*
G75*
G02*
X118393000Y-144080000I225000J0D01*
G01*
X118843000Y-144080000D01*
G75*
G02*
X119068000Y-144305000I0J-225000D01*
G01*
G37*
%TD*%
%TO.C,TH3*%
X177566000Y-144780000D03*
G36*
G01*
X179266000Y-144305000D02*
X179266000Y-145255000D01*
G75*
G02*
X179041000Y-145480000I-225000J0D01*
G01*
X178591000Y-145480000D01*
G75*
G02*
X178366000Y-145255000I0J225000D01*
G01*
X178366000Y-144305000D01*
G75*
G02*
X178591000Y-144080000I225000J0D01*
G01*
X179041000Y-144080000D01*
G75*
G02*
X179266000Y-144305000I0J-225000D01*
G01*
G37*
%TD*%
%TO.C,TH2*%
X157500000Y-144780000D03*
G36*
G01*
X159200000Y-144305000D02*
X159200000Y-145255000D01*
G75*
G02*
X158975000Y-145480000I-225000J0D01*
G01*
X158525000Y-145480000D01*
G75*
G02*
X158300000Y-145255000I0J225000D01*
G01*
X158300000Y-144305000D01*
G75*
G02*
X158525000Y-144080000I225000J0D01*
G01*
X158975000Y-144080000D01*
G75*
G02*
X159200000Y-144305000I0J-225000D01*
G01*
G37*
%TD*%
%TO.C,TH1*%
X137434000Y-144780000D03*
G36*
G01*
X139134000Y-144305000D02*
X139134000Y-145255000D01*
G75*
G02*
X138909000Y-145480000I-225000J0D01*
G01*
X138459000Y-145480000D01*
G75*
G02*
X138234000Y-145255000I0J225000D01*
G01*
X138234000Y-144305000D01*
G75*
G02*
X138459000Y-144080000I225000J0D01*
G01*
X138909000Y-144080000D01*
G75*
G02*
X139134000Y-144305000I0J-225000D01*
G01*
G37*
%TD*%
%TO.C,Q26*%
G36*
G01*
X124992000Y-115801000D02*
X124992000Y-116101000D01*
G75*
G02*
X124842000Y-116251000I-150000J0D01*
G01*
X123192000Y-116251000D01*
G75*
G02*
X123042000Y-116101000I0J150000D01*
G01*
X123042000Y-115801000D01*
G75*
G02*
X123192000Y-115651000I150000J0D01*
G01*
X124842000Y-115651000D01*
G75*
G02*
X124992000Y-115801000I0J-150000D01*
G01*
G37*
G36*
G01*
X124992000Y-117071000D02*
X124992000Y-117371000D01*
G75*
G02*
X124842000Y-117521000I-150000J0D01*
G01*
X123192000Y-117521000D01*
G75*
G02*
X123042000Y-117371000I0J150000D01*
G01*
X123042000Y-117071000D01*
G75*
G02*
X123192000Y-116921000I150000J0D01*
G01*
X124842000Y-116921000D01*
G75*
G02*
X124992000Y-117071000I0J-150000D01*
G01*
G37*
G36*
G01*
X124992000Y-118341000D02*
X124992000Y-118641000D01*
G75*
G02*
X124842000Y-118791000I-150000J0D01*
G01*
X123192000Y-118791000D01*
G75*
G02*
X123042000Y-118641000I0J150000D01*
G01*
X123042000Y-118341000D01*
G75*
G02*
X123192000Y-118191000I150000J0D01*
G01*
X124842000Y-118191000D01*
G75*
G02*
X124992000Y-118341000I0J-150000D01*
G01*
G37*
G36*
G01*
X124992000Y-119611000D02*
X124992000Y-119911000D01*
G75*
G02*
X124842000Y-120061000I-150000J0D01*
G01*
X123192000Y-120061000D01*
G75*
G02*
X123042000Y-119911000I0J150000D01*
G01*
X123042000Y-119611000D01*
G75*
G02*
X123192000Y-119461000I150000J0D01*
G01*
X124842000Y-119461000D01*
G75*
G02*
X124992000Y-119611000I0J-150000D01*
G01*
G37*
G36*
G01*
X129942000Y-119611000D02*
X129942000Y-119911000D01*
G75*
G02*
X129792000Y-120061000I-150000J0D01*
G01*
X128142000Y-120061000D01*
G75*
G02*
X127992000Y-119911000I0J150000D01*
G01*
X127992000Y-119611000D01*
G75*
G02*
X128142000Y-119461000I150000J0D01*
G01*
X129792000Y-119461000D01*
G75*
G02*
X129942000Y-119611000I0J-150000D01*
G01*
G37*
G36*
G01*
X129942000Y-118341000D02*
X129942000Y-118641000D01*
G75*
G02*
X129792000Y-118791000I-150000J0D01*
G01*
X128142000Y-118791000D01*
G75*
G02*
X127992000Y-118641000I0J150000D01*
G01*
X127992000Y-118341000D01*
G75*
G02*
X128142000Y-118191000I150000J0D01*
G01*
X129792000Y-118191000D01*
G75*
G02*
X129942000Y-118341000I0J-150000D01*
G01*
G37*
G36*
G01*
X129942000Y-117071000D02*
X129942000Y-117371000D01*
G75*
G02*
X129792000Y-117521000I-150000J0D01*
G01*
X128142000Y-117521000D01*
G75*
G02*
X127992000Y-117371000I0J150000D01*
G01*
X127992000Y-117071000D01*
G75*
G02*
X128142000Y-116921000I150000J0D01*
G01*
X129792000Y-116921000D01*
G75*
G02*
X129942000Y-117071000I0J-150000D01*
G01*
G37*
G36*
G01*
X129942000Y-115801000D02*
X129942000Y-116101000D01*
G75*
G02*
X129792000Y-116251000I-150000J0D01*
G01*
X128142000Y-116251000D01*
G75*
G02*
X127992000Y-116101000I0J150000D01*
G01*
X127992000Y-115801000D01*
G75*
G02*
X128142000Y-115651000I150000J0D01*
G01*
X129792000Y-115651000D01*
G75*
G02*
X129942000Y-115801000I0J-150000D01*
G01*
G37*
%TD*%
D12*
%TO.C,J1*%
X108966000Y-76962000D03*
X108966000Y-79502000D03*
X108966000Y-82042000D03*
X108966000Y-84582000D03*
X108966000Y-87122000D03*
D13*
X108966000Y-89662000D03*
%TD*%
D14*
%TO.C,JP1*%
X125446000Y-76962000D03*
X126746000Y-76962000D03*
X128046000Y-76962000D03*
%TD*%
%TO.C,U5*%
G36*
G01*
X181805000Y-79024000D02*
X182005000Y-79024000D01*
G75*
G02*
X182105000Y-79124000I0J-100000D01*
G01*
X182105000Y-80549000D01*
G75*
G02*
X182005000Y-80649000I-100000J0D01*
G01*
X181805000Y-80649000D01*
G75*
G02*
X181705000Y-80549000I0J100000D01*
G01*
X181705000Y-79124000D01*
G75*
G02*
X181805000Y-79024000I100000J0D01*
G01*
G37*
G36*
G01*
X182455000Y-79024000D02*
X182655000Y-79024000D01*
G75*
G02*
X182755000Y-79124000I0J-100000D01*
G01*
X182755000Y-80549000D01*
G75*
G02*
X182655000Y-80649000I-100000J0D01*
G01*
X182455000Y-80649000D01*
G75*
G02*
X182355000Y-80549000I0J100000D01*
G01*
X182355000Y-79124000D01*
G75*
G02*
X182455000Y-79024000I100000J0D01*
G01*
G37*
G36*
G01*
X183105000Y-79024000D02*
X183305000Y-79024000D01*
G75*
G02*
X183405000Y-79124000I0J-100000D01*
G01*
X183405000Y-80549000D01*
G75*
G02*
X183305000Y-80649000I-100000J0D01*
G01*
X183105000Y-80649000D01*
G75*
G02*
X183005000Y-80549000I0J100000D01*
G01*
X183005000Y-79124000D01*
G75*
G02*
X183105000Y-79024000I100000J0D01*
G01*
G37*
G36*
G01*
X183755000Y-79024000D02*
X183955000Y-79024000D01*
G75*
G02*
X184055000Y-79124000I0J-100000D01*
G01*
X184055000Y-80549000D01*
G75*
G02*
X183955000Y-80649000I-100000J0D01*
G01*
X183755000Y-80649000D01*
G75*
G02*
X183655000Y-80549000I0J100000D01*
G01*
X183655000Y-79124000D01*
G75*
G02*
X183755000Y-79024000I100000J0D01*
G01*
G37*
G36*
G01*
X183755000Y-74799000D02*
X183955000Y-74799000D01*
G75*
G02*
X184055000Y-74899000I0J-100000D01*
G01*
X184055000Y-76324000D01*
G75*
G02*
X183955000Y-76424000I-100000J0D01*
G01*
X183755000Y-76424000D01*
G75*
G02*
X183655000Y-76324000I0J100000D01*
G01*
X183655000Y-74899000D01*
G75*
G02*
X183755000Y-74799000I100000J0D01*
G01*
G37*
G36*
G01*
X183105000Y-74799000D02*
X183305000Y-74799000D01*
G75*
G02*
X183405000Y-74899000I0J-100000D01*
G01*
X183405000Y-76324000D01*
G75*
G02*
X183305000Y-76424000I-100000J0D01*
G01*
X183105000Y-76424000D01*
G75*
G02*
X183005000Y-76324000I0J100000D01*
G01*
X183005000Y-74899000D01*
G75*
G02*
X183105000Y-74799000I100000J0D01*
G01*
G37*
G36*
G01*
X182455000Y-74799000D02*
X182655000Y-74799000D01*
G75*
G02*
X182755000Y-74899000I0J-100000D01*
G01*
X182755000Y-76324000D01*
G75*
G02*
X182655000Y-76424000I-100000J0D01*
G01*
X182455000Y-76424000D01*
G75*
G02*
X182355000Y-76324000I0J100000D01*
G01*
X182355000Y-74899000D01*
G75*
G02*
X182455000Y-74799000I100000J0D01*
G01*
G37*
G36*
G01*
X181805000Y-74799000D02*
X182005000Y-74799000D01*
G75*
G02*
X182105000Y-74899000I0J-100000D01*
G01*
X182105000Y-76324000D01*
G75*
G02*
X182005000Y-76424000I-100000J0D01*
G01*
X181805000Y-76424000D01*
G75*
G02*
X181705000Y-76324000I0J100000D01*
G01*
X181705000Y-74899000D01*
G75*
G02*
X181805000Y-74799000I100000J0D01*
G01*
G37*
%TD*%
%TO.C,U4*%
G36*
G01*
X178894000Y-92433000D02*
X178894000Y-92733000D01*
G75*
G02*
X178744000Y-92883000I-150000J0D01*
G01*
X177294000Y-92883000D01*
G75*
G02*
X177144000Y-92733000I0J150000D01*
G01*
X177144000Y-92433000D01*
G75*
G02*
X177294000Y-92283000I150000J0D01*
G01*
X178744000Y-92283000D01*
G75*
G02*
X178894000Y-92433000I0J-150000D01*
G01*
G37*
G36*
G01*
X178894000Y-93703000D02*
X178894000Y-94003000D01*
G75*
G02*
X178744000Y-94153000I-150000J0D01*
G01*
X177294000Y-94153000D01*
G75*
G02*
X177144000Y-94003000I0J150000D01*
G01*
X177144000Y-93703000D01*
G75*
G02*
X177294000Y-93553000I150000J0D01*
G01*
X178744000Y-93553000D01*
G75*
G02*
X178894000Y-93703000I0J-150000D01*
G01*
G37*
G36*
G01*
X178894000Y-94973000D02*
X178894000Y-95273000D01*
G75*
G02*
X178744000Y-95423000I-150000J0D01*
G01*
X177294000Y-95423000D01*
G75*
G02*
X177144000Y-95273000I0J150000D01*
G01*
X177144000Y-94973000D01*
G75*
G02*
X177294000Y-94823000I150000J0D01*
G01*
X178744000Y-94823000D01*
G75*
G02*
X178894000Y-94973000I0J-150000D01*
G01*
G37*
G36*
G01*
X178894000Y-96243000D02*
X178894000Y-96543000D01*
G75*
G02*
X178744000Y-96693000I-150000J0D01*
G01*
X177294000Y-96693000D01*
G75*
G02*
X177144000Y-96543000I0J150000D01*
G01*
X177144000Y-96243000D01*
G75*
G02*
X177294000Y-96093000I150000J0D01*
G01*
X178744000Y-96093000D01*
G75*
G02*
X178894000Y-96243000I0J-150000D01*
G01*
G37*
G36*
G01*
X184044000Y-96243000D02*
X184044000Y-96543000D01*
G75*
G02*
X183894000Y-96693000I-150000J0D01*
G01*
X182444000Y-96693000D01*
G75*
G02*
X182294000Y-96543000I0J150000D01*
G01*
X182294000Y-96243000D01*
G75*
G02*
X182444000Y-96093000I150000J0D01*
G01*
X183894000Y-96093000D01*
G75*
G02*
X184044000Y-96243000I0J-150000D01*
G01*
G37*
G36*
G01*
X184044000Y-94973000D02*
X184044000Y-95273000D01*
G75*
G02*
X183894000Y-95423000I-150000J0D01*
G01*
X182444000Y-95423000D01*
G75*
G02*
X182294000Y-95273000I0J150000D01*
G01*
X182294000Y-94973000D01*
G75*
G02*
X182444000Y-94823000I150000J0D01*
G01*
X183894000Y-94823000D01*
G75*
G02*
X184044000Y-94973000I0J-150000D01*
G01*
G37*
G36*
G01*
X184044000Y-93703000D02*
X184044000Y-94003000D01*
G75*
G02*
X183894000Y-94153000I-150000J0D01*
G01*
X182444000Y-94153000D01*
G75*
G02*
X182294000Y-94003000I0J150000D01*
G01*
X182294000Y-93703000D01*
G75*
G02*
X182444000Y-93553000I150000J0D01*
G01*
X183894000Y-93553000D01*
G75*
G02*
X184044000Y-93703000I0J-150000D01*
G01*
G37*
G36*
G01*
X184044000Y-92433000D02*
X184044000Y-92733000D01*
G75*
G02*
X183894000Y-92883000I-150000J0D01*
G01*
X182444000Y-92883000D01*
G75*
G02*
X182294000Y-92733000I0J150000D01*
G01*
X182294000Y-92433000D01*
G75*
G02*
X182444000Y-92283000I150000J0D01*
G01*
X183894000Y-92283000D01*
G75*
G02*
X184044000Y-92433000I0J-150000D01*
G01*
G37*
%TD*%
%TO.C,Q4*%
G36*
G01*
X174983000Y-79224000D02*
X175283000Y-79224000D01*
G75*
G02*
X175433000Y-79374000I0J-150000D01*
G01*
X175433000Y-81024000D01*
G75*
G02*
X175283000Y-81174000I-150000J0D01*
G01*
X174983000Y-81174000D01*
G75*
G02*
X174833000Y-81024000I0J150000D01*
G01*
X174833000Y-79374000D01*
G75*
G02*
X174983000Y-79224000I150000J0D01*
G01*
G37*
G36*
G01*
X176253000Y-79224000D02*
X176553000Y-79224000D01*
G75*
G02*
X176703000Y-79374000I0J-150000D01*
G01*
X176703000Y-81024000D01*
G75*
G02*
X176553000Y-81174000I-150000J0D01*
G01*
X176253000Y-81174000D01*
G75*
G02*
X176103000Y-81024000I0J150000D01*
G01*
X176103000Y-79374000D01*
G75*
G02*
X176253000Y-79224000I150000J0D01*
G01*
G37*
G36*
G01*
X177523000Y-79224000D02*
X177823000Y-79224000D01*
G75*
G02*
X177973000Y-79374000I0J-150000D01*
G01*
X177973000Y-81024000D01*
G75*
G02*
X177823000Y-81174000I-150000J0D01*
G01*
X177523000Y-81174000D01*
G75*
G02*
X177373000Y-81024000I0J150000D01*
G01*
X177373000Y-79374000D01*
G75*
G02*
X177523000Y-79224000I150000J0D01*
G01*
G37*
G36*
G01*
X178793000Y-79224000D02*
X179093000Y-79224000D01*
G75*
G02*
X179243000Y-79374000I0J-150000D01*
G01*
X179243000Y-81024000D01*
G75*
G02*
X179093000Y-81174000I-150000J0D01*
G01*
X178793000Y-81174000D01*
G75*
G02*
X178643000Y-81024000I0J150000D01*
G01*
X178643000Y-79374000D01*
G75*
G02*
X178793000Y-79224000I150000J0D01*
G01*
G37*
G36*
G01*
X178793000Y-74274000D02*
X179093000Y-74274000D01*
G75*
G02*
X179243000Y-74424000I0J-150000D01*
G01*
X179243000Y-76074000D01*
G75*
G02*
X179093000Y-76224000I-150000J0D01*
G01*
X178793000Y-76224000D01*
G75*
G02*
X178643000Y-76074000I0J150000D01*
G01*
X178643000Y-74424000D01*
G75*
G02*
X178793000Y-74274000I150000J0D01*
G01*
G37*
G36*
G01*
X177523000Y-74274000D02*
X177823000Y-74274000D01*
G75*
G02*
X177973000Y-74424000I0J-150000D01*
G01*
X177973000Y-76074000D01*
G75*
G02*
X177823000Y-76224000I-150000J0D01*
G01*
X177523000Y-76224000D01*
G75*
G02*
X177373000Y-76074000I0J150000D01*
G01*
X177373000Y-74424000D01*
G75*
G02*
X177523000Y-74274000I150000J0D01*
G01*
G37*
G36*
G01*
X176253000Y-74274000D02*
X176553000Y-74274000D01*
G75*
G02*
X176703000Y-74424000I0J-150000D01*
G01*
X176703000Y-76074000D01*
G75*
G02*
X176553000Y-76224000I-150000J0D01*
G01*
X176253000Y-76224000D01*
G75*
G02*
X176103000Y-76074000I0J150000D01*
G01*
X176103000Y-74424000D01*
G75*
G02*
X176253000Y-74274000I150000J0D01*
G01*
G37*
G36*
G01*
X174983000Y-74274000D02*
X175283000Y-74274000D01*
G75*
G02*
X175433000Y-74424000I0J-150000D01*
G01*
X175433000Y-76074000D01*
G75*
G02*
X175283000Y-76224000I-150000J0D01*
G01*
X174983000Y-76224000D01*
G75*
G02*
X174833000Y-76074000I0J150000D01*
G01*
X174833000Y-74424000D01*
G75*
G02*
X174983000Y-74274000I150000J0D01*
G01*
G37*
%TD*%
%TO.C,C9*%
G36*
G01*
X170975000Y-81598000D02*
X171925000Y-81598000D01*
G75*
G02*
X172175000Y-81848000I0J-250000D01*
G01*
X172175000Y-82348000D01*
G75*
G02*
X171925000Y-82598000I-250000J0D01*
G01*
X170975000Y-82598000D01*
G75*
G02*
X170725000Y-82348000I0J250000D01*
G01*
X170725000Y-81848000D01*
G75*
G02*
X170975000Y-81598000I250000J0D01*
G01*
G37*
G36*
G01*
X170975000Y-79698000D02*
X171925000Y-79698000D01*
G75*
G02*
X172175000Y-79948000I0J-250000D01*
G01*
X172175000Y-80448000D01*
G75*
G02*
X171925000Y-80698000I-250000J0D01*
G01*
X170975000Y-80698000D01*
G75*
G02*
X170725000Y-80448000I0J250000D01*
G01*
X170725000Y-79948000D01*
G75*
G02*
X170975000Y-79698000I250000J0D01*
G01*
G37*
%TD*%
D15*
%TO.C,H2*%
X184306000Y-57939000D03*
X184306000Y-60479000D03*
X181766000Y-57939000D03*
X181766000Y-60479000D03*
X179226000Y-57939000D03*
X179226000Y-60479000D03*
X176686000Y-57939000D03*
X176686000Y-60479000D03*
X174146000Y-57939000D03*
X174146000Y-60479000D03*
X171606000Y-57939000D03*
X171606000Y-60479000D03*
X169066000Y-57939000D03*
X169066000Y-60479000D03*
X166526000Y-57939000D03*
X166526000Y-60479000D03*
X163986000Y-57939000D03*
X163986000Y-60479000D03*
X161446000Y-57939000D03*
X161446000Y-60479000D03*
X158906000Y-57939000D03*
X158906000Y-60479000D03*
X156366000Y-57939000D03*
X156366000Y-60479000D03*
X153826000Y-57939000D03*
X153826000Y-60479000D03*
X151286000Y-57939000D03*
X151286000Y-60479000D03*
X148746000Y-57939000D03*
X148746000Y-60479000D03*
X146206000Y-57939000D03*
X146206000Y-60479000D03*
X143666000Y-57939000D03*
X143666000Y-60479000D03*
X141126000Y-57939000D03*
X141126000Y-60479000D03*
X138586000Y-57939000D03*
X138586000Y-60479000D03*
X136046000Y-57939000D03*
X136046000Y-60479000D03*
X133506000Y-57939000D03*
X133506000Y-60479000D03*
X130966000Y-57939000D03*
X130966000Y-60479000D03*
X128426000Y-57939000D03*
X128426000Y-60479000D03*
X125886000Y-57939000D03*
X125886000Y-60479000D03*
X123346000Y-57939000D03*
X123346000Y-60479000D03*
X120806000Y-57939000D03*
D16*
X120806000Y-60479000D03*
%TD*%
D15*
%TO.C,H1*%
X184306000Y-63019000D03*
X184306000Y-65559000D03*
X181766000Y-63019000D03*
X181766000Y-65559000D03*
X179226000Y-63019000D03*
X179226000Y-65559000D03*
X176686000Y-63019000D03*
X176686000Y-65559000D03*
X174146000Y-63019000D03*
X174146000Y-65559000D03*
X171606000Y-63019000D03*
X171606000Y-65559000D03*
X169066000Y-63019000D03*
X169066000Y-65559000D03*
X166526000Y-63019000D03*
X166526000Y-65559000D03*
X163986000Y-63019000D03*
X163986000Y-65559000D03*
X161446000Y-63019000D03*
X161446000Y-65559000D03*
X158906000Y-63019000D03*
X158906000Y-65559000D03*
X156366000Y-63019000D03*
X156366000Y-65559000D03*
X153826000Y-63019000D03*
X153826000Y-65559000D03*
X151286000Y-63019000D03*
X151286000Y-65559000D03*
X148746000Y-63019000D03*
X148746000Y-65559000D03*
X146206000Y-63019000D03*
X146206000Y-65559000D03*
X143666000Y-63019000D03*
X143666000Y-65559000D03*
X141126000Y-63019000D03*
X141126000Y-65559000D03*
X138586000Y-63019000D03*
X138586000Y-65559000D03*
X136046000Y-63019000D03*
X136046000Y-65559000D03*
X133506000Y-63019000D03*
X133506000Y-65559000D03*
X130966000Y-63019000D03*
X130966000Y-65559000D03*
X128426000Y-63019000D03*
X128426000Y-65559000D03*
X125886000Y-63019000D03*
X125886000Y-65559000D03*
X123346000Y-63019000D03*
X123346000Y-65559000D03*
X120806000Y-63019000D03*
D16*
X120806000Y-65559000D03*
%TD*%
D17*
%TO.C,Q25*%
X168672000Y-124714000D03*
X170672000Y-125664000D03*
X170672000Y-123764000D03*
%TD*%
%TO.C,Q24*%
X165116000Y-122174000D03*
X167116000Y-123124000D03*
X167116000Y-121224000D03*
%TD*%
%TO.C,Q22*%
X189500000Y-133858000D03*
X191500000Y-134808000D03*
X191500000Y-132908000D03*
%TD*%
%TO.C,Q21*%
X185944000Y-131318000D03*
X187944000Y-132268000D03*
X187944000Y-130368000D03*
%TD*%
%TO.C,Q19*%
X185690000Y-123190000D03*
X187690000Y-124140000D03*
X187690000Y-122240000D03*
%TD*%
%TO.C,Q18*%
X182134000Y-120650000D03*
X184134000Y-121600000D03*
X184134000Y-119700000D03*
%TD*%
%TO.C,Q16*%
X170196000Y-134874000D03*
X172196000Y-135824000D03*
X172196000Y-133924000D03*
%TD*%
%TO.C,Q15*%
X166640000Y-132334000D03*
X168640000Y-133284000D03*
X168640000Y-131384000D03*
%TD*%
D18*
%TO.C,U2*%
X166962000Y-88392000D03*
X166962000Y-89342000D03*
X166962000Y-87442000D03*
X164762000Y-87442000D03*
X164762000Y-88392000D03*
X164762000Y-89342000D03*
%TD*%
D19*
%TO.C,U1*%
X164440000Y-74916000D03*
X164440000Y-79516000D03*
X164440000Y-77216000D03*
D20*
X158140000Y-77216000D03*
%TD*%
D21*
%TO.C,SW1*%
X194564000Y-115804000D03*
G36*
G01*
X194089000Y-114104000D02*
X195039000Y-114104000D01*
G75*
G02*
X195264000Y-114329000I0J-225000D01*
G01*
X195264000Y-114779000D01*
G75*
G02*
X195039000Y-115004000I-225000J0D01*
G01*
X194089000Y-115004000D01*
G75*
G02*
X193864000Y-114779000I0J225000D01*
G01*
X193864000Y-114329000D01*
G75*
G02*
X194089000Y-114104000I225000J0D01*
G01*
G37*
%TD*%
%TO.C,R25*%
G36*
G01*
X167913000Y-114623002D02*
X167913000Y-113722998D01*
G75*
G02*
X168162998Y-113473000I249998J0D01*
G01*
X168688002Y-113473000D01*
G75*
G02*
X168938000Y-113722998I0J-249998D01*
G01*
X168938000Y-114623002D01*
G75*
G02*
X168688002Y-114873000I-249998J0D01*
G01*
X168162998Y-114873000D01*
G75*
G02*
X167913000Y-114623002I0J249998D01*
G01*
G37*
G36*
G01*
X166088000Y-114623002D02*
X166088000Y-113722998D01*
G75*
G02*
X166337998Y-113473000I249998J0D01*
G01*
X166863002Y-113473000D01*
G75*
G02*
X167113000Y-113722998I0J-249998D01*
G01*
X167113000Y-114623002D01*
G75*
G02*
X166863002Y-114873000I-249998J0D01*
G01*
X166337998Y-114873000D01*
G75*
G02*
X166088000Y-114623002I0J249998D01*
G01*
G37*
%TD*%
%TO.C,R23*%
G36*
G01*
X163125998Y-115462000D02*
X164026002Y-115462000D01*
G75*
G02*
X164276000Y-115711998I0J-249998D01*
G01*
X164276000Y-116237002D01*
G75*
G02*
X164026002Y-116487000I-249998J0D01*
G01*
X163125998Y-116487000D01*
G75*
G02*
X162876000Y-116237002I0J249998D01*
G01*
X162876000Y-115711998D01*
G75*
G02*
X163125998Y-115462000I249998J0D01*
G01*
G37*
G36*
G01*
X163125998Y-113637000D02*
X164026002Y-113637000D01*
G75*
G02*
X164276000Y-113886998I0J-249998D01*
G01*
X164276000Y-114412002D01*
G75*
G02*
X164026002Y-114662000I-249998J0D01*
G01*
X163125998Y-114662000D01*
G75*
G02*
X162876000Y-114412002I0J249998D01*
G01*
X162876000Y-113886998D01*
G75*
G02*
X163125998Y-113637000I249998J0D01*
G01*
G37*
%TD*%
%TO.C,R12*%
G36*
G01*
X176587998Y-100222000D02*
X177488002Y-100222000D01*
G75*
G02*
X177738000Y-100471998I0J-249998D01*
G01*
X177738000Y-100997002D01*
G75*
G02*
X177488002Y-101247000I-249998J0D01*
G01*
X176587998Y-101247000D01*
G75*
G02*
X176338000Y-100997002I0J249998D01*
G01*
X176338000Y-100471998D01*
G75*
G02*
X176587998Y-100222000I249998J0D01*
G01*
G37*
G36*
G01*
X176587998Y-98397000D02*
X177488002Y-98397000D01*
G75*
G02*
X177738000Y-98646998I0J-249998D01*
G01*
X177738000Y-99172002D01*
G75*
G02*
X177488002Y-99422000I-249998J0D01*
G01*
X176587998Y-99422000D01*
G75*
G02*
X176338000Y-99172002I0J249998D01*
G01*
X176338000Y-98646998D01*
G75*
G02*
X176587998Y-98397000I249998J0D01*
G01*
G37*
%TD*%
%TO.C,R11*%
G36*
G01*
X174390000Y-97732002D02*
X174390000Y-96831998D01*
G75*
G02*
X174639998Y-96582000I249998J0D01*
G01*
X175165002Y-96582000D01*
G75*
G02*
X175415000Y-96831998I0J-249998D01*
G01*
X175415000Y-97732002D01*
G75*
G02*
X175165002Y-97982000I-249998J0D01*
G01*
X174639998Y-97982000D01*
G75*
G02*
X174390000Y-97732002I0J249998D01*
G01*
G37*
G36*
G01*
X172565000Y-97732002D02*
X172565000Y-96831998D01*
G75*
G02*
X172814998Y-96582000I249998J0D01*
G01*
X173340002Y-96582000D01*
G75*
G02*
X173590000Y-96831998I0J-249998D01*
G01*
X173590000Y-97732002D01*
G75*
G02*
X173340002Y-97982000I-249998J0D01*
G01*
X172814998Y-97982000D01*
G75*
G02*
X172565000Y-97732002I0J249998D01*
G01*
G37*
%TD*%
%TO.C,R7*%
G36*
G01*
X188868000Y-93922002D02*
X188868000Y-93021998D01*
G75*
G02*
X189117998Y-92772000I249998J0D01*
G01*
X189643002Y-92772000D01*
G75*
G02*
X189893000Y-93021998I0J-249998D01*
G01*
X189893000Y-93922002D01*
G75*
G02*
X189643002Y-94172000I-249998J0D01*
G01*
X189117998Y-94172000D01*
G75*
G02*
X188868000Y-93922002I0J249998D01*
G01*
G37*
G36*
G01*
X187043000Y-93922002D02*
X187043000Y-93021998D01*
G75*
G02*
X187292998Y-92772000I249998J0D01*
G01*
X187818002Y-92772000D01*
G75*
G02*
X188068000Y-93021998I0J-249998D01*
G01*
X188068000Y-93922002D01*
G75*
G02*
X187818002Y-94172000I-249998J0D01*
G01*
X187292998Y-94172000D01*
G75*
G02*
X187043000Y-93922002I0J249998D01*
G01*
G37*
%TD*%
%TO.C,R6*%
G36*
G01*
X186378002Y-96120000D02*
X185477998Y-96120000D01*
G75*
G02*
X185228000Y-95870002I0J249998D01*
G01*
X185228000Y-95344998D01*
G75*
G02*
X185477998Y-95095000I249998J0D01*
G01*
X186378002Y-95095000D01*
G75*
G02*
X186628000Y-95344998I0J-249998D01*
G01*
X186628000Y-95870002D01*
G75*
G02*
X186378002Y-96120000I-249998J0D01*
G01*
G37*
G36*
G01*
X186378002Y-97945000D02*
X185477998Y-97945000D01*
G75*
G02*
X185228000Y-97695002I0J249998D01*
G01*
X185228000Y-97169998D01*
G75*
G02*
X185477998Y-96920000I249998J0D01*
G01*
X186378002Y-96920000D01*
G75*
G02*
X186628000Y-97169998I0J-249998D01*
G01*
X186628000Y-97695002D01*
G75*
G02*
X186378002Y-97945000I-249998J0D01*
G01*
G37*
%TD*%
%TO.C,R5*%
G36*
G01*
X169475998Y-90720500D02*
X170376002Y-90720500D01*
G75*
G02*
X170626000Y-90970498I0J-249998D01*
G01*
X170626000Y-91495502D01*
G75*
G02*
X170376002Y-91745500I-249998J0D01*
G01*
X169475998Y-91745500D01*
G75*
G02*
X169226000Y-91495502I0J249998D01*
G01*
X169226000Y-90970498D01*
G75*
G02*
X169475998Y-90720500I249998J0D01*
G01*
G37*
G36*
G01*
X169475998Y-88895500D02*
X170376002Y-88895500D01*
G75*
G02*
X170626000Y-89145498I0J-249998D01*
G01*
X170626000Y-89670502D01*
G75*
G02*
X170376002Y-89920500I-249998J0D01*
G01*
X169475998Y-89920500D01*
G75*
G02*
X169226000Y-89670502I0J249998D01*
G01*
X169226000Y-89145498D01*
G75*
G02*
X169475998Y-88895500I249998J0D01*
G01*
G37*
%TD*%
%TO.C,R4*%
G36*
G01*
X170376002Y-86214000D02*
X169475998Y-86214000D01*
G75*
G02*
X169226000Y-85964002I0J249998D01*
G01*
X169226000Y-85438998D01*
G75*
G02*
X169475998Y-85189000I249998J0D01*
G01*
X170376002Y-85189000D01*
G75*
G02*
X170626000Y-85438998I0J-249998D01*
G01*
X170626000Y-85964002D01*
G75*
G02*
X170376002Y-86214000I-249998J0D01*
G01*
G37*
G36*
G01*
X170376002Y-88039000D02*
X169475998Y-88039000D01*
G75*
G02*
X169226000Y-87789002I0J249998D01*
G01*
X169226000Y-87263998D01*
G75*
G02*
X169475998Y-87014000I249998J0D01*
G01*
X170376002Y-87014000D01*
G75*
G02*
X170626000Y-87263998I0J-249998D01*
G01*
X170626000Y-87789002D01*
G75*
G02*
X170376002Y-88039000I-249998J0D01*
G01*
G37*
%TD*%
%TO.C,R1*%
G36*
G01*
X164962000Y-83702998D02*
X164962000Y-84953002D01*
G75*
G02*
X164712002Y-85203000I-249998J0D01*
G01*
X164086998Y-85203000D01*
G75*
G02*
X163837000Y-84953002I0J249998D01*
G01*
X163837000Y-83702998D01*
G75*
G02*
X164086998Y-83453000I249998J0D01*
G01*
X164712002Y-83453000D01*
G75*
G02*
X164962000Y-83702998I0J-249998D01*
G01*
G37*
G36*
G01*
X167887000Y-83702998D02*
X167887000Y-84953002D01*
G75*
G02*
X167637002Y-85203000I-249998J0D01*
G01*
X167011998Y-85203000D01*
G75*
G02*
X166762000Y-84953002I0J249998D01*
G01*
X166762000Y-83702998D01*
G75*
G02*
X167011998Y-83453000I249998J0D01*
G01*
X167637002Y-83453000D01*
G75*
G02*
X167887000Y-83702998I0J-249998D01*
G01*
G37*
%TD*%
%TO.C,Q9*%
G36*
G01*
X166647000Y-106958000D02*
X166347000Y-106958000D01*
G75*
G02*
X166197000Y-106808000I0J150000D01*
G01*
X166197000Y-105158000D01*
G75*
G02*
X166347000Y-105008000I150000J0D01*
G01*
X166647000Y-105008000D01*
G75*
G02*
X166797000Y-105158000I0J-150000D01*
G01*
X166797000Y-106808000D01*
G75*
G02*
X166647000Y-106958000I-150000J0D01*
G01*
G37*
G36*
G01*
X165377000Y-106958000D02*
X165077000Y-106958000D01*
G75*
G02*
X164927000Y-106808000I0J150000D01*
G01*
X164927000Y-105158000D01*
G75*
G02*
X165077000Y-105008000I150000J0D01*
G01*
X165377000Y-105008000D01*
G75*
G02*
X165527000Y-105158000I0J-150000D01*
G01*
X165527000Y-106808000D01*
G75*
G02*
X165377000Y-106958000I-150000J0D01*
G01*
G37*
G36*
G01*
X164107000Y-106958000D02*
X163807000Y-106958000D01*
G75*
G02*
X163657000Y-106808000I0J150000D01*
G01*
X163657000Y-105158000D01*
G75*
G02*
X163807000Y-105008000I150000J0D01*
G01*
X164107000Y-105008000D01*
G75*
G02*
X164257000Y-105158000I0J-150000D01*
G01*
X164257000Y-106808000D01*
G75*
G02*
X164107000Y-106958000I-150000J0D01*
G01*
G37*
G36*
G01*
X162837000Y-106958000D02*
X162537000Y-106958000D01*
G75*
G02*
X162387000Y-106808000I0J150000D01*
G01*
X162387000Y-105158000D01*
G75*
G02*
X162537000Y-105008000I150000J0D01*
G01*
X162837000Y-105008000D01*
G75*
G02*
X162987000Y-105158000I0J-150000D01*
G01*
X162987000Y-106808000D01*
G75*
G02*
X162837000Y-106958000I-150000J0D01*
G01*
G37*
G36*
G01*
X162837000Y-111908000D02*
X162537000Y-111908000D01*
G75*
G02*
X162387000Y-111758000I0J150000D01*
G01*
X162387000Y-110108000D01*
G75*
G02*
X162537000Y-109958000I150000J0D01*
G01*
X162837000Y-109958000D01*
G75*
G02*
X162987000Y-110108000I0J-150000D01*
G01*
X162987000Y-111758000D01*
G75*
G02*
X162837000Y-111908000I-150000J0D01*
G01*
G37*
G36*
G01*
X164107000Y-111908000D02*
X163807000Y-111908000D01*
G75*
G02*
X163657000Y-111758000I0J150000D01*
G01*
X163657000Y-110108000D01*
G75*
G02*
X163807000Y-109958000I150000J0D01*
G01*
X164107000Y-109958000D01*
G75*
G02*
X164257000Y-110108000I0J-150000D01*
G01*
X164257000Y-111758000D01*
G75*
G02*
X164107000Y-111908000I-150000J0D01*
G01*
G37*
G36*
G01*
X165377000Y-111908000D02*
X165077000Y-111908000D01*
G75*
G02*
X164927000Y-111758000I0J150000D01*
G01*
X164927000Y-110108000D01*
G75*
G02*
X165077000Y-109958000I150000J0D01*
G01*
X165377000Y-109958000D01*
G75*
G02*
X165527000Y-110108000I0J-150000D01*
G01*
X165527000Y-111758000D01*
G75*
G02*
X165377000Y-111908000I-150000J0D01*
G01*
G37*
G36*
G01*
X166647000Y-111908000D02*
X166347000Y-111908000D01*
G75*
G02*
X166197000Y-111758000I0J150000D01*
G01*
X166197000Y-110108000D01*
G75*
G02*
X166347000Y-109958000I150000J0D01*
G01*
X166647000Y-109958000D01*
G75*
G02*
X166797000Y-110108000I0J-150000D01*
G01*
X166797000Y-111758000D01*
G75*
G02*
X166647000Y-111908000I-150000J0D01*
G01*
G37*
%TD*%
%TO.C,Q8*%
G36*
G01*
X174013000Y-106958000D02*
X173713000Y-106958000D01*
G75*
G02*
X173563000Y-106808000I0J150000D01*
G01*
X173563000Y-105158000D01*
G75*
G02*
X173713000Y-105008000I150000J0D01*
G01*
X174013000Y-105008000D01*
G75*
G02*
X174163000Y-105158000I0J-150000D01*
G01*
X174163000Y-106808000D01*
G75*
G02*
X174013000Y-106958000I-150000J0D01*
G01*
G37*
G36*
G01*
X172743000Y-106958000D02*
X172443000Y-106958000D01*
G75*
G02*
X172293000Y-106808000I0J150000D01*
G01*
X172293000Y-105158000D01*
G75*
G02*
X172443000Y-105008000I150000J0D01*
G01*
X172743000Y-105008000D01*
G75*
G02*
X172893000Y-105158000I0J-150000D01*
G01*
X172893000Y-106808000D01*
G75*
G02*
X172743000Y-106958000I-150000J0D01*
G01*
G37*
G36*
G01*
X171473000Y-106958000D02*
X171173000Y-106958000D01*
G75*
G02*
X171023000Y-106808000I0J150000D01*
G01*
X171023000Y-105158000D01*
G75*
G02*
X171173000Y-105008000I150000J0D01*
G01*
X171473000Y-105008000D01*
G75*
G02*
X171623000Y-105158000I0J-150000D01*
G01*
X171623000Y-106808000D01*
G75*
G02*
X171473000Y-106958000I-150000J0D01*
G01*
G37*
G36*
G01*
X170203000Y-106958000D02*
X169903000Y-106958000D01*
G75*
G02*
X169753000Y-106808000I0J150000D01*
G01*
X169753000Y-105158000D01*
G75*
G02*
X169903000Y-105008000I150000J0D01*
G01*
X170203000Y-105008000D01*
G75*
G02*
X170353000Y-105158000I0J-150000D01*
G01*
X170353000Y-106808000D01*
G75*
G02*
X170203000Y-106958000I-150000J0D01*
G01*
G37*
G36*
G01*
X170203000Y-111908000D02*
X169903000Y-111908000D01*
G75*
G02*
X169753000Y-111758000I0J150000D01*
G01*
X169753000Y-110108000D01*
G75*
G02*
X169903000Y-109958000I150000J0D01*
G01*
X170203000Y-109958000D01*
G75*
G02*
X170353000Y-110108000I0J-150000D01*
G01*
X170353000Y-111758000D01*
G75*
G02*
X170203000Y-111908000I-150000J0D01*
G01*
G37*
G36*
G01*
X171473000Y-111908000D02*
X171173000Y-111908000D01*
G75*
G02*
X171023000Y-111758000I0J150000D01*
G01*
X171023000Y-110108000D01*
G75*
G02*
X171173000Y-109958000I150000J0D01*
G01*
X171473000Y-109958000D01*
G75*
G02*
X171623000Y-110108000I0J-150000D01*
G01*
X171623000Y-111758000D01*
G75*
G02*
X171473000Y-111908000I-150000J0D01*
G01*
G37*
G36*
G01*
X172743000Y-111908000D02*
X172443000Y-111908000D01*
G75*
G02*
X172293000Y-111758000I0J150000D01*
G01*
X172293000Y-110108000D01*
G75*
G02*
X172443000Y-109958000I150000J0D01*
G01*
X172743000Y-109958000D01*
G75*
G02*
X172893000Y-110108000I0J-150000D01*
G01*
X172893000Y-111758000D01*
G75*
G02*
X172743000Y-111908000I-150000J0D01*
G01*
G37*
G36*
G01*
X174013000Y-111908000D02*
X173713000Y-111908000D01*
G75*
G02*
X173563000Y-111758000I0J150000D01*
G01*
X173563000Y-110108000D01*
G75*
G02*
X173713000Y-109958000I150000J0D01*
G01*
X174013000Y-109958000D01*
G75*
G02*
X174163000Y-110108000I0J-150000D01*
G01*
X174163000Y-111758000D01*
G75*
G02*
X174013000Y-111908000I-150000J0D01*
G01*
G37*
%TD*%
D22*
%TO.C,JP3*%
X155194000Y-120142000D03*
D23*
X156464000Y-120142000D03*
%TD*%
D22*
%TO.C,JP2*%
X149098000Y-117094000D03*
D23*
X150368000Y-117094000D03*
%TD*%
%TO.C,C13*%
G36*
G01*
X159799000Y-110432000D02*
X160749000Y-110432000D01*
G75*
G02*
X160999000Y-110682000I0J-250000D01*
G01*
X160999000Y-111182000D01*
G75*
G02*
X160749000Y-111432000I-250000J0D01*
G01*
X159799000Y-111432000D01*
G75*
G02*
X159549000Y-111182000I0J250000D01*
G01*
X159549000Y-110682000D01*
G75*
G02*
X159799000Y-110432000I250000J0D01*
G01*
G37*
G36*
G01*
X159799000Y-108532000D02*
X160749000Y-108532000D01*
G75*
G02*
X160999000Y-108782000I0J-250000D01*
G01*
X160999000Y-109282000D01*
G75*
G02*
X160749000Y-109532000I-250000J0D01*
G01*
X159799000Y-109532000D01*
G75*
G02*
X159549000Y-109282000I0J250000D01*
G01*
X159549000Y-108782000D01*
G75*
G02*
X159799000Y-108532000I250000J0D01*
G01*
G37*
%TD*%
%TO.C,C7*%
G36*
G01*
X181044000Y-89883000D02*
X181044000Y-88933000D01*
G75*
G02*
X181294000Y-88683000I250000J0D01*
G01*
X181794000Y-88683000D01*
G75*
G02*
X182044000Y-88933000I0J-250000D01*
G01*
X182044000Y-89883000D01*
G75*
G02*
X181794000Y-90133000I-250000J0D01*
G01*
X181294000Y-90133000D01*
G75*
G02*
X181044000Y-89883000I0J250000D01*
G01*
G37*
G36*
G01*
X179144000Y-89883000D02*
X179144000Y-88933000D01*
G75*
G02*
X179394000Y-88683000I250000J0D01*
G01*
X179894000Y-88683000D01*
G75*
G02*
X180144000Y-88933000I0J-250000D01*
G01*
X180144000Y-89883000D01*
G75*
G02*
X179894000Y-90133000I-250000J0D01*
G01*
X179394000Y-90133000D01*
G75*
G02*
X179144000Y-89883000I0J250000D01*
G01*
G37*
%TD*%
%TO.C,C2*%
G36*
G01*
X162781000Y-90990000D02*
X161831000Y-90990000D01*
G75*
G02*
X161581000Y-90740000I0J250000D01*
G01*
X161581000Y-90240000D01*
G75*
G02*
X161831000Y-89990000I250000J0D01*
G01*
X162781000Y-89990000D01*
G75*
G02*
X163031000Y-90240000I0J-250000D01*
G01*
X163031000Y-90740000D01*
G75*
G02*
X162781000Y-90990000I-250000J0D01*
G01*
G37*
G36*
G01*
X162781000Y-92890000D02*
X161831000Y-92890000D01*
G75*
G02*
X161581000Y-92640000I0J250000D01*
G01*
X161581000Y-92140000D01*
G75*
G02*
X161831000Y-91890000I250000J0D01*
G01*
X162781000Y-91890000D01*
G75*
G02*
X163031000Y-92140000I0J-250000D01*
G01*
X163031000Y-92640000D01*
G75*
G02*
X162781000Y-92890000I-250000J0D01*
G01*
G37*
%TD*%
%TO.C,C1*%
G36*
G01*
X168369000Y-78036000D02*
X167419000Y-78036000D01*
G75*
G02*
X167169000Y-77786000I0J250000D01*
G01*
X167169000Y-77286000D01*
G75*
G02*
X167419000Y-77036000I250000J0D01*
G01*
X168369000Y-77036000D01*
G75*
G02*
X168619000Y-77286000I0J-250000D01*
G01*
X168619000Y-77786000D01*
G75*
G02*
X168369000Y-78036000I-250000J0D01*
G01*
G37*
G36*
G01*
X168369000Y-79936000D02*
X167419000Y-79936000D01*
G75*
G02*
X167169000Y-79686000I0J250000D01*
G01*
X167169000Y-79186000D01*
G75*
G02*
X167419000Y-78936000I250000J0D01*
G01*
X168369000Y-78936000D01*
G75*
G02*
X168619000Y-79186000I0J-250000D01*
G01*
X168619000Y-79686000D01*
G75*
G02*
X168369000Y-79936000I-250000J0D01*
G01*
G37*
%TD*%
D10*
%TO.C,BT4*%
X182118000Y-138902000D03*
X182118000Y-70902000D03*
%TD*%
%TO.C,BT2*%
X162052000Y-138902000D03*
X162052000Y-70902000D03*
%TD*%
%TO.C,BT3*%
X141986000Y-70902000D03*
X141986000Y-138902000D03*
%TD*%
D24*
%TO.C,Y1*%
X138938000Y-90986000D03*
X138938000Y-86106000D03*
%TD*%
D25*
%TO.C,U3*%
X124180000Y-128311000D03*
X124180000Y-128961000D03*
D26*
X123980000Y-129611000D03*
X123980000Y-130261000D03*
X127480000Y-130261000D03*
D25*
X127280000Y-129611000D03*
D26*
X127480000Y-128961000D03*
X127480000Y-128311000D03*
D27*
X125730000Y-129286000D03*
D28*
X125280000Y-129911000D03*
X126180000Y-129911000D03*
X125280000Y-128661000D03*
X126180000Y-128661000D03*
D26*
X123980000Y-128311000D03*
X123980000Y-128961000D03*
D25*
X124180000Y-129611000D03*
X124180000Y-130261000D03*
X127280000Y-130261000D03*
D26*
X127480000Y-129611000D03*
D25*
X127280000Y-128961000D03*
X127280000Y-128311000D03*
%TD*%
%TO.C,U8*%
G36*
G01*
X129293500Y-84301000D02*
X129293500Y-85626000D01*
G75*
G02*
X129218500Y-85701000I-75000J0D01*
G01*
X129068500Y-85701000D01*
G75*
G02*
X128993500Y-85626000I0J75000D01*
G01*
X128993500Y-84301000D01*
G75*
G02*
X129068500Y-84226000I75000J0D01*
G01*
X129218500Y-84226000D01*
G75*
G02*
X129293500Y-84301000I0J-75000D01*
G01*
G37*
G36*
G01*
X128793500Y-84301000D02*
X128793500Y-85626000D01*
G75*
G02*
X128718500Y-85701000I-75000J0D01*
G01*
X128568500Y-85701000D01*
G75*
G02*
X128493500Y-85626000I0J75000D01*
G01*
X128493500Y-84301000D01*
G75*
G02*
X128568500Y-84226000I75000J0D01*
G01*
X128718500Y-84226000D01*
G75*
G02*
X128793500Y-84301000I0J-75000D01*
G01*
G37*
G36*
G01*
X128293500Y-84301000D02*
X128293500Y-85626000D01*
G75*
G02*
X128218500Y-85701000I-75000J0D01*
G01*
X128068500Y-85701000D01*
G75*
G02*
X127993500Y-85626000I0J75000D01*
G01*
X127993500Y-84301000D01*
G75*
G02*
X128068500Y-84226000I75000J0D01*
G01*
X128218500Y-84226000D01*
G75*
G02*
X128293500Y-84301000I0J-75000D01*
G01*
G37*
G36*
G01*
X127793500Y-84301000D02*
X127793500Y-85626000D01*
G75*
G02*
X127718500Y-85701000I-75000J0D01*
G01*
X127568500Y-85701000D01*
G75*
G02*
X127493500Y-85626000I0J75000D01*
G01*
X127493500Y-84301000D01*
G75*
G02*
X127568500Y-84226000I75000J0D01*
G01*
X127718500Y-84226000D01*
G75*
G02*
X127793500Y-84301000I0J-75000D01*
G01*
G37*
G36*
G01*
X127293500Y-84301000D02*
X127293500Y-85626000D01*
G75*
G02*
X127218500Y-85701000I-75000J0D01*
G01*
X127068500Y-85701000D01*
G75*
G02*
X126993500Y-85626000I0J75000D01*
G01*
X126993500Y-84301000D01*
G75*
G02*
X127068500Y-84226000I75000J0D01*
G01*
X127218500Y-84226000D01*
G75*
G02*
X127293500Y-84301000I0J-75000D01*
G01*
G37*
G36*
G01*
X126793500Y-84301000D02*
X126793500Y-85626000D01*
G75*
G02*
X126718500Y-85701000I-75000J0D01*
G01*
X126568500Y-85701000D01*
G75*
G02*
X126493500Y-85626000I0J75000D01*
G01*
X126493500Y-84301000D01*
G75*
G02*
X126568500Y-84226000I75000J0D01*
G01*
X126718500Y-84226000D01*
G75*
G02*
X126793500Y-84301000I0J-75000D01*
G01*
G37*
G36*
G01*
X126293500Y-84301000D02*
X126293500Y-85626000D01*
G75*
G02*
X126218500Y-85701000I-75000J0D01*
G01*
X126068500Y-85701000D01*
G75*
G02*
X125993500Y-85626000I0J75000D01*
G01*
X125993500Y-84301000D01*
G75*
G02*
X126068500Y-84226000I75000J0D01*
G01*
X126218500Y-84226000D01*
G75*
G02*
X126293500Y-84301000I0J-75000D01*
G01*
G37*
G36*
G01*
X125793500Y-84301000D02*
X125793500Y-85626000D01*
G75*
G02*
X125718500Y-85701000I-75000J0D01*
G01*
X125568500Y-85701000D01*
G75*
G02*
X125493500Y-85626000I0J75000D01*
G01*
X125493500Y-84301000D01*
G75*
G02*
X125568500Y-84226000I75000J0D01*
G01*
X125718500Y-84226000D01*
G75*
G02*
X125793500Y-84301000I0J-75000D01*
G01*
G37*
G36*
G01*
X125293500Y-84301000D02*
X125293500Y-85626000D01*
G75*
G02*
X125218500Y-85701000I-75000J0D01*
G01*
X125068500Y-85701000D01*
G75*
G02*
X124993500Y-85626000I0J75000D01*
G01*
X124993500Y-84301000D01*
G75*
G02*
X125068500Y-84226000I75000J0D01*
G01*
X125218500Y-84226000D01*
G75*
G02*
X125293500Y-84301000I0J-75000D01*
G01*
G37*
G36*
G01*
X124793500Y-84301000D02*
X124793500Y-85626000D01*
G75*
G02*
X124718500Y-85701000I-75000J0D01*
G01*
X124568500Y-85701000D01*
G75*
G02*
X124493500Y-85626000I0J75000D01*
G01*
X124493500Y-84301000D01*
G75*
G02*
X124568500Y-84226000I75000J0D01*
G01*
X124718500Y-84226000D01*
G75*
G02*
X124793500Y-84301000I0J-75000D01*
G01*
G37*
G36*
G01*
X124293500Y-84301000D02*
X124293500Y-85626000D01*
G75*
G02*
X124218500Y-85701000I-75000J0D01*
G01*
X124068500Y-85701000D01*
G75*
G02*
X123993500Y-85626000I0J75000D01*
G01*
X123993500Y-84301000D01*
G75*
G02*
X124068500Y-84226000I75000J0D01*
G01*
X124218500Y-84226000D01*
G75*
G02*
X124293500Y-84301000I0J-75000D01*
G01*
G37*
G36*
G01*
X123793500Y-84301000D02*
X123793500Y-85626000D01*
G75*
G02*
X123718500Y-85701000I-75000J0D01*
G01*
X123568500Y-85701000D01*
G75*
G02*
X123493500Y-85626000I0J75000D01*
G01*
X123493500Y-84301000D01*
G75*
G02*
X123568500Y-84226000I75000J0D01*
G01*
X123718500Y-84226000D01*
G75*
G02*
X123793500Y-84301000I0J-75000D01*
G01*
G37*
G36*
G01*
X122968500Y-86301000D02*
X122968500Y-86451000D01*
G75*
G02*
X122893500Y-86526000I-75000J0D01*
G01*
X121568500Y-86526000D01*
G75*
G02*
X121493500Y-86451000I0J75000D01*
G01*
X121493500Y-86301000D01*
G75*
G02*
X121568500Y-86226000I75000J0D01*
G01*
X122893500Y-86226000D01*
G75*
G02*
X122968500Y-86301000I0J-75000D01*
G01*
G37*
G36*
G01*
X122968500Y-86801000D02*
X122968500Y-86951000D01*
G75*
G02*
X122893500Y-87026000I-75000J0D01*
G01*
X121568500Y-87026000D01*
G75*
G02*
X121493500Y-86951000I0J75000D01*
G01*
X121493500Y-86801000D01*
G75*
G02*
X121568500Y-86726000I75000J0D01*
G01*
X122893500Y-86726000D01*
G75*
G02*
X122968500Y-86801000I0J-75000D01*
G01*
G37*
G36*
G01*
X122968500Y-87301000D02*
X122968500Y-87451000D01*
G75*
G02*
X122893500Y-87526000I-75000J0D01*
G01*
X121568500Y-87526000D01*
G75*
G02*
X121493500Y-87451000I0J75000D01*
G01*
X121493500Y-87301000D01*
G75*
G02*
X121568500Y-87226000I75000J0D01*
G01*
X122893500Y-87226000D01*
G75*
G02*
X122968500Y-87301000I0J-75000D01*
G01*
G37*
G36*
G01*
X122968500Y-87801000D02*
X122968500Y-87951000D01*
G75*
G02*
X122893500Y-88026000I-75000J0D01*
G01*
X121568500Y-88026000D01*
G75*
G02*
X121493500Y-87951000I0J75000D01*
G01*
X121493500Y-87801000D01*
G75*
G02*
X121568500Y-87726000I75000J0D01*
G01*
X122893500Y-87726000D01*
G75*
G02*
X122968500Y-87801000I0J-75000D01*
G01*
G37*
G36*
G01*
X122968500Y-88301000D02*
X122968500Y-88451000D01*
G75*
G02*
X122893500Y-88526000I-75000J0D01*
G01*
X121568500Y-88526000D01*
G75*
G02*
X121493500Y-88451000I0J75000D01*
G01*
X121493500Y-88301000D01*
G75*
G02*
X121568500Y-88226000I75000J0D01*
G01*
X122893500Y-88226000D01*
G75*
G02*
X122968500Y-88301000I0J-75000D01*
G01*
G37*
G36*
G01*
X122968500Y-88801000D02*
X122968500Y-88951000D01*
G75*
G02*
X122893500Y-89026000I-75000J0D01*
G01*
X121568500Y-89026000D01*
G75*
G02*
X121493500Y-88951000I0J75000D01*
G01*
X121493500Y-88801000D01*
G75*
G02*
X121568500Y-88726000I75000J0D01*
G01*
X122893500Y-88726000D01*
G75*
G02*
X122968500Y-88801000I0J-75000D01*
G01*
G37*
G36*
G01*
X122968500Y-89301000D02*
X122968500Y-89451000D01*
G75*
G02*
X122893500Y-89526000I-75000J0D01*
G01*
X121568500Y-89526000D01*
G75*
G02*
X121493500Y-89451000I0J75000D01*
G01*
X121493500Y-89301000D01*
G75*
G02*
X121568500Y-89226000I75000J0D01*
G01*
X122893500Y-89226000D01*
G75*
G02*
X122968500Y-89301000I0J-75000D01*
G01*
G37*
G36*
G01*
X122968500Y-89801000D02*
X122968500Y-89951000D01*
G75*
G02*
X122893500Y-90026000I-75000J0D01*
G01*
X121568500Y-90026000D01*
G75*
G02*
X121493500Y-89951000I0J75000D01*
G01*
X121493500Y-89801000D01*
G75*
G02*
X121568500Y-89726000I75000J0D01*
G01*
X122893500Y-89726000D01*
G75*
G02*
X122968500Y-89801000I0J-75000D01*
G01*
G37*
G36*
G01*
X122968500Y-90301000D02*
X122968500Y-90451000D01*
G75*
G02*
X122893500Y-90526000I-75000J0D01*
G01*
X121568500Y-90526000D01*
G75*
G02*
X121493500Y-90451000I0J75000D01*
G01*
X121493500Y-90301000D01*
G75*
G02*
X121568500Y-90226000I75000J0D01*
G01*
X122893500Y-90226000D01*
G75*
G02*
X122968500Y-90301000I0J-75000D01*
G01*
G37*
G36*
G01*
X122968500Y-90801000D02*
X122968500Y-90951000D01*
G75*
G02*
X122893500Y-91026000I-75000J0D01*
G01*
X121568500Y-91026000D01*
G75*
G02*
X121493500Y-90951000I0J75000D01*
G01*
X121493500Y-90801000D01*
G75*
G02*
X121568500Y-90726000I75000J0D01*
G01*
X122893500Y-90726000D01*
G75*
G02*
X122968500Y-90801000I0J-75000D01*
G01*
G37*
G36*
G01*
X122968500Y-91301000D02*
X122968500Y-91451000D01*
G75*
G02*
X122893500Y-91526000I-75000J0D01*
G01*
X121568500Y-91526000D01*
G75*
G02*
X121493500Y-91451000I0J75000D01*
G01*
X121493500Y-91301000D01*
G75*
G02*
X121568500Y-91226000I75000J0D01*
G01*
X122893500Y-91226000D01*
G75*
G02*
X122968500Y-91301000I0J-75000D01*
G01*
G37*
G36*
G01*
X122968500Y-91801000D02*
X122968500Y-91951000D01*
G75*
G02*
X122893500Y-92026000I-75000J0D01*
G01*
X121568500Y-92026000D01*
G75*
G02*
X121493500Y-91951000I0J75000D01*
G01*
X121493500Y-91801000D01*
G75*
G02*
X121568500Y-91726000I75000J0D01*
G01*
X122893500Y-91726000D01*
G75*
G02*
X122968500Y-91801000I0J-75000D01*
G01*
G37*
G36*
G01*
X123793500Y-92626000D02*
X123793500Y-93951000D01*
G75*
G02*
X123718500Y-94026000I-75000J0D01*
G01*
X123568500Y-94026000D01*
G75*
G02*
X123493500Y-93951000I0J75000D01*
G01*
X123493500Y-92626000D01*
G75*
G02*
X123568500Y-92551000I75000J0D01*
G01*
X123718500Y-92551000D01*
G75*
G02*
X123793500Y-92626000I0J-75000D01*
G01*
G37*
G36*
G01*
X124293500Y-92626000D02*
X124293500Y-93951000D01*
G75*
G02*
X124218500Y-94026000I-75000J0D01*
G01*
X124068500Y-94026000D01*
G75*
G02*
X123993500Y-93951000I0J75000D01*
G01*
X123993500Y-92626000D01*
G75*
G02*
X124068500Y-92551000I75000J0D01*
G01*
X124218500Y-92551000D01*
G75*
G02*
X124293500Y-92626000I0J-75000D01*
G01*
G37*
G36*
G01*
X124793500Y-92626000D02*
X124793500Y-93951000D01*
G75*
G02*
X124718500Y-94026000I-75000J0D01*
G01*
X124568500Y-94026000D01*
G75*
G02*
X124493500Y-93951000I0J75000D01*
G01*
X124493500Y-92626000D01*
G75*
G02*
X124568500Y-92551000I75000J0D01*
G01*
X124718500Y-92551000D01*
G75*
G02*
X124793500Y-92626000I0J-75000D01*
G01*
G37*
G36*
G01*
X125293500Y-92626000D02*
X125293500Y-93951000D01*
G75*
G02*
X125218500Y-94026000I-75000J0D01*
G01*
X125068500Y-94026000D01*
G75*
G02*
X124993500Y-93951000I0J75000D01*
G01*
X124993500Y-92626000D01*
G75*
G02*
X125068500Y-92551000I75000J0D01*
G01*
X125218500Y-92551000D01*
G75*
G02*
X125293500Y-92626000I0J-75000D01*
G01*
G37*
G36*
G01*
X125793500Y-92626000D02*
X125793500Y-93951000D01*
G75*
G02*
X125718500Y-94026000I-75000J0D01*
G01*
X125568500Y-94026000D01*
G75*
G02*
X125493500Y-93951000I0J75000D01*
G01*
X125493500Y-92626000D01*
G75*
G02*
X125568500Y-92551000I75000J0D01*
G01*
X125718500Y-92551000D01*
G75*
G02*
X125793500Y-92626000I0J-75000D01*
G01*
G37*
G36*
G01*
X126293500Y-92626000D02*
X126293500Y-93951000D01*
G75*
G02*
X126218500Y-94026000I-75000J0D01*
G01*
X126068500Y-94026000D01*
G75*
G02*
X125993500Y-93951000I0J75000D01*
G01*
X125993500Y-92626000D01*
G75*
G02*
X126068500Y-92551000I75000J0D01*
G01*
X126218500Y-92551000D01*
G75*
G02*
X126293500Y-92626000I0J-75000D01*
G01*
G37*
G36*
G01*
X126793500Y-92626000D02*
X126793500Y-93951000D01*
G75*
G02*
X126718500Y-94026000I-75000J0D01*
G01*
X126568500Y-94026000D01*
G75*
G02*
X126493500Y-93951000I0J75000D01*
G01*
X126493500Y-92626000D01*
G75*
G02*
X126568500Y-92551000I75000J0D01*
G01*
X126718500Y-92551000D01*
G75*
G02*
X126793500Y-92626000I0J-75000D01*
G01*
G37*
G36*
G01*
X127293500Y-92626000D02*
X127293500Y-93951000D01*
G75*
G02*
X127218500Y-94026000I-75000J0D01*
G01*
X127068500Y-94026000D01*
G75*
G02*
X126993500Y-93951000I0J75000D01*
G01*
X126993500Y-92626000D01*
G75*
G02*
X127068500Y-92551000I75000J0D01*
G01*
X127218500Y-92551000D01*
G75*
G02*
X127293500Y-92626000I0J-75000D01*
G01*
G37*
G36*
G01*
X127793500Y-92626000D02*
X127793500Y-93951000D01*
G75*
G02*
X127718500Y-94026000I-75000J0D01*
G01*
X127568500Y-94026000D01*
G75*
G02*
X127493500Y-93951000I0J75000D01*
G01*
X127493500Y-92626000D01*
G75*
G02*
X127568500Y-92551000I75000J0D01*
G01*
X127718500Y-92551000D01*
G75*
G02*
X127793500Y-92626000I0J-75000D01*
G01*
G37*
G36*
G01*
X128293500Y-92626000D02*
X128293500Y-93951000D01*
G75*
G02*
X128218500Y-94026000I-75000J0D01*
G01*
X128068500Y-94026000D01*
G75*
G02*
X127993500Y-93951000I0J75000D01*
G01*
X127993500Y-92626000D01*
G75*
G02*
X128068500Y-92551000I75000J0D01*
G01*
X128218500Y-92551000D01*
G75*
G02*
X128293500Y-92626000I0J-75000D01*
G01*
G37*
G36*
G01*
X128793500Y-92626000D02*
X128793500Y-93951000D01*
G75*
G02*
X128718500Y-94026000I-75000J0D01*
G01*
X128568500Y-94026000D01*
G75*
G02*
X128493500Y-93951000I0J75000D01*
G01*
X128493500Y-92626000D01*
G75*
G02*
X128568500Y-92551000I75000J0D01*
G01*
X128718500Y-92551000D01*
G75*
G02*
X128793500Y-92626000I0J-75000D01*
G01*
G37*
G36*
G01*
X129293500Y-92626000D02*
X129293500Y-93951000D01*
G75*
G02*
X129218500Y-94026000I-75000J0D01*
G01*
X129068500Y-94026000D01*
G75*
G02*
X128993500Y-93951000I0J75000D01*
G01*
X128993500Y-92626000D01*
G75*
G02*
X129068500Y-92551000I75000J0D01*
G01*
X129218500Y-92551000D01*
G75*
G02*
X129293500Y-92626000I0J-75000D01*
G01*
G37*
G36*
G01*
X131293500Y-91801000D02*
X131293500Y-91951000D01*
G75*
G02*
X131218500Y-92026000I-75000J0D01*
G01*
X129893500Y-92026000D01*
G75*
G02*
X129818500Y-91951000I0J75000D01*
G01*
X129818500Y-91801000D01*
G75*
G02*
X129893500Y-91726000I75000J0D01*
G01*
X131218500Y-91726000D01*
G75*
G02*
X131293500Y-91801000I0J-75000D01*
G01*
G37*
G36*
G01*
X131293500Y-91301000D02*
X131293500Y-91451000D01*
G75*
G02*
X131218500Y-91526000I-75000J0D01*
G01*
X129893500Y-91526000D01*
G75*
G02*
X129818500Y-91451000I0J75000D01*
G01*
X129818500Y-91301000D01*
G75*
G02*
X129893500Y-91226000I75000J0D01*
G01*
X131218500Y-91226000D01*
G75*
G02*
X131293500Y-91301000I0J-75000D01*
G01*
G37*
G36*
G01*
X131293500Y-90801000D02*
X131293500Y-90951000D01*
G75*
G02*
X131218500Y-91026000I-75000J0D01*
G01*
X129893500Y-91026000D01*
G75*
G02*
X129818500Y-90951000I0J75000D01*
G01*
X129818500Y-90801000D01*
G75*
G02*
X129893500Y-90726000I75000J0D01*
G01*
X131218500Y-90726000D01*
G75*
G02*
X131293500Y-90801000I0J-75000D01*
G01*
G37*
G36*
G01*
X131293500Y-90301000D02*
X131293500Y-90451000D01*
G75*
G02*
X131218500Y-90526000I-75000J0D01*
G01*
X129893500Y-90526000D01*
G75*
G02*
X129818500Y-90451000I0J75000D01*
G01*
X129818500Y-90301000D01*
G75*
G02*
X129893500Y-90226000I75000J0D01*
G01*
X131218500Y-90226000D01*
G75*
G02*
X131293500Y-90301000I0J-75000D01*
G01*
G37*
G36*
G01*
X131293500Y-89801000D02*
X131293500Y-89951000D01*
G75*
G02*
X131218500Y-90026000I-75000J0D01*
G01*
X129893500Y-90026000D01*
G75*
G02*
X129818500Y-89951000I0J75000D01*
G01*
X129818500Y-89801000D01*
G75*
G02*
X129893500Y-89726000I75000J0D01*
G01*
X131218500Y-89726000D01*
G75*
G02*
X131293500Y-89801000I0J-75000D01*
G01*
G37*
G36*
G01*
X131293500Y-89301000D02*
X131293500Y-89451000D01*
G75*
G02*
X131218500Y-89526000I-75000J0D01*
G01*
X129893500Y-89526000D01*
G75*
G02*
X129818500Y-89451000I0J75000D01*
G01*
X129818500Y-89301000D01*
G75*
G02*
X129893500Y-89226000I75000J0D01*
G01*
X131218500Y-89226000D01*
G75*
G02*
X131293500Y-89301000I0J-75000D01*
G01*
G37*
G36*
G01*
X131293500Y-88801000D02*
X131293500Y-88951000D01*
G75*
G02*
X131218500Y-89026000I-75000J0D01*
G01*
X129893500Y-89026000D01*
G75*
G02*
X129818500Y-88951000I0J75000D01*
G01*
X129818500Y-88801000D01*
G75*
G02*
X129893500Y-88726000I75000J0D01*
G01*
X131218500Y-88726000D01*
G75*
G02*
X131293500Y-88801000I0J-75000D01*
G01*
G37*
G36*
G01*
X131293500Y-88301000D02*
X131293500Y-88451000D01*
G75*
G02*
X131218500Y-88526000I-75000J0D01*
G01*
X129893500Y-88526000D01*
G75*
G02*
X129818500Y-88451000I0J75000D01*
G01*
X129818500Y-88301000D01*
G75*
G02*
X129893500Y-88226000I75000J0D01*
G01*
X131218500Y-88226000D01*
G75*
G02*
X131293500Y-88301000I0J-75000D01*
G01*
G37*
G36*
G01*
X131293500Y-87801000D02*
X131293500Y-87951000D01*
G75*
G02*
X131218500Y-88026000I-75000J0D01*
G01*
X129893500Y-88026000D01*
G75*
G02*
X129818500Y-87951000I0J75000D01*
G01*
X129818500Y-87801000D01*
G75*
G02*
X129893500Y-87726000I75000J0D01*
G01*
X131218500Y-87726000D01*
G75*
G02*
X131293500Y-87801000I0J-75000D01*
G01*
G37*
G36*
G01*
X131293500Y-87301000D02*
X131293500Y-87451000D01*
G75*
G02*
X131218500Y-87526000I-75000J0D01*
G01*
X129893500Y-87526000D01*
G75*
G02*
X129818500Y-87451000I0J75000D01*
G01*
X129818500Y-87301000D01*
G75*
G02*
X129893500Y-87226000I75000J0D01*
G01*
X131218500Y-87226000D01*
G75*
G02*
X131293500Y-87301000I0J-75000D01*
G01*
G37*
G36*
G01*
X131293500Y-86801000D02*
X131293500Y-86951000D01*
G75*
G02*
X131218500Y-87026000I-75000J0D01*
G01*
X129893500Y-87026000D01*
G75*
G02*
X129818500Y-86951000I0J75000D01*
G01*
X129818500Y-86801000D01*
G75*
G02*
X129893500Y-86726000I75000J0D01*
G01*
X131218500Y-86726000D01*
G75*
G02*
X131293500Y-86801000I0J-75000D01*
G01*
G37*
G36*
G01*
X131293500Y-86301000D02*
X131293500Y-86451000D01*
G75*
G02*
X131218500Y-86526000I-75000J0D01*
G01*
X129893500Y-86526000D01*
G75*
G02*
X129818500Y-86451000I0J75000D01*
G01*
X129818500Y-86301000D01*
G75*
G02*
X129893500Y-86226000I75000J0D01*
G01*
X131218500Y-86226000D01*
G75*
G02*
X131293500Y-86301000I0J-75000D01*
G01*
G37*
%TD*%
D29*
%TO.C,U7*%
X182840000Y-108758000D03*
X182840000Y-109398000D03*
X182840000Y-110058000D03*
X182840000Y-110698000D03*
X185460000Y-110698000D03*
X185460000Y-110058000D03*
X185460000Y-109398000D03*
X185460000Y-108758000D03*
%TD*%
D30*
%TO.C,U6*%
X150960000Y-84038000D03*
X150960000Y-83388000D03*
X150960000Y-82728000D03*
X150960000Y-82078000D03*
X148760000Y-82078000D03*
X148760000Y-82728000D03*
X148760000Y-83388000D03*
X148760000Y-84038000D03*
%TD*%
D21*
%TO.C,SW3*%
X109474000Y-107970000D03*
G36*
G01*
X109949000Y-109670000D02*
X108999000Y-109670000D01*
G75*
G02*
X108774000Y-109445000I0J225000D01*
G01*
X108774000Y-108995000D01*
G75*
G02*
X108999000Y-108770000I225000J0D01*
G01*
X109949000Y-108770000D01*
G75*
G02*
X110174000Y-108995000I0J-225000D01*
G01*
X110174000Y-109445000D01*
G75*
G02*
X109949000Y-109670000I-225000J0D01*
G01*
G37*
%TD*%
%TO.C,SW2*%
X109474000Y-99842000D03*
G36*
G01*
X109949000Y-101542000D02*
X108999000Y-101542000D01*
G75*
G02*
X108774000Y-101317000I0J225000D01*
G01*
X108774000Y-100867000D01*
G75*
G02*
X108999000Y-100642000I225000J0D01*
G01*
X109949000Y-100642000D01*
G75*
G02*
X110174000Y-100867000I0J-225000D01*
G01*
X110174000Y-101317000D01*
G75*
G02*
X109949000Y-101542000I-225000J0D01*
G01*
G37*
%TD*%
%TO.C,R57*%
G36*
G01*
X120707998Y-145283500D02*
X121608002Y-145283500D01*
G75*
G02*
X121858000Y-145533498I0J-249998D01*
G01*
X121858000Y-146058502D01*
G75*
G02*
X121608002Y-146308500I-249998J0D01*
G01*
X120707998Y-146308500D01*
G75*
G02*
X120458000Y-146058502I0J249998D01*
G01*
X120458000Y-145533498D01*
G75*
G02*
X120707998Y-145283500I249998J0D01*
G01*
G37*
G36*
G01*
X120707998Y-143458500D02*
X121608002Y-143458500D01*
G75*
G02*
X121858000Y-143708498I0J-249998D01*
G01*
X121858000Y-144233502D01*
G75*
G02*
X121608002Y-144483500I-249998J0D01*
G01*
X120707998Y-144483500D01*
G75*
G02*
X120458000Y-144233502I0J249998D01*
G01*
X120458000Y-143708498D01*
G75*
G02*
X120707998Y-143458500I249998J0D01*
G01*
G37*
%TD*%
D12*
%TO.C,R56*%
X127762000Y-144780000D03*
D13*
X125222000Y-144780000D03*
%TD*%
%TO.C,R55*%
G36*
G01*
X172269998Y-125114000D02*
X173170002Y-125114000D01*
G75*
G02*
X173420000Y-125363998I0J-249998D01*
G01*
X173420000Y-125889002D01*
G75*
G02*
X173170002Y-126139000I-249998J0D01*
G01*
X172269998Y-126139000D01*
G75*
G02*
X172020000Y-125889002I0J249998D01*
G01*
X172020000Y-125363998D01*
G75*
G02*
X172269998Y-125114000I249998J0D01*
G01*
G37*
G36*
G01*
X172269998Y-123289000D02*
X173170002Y-123289000D01*
G75*
G02*
X173420000Y-123538998I0J-249998D01*
G01*
X173420000Y-124064002D01*
G75*
G02*
X173170002Y-124314000I-249998J0D01*
G01*
X172269998Y-124314000D01*
G75*
G02*
X172020000Y-124064002I0J249998D01*
G01*
X172020000Y-123538998D01*
G75*
G02*
X172269998Y-123289000I249998J0D01*
G01*
G37*
%TD*%
%TO.C,R54*%
G36*
G01*
X164954000Y-124517998D02*
X164954000Y-125418002D01*
G75*
G02*
X164704002Y-125668000I-249998J0D01*
G01*
X164178998Y-125668000D01*
G75*
G02*
X163929000Y-125418002I0J249998D01*
G01*
X163929000Y-124517998D01*
G75*
G02*
X164178998Y-124268000I249998J0D01*
G01*
X164704002Y-124268000D01*
G75*
G02*
X164954000Y-124517998I0J-249998D01*
G01*
G37*
G36*
G01*
X166779000Y-124517998D02*
X166779000Y-125418002D01*
G75*
G02*
X166529002Y-125668000I-249998J0D01*
G01*
X166003998Y-125668000D01*
G75*
G02*
X165754000Y-125418002I0J249998D01*
G01*
X165754000Y-124517998D01*
G75*
G02*
X166003998Y-124268000I249998J0D01*
G01*
X166529002Y-124268000D01*
G75*
G02*
X166779000Y-124517998I0J-249998D01*
G01*
G37*
%TD*%
%TO.C,R53*%
G36*
G01*
X163518002Y-121774000D02*
X162617998Y-121774000D01*
G75*
G02*
X162368000Y-121524002I0J249998D01*
G01*
X162368000Y-120998998D01*
G75*
G02*
X162617998Y-120749000I249998J0D01*
G01*
X163518002Y-120749000D01*
G75*
G02*
X163768000Y-120998998I0J-249998D01*
G01*
X163768000Y-121524002D01*
G75*
G02*
X163518002Y-121774000I-249998J0D01*
G01*
G37*
G36*
G01*
X163518002Y-123599000D02*
X162617998Y-123599000D01*
G75*
G02*
X162368000Y-123349002I0J249998D01*
G01*
X162368000Y-122823998D01*
G75*
G02*
X162617998Y-122574000I249998J0D01*
G01*
X163518002Y-122574000D01*
G75*
G02*
X163768000Y-122823998I0J-249998D01*
G01*
X163768000Y-123349002D01*
G75*
G02*
X163518002Y-123599000I-249998J0D01*
G01*
G37*
%TD*%
%TO.C,R52*%
G36*
G01*
X172269998Y-121304000D02*
X173170002Y-121304000D01*
G75*
G02*
X173420000Y-121553998I0J-249998D01*
G01*
X173420000Y-122079002D01*
G75*
G02*
X173170002Y-122329000I-249998J0D01*
G01*
X172269998Y-122329000D01*
G75*
G02*
X172020000Y-122079002I0J249998D01*
G01*
X172020000Y-121553998D01*
G75*
G02*
X172269998Y-121304000I249998J0D01*
G01*
G37*
G36*
G01*
X172269998Y-119479000D02*
X173170002Y-119479000D01*
G75*
G02*
X173420000Y-119728998I0J-249998D01*
G01*
X173420000Y-120254002D01*
G75*
G02*
X173170002Y-120504000I-249998J0D01*
G01*
X172269998Y-120504000D01*
G75*
G02*
X172020000Y-120254002I0J249998D01*
G01*
X172020000Y-119728998D01*
G75*
G02*
X172269998Y-119479000I249998J0D01*
G01*
G37*
%TD*%
%TO.C,R51*%
G36*
G01*
X162160000Y-118675998D02*
X162160000Y-119576002D01*
G75*
G02*
X161910002Y-119826000I-249998J0D01*
G01*
X161384998Y-119826000D01*
G75*
G02*
X161135000Y-119576002I0J249998D01*
G01*
X161135000Y-118675998D01*
G75*
G02*
X161384998Y-118426000I249998J0D01*
G01*
X161910002Y-118426000D01*
G75*
G02*
X162160000Y-118675998I0J-249998D01*
G01*
G37*
G36*
G01*
X163985000Y-118675998D02*
X163985000Y-119576002D01*
G75*
G02*
X163735002Y-119826000I-249998J0D01*
G01*
X163209998Y-119826000D01*
G75*
G02*
X162960000Y-119576002I0J249998D01*
G01*
X162960000Y-118675998D01*
G75*
G02*
X163209998Y-118426000I249998J0D01*
G01*
X163735002Y-118426000D01*
G75*
G02*
X163985000Y-118675998I0J-249998D01*
G01*
G37*
%TD*%
%TO.C,R50*%
G36*
G01*
X180905998Y-145180000D02*
X181806002Y-145180000D01*
G75*
G02*
X182056000Y-145429998I0J-249998D01*
G01*
X182056000Y-145955002D01*
G75*
G02*
X181806002Y-146205000I-249998J0D01*
G01*
X180905998Y-146205000D01*
G75*
G02*
X180656000Y-145955002I0J249998D01*
G01*
X180656000Y-145429998D01*
G75*
G02*
X180905998Y-145180000I249998J0D01*
G01*
G37*
G36*
G01*
X180905998Y-143355000D02*
X181806002Y-143355000D01*
G75*
G02*
X182056000Y-143604998I0J-249998D01*
G01*
X182056000Y-144130002D01*
G75*
G02*
X181806002Y-144380000I-249998J0D01*
G01*
X180905998Y-144380000D01*
G75*
G02*
X180656000Y-144130002I0J249998D01*
G01*
X180656000Y-143604998D01*
G75*
G02*
X180905998Y-143355000I249998J0D01*
G01*
G37*
%TD*%
D12*
%TO.C,R49*%
X187198000Y-144780000D03*
D13*
X184658000Y-144780000D03*
%TD*%
%TO.C,R48*%
G36*
G01*
X193097998Y-134258000D02*
X193998002Y-134258000D01*
G75*
G02*
X194248000Y-134507998I0J-249998D01*
G01*
X194248000Y-135033002D01*
G75*
G02*
X193998002Y-135283000I-249998J0D01*
G01*
X193097998Y-135283000D01*
G75*
G02*
X192848000Y-135033002I0J249998D01*
G01*
X192848000Y-134507998D01*
G75*
G02*
X193097998Y-134258000I249998J0D01*
G01*
G37*
G36*
G01*
X193097998Y-132433000D02*
X193998002Y-132433000D01*
G75*
G02*
X194248000Y-132682998I0J-249998D01*
G01*
X194248000Y-133208002D01*
G75*
G02*
X193998002Y-133458000I-249998J0D01*
G01*
X193097998Y-133458000D01*
G75*
G02*
X192848000Y-133208002I0J249998D01*
G01*
X192848000Y-132682998D01*
G75*
G02*
X193097998Y-132433000I249998J0D01*
G01*
G37*
%TD*%
%TO.C,R47*%
G36*
G01*
X186290000Y-133661998D02*
X186290000Y-134562002D01*
G75*
G02*
X186040002Y-134812000I-249998J0D01*
G01*
X185514998Y-134812000D01*
G75*
G02*
X185265000Y-134562002I0J249998D01*
G01*
X185265000Y-133661998D01*
G75*
G02*
X185514998Y-133412000I249998J0D01*
G01*
X186040002Y-133412000D01*
G75*
G02*
X186290000Y-133661998I0J-249998D01*
G01*
G37*
G36*
G01*
X188115000Y-133661998D02*
X188115000Y-134562002D01*
G75*
G02*
X187865002Y-134812000I-249998J0D01*
G01*
X187339998Y-134812000D01*
G75*
G02*
X187090000Y-134562002I0J249998D01*
G01*
X187090000Y-133661998D01*
G75*
G02*
X187339998Y-133412000I249998J0D01*
G01*
X187865002Y-133412000D01*
G75*
G02*
X188115000Y-133661998I0J-249998D01*
G01*
G37*
%TD*%
%TO.C,R46*%
G36*
G01*
X184346002Y-130918000D02*
X183445998Y-130918000D01*
G75*
G02*
X183196000Y-130668002I0J249998D01*
G01*
X183196000Y-130142998D01*
G75*
G02*
X183445998Y-129893000I249998J0D01*
G01*
X184346002Y-129893000D01*
G75*
G02*
X184596000Y-130142998I0J-249998D01*
G01*
X184596000Y-130668002D01*
G75*
G02*
X184346002Y-130918000I-249998J0D01*
G01*
G37*
G36*
G01*
X184346002Y-132743000D02*
X183445998Y-132743000D01*
G75*
G02*
X183196000Y-132493002I0J249998D01*
G01*
X183196000Y-131967998D01*
G75*
G02*
X183445998Y-131718000I249998J0D01*
G01*
X184346002Y-131718000D01*
G75*
G02*
X184596000Y-131967998I0J-249998D01*
G01*
X184596000Y-132493002D01*
G75*
G02*
X184346002Y-132743000I-249998J0D01*
G01*
G37*
%TD*%
%TO.C,R45*%
G36*
G01*
X193097998Y-130448000D02*
X193998002Y-130448000D01*
G75*
G02*
X194248000Y-130697998I0J-249998D01*
G01*
X194248000Y-131223002D01*
G75*
G02*
X193998002Y-131473000I-249998J0D01*
G01*
X193097998Y-131473000D01*
G75*
G02*
X192848000Y-131223002I0J249998D01*
G01*
X192848000Y-130697998D01*
G75*
G02*
X193097998Y-130448000I249998J0D01*
G01*
G37*
G36*
G01*
X193097998Y-128623000D02*
X193998002Y-128623000D01*
G75*
G02*
X194248000Y-128872998I0J-249998D01*
G01*
X194248000Y-129398002D01*
G75*
G02*
X193998002Y-129648000I-249998J0D01*
G01*
X193097998Y-129648000D01*
G75*
G02*
X192848000Y-129398002I0J249998D01*
G01*
X192848000Y-128872998D01*
G75*
G02*
X193097998Y-128623000I249998J0D01*
G01*
G37*
%TD*%
%TO.C,R44*%
G36*
G01*
X183242000Y-127819998D02*
X183242000Y-128720002D01*
G75*
G02*
X182992002Y-128970000I-249998J0D01*
G01*
X182466998Y-128970000D01*
G75*
G02*
X182217000Y-128720002I0J249998D01*
G01*
X182217000Y-127819998D01*
G75*
G02*
X182466998Y-127570000I249998J0D01*
G01*
X182992002Y-127570000D01*
G75*
G02*
X183242000Y-127819998I0J-249998D01*
G01*
G37*
G36*
G01*
X185067000Y-127819998D02*
X185067000Y-128720002D01*
G75*
G02*
X184817002Y-128970000I-249998J0D01*
G01*
X184291998Y-128970000D01*
G75*
G02*
X184042000Y-128720002I0J249998D01*
G01*
X184042000Y-127819998D01*
G75*
G02*
X184291998Y-127570000I249998J0D01*
G01*
X184817002Y-127570000D01*
G75*
G02*
X185067000Y-127819998I0J-249998D01*
G01*
G37*
%TD*%
%TO.C,R43*%
G36*
G01*
X160839998Y-145180000D02*
X161740002Y-145180000D01*
G75*
G02*
X161990000Y-145429998I0J-249998D01*
G01*
X161990000Y-145955002D01*
G75*
G02*
X161740002Y-146205000I-249998J0D01*
G01*
X160839998Y-146205000D01*
G75*
G02*
X160590000Y-145955002I0J249998D01*
G01*
X160590000Y-145429998D01*
G75*
G02*
X160839998Y-145180000I249998J0D01*
G01*
G37*
G36*
G01*
X160839998Y-143355000D02*
X161740002Y-143355000D01*
G75*
G02*
X161990000Y-143604998I0J-249998D01*
G01*
X161990000Y-144130002D01*
G75*
G02*
X161740002Y-144380000I-249998J0D01*
G01*
X160839998Y-144380000D01*
G75*
G02*
X160590000Y-144130002I0J249998D01*
G01*
X160590000Y-143604998D01*
G75*
G02*
X160839998Y-143355000I249998J0D01*
G01*
G37*
%TD*%
D12*
%TO.C,R42*%
X167640000Y-144780000D03*
D13*
X165100000Y-144780000D03*
%TD*%
%TO.C,R41*%
G36*
G01*
X189033998Y-123590000D02*
X189934002Y-123590000D01*
G75*
G02*
X190184000Y-123839998I0J-249998D01*
G01*
X190184000Y-124365002D01*
G75*
G02*
X189934002Y-124615000I-249998J0D01*
G01*
X189033998Y-124615000D01*
G75*
G02*
X188784000Y-124365002I0J249998D01*
G01*
X188784000Y-123839998D01*
G75*
G02*
X189033998Y-123590000I249998J0D01*
G01*
G37*
G36*
G01*
X189033998Y-121765000D02*
X189934002Y-121765000D01*
G75*
G02*
X190184000Y-122014998I0J-249998D01*
G01*
X190184000Y-122540002D01*
G75*
G02*
X189934002Y-122790000I-249998J0D01*
G01*
X189033998Y-122790000D01*
G75*
G02*
X188784000Y-122540002I0J249998D01*
G01*
X188784000Y-122014998D01*
G75*
G02*
X189033998Y-121765000I249998J0D01*
G01*
G37*
%TD*%
%TO.C,R40*%
G36*
G01*
X182480000Y-122993998D02*
X182480000Y-123894002D01*
G75*
G02*
X182230002Y-124144000I-249998J0D01*
G01*
X181704998Y-124144000D01*
G75*
G02*
X181455000Y-123894002I0J249998D01*
G01*
X181455000Y-122993998D01*
G75*
G02*
X181704998Y-122744000I249998J0D01*
G01*
X182230002Y-122744000D01*
G75*
G02*
X182480000Y-122993998I0J-249998D01*
G01*
G37*
G36*
G01*
X184305000Y-122993998D02*
X184305000Y-123894002D01*
G75*
G02*
X184055002Y-124144000I-249998J0D01*
G01*
X183529998Y-124144000D01*
G75*
G02*
X183280000Y-123894002I0J249998D01*
G01*
X183280000Y-122993998D01*
G75*
G02*
X183529998Y-122744000I249998J0D01*
G01*
X184055002Y-122744000D01*
G75*
G02*
X184305000Y-122993998I0J-249998D01*
G01*
G37*
%TD*%
%TO.C,R39*%
G36*
G01*
X180790002Y-120250000D02*
X179889998Y-120250000D01*
G75*
G02*
X179640000Y-120000002I0J249998D01*
G01*
X179640000Y-119474998D01*
G75*
G02*
X179889998Y-119225000I249998J0D01*
G01*
X180790002Y-119225000D01*
G75*
G02*
X181040000Y-119474998I0J-249998D01*
G01*
X181040000Y-120000002D01*
G75*
G02*
X180790002Y-120250000I-249998J0D01*
G01*
G37*
G36*
G01*
X180790002Y-122075000D02*
X179889998Y-122075000D01*
G75*
G02*
X179640000Y-121825002I0J249998D01*
G01*
X179640000Y-121299998D01*
G75*
G02*
X179889998Y-121050000I249998J0D01*
G01*
X180790002Y-121050000D01*
G75*
G02*
X181040000Y-121299998I0J-249998D01*
G01*
X181040000Y-121825002D01*
G75*
G02*
X180790002Y-122075000I-249998J0D01*
G01*
G37*
%TD*%
%TO.C,R38*%
G36*
G01*
X189033998Y-119780000D02*
X189934002Y-119780000D01*
G75*
G02*
X190184000Y-120029998I0J-249998D01*
G01*
X190184000Y-120555002D01*
G75*
G02*
X189934002Y-120805000I-249998J0D01*
G01*
X189033998Y-120805000D01*
G75*
G02*
X188784000Y-120555002I0J249998D01*
G01*
X188784000Y-120029998D01*
G75*
G02*
X189033998Y-119780000I249998J0D01*
G01*
G37*
G36*
G01*
X189033998Y-117955000D02*
X189934002Y-117955000D01*
G75*
G02*
X190184000Y-118204998I0J-249998D01*
G01*
X190184000Y-118730002D01*
G75*
G02*
X189934002Y-118980000I-249998J0D01*
G01*
X189033998Y-118980000D01*
G75*
G02*
X188784000Y-118730002I0J249998D01*
G01*
X188784000Y-118204998D01*
G75*
G02*
X189033998Y-117955000I249998J0D01*
G01*
G37*
%TD*%
%TO.C,R37*%
G36*
G01*
X179432000Y-117151998D02*
X179432000Y-118052002D01*
G75*
G02*
X179182002Y-118302000I-249998J0D01*
G01*
X178656998Y-118302000D01*
G75*
G02*
X178407000Y-118052002I0J249998D01*
G01*
X178407000Y-117151998D01*
G75*
G02*
X178656998Y-116902000I249998J0D01*
G01*
X179182002Y-116902000D01*
G75*
G02*
X179432000Y-117151998I0J-249998D01*
G01*
G37*
G36*
G01*
X181257000Y-117151998D02*
X181257000Y-118052002D01*
G75*
G02*
X181007002Y-118302000I-249998J0D01*
G01*
X180481998Y-118302000D01*
G75*
G02*
X180232000Y-118052002I0J249998D01*
G01*
X180232000Y-117151998D01*
G75*
G02*
X180481998Y-116902000I249998J0D01*
G01*
X181007002Y-116902000D01*
G75*
G02*
X181257000Y-117151998I0J-249998D01*
G01*
G37*
%TD*%
%TO.C,R36*%
G36*
G01*
X140773998Y-145283500D02*
X141674002Y-145283500D01*
G75*
G02*
X141924000Y-145533498I0J-249998D01*
G01*
X141924000Y-146058502D01*
G75*
G02*
X141674002Y-146308500I-249998J0D01*
G01*
X140773998Y-146308500D01*
G75*
G02*
X140524000Y-146058502I0J249998D01*
G01*
X140524000Y-145533498D01*
G75*
G02*
X140773998Y-145283500I249998J0D01*
G01*
G37*
G36*
G01*
X140773998Y-143458500D02*
X141674002Y-143458500D01*
G75*
G02*
X141924000Y-143708498I0J-249998D01*
G01*
X141924000Y-144233502D01*
G75*
G02*
X141674002Y-144483500I-249998J0D01*
G01*
X140773998Y-144483500D01*
G75*
G02*
X140524000Y-144233502I0J249998D01*
G01*
X140524000Y-143708498D01*
G75*
G02*
X140773998Y-143458500I249998J0D01*
G01*
G37*
%TD*%
D12*
%TO.C,R35*%
X147828000Y-144780000D03*
D13*
X145288000Y-144780000D03*
%TD*%
%TO.C,R34*%
G36*
G01*
X173793998Y-135274000D02*
X174694002Y-135274000D01*
G75*
G02*
X174944000Y-135523998I0J-249998D01*
G01*
X174944000Y-136049002D01*
G75*
G02*
X174694002Y-136299000I-249998J0D01*
G01*
X173793998Y-136299000D01*
G75*
G02*
X173544000Y-136049002I0J249998D01*
G01*
X173544000Y-135523998D01*
G75*
G02*
X173793998Y-135274000I249998J0D01*
G01*
G37*
G36*
G01*
X173793998Y-133449000D02*
X174694002Y-133449000D01*
G75*
G02*
X174944000Y-133698998I0J-249998D01*
G01*
X174944000Y-134224002D01*
G75*
G02*
X174694002Y-134474000I-249998J0D01*
G01*
X173793998Y-134474000D01*
G75*
G02*
X173544000Y-134224002I0J249998D01*
G01*
X173544000Y-133698998D01*
G75*
G02*
X173793998Y-133449000I249998J0D01*
G01*
G37*
%TD*%
%TO.C,R33*%
G36*
G01*
X166986000Y-134677998D02*
X166986000Y-135578002D01*
G75*
G02*
X166736002Y-135828000I-249998J0D01*
G01*
X166210998Y-135828000D01*
G75*
G02*
X165961000Y-135578002I0J249998D01*
G01*
X165961000Y-134677998D01*
G75*
G02*
X166210998Y-134428000I249998J0D01*
G01*
X166736002Y-134428000D01*
G75*
G02*
X166986000Y-134677998I0J-249998D01*
G01*
G37*
G36*
G01*
X168811000Y-134677998D02*
X168811000Y-135578002D01*
G75*
G02*
X168561002Y-135828000I-249998J0D01*
G01*
X168035998Y-135828000D01*
G75*
G02*
X167786000Y-135578002I0J249998D01*
G01*
X167786000Y-134677998D01*
G75*
G02*
X168035998Y-134428000I249998J0D01*
G01*
X168561002Y-134428000D01*
G75*
G02*
X168811000Y-134677998I0J-249998D01*
G01*
G37*
%TD*%
%TO.C,R32*%
G36*
G01*
X165296002Y-131934000D02*
X164395998Y-131934000D01*
G75*
G02*
X164146000Y-131684002I0J249998D01*
G01*
X164146000Y-131158998D01*
G75*
G02*
X164395998Y-130909000I249998J0D01*
G01*
X165296002Y-130909000D01*
G75*
G02*
X165546000Y-131158998I0J-249998D01*
G01*
X165546000Y-131684002D01*
G75*
G02*
X165296002Y-131934000I-249998J0D01*
G01*
G37*
G36*
G01*
X165296002Y-133759000D02*
X164395998Y-133759000D01*
G75*
G02*
X164146000Y-133509002I0J249998D01*
G01*
X164146000Y-132983998D01*
G75*
G02*
X164395998Y-132734000I249998J0D01*
G01*
X165296002Y-132734000D01*
G75*
G02*
X165546000Y-132983998I0J-249998D01*
G01*
X165546000Y-133509002D01*
G75*
G02*
X165296002Y-133759000I-249998J0D01*
G01*
G37*
%TD*%
%TO.C,R31*%
G36*
G01*
X173793998Y-131464000D02*
X174694002Y-131464000D01*
G75*
G02*
X174944000Y-131713998I0J-249998D01*
G01*
X174944000Y-132239002D01*
G75*
G02*
X174694002Y-132489000I-249998J0D01*
G01*
X173793998Y-132489000D01*
G75*
G02*
X173544000Y-132239002I0J249998D01*
G01*
X173544000Y-131713998D01*
G75*
G02*
X173793998Y-131464000I249998J0D01*
G01*
G37*
G36*
G01*
X173793998Y-129639000D02*
X174694002Y-129639000D01*
G75*
G02*
X174944000Y-129888998I0J-249998D01*
G01*
X174944000Y-130414002D01*
G75*
G02*
X174694002Y-130664000I-249998J0D01*
G01*
X173793998Y-130664000D01*
G75*
G02*
X173544000Y-130414002I0J249998D01*
G01*
X173544000Y-129888998D01*
G75*
G02*
X173793998Y-129639000I249998J0D01*
G01*
G37*
%TD*%
%TO.C,R30*%
G36*
G01*
X176726002Y-127362000D02*
X175825998Y-127362000D01*
G75*
G02*
X175576000Y-127112002I0J249998D01*
G01*
X175576000Y-126586998D01*
G75*
G02*
X175825998Y-126337000I249998J0D01*
G01*
X176726002Y-126337000D01*
G75*
G02*
X176976000Y-126586998I0J-249998D01*
G01*
X176976000Y-127112002D01*
G75*
G02*
X176726002Y-127362000I-249998J0D01*
G01*
G37*
G36*
G01*
X176726002Y-129187000D02*
X175825998Y-129187000D01*
G75*
G02*
X175576000Y-128937002I0J249998D01*
G01*
X175576000Y-128411998D01*
G75*
G02*
X175825998Y-128162000I249998J0D01*
G01*
X176726002Y-128162000D01*
G75*
G02*
X176976000Y-128411998I0J-249998D01*
G01*
X176976000Y-128937002D01*
G75*
G02*
X176726002Y-129187000I-249998J0D01*
G01*
G37*
%TD*%
%TO.C,R10*%
G36*
G01*
X140011998Y-124098000D02*
X140912002Y-124098000D01*
G75*
G02*
X141162000Y-124347998I0J-249998D01*
G01*
X141162000Y-124873002D01*
G75*
G02*
X140912002Y-125123000I-249998J0D01*
G01*
X140011998Y-125123000D01*
G75*
G02*
X139762000Y-124873002I0J249998D01*
G01*
X139762000Y-124347998D01*
G75*
G02*
X140011998Y-124098000I249998J0D01*
G01*
G37*
G36*
G01*
X140011998Y-122273000D02*
X140912002Y-122273000D01*
G75*
G02*
X141162000Y-122522998I0J-249998D01*
G01*
X141162000Y-123048002D01*
G75*
G02*
X140912002Y-123298000I-249998J0D01*
G01*
X140011998Y-123298000D01*
G75*
G02*
X139762000Y-123048002I0J249998D01*
G01*
X139762000Y-122522998D01*
G75*
G02*
X140011998Y-122273000I249998J0D01*
G01*
G37*
%TD*%
%TO.C,R9*%
G36*
G01*
X136455998Y-124098000D02*
X137356002Y-124098000D01*
G75*
G02*
X137606000Y-124347998I0J-249998D01*
G01*
X137606000Y-124873002D01*
G75*
G02*
X137356002Y-125123000I-249998J0D01*
G01*
X136455998Y-125123000D01*
G75*
G02*
X136206000Y-124873002I0J249998D01*
G01*
X136206000Y-124347998D01*
G75*
G02*
X136455998Y-124098000I249998J0D01*
G01*
G37*
G36*
G01*
X136455998Y-122273000D02*
X137356002Y-122273000D01*
G75*
G02*
X137606000Y-122522998I0J-249998D01*
G01*
X137606000Y-123048002D01*
G75*
G02*
X137356002Y-123298000I-249998J0D01*
G01*
X136455998Y-123298000D01*
G75*
G02*
X136206000Y-123048002I0J249998D01*
G01*
X136206000Y-122522998D01*
G75*
G02*
X136455998Y-122273000I249998J0D01*
G01*
G37*
%TD*%
%TO.C,R8*%
G36*
G01*
X127057998Y-125368000D02*
X127958002Y-125368000D01*
G75*
G02*
X128208000Y-125617998I0J-249998D01*
G01*
X128208000Y-126143002D01*
G75*
G02*
X127958002Y-126393000I-249998J0D01*
G01*
X127057998Y-126393000D01*
G75*
G02*
X126808000Y-126143002I0J249998D01*
G01*
X126808000Y-125617998D01*
G75*
G02*
X127057998Y-125368000I249998J0D01*
G01*
G37*
G36*
G01*
X127057998Y-123543000D02*
X127958002Y-123543000D01*
G75*
G02*
X128208000Y-123792998I0J-249998D01*
G01*
X128208000Y-124318002D01*
G75*
G02*
X127958002Y-124568000I-249998J0D01*
G01*
X127057998Y-124568000D01*
G75*
G02*
X126808000Y-124318002I0J249998D01*
G01*
X126808000Y-123792998D01*
G75*
G02*
X127057998Y-123543000I249998J0D01*
G01*
G37*
%TD*%
%TO.C,R3*%
G36*
G01*
X122993998Y-125368000D02*
X123894002Y-125368000D01*
G75*
G02*
X124144000Y-125617998I0J-249998D01*
G01*
X124144000Y-126143002D01*
G75*
G02*
X123894002Y-126393000I-249998J0D01*
G01*
X122993998Y-126393000D01*
G75*
G02*
X122744000Y-126143002I0J249998D01*
G01*
X122744000Y-125617998D01*
G75*
G02*
X122993998Y-125368000I249998J0D01*
G01*
G37*
G36*
G01*
X122993998Y-123543000D02*
X123894002Y-123543000D01*
G75*
G02*
X124144000Y-123792998I0J-249998D01*
G01*
X124144000Y-124318002D01*
G75*
G02*
X123894002Y-124568000I-249998J0D01*
G01*
X122993998Y-124568000D01*
G75*
G02*
X122744000Y-124318002I0J249998D01*
G01*
X122744000Y-123792998D01*
G75*
G02*
X122993998Y-123543000I249998J0D01*
G01*
G37*
%TD*%
%TO.C,R2*%
G36*
G01*
X119437998Y-127400000D02*
X120338002Y-127400000D01*
G75*
G02*
X120588000Y-127649998I0J-249998D01*
G01*
X120588000Y-128175002D01*
G75*
G02*
X120338002Y-128425000I-249998J0D01*
G01*
X119437998Y-128425000D01*
G75*
G02*
X119188000Y-128175002I0J249998D01*
G01*
X119188000Y-127649998D01*
G75*
G02*
X119437998Y-127400000I249998J0D01*
G01*
G37*
G36*
G01*
X119437998Y-125575000D02*
X120338002Y-125575000D01*
G75*
G02*
X120588000Y-125824998I0J-249998D01*
G01*
X120588000Y-126350002D01*
G75*
G02*
X120338002Y-126600000I-249998J0D01*
G01*
X119437998Y-126600000D01*
G75*
G02*
X119188000Y-126350002I0J249998D01*
G01*
X119188000Y-125824998D01*
G75*
G02*
X119437998Y-125575000I249998J0D01*
G01*
G37*
%TD*%
%TO.C,R24*%
G36*
G01*
X137052000Y-96208002D02*
X137052000Y-95307998D01*
G75*
G02*
X137301998Y-95058000I249998J0D01*
G01*
X137827002Y-95058000D01*
G75*
G02*
X138077000Y-95307998I0J-249998D01*
G01*
X138077000Y-96208002D01*
G75*
G02*
X137827002Y-96458000I-249998J0D01*
G01*
X137301998Y-96458000D01*
G75*
G02*
X137052000Y-96208002I0J249998D01*
G01*
G37*
G36*
G01*
X135227000Y-96208002D02*
X135227000Y-95307998D01*
G75*
G02*
X135476998Y-95058000I249998J0D01*
G01*
X136002002Y-95058000D01*
G75*
G02*
X136252000Y-95307998I0J-249998D01*
G01*
X136252000Y-96208002D01*
G75*
G02*
X136002002Y-96458000I-249998J0D01*
G01*
X135476998Y-96458000D01*
G75*
G02*
X135227000Y-96208002I0J249998D01*
G01*
G37*
%TD*%
%TO.C,R18*%
G36*
G01*
X187255998Y-108350000D02*
X188156002Y-108350000D01*
G75*
G02*
X188406000Y-108599998I0J-249998D01*
G01*
X188406000Y-109125002D01*
G75*
G02*
X188156002Y-109375000I-249998J0D01*
G01*
X187255998Y-109375000D01*
G75*
G02*
X187006000Y-109125002I0J249998D01*
G01*
X187006000Y-108599998D01*
G75*
G02*
X187255998Y-108350000I249998J0D01*
G01*
G37*
G36*
G01*
X187255998Y-106525000D02*
X188156002Y-106525000D01*
G75*
G02*
X188406000Y-106774998I0J-249998D01*
G01*
X188406000Y-107300002D01*
G75*
G02*
X188156002Y-107550000I-249998J0D01*
G01*
X187255998Y-107550000D01*
G75*
G02*
X187006000Y-107300002I0J249998D01*
G01*
X187006000Y-106774998D01*
G75*
G02*
X187255998Y-106525000I249998J0D01*
G01*
G37*
%TD*%
%TO.C,R16*%
G36*
G01*
X187560000Y-112833998D02*
X187560000Y-113734002D01*
G75*
G02*
X187310002Y-113984000I-249998J0D01*
G01*
X186784998Y-113984000D01*
G75*
G02*
X186535000Y-113734002I0J249998D01*
G01*
X186535000Y-112833998D01*
G75*
G02*
X186784998Y-112584000I249998J0D01*
G01*
X187310002Y-112584000D01*
G75*
G02*
X187560000Y-112833998I0J-249998D01*
G01*
G37*
G36*
G01*
X189385000Y-112833998D02*
X189385000Y-113734002D01*
G75*
G02*
X189135002Y-113984000I-249998J0D01*
G01*
X188609998Y-113984000D01*
G75*
G02*
X188360000Y-113734002I0J249998D01*
G01*
X188360000Y-112833998D01*
G75*
G02*
X188609998Y-112584000I249998J0D01*
G01*
X189135002Y-112584000D01*
G75*
G02*
X189385000Y-112833998I0J-249998D01*
G01*
G37*
%TD*%
%TO.C,R15*%
G36*
G01*
X190303998Y-110890000D02*
X191204002Y-110890000D01*
G75*
G02*
X191454000Y-111139998I0J-249998D01*
G01*
X191454000Y-111665002D01*
G75*
G02*
X191204002Y-111915000I-249998J0D01*
G01*
X190303998Y-111915000D01*
G75*
G02*
X190054000Y-111665002I0J249998D01*
G01*
X190054000Y-111139998D01*
G75*
G02*
X190303998Y-110890000I249998J0D01*
G01*
G37*
G36*
G01*
X190303998Y-109065000D02*
X191204002Y-109065000D01*
G75*
G02*
X191454000Y-109314998I0J-249998D01*
G01*
X191454000Y-109840002D01*
G75*
G02*
X191204002Y-110090000I-249998J0D01*
G01*
X190303998Y-110090000D01*
G75*
G02*
X190054000Y-109840002I0J249998D01*
G01*
X190054000Y-109314998D01*
G75*
G02*
X190303998Y-109065000I249998J0D01*
G01*
G37*
%TD*%
%TO.C,R20*%
G36*
G01*
X154489998Y-78124000D02*
X155390002Y-78124000D01*
G75*
G02*
X155640000Y-78373998I0J-249998D01*
G01*
X155640000Y-78899002D01*
G75*
G02*
X155390002Y-79149000I-249998J0D01*
G01*
X154489998Y-79149000D01*
G75*
G02*
X154240000Y-78899002I0J249998D01*
G01*
X154240000Y-78373998D01*
G75*
G02*
X154489998Y-78124000I249998J0D01*
G01*
G37*
G36*
G01*
X154489998Y-76299000D02*
X155390002Y-76299000D01*
G75*
G02*
X155640000Y-76548998I0J-249998D01*
G01*
X155640000Y-77074002D01*
G75*
G02*
X155390002Y-77324000I-249998J0D01*
G01*
X154489998Y-77324000D01*
G75*
G02*
X154240000Y-77074002I0J249998D01*
G01*
X154240000Y-76548998D01*
G75*
G02*
X154489998Y-76299000I249998J0D01*
G01*
G37*
%TD*%
%TO.C,R19*%
G36*
G01*
X152800000Y-87064002D02*
X152800000Y-86163998D01*
G75*
G02*
X153049998Y-85914000I249998J0D01*
G01*
X153575002Y-85914000D01*
G75*
G02*
X153825000Y-86163998I0J-249998D01*
G01*
X153825000Y-87064002D01*
G75*
G02*
X153575002Y-87314000I-249998J0D01*
G01*
X153049998Y-87314000D01*
G75*
G02*
X152800000Y-87064002I0J249998D01*
G01*
G37*
G36*
G01*
X150975000Y-87064002D02*
X150975000Y-86163998D01*
G75*
G02*
X151224998Y-85914000I249998J0D01*
G01*
X151750002Y-85914000D01*
G75*
G02*
X152000000Y-86163998I0J-249998D01*
G01*
X152000000Y-87064002D01*
G75*
G02*
X151750002Y-87314000I-249998J0D01*
G01*
X151224998Y-87314000D01*
G75*
G02*
X150975000Y-87064002I0J249998D01*
G01*
G37*
%TD*%
%TO.C,R17*%
G36*
G01*
X127196002Y-80729500D02*
X126295998Y-80729500D01*
G75*
G02*
X126046000Y-80479502I0J249998D01*
G01*
X126046000Y-79954498D01*
G75*
G02*
X126295998Y-79704500I249998J0D01*
G01*
X127196002Y-79704500D01*
G75*
G02*
X127446000Y-79954498I0J-249998D01*
G01*
X127446000Y-80479502D01*
G75*
G02*
X127196002Y-80729500I-249998J0D01*
G01*
G37*
G36*
G01*
X127196002Y-82554500D02*
X126295998Y-82554500D01*
G75*
G02*
X126046000Y-82304502I0J249998D01*
G01*
X126046000Y-81779498D01*
G75*
G02*
X126295998Y-81529500I249998J0D01*
G01*
X127196002Y-81529500D01*
G75*
G02*
X127446000Y-81779498I0J-249998D01*
G01*
X127446000Y-82304502D01*
G75*
G02*
X127196002Y-82554500I-249998J0D01*
G01*
G37*
%TD*%
%TO.C,R14*%
G36*
G01*
X148139998Y-88284000D02*
X149040002Y-88284000D01*
G75*
G02*
X149290000Y-88533998I0J-249998D01*
G01*
X149290000Y-89059002D01*
G75*
G02*
X149040002Y-89309000I-249998J0D01*
G01*
X148139998Y-89309000D01*
G75*
G02*
X147890000Y-89059002I0J249998D01*
G01*
X147890000Y-88533998D01*
G75*
G02*
X148139998Y-88284000I249998J0D01*
G01*
G37*
G36*
G01*
X148139998Y-86459000D02*
X149040002Y-86459000D01*
G75*
G02*
X149290000Y-86708998I0J-249998D01*
G01*
X149290000Y-87234002D01*
G75*
G02*
X149040002Y-87484000I-249998J0D01*
G01*
X148139998Y-87484000D01*
G75*
G02*
X147890000Y-87234002I0J249998D01*
G01*
X147890000Y-86708998D01*
G75*
G02*
X148139998Y-86459000I249998J0D01*
G01*
G37*
%TD*%
%TO.C,R13*%
G36*
G01*
X124314000Y-99625998D02*
X124314000Y-100526002D01*
G75*
G02*
X124064002Y-100776000I-249998J0D01*
G01*
X123538998Y-100776000D01*
G75*
G02*
X123289000Y-100526002I0J249998D01*
G01*
X123289000Y-99625998D01*
G75*
G02*
X123538998Y-99376000I249998J0D01*
G01*
X124064002Y-99376000D01*
G75*
G02*
X124314000Y-99625998I0J-249998D01*
G01*
G37*
G36*
G01*
X126139000Y-99625998D02*
X126139000Y-100526002D01*
G75*
G02*
X125889002Y-100776000I-249998J0D01*
G01*
X125363998Y-100776000D01*
G75*
G02*
X125114000Y-100526002I0J249998D01*
G01*
X125114000Y-99625998D01*
G75*
G02*
X125363998Y-99376000I249998J0D01*
G01*
X125889002Y-99376000D01*
G75*
G02*
X126139000Y-99625998I0J-249998D01*
G01*
G37*
%TD*%
%TO.C,R29*%
G36*
G01*
X156267998Y-115970000D02*
X157168002Y-115970000D01*
G75*
G02*
X157418000Y-116219998I0J-249998D01*
G01*
X157418000Y-116745002D01*
G75*
G02*
X157168002Y-116995000I-249998J0D01*
G01*
X156267998Y-116995000D01*
G75*
G02*
X156018000Y-116745002I0J249998D01*
G01*
X156018000Y-116219998D01*
G75*
G02*
X156267998Y-115970000I249998J0D01*
G01*
G37*
G36*
G01*
X156267998Y-114145000D02*
X157168002Y-114145000D01*
G75*
G02*
X157418000Y-114394998I0J-249998D01*
G01*
X157418000Y-114920002D01*
G75*
G02*
X157168002Y-115170000I-249998J0D01*
G01*
X156267998Y-115170000D01*
G75*
G02*
X156018000Y-114920002I0J249998D01*
G01*
X156018000Y-114394998D01*
G75*
G02*
X156267998Y-114145000I249998J0D01*
G01*
G37*
%TD*%
%TO.C,R28*%
G36*
G01*
X143059998Y-109874000D02*
X143960002Y-109874000D01*
G75*
G02*
X144210000Y-110123998I0J-249998D01*
G01*
X144210000Y-110649002D01*
G75*
G02*
X143960002Y-110899000I-249998J0D01*
G01*
X143059998Y-110899000D01*
G75*
G02*
X142810000Y-110649002I0J249998D01*
G01*
X142810000Y-110123998D01*
G75*
G02*
X143059998Y-109874000I249998J0D01*
G01*
G37*
G36*
G01*
X143059998Y-108049000D02*
X143960002Y-108049000D01*
G75*
G02*
X144210000Y-108298998I0J-249998D01*
G01*
X144210000Y-108824002D01*
G75*
G02*
X143960002Y-109074000I-249998J0D01*
G01*
X143059998Y-109074000D01*
G75*
G02*
X142810000Y-108824002I0J249998D01*
G01*
X142810000Y-108298998D01*
G75*
G02*
X143059998Y-108049000I249998J0D01*
G01*
G37*
%TD*%
%TO.C,R27*%
G36*
G01*
X144837998Y-122066000D02*
X145738002Y-122066000D01*
G75*
G02*
X145988000Y-122315998I0J-249998D01*
G01*
X145988000Y-122841002D01*
G75*
G02*
X145738002Y-123091000I-249998J0D01*
G01*
X144837998Y-123091000D01*
G75*
G02*
X144588000Y-122841002I0J249998D01*
G01*
X144588000Y-122315998D01*
G75*
G02*
X144837998Y-122066000I249998J0D01*
G01*
G37*
G36*
G01*
X144837998Y-120241000D02*
X145738002Y-120241000D01*
G75*
G02*
X145988000Y-120490998I0J-249998D01*
G01*
X145988000Y-121016002D01*
G75*
G02*
X145738002Y-121266000I-249998J0D01*
G01*
X144837998Y-121266000D01*
G75*
G02*
X144588000Y-121016002I0J249998D01*
G01*
X144588000Y-120490998D01*
G75*
G02*
X144837998Y-120241000I249998J0D01*
G01*
G37*
%TD*%
%TO.C,R26*%
G36*
G01*
X148393998Y-122066000D02*
X149294002Y-122066000D01*
G75*
G02*
X149544000Y-122315998I0J-249998D01*
G01*
X149544000Y-122841002D01*
G75*
G02*
X149294002Y-123091000I-249998J0D01*
G01*
X148393998Y-123091000D01*
G75*
G02*
X148144000Y-122841002I0J249998D01*
G01*
X148144000Y-122315998D01*
G75*
G02*
X148393998Y-122066000I249998J0D01*
G01*
G37*
G36*
G01*
X148393998Y-120241000D02*
X149294002Y-120241000D01*
G75*
G02*
X149544000Y-120490998I0J-249998D01*
G01*
X149544000Y-121016002D01*
G75*
G02*
X149294002Y-121266000I-249998J0D01*
G01*
X148393998Y-121266000D01*
G75*
G02*
X148144000Y-121016002I0J249998D01*
G01*
X148144000Y-120490998D01*
G75*
G02*
X148393998Y-120241000I249998J0D01*
G01*
G37*
%TD*%
%TO.C,R22*%
G36*
G01*
X178619998Y-111144000D02*
X179520002Y-111144000D01*
G75*
G02*
X179770000Y-111393998I0J-249998D01*
G01*
X179770000Y-111919002D01*
G75*
G02*
X179520002Y-112169000I-249998J0D01*
G01*
X178619998Y-112169000D01*
G75*
G02*
X178370000Y-111919002I0J249998D01*
G01*
X178370000Y-111393998D01*
G75*
G02*
X178619998Y-111144000I249998J0D01*
G01*
G37*
G36*
G01*
X178619998Y-109319000D02*
X179520002Y-109319000D01*
G75*
G02*
X179770000Y-109568998I0J-249998D01*
G01*
X179770000Y-110094002D01*
G75*
G02*
X179520002Y-110344000I-249998J0D01*
G01*
X178619998Y-110344000D01*
G75*
G02*
X178370000Y-110094002I0J249998D01*
G01*
X178370000Y-109568998D01*
G75*
G02*
X178619998Y-109319000I249998J0D01*
G01*
G37*
%TD*%
%TO.C,R21*%
G36*
G01*
X178619998Y-107334000D02*
X179520002Y-107334000D01*
G75*
G02*
X179770000Y-107583998I0J-249998D01*
G01*
X179770000Y-108109002D01*
G75*
G02*
X179520002Y-108359000I-249998J0D01*
G01*
X178619998Y-108359000D01*
G75*
G02*
X178370000Y-108109002I0J249998D01*
G01*
X178370000Y-107583998D01*
G75*
G02*
X178619998Y-107334000I249998J0D01*
G01*
G37*
G36*
G01*
X178619998Y-105509000D02*
X179520002Y-105509000D01*
G75*
G02*
X179770000Y-105758998I0J-249998D01*
G01*
X179770000Y-106284002D01*
G75*
G02*
X179520002Y-106534000I-249998J0D01*
G01*
X178619998Y-106534000D01*
G75*
G02*
X178370000Y-106284002I0J249998D01*
G01*
X178370000Y-105758998D01*
G75*
G02*
X178619998Y-105509000I249998J0D01*
G01*
G37*
%TD*%
D17*
%TO.C,Q23*%
X168672000Y-120904000D03*
X170672000Y-121854000D03*
X170672000Y-119954000D03*
%TD*%
%TO.C,Q20*%
X189500000Y-130048000D03*
X191500000Y-130998000D03*
X191500000Y-129098000D03*
%TD*%
%TO.C,Q17*%
X185690000Y-119380000D03*
X187690000Y-120330000D03*
X187690000Y-118430000D03*
%TD*%
%TO.C,Q14*%
X170196000Y-131064000D03*
X172196000Y-132014000D03*
X172196000Y-130114000D03*
%TD*%
%TO.C,Q1*%
G36*
G01*
X117118000Y-115801000D02*
X117118000Y-116101000D01*
G75*
G02*
X116968000Y-116251000I-150000J0D01*
G01*
X115318000Y-116251000D01*
G75*
G02*
X115168000Y-116101000I0J150000D01*
G01*
X115168000Y-115801000D01*
G75*
G02*
X115318000Y-115651000I150000J0D01*
G01*
X116968000Y-115651000D01*
G75*
G02*
X117118000Y-115801000I0J-150000D01*
G01*
G37*
G36*
G01*
X117118000Y-117071000D02*
X117118000Y-117371000D01*
G75*
G02*
X116968000Y-117521000I-150000J0D01*
G01*
X115318000Y-117521000D01*
G75*
G02*
X115168000Y-117371000I0J150000D01*
G01*
X115168000Y-117071000D01*
G75*
G02*
X115318000Y-116921000I150000J0D01*
G01*
X116968000Y-116921000D01*
G75*
G02*
X117118000Y-117071000I0J-150000D01*
G01*
G37*
G36*
G01*
X117118000Y-118341000D02*
X117118000Y-118641000D01*
G75*
G02*
X116968000Y-118791000I-150000J0D01*
G01*
X115318000Y-118791000D01*
G75*
G02*
X115168000Y-118641000I0J150000D01*
G01*
X115168000Y-118341000D01*
G75*
G02*
X115318000Y-118191000I150000J0D01*
G01*
X116968000Y-118191000D01*
G75*
G02*
X117118000Y-118341000I0J-150000D01*
G01*
G37*
G36*
G01*
X117118000Y-119611000D02*
X117118000Y-119911000D01*
G75*
G02*
X116968000Y-120061000I-150000J0D01*
G01*
X115318000Y-120061000D01*
G75*
G02*
X115168000Y-119911000I0J150000D01*
G01*
X115168000Y-119611000D01*
G75*
G02*
X115318000Y-119461000I150000J0D01*
G01*
X116968000Y-119461000D01*
G75*
G02*
X117118000Y-119611000I0J-150000D01*
G01*
G37*
G36*
G01*
X122068000Y-119611000D02*
X122068000Y-119911000D01*
G75*
G02*
X121918000Y-120061000I-150000J0D01*
G01*
X120268000Y-120061000D01*
G75*
G02*
X120118000Y-119911000I0J150000D01*
G01*
X120118000Y-119611000D01*
G75*
G02*
X120268000Y-119461000I150000J0D01*
G01*
X121918000Y-119461000D01*
G75*
G02*
X122068000Y-119611000I0J-150000D01*
G01*
G37*
G36*
G01*
X122068000Y-118341000D02*
X122068000Y-118641000D01*
G75*
G02*
X121918000Y-118791000I-150000J0D01*
G01*
X120268000Y-118791000D01*
G75*
G02*
X120118000Y-118641000I0J150000D01*
G01*
X120118000Y-118341000D01*
G75*
G02*
X120268000Y-118191000I150000J0D01*
G01*
X121918000Y-118191000D01*
G75*
G02*
X122068000Y-118341000I0J-150000D01*
G01*
G37*
G36*
G01*
X122068000Y-117071000D02*
X122068000Y-117371000D01*
G75*
G02*
X121918000Y-117521000I-150000J0D01*
G01*
X120268000Y-117521000D01*
G75*
G02*
X120118000Y-117371000I0J150000D01*
G01*
X120118000Y-117071000D01*
G75*
G02*
X120268000Y-116921000I150000J0D01*
G01*
X121918000Y-116921000D01*
G75*
G02*
X122068000Y-117071000I0J-150000D01*
G01*
G37*
G36*
G01*
X122068000Y-115801000D02*
X122068000Y-116101000D01*
G75*
G02*
X121918000Y-116251000I-150000J0D01*
G01*
X120268000Y-116251000D01*
G75*
G02*
X120118000Y-116101000I0J150000D01*
G01*
X120118000Y-115801000D01*
G75*
G02*
X120268000Y-115651000I150000J0D01*
G01*
X121918000Y-115651000D01*
G75*
G02*
X122068000Y-115801000I0J-150000D01*
G01*
G37*
%TD*%
%TO.C,Q5*%
G36*
G01*
X189714000Y-104925000D02*
X189714000Y-104625000D01*
G75*
G02*
X189864000Y-104475000I150000J0D01*
G01*
X191514000Y-104475000D01*
G75*
G02*
X191664000Y-104625000I0J-150000D01*
G01*
X191664000Y-104925000D01*
G75*
G02*
X191514000Y-105075000I-150000J0D01*
G01*
X189864000Y-105075000D01*
G75*
G02*
X189714000Y-104925000I0J150000D01*
G01*
G37*
G36*
G01*
X189714000Y-103655000D02*
X189714000Y-103355000D01*
G75*
G02*
X189864000Y-103205000I150000J0D01*
G01*
X191514000Y-103205000D01*
G75*
G02*
X191664000Y-103355000I0J-150000D01*
G01*
X191664000Y-103655000D01*
G75*
G02*
X191514000Y-103805000I-150000J0D01*
G01*
X189864000Y-103805000D01*
G75*
G02*
X189714000Y-103655000I0J150000D01*
G01*
G37*
G36*
G01*
X189714000Y-102385000D02*
X189714000Y-102085000D01*
G75*
G02*
X189864000Y-101935000I150000J0D01*
G01*
X191514000Y-101935000D01*
G75*
G02*
X191664000Y-102085000I0J-150000D01*
G01*
X191664000Y-102385000D01*
G75*
G02*
X191514000Y-102535000I-150000J0D01*
G01*
X189864000Y-102535000D01*
G75*
G02*
X189714000Y-102385000I0J150000D01*
G01*
G37*
G36*
G01*
X189714000Y-101115000D02*
X189714000Y-100815000D01*
G75*
G02*
X189864000Y-100665000I150000J0D01*
G01*
X191514000Y-100665000D01*
G75*
G02*
X191664000Y-100815000I0J-150000D01*
G01*
X191664000Y-101115000D01*
G75*
G02*
X191514000Y-101265000I-150000J0D01*
G01*
X189864000Y-101265000D01*
G75*
G02*
X189714000Y-101115000I0J150000D01*
G01*
G37*
G36*
G01*
X184764000Y-101115000D02*
X184764000Y-100815000D01*
G75*
G02*
X184914000Y-100665000I150000J0D01*
G01*
X186564000Y-100665000D01*
G75*
G02*
X186714000Y-100815000I0J-150000D01*
G01*
X186714000Y-101115000D01*
G75*
G02*
X186564000Y-101265000I-150000J0D01*
G01*
X184914000Y-101265000D01*
G75*
G02*
X184764000Y-101115000I0J150000D01*
G01*
G37*
G36*
G01*
X184764000Y-102385000D02*
X184764000Y-102085000D01*
G75*
G02*
X184914000Y-101935000I150000J0D01*
G01*
X186564000Y-101935000D01*
G75*
G02*
X186714000Y-102085000I0J-150000D01*
G01*
X186714000Y-102385000D01*
G75*
G02*
X186564000Y-102535000I-150000J0D01*
G01*
X184914000Y-102535000D01*
G75*
G02*
X184764000Y-102385000I0J150000D01*
G01*
G37*
G36*
G01*
X184764000Y-103655000D02*
X184764000Y-103355000D01*
G75*
G02*
X184914000Y-103205000I150000J0D01*
G01*
X186564000Y-103205000D01*
G75*
G02*
X186714000Y-103355000I0J-150000D01*
G01*
X186714000Y-103655000D01*
G75*
G02*
X186564000Y-103805000I-150000J0D01*
G01*
X184914000Y-103805000D01*
G75*
G02*
X184764000Y-103655000I0J150000D01*
G01*
G37*
G36*
G01*
X184764000Y-104925000D02*
X184764000Y-104625000D01*
G75*
G02*
X184914000Y-104475000I150000J0D01*
G01*
X186564000Y-104475000D01*
G75*
G02*
X186714000Y-104625000I0J-150000D01*
G01*
X186714000Y-104925000D01*
G75*
G02*
X186564000Y-105075000I-150000J0D01*
G01*
X184914000Y-105075000D01*
G75*
G02*
X184764000Y-104925000I0J150000D01*
G01*
G37*
%TD*%
%TO.C,Q7*%
G36*
G01*
X148360000Y-75161000D02*
X148360000Y-75461000D01*
G75*
G02*
X148210000Y-75611000I-150000J0D01*
G01*
X146560000Y-75611000D01*
G75*
G02*
X146410000Y-75461000I0J150000D01*
G01*
X146410000Y-75161000D01*
G75*
G02*
X146560000Y-75011000I150000J0D01*
G01*
X148210000Y-75011000D01*
G75*
G02*
X148360000Y-75161000I0J-150000D01*
G01*
G37*
G36*
G01*
X148360000Y-76431000D02*
X148360000Y-76731000D01*
G75*
G02*
X148210000Y-76881000I-150000J0D01*
G01*
X146560000Y-76881000D01*
G75*
G02*
X146410000Y-76731000I0J150000D01*
G01*
X146410000Y-76431000D01*
G75*
G02*
X146560000Y-76281000I150000J0D01*
G01*
X148210000Y-76281000D01*
G75*
G02*
X148360000Y-76431000I0J-150000D01*
G01*
G37*
G36*
G01*
X148360000Y-77701000D02*
X148360000Y-78001000D01*
G75*
G02*
X148210000Y-78151000I-150000J0D01*
G01*
X146560000Y-78151000D01*
G75*
G02*
X146410000Y-78001000I0J150000D01*
G01*
X146410000Y-77701000D01*
G75*
G02*
X146560000Y-77551000I150000J0D01*
G01*
X148210000Y-77551000D01*
G75*
G02*
X148360000Y-77701000I0J-150000D01*
G01*
G37*
G36*
G01*
X148360000Y-78971000D02*
X148360000Y-79271000D01*
G75*
G02*
X148210000Y-79421000I-150000J0D01*
G01*
X146560000Y-79421000D01*
G75*
G02*
X146410000Y-79271000I0J150000D01*
G01*
X146410000Y-78971000D01*
G75*
G02*
X146560000Y-78821000I150000J0D01*
G01*
X148210000Y-78821000D01*
G75*
G02*
X148360000Y-78971000I0J-150000D01*
G01*
G37*
G36*
G01*
X153310000Y-78971000D02*
X153310000Y-79271000D01*
G75*
G02*
X153160000Y-79421000I-150000J0D01*
G01*
X151510000Y-79421000D01*
G75*
G02*
X151360000Y-79271000I0J150000D01*
G01*
X151360000Y-78971000D01*
G75*
G02*
X151510000Y-78821000I150000J0D01*
G01*
X153160000Y-78821000D01*
G75*
G02*
X153310000Y-78971000I0J-150000D01*
G01*
G37*
G36*
G01*
X153310000Y-77701000D02*
X153310000Y-78001000D01*
G75*
G02*
X153160000Y-78151000I-150000J0D01*
G01*
X151510000Y-78151000D01*
G75*
G02*
X151360000Y-78001000I0J150000D01*
G01*
X151360000Y-77701000D01*
G75*
G02*
X151510000Y-77551000I150000J0D01*
G01*
X153160000Y-77551000D01*
G75*
G02*
X153310000Y-77701000I0J-150000D01*
G01*
G37*
G36*
G01*
X153310000Y-76431000D02*
X153310000Y-76731000D01*
G75*
G02*
X153160000Y-76881000I-150000J0D01*
G01*
X151510000Y-76881000D01*
G75*
G02*
X151360000Y-76731000I0J150000D01*
G01*
X151360000Y-76431000D01*
G75*
G02*
X151510000Y-76281000I150000J0D01*
G01*
X153160000Y-76281000D01*
G75*
G02*
X153310000Y-76431000I0J-150000D01*
G01*
G37*
G36*
G01*
X153310000Y-75161000D02*
X153310000Y-75461000D01*
G75*
G02*
X153160000Y-75611000I-150000J0D01*
G01*
X151510000Y-75611000D01*
G75*
G02*
X151360000Y-75461000I0J150000D01*
G01*
X151360000Y-75161000D01*
G75*
G02*
X151510000Y-75011000I150000J0D01*
G01*
X153160000Y-75011000D01*
G75*
G02*
X153310000Y-75161000I0J-150000D01*
G01*
G37*
%TD*%
%TO.C,Q3*%
G36*
G01*
X187983000Y-85368000D02*
X187683000Y-85368000D01*
G75*
G02*
X187533000Y-85218000I0J150000D01*
G01*
X187533000Y-83568000D01*
G75*
G02*
X187683000Y-83418000I150000J0D01*
G01*
X187983000Y-83418000D01*
G75*
G02*
X188133000Y-83568000I0J-150000D01*
G01*
X188133000Y-85218000D01*
G75*
G02*
X187983000Y-85368000I-150000J0D01*
G01*
G37*
G36*
G01*
X186713000Y-85368000D02*
X186413000Y-85368000D01*
G75*
G02*
X186263000Y-85218000I0J150000D01*
G01*
X186263000Y-83568000D01*
G75*
G02*
X186413000Y-83418000I150000J0D01*
G01*
X186713000Y-83418000D01*
G75*
G02*
X186863000Y-83568000I0J-150000D01*
G01*
X186863000Y-85218000D01*
G75*
G02*
X186713000Y-85368000I-150000J0D01*
G01*
G37*
G36*
G01*
X185443000Y-85368000D02*
X185143000Y-85368000D01*
G75*
G02*
X184993000Y-85218000I0J150000D01*
G01*
X184993000Y-83568000D01*
G75*
G02*
X185143000Y-83418000I150000J0D01*
G01*
X185443000Y-83418000D01*
G75*
G02*
X185593000Y-83568000I0J-150000D01*
G01*
X185593000Y-85218000D01*
G75*
G02*
X185443000Y-85368000I-150000J0D01*
G01*
G37*
G36*
G01*
X184173000Y-85368000D02*
X183873000Y-85368000D01*
G75*
G02*
X183723000Y-85218000I0J150000D01*
G01*
X183723000Y-83568000D01*
G75*
G02*
X183873000Y-83418000I150000J0D01*
G01*
X184173000Y-83418000D01*
G75*
G02*
X184323000Y-83568000I0J-150000D01*
G01*
X184323000Y-85218000D01*
G75*
G02*
X184173000Y-85368000I-150000J0D01*
G01*
G37*
G36*
G01*
X184173000Y-90318000D02*
X183873000Y-90318000D01*
G75*
G02*
X183723000Y-90168000I0J150000D01*
G01*
X183723000Y-88518000D01*
G75*
G02*
X183873000Y-88368000I150000J0D01*
G01*
X184173000Y-88368000D01*
G75*
G02*
X184323000Y-88518000I0J-150000D01*
G01*
X184323000Y-90168000D01*
G75*
G02*
X184173000Y-90318000I-150000J0D01*
G01*
G37*
G36*
G01*
X185443000Y-90318000D02*
X185143000Y-90318000D01*
G75*
G02*
X184993000Y-90168000I0J150000D01*
G01*
X184993000Y-88518000D01*
G75*
G02*
X185143000Y-88368000I150000J0D01*
G01*
X185443000Y-88368000D01*
G75*
G02*
X185593000Y-88518000I0J-150000D01*
G01*
X185593000Y-90168000D01*
G75*
G02*
X185443000Y-90318000I-150000J0D01*
G01*
G37*
G36*
G01*
X186713000Y-90318000D02*
X186413000Y-90318000D01*
G75*
G02*
X186263000Y-90168000I0J150000D01*
G01*
X186263000Y-88518000D01*
G75*
G02*
X186413000Y-88368000I150000J0D01*
G01*
X186713000Y-88368000D01*
G75*
G02*
X186863000Y-88518000I0J-150000D01*
G01*
X186863000Y-90168000D01*
G75*
G02*
X186713000Y-90318000I-150000J0D01*
G01*
G37*
G36*
G01*
X187983000Y-90318000D02*
X187683000Y-90318000D01*
G75*
G02*
X187533000Y-90168000I0J150000D01*
G01*
X187533000Y-88518000D01*
G75*
G02*
X187683000Y-88368000I150000J0D01*
G01*
X187983000Y-88368000D01*
G75*
G02*
X188133000Y-88518000I0J-150000D01*
G01*
X188133000Y-90168000D01*
G75*
G02*
X187983000Y-90318000I-150000J0D01*
G01*
G37*
%TD*%
%TO.C,Q6*%
X155432000Y-82296000D03*
X153432000Y-81346000D03*
X153432000Y-83246000D03*
%TD*%
%TO.C,Q2*%
G36*
G01*
X177315000Y-85368000D02*
X177015000Y-85368000D01*
G75*
G02*
X176865000Y-85218000I0J150000D01*
G01*
X176865000Y-83568000D01*
G75*
G02*
X177015000Y-83418000I150000J0D01*
G01*
X177315000Y-83418000D01*
G75*
G02*
X177465000Y-83568000I0J-150000D01*
G01*
X177465000Y-85218000D01*
G75*
G02*
X177315000Y-85368000I-150000J0D01*
G01*
G37*
G36*
G01*
X176045000Y-85368000D02*
X175745000Y-85368000D01*
G75*
G02*
X175595000Y-85218000I0J150000D01*
G01*
X175595000Y-83568000D01*
G75*
G02*
X175745000Y-83418000I150000J0D01*
G01*
X176045000Y-83418000D01*
G75*
G02*
X176195000Y-83568000I0J-150000D01*
G01*
X176195000Y-85218000D01*
G75*
G02*
X176045000Y-85368000I-150000J0D01*
G01*
G37*
G36*
G01*
X174775000Y-85368000D02*
X174475000Y-85368000D01*
G75*
G02*
X174325000Y-85218000I0J150000D01*
G01*
X174325000Y-83568000D01*
G75*
G02*
X174475000Y-83418000I150000J0D01*
G01*
X174775000Y-83418000D01*
G75*
G02*
X174925000Y-83568000I0J-150000D01*
G01*
X174925000Y-85218000D01*
G75*
G02*
X174775000Y-85368000I-150000J0D01*
G01*
G37*
G36*
G01*
X173505000Y-85368000D02*
X173205000Y-85368000D01*
G75*
G02*
X173055000Y-85218000I0J150000D01*
G01*
X173055000Y-83568000D01*
G75*
G02*
X173205000Y-83418000I150000J0D01*
G01*
X173505000Y-83418000D01*
G75*
G02*
X173655000Y-83568000I0J-150000D01*
G01*
X173655000Y-85218000D01*
G75*
G02*
X173505000Y-85368000I-150000J0D01*
G01*
G37*
G36*
G01*
X173505000Y-90318000D02*
X173205000Y-90318000D01*
G75*
G02*
X173055000Y-90168000I0J150000D01*
G01*
X173055000Y-88518000D01*
G75*
G02*
X173205000Y-88368000I150000J0D01*
G01*
X173505000Y-88368000D01*
G75*
G02*
X173655000Y-88518000I0J-150000D01*
G01*
X173655000Y-90168000D01*
G75*
G02*
X173505000Y-90318000I-150000J0D01*
G01*
G37*
G36*
G01*
X174775000Y-90318000D02*
X174475000Y-90318000D01*
G75*
G02*
X174325000Y-90168000I0J150000D01*
G01*
X174325000Y-88518000D01*
G75*
G02*
X174475000Y-88368000I150000J0D01*
G01*
X174775000Y-88368000D01*
G75*
G02*
X174925000Y-88518000I0J-150000D01*
G01*
X174925000Y-90168000D01*
G75*
G02*
X174775000Y-90318000I-150000J0D01*
G01*
G37*
G36*
G01*
X176045000Y-90318000D02*
X175745000Y-90318000D01*
G75*
G02*
X175595000Y-90168000I0J150000D01*
G01*
X175595000Y-88518000D01*
G75*
G02*
X175745000Y-88368000I150000J0D01*
G01*
X176045000Y-88368000D01*
G75*
G02*
X176195000Y-88518000I0J-150000D01*
G01*
X176195000Y-90168000D01*
G75*
G02*
X176045000Y-90318000I-150000J0D01*
G01*
G37*
G36*
G01*
X177315000Y-90318000D02*
X177015000Y-90318000D01*
G75*
G02*
X176865000Y-90168000I0J150000D01*
G01*
X176865000Y-88518000D01*
G75*
G02*
X177015000Y-88368000I150000J0D01*
G01*
X177315000Y-88368000D01*
G75*
G02*
X177465000Y-88518000I0J-150000D01*
G01*
X177465000Y-90168000D01*
G75*
G02*
X177315000Y-90318000I-150000J0D01*
G01*
G37*
%TD*%
%TO.C,Q13*%
G36*
G01*
X153901000Y-130786000D02*
X154201000Y-130786000D01*
G75*
G02*
X154351000Y-130936000I0J-150000D01*
G01*
X154351000Y-132586000D01*
G75*
G02*
X154201000Y-132736000I-150000J0D01*
G01*
X153901000Y-132736000D01*
G75*
G02*
X153751000Y-132586000I0J150000D01*
G01*
X153751000Y-130936000D01*
G75*
G02*
X153901000Y-130786000I150000J0D01*
G01*
G37*
G36*
G01*
X155171000Y-130786000D02*
X155471000Y-130786000D01*
G75*
G02*
X155621000Y-130936000I0J-150000D01*
G01*
X155621000Y-132586000D01*
G75*
G02*
X155471000Y-132736000I-150000J0D01*
G01*
X155171000Y-132736000D01*
G75*
G02*
X155021000Y-132586000I0J150000D01*
G01*
X155021000Y-130936000D01*
G75*
G02*
X155171000Y-130786000I150000J0D01*
G01*
G37*
G36*
G01*
X156441000Y-130786000D02*
X156741000Y-130786000D01*
G75*
G02*
X156891000Y-130936000I0J-150000D01*
G01*
X156891000Y-132586000D01*
G75*
G02*
X156741000Y-132736000I-150000J0D01*
G01*
X156441000Y-132736000D01*
G75*
G02*
X156291000Y-132586000I0J150000D01*
G01*
X156291000Y-130936000D01*
G75*
G02*
X156441000Y-130786000I150000J0D01*
G01*
G37*
G36*
G01*
X157711000Y-130786000D02*
X158011000Y-130786000D01*
G75*
G02*
X158161000Y-130936000I0J-150000D01*
G01*
X158161000Y-132586000D01*
G75*
G02*
X158011000Y-132736000I-150000J0D01*
G01*
X157711000Y-132736000D01*
G75*
G02*
X157561000Y-132586000I0J150000D01*
G01*
X157561000Y-130936000D01*
G75*
G02*
X157711000Y-130786000I150000J0D01*
G01*
G37*
G36*
G01*
X157711000Y-125836000D02*
X158011000Y-125836000D01*
G75*
G02*
X158161000Y-125986000I0J-150000D01*
G01*
X158161000Y-127636000D01*
G75*
G02*
X158011000Y-127786000I-150000J0D01*
G01*
X157711000Y-127786000D01*
G75*
G02*
X157561000Y-127636000I0J150000D01*
G01*
X157561000Y-125986000D01*
G75*
G02*
X157711000Y-125836000I150000J0D01*
G01*
G37*
G36*
G01*
X156441000Y-125836000D02*
X156741000Y-125836000D01*
G75*
G02*
X156891000Y-125986000I0J-150000D01*
G01*
X156891000Y-127636000D01*
G75*
G02*
X156741000Y-127786000I-150000J0D01*
G01*
X156441000Y-127786000D01*
G75*
G02*
X156291000Y-127636000I0J150000D01*
G01*
X156291000Y-125986000D01*
G75*
G02*
X156441000Y-125836000I150000J0D01*
G01*
G37*
G36*
G01*
X155171000Y-125836000D02*
X155471000Y-125836000D01*
G75*
G02*
X155621000Y-125986000I0J-150000D01*
G01*
X155621000Y-127636000D01*
G75*
G02*
X155471000Y-127786000I-150000J0D01*
G01*
X155171000Y-127786000D01*
G75*
G02*
X155021000Y-127636000I0J150000D01*
G01*
X155021000Y-125986000D01*
G75*
G02*
X155171000Y-125836000I150000J0D01*
G01*
G37*
G36*
G01*
X153901000Y-125836000D02*
X154201000Y-125836000D01*
G75*
G02*
X154351000Y-125986000I0J-150000D01*
G01*
X154351000Y-127636000D01*
G75*
G02*
X154201000Y-127786000I-150000J0D01*
G01*
X153901000Y-127786000D01*
G75*
G02*
X153751000Y-127636000I0J150000D01*
G01*
X153751000Y-125986000D01*
G75*
G02*
X153901000Y-125836000I150000J0D01*
G01*
G37*
%TD*%
%TO.C,Q12*%
G36*
G01*
X149629000Y-106704000D02*
X149329000Y-106704000D01*
G75*
G02*
X149179000Y-106554000I0J150000D01*
G01*
X149179000Y-104904000D01*
G75*
G02*
X149329000Y-104754000I150000J0D01*
G01*
X149629000Y-104754000D01*
G75*
G02*
X149779000Y-104904000I0J-150000D01*
G01*
X149779000Y-106554000D01*
G75*
G02*
X149629000Y-106704000I-150000J0D01*
G01*
G37*
G36*
G01*
X148359000Y-106704000D02*
X148059000Y-106704000D01*
G75*
G02*
X147909000Y-106554000I0J150000D01*
G01*
X147909000Y-104904000D01*
G75*
G02*
X148059000Y-104754000I150000J0D01*
G01*
X148359000Y-104754000D01*
G75*
G02*
X148509000Y-104904000I0J-150000D01*
G01*
X148509000Y-106554000D01*
G75*
G02*
X148359000Y-106704000I-150000J0D01*
G01*
G37*
G36*
G01*
X147089000Y-106704000D02*
X146789000Y-106704000D01*
G75*
G02*
X146639000Y-106554000I0J150000D01*
G01*
X146639000Y-104904000D01*
G75*
G02*
X146789000Y-104754000I150000J0D01*
G01*
X147089000Y-104754000D01*
G75*
G02*
X147239000Y-104904000I0J-150000D01*
G01*
X147239000Y-106554000D01*
G75*
G02*
X147089000Y-106704000I-150000J0D01*
G01*
G37*
G36*
G01*
X145819000Y-106704000D02*
X145519000Y-106704000D01*
G75*
G02*
X145369000Y-106554000I0J150000D01*
G01*
X145369000Y-104904000D01*
G75*
G02*
X145519000Y-104754000I150000J0D01*
G01*
X145819000Y-104754000D01*
G75*
G02*
X145969000Y-104904000I0J-150000D01*
G01*
X145969000Y-106554000D01*
G75*
G02*
X145819000Y-106704000I-150000J0D01*
G01*
G37*
G36*
G01*
X145819000Y-111654000D02*
X145519000Y-111654000D01*
G75*
G02*
X145369000Y-111504000I0J150000D01*
G01*
X145369000Y-109854000D01*
G75*
G02*
X145519000Y-109704000I150000J0D01*
G01*
X145819000Y-109704000D01*
G75*
G02*
X145969000Y-109854000I0J-150000D01*
G01*
X145969000Y-111504000D01*
G75*
G02*
X145819000Y-111654000I-150000J0D01*
G01*
G37*
G36*
G01*
X147089000Y-111654000D02*
X146789000Y-111654000D01*
G75*
G02*
X146639000Y-111504000I0J150000D01*
G01*
X146639000Y-109854000D01*
G75*
G02*
X146789000Y-109704000I150000J0D01*
G01*
X147089000Y-109704000D01*
G75*
G02*
X147239000Y-109854000I0J-150000D01*
G01*
X147239000Y-111504000D01*
G75*
G02*
X147089000Y-111654000I-150000J0D01*
G01*
G37*
G36*
G01*
X148359000Y-111654000D02*
X148059000Y-111654000D01*
G75*
G02*
X147909000Y-111504000I0J150000D01*
G01*
X147909000Y-109854000D01*
G75*
G02*
X148059000Y-109704000I150000J0D01*
G01*
X148359000Y-109704000D01*
G75*
G02*
X148509000Y-109854000I0J-150000D01*
G01*
X148509000Y-111504000D01*
G75*
G02*
X148359000Y-111654000I-150000J0D01*
G01*
G37*
G36*
G01*
X149629000Y-111654000D02*
X149329000Y-111654000D01*
G75*
G02*
X149179000Y-111504000I0J150000D01*
G01*
X149179000Y-109854000D01*
G75*
G02*
X149329000Y-109704000I150000J0D01*
G01*
X149629000Y-109704000D01*
G75*
G02*
X149779000Y-109854000I0J-150000D01*
G01*
X149779000Y-111504000D01*
G75*
G02*
X149629000Y-111654000I-150000J0D01*
G01*
G37*
%TD*%
%TO.C,Q11*%
G36*
G01*
X145646000Y-130721000D02*
X145946000Y-130721000D01*
G75*
G02*
X146096000Y-130871000I0J-150000D01*
G01*
X146096000Y-132521000D01*
G75*
G02*
X145946000Y-132671000I-150000J0D01*
G01*
X145646000Y-132671000D01*
G75*
G02*
X145496000Y-132521000I0J150000D01*
G01*
X145496000Y-130871000D01*
G75*
G02*
X145646000Y-130721000I150000J0D01*
G01*
G37*
G36*
G01*
X146916000Y-130721000D02*
X147216000Y-130721000D01*
G75*
G02*
X147366000Y-130871000I0J-150000D01*
G01*
X147366000Y-132521000D01*
G75*
G02*
X147216000Y-132671000I-150000J0D01*
G01*
X146916000Y-132671000D01*
G75*
G02*
X146766000Y-132521000I0J150000D01*
G01*
X146766000Y-130871000D01*
G75*
G02*
X146916000Y-130721000I150000J0D01*
G01*
G37*
G36*
G01*
X148186000Y-130721000D02*
X148486000Y-130721000D01*
G75*
G02*
X148636000Y-130871000I0J-150000D01*
G01*
X148636000Y-132521000D01*
G75*
G02*
X148486000Y-132671000I-150000J0D01*
G01*
X148186000Y-132671000D01*
G75*
G02*
X148036000Y-132521000I0J150000D01*
G01*
X148036000Y-130871000D01*
G75*
G02*
X148186000Y-130721000I150000J0D01*
G01*
G37*
G36*
G01*
X149456000Y-130721000D02*
X149756000Y-130721000D01*
G75*
G02*
X149906000Y-130871000I0J-150000D01*
G01*
X149906000Y-132521000D01*
G75*
G02*
X149756000Y-132671000I-150000J0D01*
G01*
X149456000Y-132671000D01*
G75*
G02*
X149306000Y-132521000I0J150000D01*
G01*
X149306000Y-130871000D01*
G75*
G02*
X149456000Y-130721000I150000J0D01*
G01*
G37*
G36*
G01*
X149456000Y-125771000D02*
X149756000Y-125771000D01*
G75*
G02*
X149906000Y-125921000I0J-150000D01*
G01*
X149906000Y-127571000D01*
G75*
G02*
X149756000Y-127721000I-150000J0D01*
G01*
X149456000Y-127721000D01*
G75*
G02*
X149306000Y-127571000I0J150000D01*
G01*
X149306000Y-125921000D01*
G75*
G02*
X149456000Y-125771000I150000J0D01*
G01*
G37*
G36*
G01*
X148186000Y-125771000D02*
X148486000Y-125771000D01*
G75*
G02*
X148636000Y-125921000I0J-150000D01*
G01*
X148636000Y-127571000D01*
G75*
G02*
X148486000Y-127721000I-150000J0D01*
G01*
X148186000Y-127721000D01*
G75*
G02*
X148036000Y-127571000I0J150000D01*
G01*
X148036000Y-125921000D01*
G75*
G02*
X148186000Y-125771000I150000J0D01*
G01*
G37*
G36*
G01*
X146916000Y-125771000D02*
X147216000Y-125771000D01*
G75*
G02*
X147366000Y-125921000I0J-150000D01*
G01*
X147366000Y-127571000D01*
G75*
G02*
X147216000Y-127721000I-150000J0D01*
G01*
X146916000Y-127721000D01*
G75*
G02*
X146766000Y-127571000I0J150000D01*
G01*
X146766000Y-125921000D01*
G75*
G02*
X146916000Y-125771000I150000J0D01*
G01*
G37*
G36*
G01*
X145646000Y-125771000D02*
X145946000Y-125771000D01*
G75*
G02*
X146096000Y-125921000I0J-150000D01*
G01*
X146096000Y-127571000D01*
G75*
G02*
X145946000Y-127721000I-150000J0D01*
G01*
X145646000Y-127721000D01*
G75*
G02*
X145496000Y-127571000I0J150000D01*
G01*
X145496000Y-125921000D01*
G75*
G02*
X145646000Y-125771000I150000J0D01*
G01*
G37*
%TD*%
%TO.C,Q10*%
G36*
G01*
X158011000Y-106958000D02*
X157711000Y-106958000D01*
G75*
G02*
X157561000Y-106808000I0J150000D01*
G01*
X157561000Y-105158000D01*
G75*
G02*
X157711000Y-105008000I150000J0D01*
G01*
X158011000Y-105008000D01*
G75*
G02*
X158161000Y-105158000I0J-150000D01*
G01*
X158161000Y-106808000D01*
G75*
G02*
X158011000Y-106958000I-150000J0D01*
G01*
G37*
G36*
G01*
X156741000Y-106958000D02*
X156441000Y-106958000D01*
G75*
G02*
X156291000Y-106808000I0J150000D01*
G01*
X156291000Y-105158000D01*
G75*
G02*
X156441000Y-105008000I150000J0D01*
G01*
X156741000Y-105008000D01*
G75*
G02*
X156891000Y-105158000I0J-150000D01*
G01*
X156891000Y-106808000D01*
G75*
G02*
X156741000Y-106958000I-150000J0D01*
G01*
G37*
G36*
G01*
X155471000Y-106958000D02*
X155171000Y-106958000D01*
G75*
G02*
X155021000Y-106808000I0J150000D01*
G01*
X155021000Y-105158000D01*
G75*
G02*
X155171000Y-105008000I150000J0D01*
G01*
X155471000Y-105008000D01*
G75*
G02*
X155621000Y-105158000I0J-150000D01*
G01*
X155621000Y-106808000D01*
G75*
G02*
X155471000Y-106958000I-150000J0D01*
G01*
G37*
G36*
G01*
X154201000Y-106958000D02*
X153901000Y-106958000D01*
G75*
G02*
X153751000Y-106808000I0J150000D01*
G01*
X153751000Y-105158000D01*
G75*
G02*
X153901000Y-105008000I150000J0D01*
G01*
X154201000Y-105008000D01*
G75*
G02*
X154351000Y-105158000I0J-150000D01*
G01*
X154351000Y-106808000D01*
G75*
G02*
X154201000Y-106958000I-150000J0D01*
G01*
G37*
G36*
G01*
X154201000Y-111908000D02*
X153901000Y-111908000D01*
G75*
G02*
X153751000Y-111758000I0J150000D01*
G01*
X153751000Y-110108000D01*
G75*
G02*
X153901000Y-109958000I150000J0D01*
G01*
X154201000Y-109958000D01*
G75*
G02*
X154351000Y-110108000I0J-150000D01*
G01*
X154351000Y-111758000D01*
G75*
G02*
X154201000Y-111908000I-150000J0D01*
G01*
G37*
G36*
G01*
X155471000Y-111908000D02*
X155171000Y-111908000D01*
G75*
G02*
X155021000Y-111758000I0J150000D01*
G01*
X155021000Y-110108000D01*
G75*
G02*
X155171000Y-109958000I150000J0D01*
G01*
X155471000Y-109958000D01*
G75*
G02*
X155621000Y-110108000I0J-150000D01*
G01*
X155621000Y-111758000D01*
G75*
G02*
X155471000Y-111908000I-150000J0D01*
G01*
G37*
G36*
G01*
X156741000Y-111908000D02*
X156441000Y-111908000D01*
G75*
G02*
X156291000Y-111758000I0J150000D01*
G01*
X156291000Y-110108000D01*
G75*
G02*
X156441000Y-109958000I150000J0D01*
G01*
X156741000Y-109958000D01*
G75*
G02*
X156891000Y-110108000I0J-150000D01*
G01*
X156891000Y-111758000D01*
G75*
G02*
X156741000Y-111908000I-150000J0D01*
G01*
G37*
G36*
G01*
X158011000Y-111908000D02*
X157711000Y-111908000D01*
G75*
G02*
X157561000Y-111758000I0J150000D01*
G01*
X157561000Y-110108000D01*
G75*
G02*
X157711000Y-109958000I150000J0D01*
G01*
X158011000Y-109958000D01*
G75*
G02*
X158161000Y-110108000I0J-150000D01*
G01*
X158161000Y-111758000D01*
G75*
G02*
X158011000Y-111908000I-150000J0D01*
G01*
G37*
%TD*%
D31*
%TO.C,MH4*%
X191926000Y-143664000D03*
D32*
X191926000Y-143664000D03*
%TD*%
D31*
%TO.C,MH3*%
X111916000Y-143664000D03*
D32*
X111916000Y-143664000D03*
%TD*%
D31*
%TO.C,MH2*%
X189386000Y-57939000D03*
D32*
X189386000Y-57939000D03*
%TD*%
D31*
%TO.C,MH1*%
X115726000Y-57939000D03*
D32*
X115726000Y-57939000D03*
%TD*%
%TO.C,F2*%
G36*
G01*
X116703002Y-123560000D02*
X115452998Y-123560000D01*
G75*
G02*
X115203000Y-123310002I0J249998D01*
G01*
X115203000Y-122684998D01*
G75*
G02*
X115452998Y-122435000I249998J0D01*
G01*
X116703002Y-122435000D01*
G75*
G02*
X116953000Y-122684998I0J-249998D01*
G01*
X116953000Y-123310002D01*
G75*
G02*
X116703002Y-123560000I-249998J0D01*
G01*
G37*
G36*
G01*
X116703002Y-126485000D02*
X115452998Y-126485000D01*
G75*
G02*
X115203000Y-126235002I0J249998D01*
G01*
X115203000Y-125609998D01*
G75*
G02*
X115452998Y-125360000I249998J0D01*
G01*
X116703002Y-125360000D01*
G75*
G02*
X116953000Y-125609998I0J-249998D01*
G01*
X116953000Y-126235002D01*
G75*
G02*
X116703002Y-126485000I-249998J0D01*
G01*
G37*
%TD*%
%TO.C,F1*%
G36*
G01*
X118502000Y-113147002D02*
X118502000Y-111896998D01*
G75*
G02*
X118751998Y-111647000I249998J0D01*
G01*
X119377002Y-111647000D01*
G75*
G02*
X119627000Y-111896998I0J-249998D01*
G01*
X119627000Y-113147002D01*
G75*
G02*
X119377002Y-113397000I-249998J0D01*
G01*
X118751998Y-113397000D01*
G75*
G02*
X118502000Y-113147002I0J249998D01*
G01*
G37*
G36*
G01*
X115577000Y-113147002D02*
X115577000Y-111896998D01*
G75*
G02*
X115826998Y-111647000I249998J0D01*
G01*
X116452002Y-111647000D01*
G75*
G02*
X116702000Y-111896998I0J-249998D01*
G01*
X116702000Y-113147002D01*
G75*
G02*
X116452002Y-113397000I-249998J0D01*
G01*
X115826998Y-113397000D01*
G75*
G02*
X115577000Y-113147002I0J249998D01*
G01*
G37*
%TD*%
%TO.C,C24*%
G36*
G01*
X117406000Y-147099000D02*
X117406000Y-148049000D01*
G75*
G02*
X117156000Y-148299000I-250000J0D01*
G01*
X116656000Y-148299000D01*
G75*
G02*
X116406000Y-148049000I0J250000D01*
G01*
X116406000Y-147099000D01*
G75*
G02*
X116656000Y-146849000I250000J0D01*
G01*
X117156000Y-146849000D01*
G75*
G02*
X117406000Y-147099000I0J-250000D01*
G01*
G37*
G36*
G01*
X119306000Y-147099000D02*
X119306000Y-148049000D01*
G75*
G02*
X119056000Y-148299000I-250000J0D01*
G01*
X118556000Y-148299000D01*
G75*
G02*
X118306000Y-148049000I0J250000D01*
G01*
X118306000Y-147099000D01*
G75*
G02*
X118556000Y-146849000I250000J0D01*
G01*
X119056000Y-146849000D01*
G75*
G02*
X119306000Y-147099000I0J-250000D01*
G01*
G37*
%TD*%
%TO.C,C23*%
G36*
G01*
X177604000Y-147099000D02*
X177604000Y-148049000D01*
G75*
G02*
X177354000Y-148299000I-250000J0D01*
G01*
X176854000Y-148299000D01*
G75*
G02*
X176604000Y-148049000I0J250000D01*
G01*
X176604000Y-147099000D01*
G75*
G02*
X176854000Y-146849000I250000J0D01*
G01*
X177354000Y-146849000D01*
G75*
G02*
X177604000Y-147099000I0J-250000D01*
G01*
G37*
G36*
G01*
X179504000Y-147099000D02*
X179504000Y-148049000D01*
G75*
G02*
X179254000Y-148299000I-250000J0D01*
G01*
X178754000Y-148299000D01*
G75*
G02*
X178504000Y-148049000I0J250000D01*
G01*
X178504000Y-147099000D01*
G75*
G02*
X178754000Y-146849000I250000J0D01*
G01*
X179254000Y-146849000D01*
G75*
G02*
X179504000Y-147099000I0J-250000D01*
G01*
G37*
%TD*%
%TO.C,C22*%
G36*
G01*
X157538000Y-147099000D02*
X157538000Y-148049000D01*
G75*
G02*
X157288000Y-148299000I-250000J0D01*
G01*
X156788000Y-148299000D01*
G75*
G02*
X156538000Y-148049000I0J250000D01*
G01*
X156538000Y-147099000D01*
G75*
G02*
X156788000Y-146849000I250000J0D01*
G01*
X157288000Y-146849000D01*
G75*
G02*
X157538000Y-147099000I0J-250000D01*
G01*
G37*
G36*
G01*
X159438000Y-147099000D02*
X159438000Y-148049000D01*
G75*
G02*
X159188000Y-148299000I-250000J0D01*
G01*
X158688000Y-148299000D01*
G75*
G02*
X158438000Y-148049000I0J250000D01*
G01*
X158438000Y-147099000D01*
G75*
G02*
X158688000Y-146849000I250000J0D01*
G01*
X159188000Y-146849000D01*
G75*
G02*
X159438000Y-147099000I0J-250000D01*
G01*
G37*
%TD*%
%TO.C,C21*%
G36*
G01*
X137472000Y-147099000D02*
X137472000Y-148049000D01*
G75*
G02*
X137222000Y-148299000I-250000J0D01*
G01*
X136722000Y-148299000D01*
G75*
G02*
X136472000Y-148049000I0J250000D01*
G01*
X136472000Y-147099000D01*
G75*
G02*
X136722000Y-146849000I250000J0D01*
G01*
X137222000Y-146849000D01*
G75*
G02*
X137472000Y-147099000I0J-250000D01*
G01*
G37*
G36*
G01*
X139372000Y-147099000D02*
X139372000Y-148049000D01*
G75*
G02*
X139122000Y-148299000I-250000J0D01*
G01*
X138622000Y-148299000D01*
G75*
G02*
X138372000Y-148049000I0J250000D01*
G01*
X138372000Y-147099000D01*
G75*
G02*
X138622000Y-146849000I250000J0D01*
G01*
X139122000Y-146849000D01*
G75*
G02*
X139372000Y-147099000I0J-250000D01*
G01*
G37*
%TD*%
%TO.C,C20*%
G36*
G01*
X142207000Y-77782000D02*
X141257000Y-77782000D01*
G75*
G02*
X141007000Y-77532000I0J250000D01*
G01*
X141007000Y-77032000D01*
G75*
G02*
X141257000Y-76782000I250000J0D01*
G01*
X142207000Y-76782000D01*
G75*
G02*
X142457000Y-77032000I0J-250000D01*
G01*
X142457000Y-77532000D01*
G75*
G02*
X142207000Y-77782000I-250000J0D01*
G01*
G37*
G36*
G01*
X142207000Y-79682000D02*
X141257000Y-79682000D01*
G75*
G02*
X141007000Y-79432000I0J250000D01*
G01*
X141007000Y-78932000D01*
G75*
G02*
X141257000Y-78682000I250000J0D01*
G01*
X142207000Y-78682000D01*
G75*
G02*
X142457000Y-78932000I0J-250000D01*
G01*
X142457000Y-79432000D01*
G75*
G02*
X142207000Y-79682000I-250000J0D01*
G01*
G37*
%TD*%
%TO.C,C6*%
G36*
G01*
X127312000Y-131859000D02*
X127312000Y-132809000D01*
G75*
G02*
X127062000Y-133059000I-250000J0D01*
G01*
X126562000Y-133059000D01*
G75*
G02*
X126312000Y-132809000I0J250000D01*
G01*
X126312000Y-131859000D01*
G75*
G02*
X126562000Y-131609000I250000J0D01*
G01*
X127062000Y-131609000D01*
G75*
G02*
X127312000Y-131859000I0J-250000D01*
G01*
G37*
G36*
G01*
X129212000Y-131859000D02*
X129212000Y-132809000D01*
G75*
G02*
X128962000Y-133059000I-250000J0D01*
G01*
X128462000Y-133059000D01*
G75*
G02*
X128212000Y-132809000I0J250000D01*
G01*
X128212000Y-131859000D01*
G75*
G02*
X128462000Y-131609000I250000J0D01*
G01*
X128962000Y-131609000D01*
G75*
G02*
X129212000Y-131859000I0J-250000D01*
G01*
G37*
%TD*%
%TO.C,C5*%
G36*
G01*
X130081000Y-129990000D02*
X131031000Y-129990000D01*
G75*
G02*
X131281000Y-130240000I0J-250000D01*
G01*
X131281000Y-130740000D01*
G75*
G02*
X131031000Y-130990000I-250000J0D01*
G01*
X130081000Y-130990000D01*
G75*
G02*
X129831000Y-130740000I0J250000D01*
G01*
X129831000Y-130240000D01*
G75*
G02*
X130081000Y-129990000I250000J0D01*
G01*
G37*
G36*
G01*
X130081000Y-128090000D02*
X131031000Y-128090000D01*
G75*
G02*
X131281000Y-128340000I0J-250000D01*
G01*
X131281000Y-128840000D01*
G75*
G02*
X131031000Y-129090000I-250000J0D01*
G01*
X130081000Y-129090000D01*
G75*
G02*
X129831000Y-128840000I0J250000D01*
G01*
X129831000Y-128340000D01*
G75*
G02*
X130081000Y-128090000I250000J0D01*
G01*
G37*
%TD*%
%TO.C,C4*%
G36*
G01*
X130081000Y-126434000D02*
X131031000Y-126434000D01*
G75*
G02*
X131281000Y-126684000I0J-250000D01*
G01*
X131281000Y-127184000D01*
G75*
G02*
X131031000Y-127434000I-250000J0D01*
G01*
X130081000Y-127434000D01*
G75*
G02*
X129831000Y-127184000I0J250000D01*
G01*
X129831000Y-126684000D01*
G75*
G02*
X130081000Y-126434000I250000J0D01*
G01*
G37*
G36*
G01*
X130081000Y-124534000D02*
X131031000Y-124534000D01*
G75*
G02*
X131281000Y-124784000I0J-250000D01*
G01*
X131281000Y-125284000D01*
G75*
G02*
X131031000Y-125534000I-250000J0D01*
G01*
X130081000Y-125534000D01*
G75*
G02*
X129831000Y-125284000I0J250000D01*
G01*
X129831000Y-124784000D01*
G75*
G02*
X130081000Y-124534000I250000J0D01*
G01*
G37*
%TD*%
%TO.C,C18*%
G36*
G01*
X134079000Y-90990000D02*
X133129000Y-90990000D01*
G75*
G02*
X132879000Y-90740000I0J250000D01*
G01*
X132879000Y-90240000D01*
G75*
G02*
X133129000Y-89990000I250000J0D01*
G01*
X134079000Y-89990000D01*
G75*
G02*
X134329000Y-90240000I0J-250000D01*
G01*
X134329000Y-90740000D01*
G75*
G02*
X134079000Y-90990000I-250000J0D01*
G01*
G37*
G36*
G01*
X134079000Y-92890000D02*
X133129000Y-92890000D01*
G75*
G02*
X132879000Y-92640000I0J250000D01*
G01*
X132879000Y-92140000D01*
G75*
G02*
X133129000Y-91890000I250000J0D01*
G01*
X134079000Y-91890000D01*
G75*
G02*
X134329000Y-92140000I0J-250000D01*
G01*
X134329000Y-92640000D01*
G75*
G02*
X134079000Y-92890000I-250000J0D01*
G01*
G37*
%TD*%
%TO.C,C17*%
G36*
G01*
X132047000Y-81592000D02*
X131097000Y-81592000D01*
G75*
G02*
X130847000Y-81342000I0J250000D01*
G01*
X130847000Y-80842000D01*
G75*
G02*
X131097000Y-80592000I250000J0D01*
G01*
X132047000Y-80592000D01*
G75*
G02*
X132297000Y-80842000I0J-250000D01*
G01*
X132297000Y-81342000D01*
G75*
G02*
X132047000Y-81592000I-250000J0D01*
G01*
G37*
G36*
G01*
X132047000Y-83492000D02*
X131097000Y-83492000D01*
G75*
G02*
X130847000Y-83242000I0J250000D01*
G01*
X130847000Y-82742000D01*
G75*
G02*
X131097000Y-82492000I250000J0D01*
G01*
X132047000Y-82492000D01*
G75*
G02*
X132297000Y-82742000I0J-250000D01*
G01*
X132297000Y-83242000D01*
G75*
G02*
X132047000Y-83492000I-250000J0D01*
G01*
G37*
%TD*%
%TO.C,C15*%
G36*
G01*
X123386000Y-96995000D02*
X123386000Y-96045000D01*
G75*
G02*
X123636000Y-95795000I250000J0D01*
G01*
X124136000Y-95795000D01*
G75*
G02*
X124386000Y-96045000I0J-250000D01*
G01*
X124386000Y-96995000D01*
G75*
G02*
X124136000Y-97245000I-250000J0D01*
G01*
X123636000Y-97245000D01*
G75*
G02*
X123386000Y-96995000I0J250000D01*
G01*
G37*
G36*
G01*
X121486000Y-96995000D02*
X121486000Y-96045000D01*
G75*
G02*
X121736000Y-95795000I250000J0D01*
G01*
X122236000Y-95795000D01*
G75*
G02*
X122486000Y-96045000I0J-250000D01*
G01*
X122486000Y-96995000D01*
G75*
G02*
X122236000Y-97245000I-250000J0D01*
G01*
X121736000Y-97245000D01*
G75*
G02*
X121486000Y-96995000I0J250000D01*
G01*
G37*
%TD*%
%TO.C,C14*%
G36*
G01*
X117381000Y-86048000D02*
X118331000Y-86048000D01*
G75*
G02*
X118581000Y-86298000I0J-250000D01*
G01*
X118581000Y-86798000D01*
G75*
G02*
X118331000Y-87048000I-250000J0D01*
G01*
X117381000Y-87048000D01*
G75*
G02*
X117131000Y-86798000I0J250000D01*
G01*
X117131000Y-86298000D01*
G75*
G02*
X117381000Y-86048000I250000J0D01*
G01*
G37*
G36*
G01*
X117381000Y-84148000D02*
X118331000Y-84148000D01*
G75*
G02*
X118581000Y-84398000I0J-250000D01*
G01*
X118581000Y-84898000D01*
G75*
G02*
X118331000Y-85148000I-250000J0D01*
G01*
X117381000Y-85148000D01*
G75*
G02*
X117131000Y-84898000I0J250000D01*
G01*
X117131000Y-84398000D01*
G75*
G02*
X117381000Y-84148000I250000J0D01*
G01*
G37*
%TD*%
%TO.C,C3*%
G36*
G01*
X119413000Y-131514000D02*
X120363000Y-131514000D01*
G75*
G02*
X120613000Y-131764000I0J-250000D01*
G01*
X120613000Y-132264000D01*
G75*
G02*
X120363000Y-132514000I-250000J0D01*
G01*
X119413000Y-132514000D01*
G75*
G02*
X119163000Y-132264000I0J250000D01*
G01*
X119163000Y-131764000D01*
G75*
G02*
X119413000Y-131514000I250000J0D01*
G01*
G37*
G36*
G01*
X119413000Y-129614000D02*
X120363000Y-129614000D01*
G75*
G02*
X120613000Y-129864000I0J-250000D01*
G01*
X120613000Y-130364000D01*
G75*
G02*
X120363000Y-130614000I-250000J0D01*
G01*
X119413000Y-130614000D01*
G75*
G02*
X119163000Y-130364000I0J250000D01*
G01*
X119163000Y-129864000D01*
G75*
G02*
X119413000Y-129614000I250000J0D01*
G01*
G37*
%TD*%
%TO.C,C12*%
G36*
G01*
X144214000Y-91407000D02*
X144214000Y-90457000D01*
G75*
G02*
X144464000Y-90207000I250000J0D01*
G01*
X144964000Y-90207000D01*
G75*
G02*
X145214000Y-90457000I0J-250000D01*
G01*
X145214000Y-91407000D01*
G75*
G02*
X144964000Y-91657000I-250000J0D01*
G01*
X144464000Y-91657000D01*
G75*
G02*
X144214000Y-91407000I0J250000D01*
G01*
G37*
G36*
G01*
X142314000Y-91407000D02*
X142314000Y-90457000D01*
G75*
G02*
X142564000Y-90207000I250000J0D01*
G01*
X143064000Y-90207000D01*
G75*
G02*
X143314000Y-90457000I0J-250000D01*
G01*
X143314000Y-91407000D01*
G75*
G02*
X143064000Y-91657000I-250000J0D01*
G01*
X142564000Y-91657000D01*
G75*
G02*
X142314000Y-91407000I0J250000D01*
G01*
G37*
%TD*%
%TO.C,C11*%
G36*
G01*
X144214000Y-86581000D02*
X144214000Y-85631000D01*
G75*
G02*
X144464000Y-85381000I250000J0D01*
G01*
X144964000Y-85381000D01*
G75*
G02*
X145214000Y-85631000I0J-250000D01*
G01*
X145214000Y-86581000D01*
G75*
G02*
X144964000Y-86831000I-250000J0D01*
G01*
X144464000Y-86831000D01*
G75*
G02*
X144214000Y-86581000I0J250000D01*
G01*
G37*
G36*
G01*
X142314000Y-86581000D02*
X142314000Y-85631000D01*
G75*
G02*
X142564000Y-85381000I250000J0D01*
G01*
X143064000Y-85381000D01*
G75*
G02*
X143314000Y-85631000I0J-250000D01*
G01*
X143314000Y-86581000D01*
G75*
G02*
X143064000Y-86831000I-250000J0D01*
G01*
X142564000Y-86831000D01*
G75*
G02*
X142314000Y-86581000I0J250000D01*
G01*
G37*
%TD*%
%TO.C,C8*%
G36*
G01*
X145575000Y-83254000D02*
X146525000Y-83254000D01*
G75*
G02*
X146775000Y-83504000I0J-250000D01*
G01*
X146775000Y-84004000D01*
G75*
G02*
X146525000Y-84254000I-250000J0D01*
G01*
X145575000Y-84254000D01*
G75*
G02*
X145325000Y-84004000I0J250000D01*
G01*
X145325000Y-83504000D01*
G75*
G02*
X145575000Y-83254000I250000J0D01*
G01*
G37*
G36*
G01*
X145575000Y-81354000D02*
X146525000Y-81354000D01*
G75*
G02*
X146775000Y-81604000I0J-250000D01*
G01*
X146775000Y-82104000D01*
G75*
G02*
X146525000Y-82354000I-250000J0D01*
G01*
X145575000Y-82354000D01*
G75*
G02*
X145325000Y-82104000I0J250000D01*
G01*
X145325000Y-81604000D01*
G75*
G02*
X145575000Y-81354000I250000J0D01*
G01*
G37*
%TD*%
%TO.C,C19*%
G36*
G01*
X151163000Y-126180000D02*
X152113000Y-126180000D01*
G75*
G02*
X152363000Y-126430000I0J-250000D01*
G01*
X152363000Y-126930000D01*
G75*
G02*
X152113000Y-127180000I-250000J0D01*
G01*
X151163000Y-127180000D01*
G75*
G02*
X150913000Y-126930000I0J250000D01*
G01*
X150913000Y-126430000D01*
G75*
G02*
X151163000Y-126180000I250000J0D01*
G01*
G37*
G36*
G01*
X151163000Y-124280000D02*
X152113000Y-124280000D01*
G75*
G02*
X152363000Y-124530000I0J-250000D01*
G01*
X152363000Y-125030000D01*
G75*
G02*
X152113000Y-125280000I-250000J0D01*
G01*
X151163000Y-125280000D01*
G75*
G02*
X150913000Y-125030000I0J250000D01*
G01*
X150913000Y-124530000D01*
G75*
G02*
X151163000Y-124280000I250000J0D01*
G01*
G37*
%TD*%
%TO.C,C16*%
G36*
G01*
X151417000Y-112022000D02*
X152367000Y-112022000D01*
G75*
G02*
X152617000Y-112272000I0J-250000D01*
G01*
X152617000Y-112772000D01*
G75*
G02*
X152367000Y-113022000I-250000J0D01*
G01*
X151417000Y-113022000D01*
G75*
G02*
X151167000Y-112772000I0J250000D01*
G01*
X151167000Y-112272000D01*
G75*
G02*
X151417000Y-112022000I250000J0D01*
G01*
G37*
G36*
G01*
X151417000Y-110122000D02*
X152367000Y-110122000D01*
G75*
G02*
X152617000Y-110372000I0J-250000D01*
G01*
X152617000Y-110872000D01*
G75*
G02*
X152367000Y-111122000I-250000J0D01*
G01*
X151417000Y-111122000D01*
G75*
G02*
X151167000Y-110872000I0J250000D01*
G01*
X151167000Y-110372000D01*
G75*
G02*
X151417000Y-110122000I250000J0D01*
G01*
G37*
%TD*%
%TO.C,C10*%
G36*
G01*
X130498000Y-97757000D02*
X130498000Y-96807000D01*
G75*
G02*
X130748000Y-96557000I250000J0D01*
G01*
X131248000Y-96557000D01*
G75*
G02*
X131498000Y-96807000I0J-250000D01*
G01*
X131498000Y-97757000D01*
G75*
G02*
X131248000Y-98007000I-250000J0D01*
G01*
X130748000Y-98007000D01*
G75*
G02*
X130498000Y-97757000I0J250000D01*
G01*
G37*
G36*
G01*
X128598000Y-97757000D02*
X128598000Y-96807000D01*
G75*
G02*
X128848000Y-96557000I250000J0D01*
G01*
X129348000Y-96557000D01*
G75*
G02*
X129598000Y-96807000I0J-250000D01*
G01*
X129598000Y-97757000D01*
G75*
G02*
X129348000Y-98007000I-250000J0D01*
G01*
X128848000Y-98007000D01*
G75*
G02*
X128598000Y-97757000I0J250000D01*
G01*
G37*
%TD*%
M02*
