%TF.GenerationSoftware,KiCad,Pcbnew,(5.1.9)-1*%
%TF.CreationDate,2022-01-29T17:26:48-05:00*%
%TF.ProjectId,BatteryMaster,42617474-6572-4794-9d61-737465722e6b,rev?*%
%TF.SameCoordinates,Original*%
%TF.FileFunction,Legend,Bot*%
%TF.FilePolarity,Positive*%
%FSLAX46Y46*%
G04 Gerber Fmt 4.6, Leading zero omitted, Abs format (unit mm)*
G04 Created by KiCad (PCBNEW (5.1.9)-1) date 2022-01-29 17:26:48*
%MOMM*%
%LPD*%
G01*
G04 APERTURE LIST*
%ADD10C,0.150000*%
%ADD11C,0.120000*%
G04 APERTURE END LIST*
D10*
X113347333Y-90130380D02*
X113014000Y-91130380D01*
X112680666Y-90130380D01*
X112347333Y-91130380D02*
X112347333Y-90130380D01*
X112109238Y-90130380D01*
X111966380Y-90178000D01*
X111871142Y-90273238D01*
X111823523Y-90368476D01*
X111775904Y-90558952D01*
X111775904Y-90701809D01*
X111823523Y-90892285D01*
X111871142Y-90987523D01*
X111966380Y-91082761D01*
X112109238Y-91130380D01*
X112347333Y-91130380D01*
X111347333Y-91130380D02*
X111347333Y-90130380D01*
X111109238Y-90130380D01*
X110966380Y-90178000D01*
X110871142Y-90273238D01*
X110823523Y-90368476D01*
X110775904Y-90558952D01*
X110775904Y-90701809D01*
X110823523Y-90892285D01*
X110871142Y-90987523D01*
X110966380Y-91082761D01*
X111109238Y-91130380D01*
X111347333Y-91130380D01*
X114895047Y-87526761D02*
X114752190Y-87574380D01*
X114514095Y-87574380D01*
X114418857Y-87526761D01*
X114371238Y-87479142D01*
X114323619Y-87383904D01*
X114323619Y-87288666D01*
X114371238Y-87193428D01*
X114418857Y-87145809D01*
X114514095Y-87098190D01*
X114704571Y-87050571D01*
X114799809Y-87002952D01*
X114847428Y-86955333D01*
X114895047Y-86860095D01*
X114895047Y-86764857D01*
X114847428Y-86669619D01*
X114799809Y-86622000D01*
X114704571Y-86574380D01*
X114466476Y-86574380D01*
X114323619Y-86622000D01*
X113990285Y-86574380D02*
X113752190Y-87574380D01*
X113561714Y-86860095D01*
X113371238Y-87574380D01*
X113133142Y-86574380D01*
X112752190Y-87574380D02*
X112752190Y-86574380D01*
X112514095Y-86574380D01*
X112371238Y-86622000D01*
X112276000Y-86717238D01*
X112228380Y-86812476D01*
X112180761Y-87002952D01*
X112180761Y-87145809D01*
X112228380Y-87336285D01*
X112276000Y-87431523D01*
X112371238Y-87526761D01*
X112514095Y-87574380D01*
X112752190Y-87574380D01*
X111752190Y-87574380D02*
X111752190Y-86574380D01*
X111085523Y-86574380D02*
X110895047Y-86574380D01*
X110799809Y-86622000D01*
X110704571Y-86717238D01*
X110656952Y-86907714D01*
X110656952Y-87241047D01*
X110704571Y-87431523D01*
X110799809Y-87526761D01*
X110895047Y-87574380D01*
X111085523Y-87574380D01*
X111180761Y-87526761D01*
X111276000Y-87431523D01*
X111323619Y-87241047D01*
X111323619Y-86907714D01*
X111276000Y-86717238D01*
X111180761Y-86622000D01*
X111085523Y-86574380D01*
X116299904Y-84986761D02*
X116157047Y-85034380D01*
X115918952Y-85034380D01*
X115823714Y-84986761D01*
X115776095Y-84939142D01*
X115728476Y-84843904D01*
X115728476Y-84748666D01*
X115776095Y-84653428D01*
X115823714Y-84605809D01*
X115918952Y-84558190D01*
X116109428Y-84510571D01*
X116204666Y-84462952D01*
X116252285Y-84415333D01*
X116299904Y-84320095D01*
X116299904Y-84224857D01*
X116252285Y-84129619D01*
X116204666Y-84082000D01*
X116109428Y-84034380D01*
X115871333Y-84034380D01*
X115728476Y-84082000D01*
X115395142Y-84034380D02*
X115157047Y-85034380D01*
X114966571Y-84320095D01*
X114776095Y-85034380D01*
X114538000Y-84034380D01*
X114157047Y-85034380D02*
X114157047Y-84034380D01*
X113918952Y-84034380D01*
X113776095Y-84082000D01*
X113680857Y-84177238D01*
X113633238Y-84272476D01*
X113585619Y-84462952D01*
X113585619Y-84605809D01*
X113633238Y-84796285D01*
X113680857Y-84891523D01*
X113776095Y-84986761D01*
X113918952Y-85034380D01*
X114157047Y-85034380D01*
X112585619Y-84939142D02*
X112633238Y-84986761D01*
X112776095Y-85034380D01*
X112871333Y-85034380D01*
X113014190Y-84986761D01*
X113109428Y-84891523D01*
X113157047Y-84796285D01*
X113204666Y-84605809D01*
X113204666Y-84462952D01*
X113157047Y-84272476D01*
X113109428Y-84177238D01*
X113014190Y-84082000D01*
X112871333Y-84034380D01*
X112776095Y-84034380D01*
X112633238Y-84082000D01*
X112585619Y-84129619D01*
X111680857Y-85034380D02*
X112157047Y-85034380D01*
X112157047Y-84034380D01*
X111347523Y-85034380D02*
X111347523Y-84034380D01*
X110776095Y-85034380D02*
X111204666Y-84462952D01*
X110776095Y-84034380D02*
X111347523Y-84605809D01*
X112775904Y-81542000D02*
X112871142Y-81494380D01*
X113014000Y-81494380D01*
X113156857Y-81542000D01*
X113252095Y-81637238D01*
X113299714Y-81732476D01*
X113347333Y-81922952D01*
X113347333Y-82065809D01*
X113299714Y-82256285D01*
X113252095Y-82351523D01*
X113156857Y-82446761D01*
X113014000Y-82494380D01*
X112918761Y-82494380D01*
X112775904Y-82446761D01*
X112728285Y-82399142D01*
X112728285Y-82065809D01*
X112918761Y-82065809D01*
X112299714Y-82494380D02*
X112299714Y-81494380D01*
X111728285Y-82494380D01*
X111728285Y-81494380D01*
X111252095Y-82494380D02*
X111252095Y-81494380D01*
X111014000Y-81494380D01*
X110871142Y-81542000D01*
X110775904Y-81637238D01*
X110728285Y-81732476D01*
X110680666Y-81922952D01*
X110680666Y-82065809D01*
X110728285Y-82256285D01*
X110775904Y-82351523D01*
X110871142Y-82446761D01*
X111014000Y-82494380D01*
X111252095Y-82494380D01*
X116299904Y-78954380D02*
X116299904Y-79763904D01*
X116252285Y-79859142D01*
X116204666Y-79906761D01*
X116109428Y-79954380D01*
X115918952Y-79954380D01*
X115823714Y-79906761D01*
X115776095Y-79859142D01*
X115728476Y-79763904D01*
X115728476Y-78954380D01*
X115299904Y-79906761D02*
X115157047Y-79954380D01*
X114918952Y-79954380D01*
X114823714Y-79906761D01*
X114776095Y-79859142D01*
X114728476Y-79763904D01*
X114728476Y-79668666D01*
X114776095Y-79573428D01*
X114823714Y-79525809D01*
X114918952Y-79478190D01*
X115109428Y-79430571D01*
X115204666Y-79382952D01*
X115252285Y-79335333D01*
X115299904Y-79240095D01*
X115299904Y-79144857D01*
X115252285Y-79049619D01*
X115204666Y-79002000D01*
X115109428Y-78954380D01*
X114871333Y-78954380D01*
X114728476Y-79002000D01*
X113966571Y-79430571D02*
X113823714Y-79478190D01*
X113776095Y-79525809D01*
X113728476Y-79621047D01*
X113728476Y-79763904D01*
X113776095Y-79859142D01*
X113823714Y-79906761D01*
X113918952Y-79954380D01*
X114299904Y-79954380D01*
X114299904Y-78954380D01*
X113966571Y-78954380D01*
X113871333Y-79002000D01*
X113823714Y-79049619D01*
X113776095Y-79144857D01*
X113776095Y-79240095D01*
X113823714Y-79335333D01*
X113871333Y-79382952D01*
X113966571Y-79430571D01*
X114299904Y-79430571D01*
X112538000Y-79954380D02*
X112538000Y-78954380D01*
X112299904Y-78954380D01*
X112157047Y-79002000D01*
X112061809Y-79097238D01*
X112014190Y-79192476D01*
X111966571Y-79382952D01*
X111966571Y-79525809D01*
X112014190Y-79716285D01*
X112061809Y-79811523D01*
X112157047Y-79906761D01*
X112299904Y-79954380D01*
X112538000Y-79954380D01*
X111538000Y-79573428D02*
X110776095Y-79573428D01*
X116299904Y-76414380D02*
X116299904Y-77223904D01*
X116252285Y-77319142D01*
X116204666Y-77366761D01*
X116109428Y-77414380D01*
X115918952Y-77414380D01*
X115823714Y-77366761D01*
X115776095Y-77319142D01*
X115728476Y-77223904D01*
X115728476Y-76414380D01*
X115299904Y-77366761D02*
X115157047Y-77414380D01*
X114918952Y-77414380D01*
X114823714Y-77366761D01*
X114776095Y-77319142D01*
X114728476Y-77223904D01*
X114728476Y-77128666D01*
X114776095Y-77033428D01*
X114823714Y-76985809D01*
X114918952Y-76938190D01*
X115109428Y-76890571D01*
X115204666Y-76842952D01*
X115252285Y-76795333D01*
X115299904Y-76700095D01*
X115299904Y-76604857D01*
X115252285Y-76509619D01*
X115204666Y-76462000D01*
X115109428Y-76414380D01*
X114871333Y-76414380D01*
X114728476Y-76462000D01*
X113966571Y-76890571D02*
X113823714Y-76938190D01*
X113776095Y-76985809D01*
X113728476Y-77081047D01*
X113728476Y-77223904D01*
X113776095Y-77319142D01*
X113823714Y-77366761D01*
X113918952Y-77414380D01*
X114299904Y-77414380D01*
X114299904Y-76414380D01*
X113966571Y-76414380D01*
X113871333Y-76462000D01*
X113823714Y-76509619D01*
X113776095Y-76604857D01*
X113776095Y-76700095D01*
X113823714Y-76795333D01*
X113871333Y-76842952D01*
X113966571Y-76890571D01*
X114299904Y-76890571D01*
X112538000Y-77414380D02*
X112538000Y-76414380D01*
X112299904Y-76414380D01*
X112157047Y-76462000D01*
X112061809Y-76557238D01*
X112014190Y-76652476D01*
X111966571Y-76842952D01*
X111966571Y-76985809D01*
X112014190Y-77176285D01*
X112061809Y-77271523D01*
X112157047Y-77366761D01*
X112299904Y-77414380D01*
X112538000Y-77414380D01*
X111538000Y-77033428D02*
X110776095Y-77033428D01*
X111157047Y-77414380D02*
X111157047Y-76652476D01*
X110323142Y-74572761D02*
X110180285Y-74620380D01*
X109942190Y-74620380D01*
X109846952Y-74572761D01*
X109799333Y-74525142D01*
X109751714Y-74429904D01*
X109751714Y-74334666D01*
X109799333Y-74239428D01*
X109846952Y-74191809D01*
X109942190Y-74144190D01*
X110132666Y-74096571D01*
X110227904Y-74048952D01*
X110275523Y-74001333D01*
X110323142Y-73906095D01*
X110323142Y-73810857D01*
X110275523Y-73715619D01*
X110227904Y-73668000D01*
X110132666Y-73620380D01*
X109894571Y-73620380D01*
X109751714Y-73668000D01*
X109418380Y-73620380D02*
X109180285Y-74620380D01*
X108989809Y-73906095D01*
X108799333Y-74620380D01*
X108561238Y-73620380D01*
X108180285Y-74620380D02*
X108180285Y-73620380D01*
X107942190Y-73620380D01*
X107799333Y-73668000D01*
X107704095Y-73763238D01*
X107656476Y-73858476D01*
X107608857Y-74048952D01*
X107608857Y-74191809D01*
X107656476Y-74382285D01*
X107704095Y-74477523D01*
X107799333Y-74572761D01*
X107942190Y-74620380D01*
X108180285Y-74620380D01*
X193699380Y-96266857D02*
X193699380Y-96838285D01*
X194699380Y-96552571D02*
X193699380Y-96552571D01*
X193699380Y-97457333D02*
X194413666Y-97457333D01*
X194556523Y-97409714D01*
X194651761Y-97314476D01*
X194699380Y-97171619D01*
X194699380Y-97076380D01*
X194604142Y-99266857D02*
X194651761Y-99219238D01*
X194699380Y-99076380D01*
X194699380Y-98981142D01*
X194651761Y-98838285D01*
X194556523Y-98743047D01*
X194461285Y-98695428D01*
X194270809Y-98647809D01*
X194127952Y-98647809D01*
X193937476Y-98695428D01*
X193842238Y-98743047D01*
X193747000Y-98838285D01*
X193699380Y-98981142D01*
X193699380Y-99076380D01*
X193747000Y-99219238D01*
X193794619Y-99266857D01*
X194032714Y-100124000D02*
X194699380Y-100124000D01*
X194032714Y-99695428D02*
X194556523Y-99695428D01*
X194651761Y-99743047D01*
X194699380Y-99838285D01*
X194699380Y-99981142D01*
X194651761Y-100076380D01*
X194604142Y-100124000D01*
X194651761Y-100552571D02*
X194699380Y-100647809D01*
X194699380Y-100838285D01*
X194651761Y-100933523D01*
X194556523Y-100981142D01*
X194508904Y-100981142D01*
X194413666Y-100933523D01*
X194366047Y-100838285D01*
X194366047Y-100695428D01*
X194318428Y-100600190D01*
X194223190Y-100552571D01*
X194175571Y-100552571D01*
X194080333Y-100600190D01*
X194032714Y-100695428D01*
X194032714Y-100838285D01*
X194080333Y-100933523D01*
X194032714Y-101266857D02*
X194032714Y-101647809D01*
X193699380Y-101409714D02*
X194556523Y-101409714D01*
X194651761Y-101457333D01*
X194699380Y-101552571D01*
X194699380Y-101647809D01*
X194699380Y-102124000D02*
X194651761Y-102028761D01*
X194604142Y-101981142D01*
X194508904Y-101933523D01*
X194223190Y-101933523D01*
X194127952Y-101981142D01*
X194080333Y-102028761D01*
X194032714Y-102124000D01*
X194032714Y-102266857D01*
X194080333Y-102362095D01*
X194127952Y-102409714D01*
X194223190Y-102457333D01*
X194508904Y-102457333D01*
X194604142Y-102409714D01*
X194651761Y-102362095D01*
X194699380Y-102266857D01*
X194699380Y-102124000D01*
X194699380Y-102885904D02*
X194032714Y-102885904D01*
X194127952Y-102885904D02*
X194080333Y-102933523D01*
X194032714Y-103028761D01*
X194032714Y-103171619D01*
X194080333Y-103266857D01*
X194175571Y-103314476D01*
X194699380Y-103314476D01*
X194175571Y-103314476D02*
X194080333Y-103362095D01*
X194032714Y-103457333D01*
X194032714Y-103600190D01*
X194080333Y-103695428D01*
X194175571Y-103743047D01*
X194699380Y-103743047D01*
X194175571Y-104981142D02*
X194175571Y-105314476D01*
X194699380Y-105457333D02*
X194699380Y-104981142D01*
X193699380Y-104981142D01*
X193699380Y-105457333D01*
X194699380Y-105885904D02*
X193699380Y-105885904D01*
X193699380Y-106266857D01*
X193747000Y-106362095D01*
X193794619Y-106409714D01*
X193889857Y-106457333D01*
X194032714Y-106457333D01*
X194127952Y-106409714D01*
X194175571Y-106362095D01*
X194223190Y-106266857D01*
X194223190Y-105885904D01*
X194651761Y-106838285D02*
X194699380Y-106981142D01*
X194699380Y-107219238D01*
X194651761Y-107314476D01*
X194604142Y-107362095D01*
X194508904Y-107409714D01*
X194413666Y-107409714D01*
X194318428Y-107362095D01*
X194270809Y-107314476D01*
X194223190Y-107219238D01*
X194175571Y-107028761D01*
X194127952Y-106933523D01*
X194080333Y-106885904D01*
X193985095Y-106838285D01*
X193889857Y-106838285D01*
X193794619Y-106885904D01*
X193747000Y-106933523D01*
X193699380Y-107028761D01*
X193699380Y-107266857D01*
X193747000Y-107409714D01*
X194032714Y-108504952D02*
X194699380Y-108743047D01*
X194032714Y-108981142D01*
X194699380Y-109885904D02*
X194699380Y-109314476D01*
X194699380Y-109600190D02*
X193699380Y-109600190D01*
X193842238Y-109504952D01*
X193937476Y-109409714D01*
X193985095Y-109314476D01*
X196063666Y-98147809D02*
X196063666Y-98624000D01*
X196349380Y-98052571D02*
X195349380Y-98385904D01*
X196349380Y-98719238D01*
X196349380Y-99195428D02*
X196301761Y-99100190D01*
X196206523Y-99052571D01*
X195349380Y-99052571D01*
X196349380Y-100004952D02*
X195825571Y-100004952D01*
X195730333Y-99957333D01*
X195682714Y-99862095D01*
X195682714Y-99671619D01*
X195730333Y-99576380D01*
X196301761Y-100004952D02*
X196349380Y-99909714D01*
X196349380Y-99671619D01*
X196301761Y-99576380D01*
X196206523Y-99528761D01*
X196111285Y-99528761D01*
X196016047Y-99576380D01*
X195968428Y-99671619D01*
X195968428Y-99909714D01*
X195920809Y-100004952D01*
X195682714Y-100481142D02*
X196349380Y-100481142D01*
X195777952Y-100481142D02*
X195730333Y-100528761D01*
X195682714Y-100624000D01*
X195682714Y-100766857D01*
X195730333Y-100862095D01*
X195825571Y-100909714D01*
X196349380Y-100909714D01*
X196349380Y-102147809D02*
X195349380Y-102147809D01*
X195825571Y-102147809D02*
X195825571Y-102719238D01*
X196349380Y-102719238D02*
X195349380Y-102719238D01*
X196301761Y-103147809D02*
X196349380Y-103243047D01*
X196349380Y-103433523D01*
X196301761Y-103528761D01*
X196206523Y-103576380D01*
X196158904Y-103576380D01*
X196063666Y-103528761D01*
X196016047Y-103433523D01*
X196016047Y-103290666D01*
X195968428Y-103195428D01*
X195873190Y-103147809D01*
X195825571Y-103147809D01*
X195730333Y-103195428D01*
X195682714Y-103290666D01*
X195682714Y-103433523D01*
X195730333Y-103528761D01*
X195682714Y-104433523D02*
X196349380Y-104433523D01*
X195682714Y-104004952D02*
X196206523Y-104004952D01*
X196301761Y-104052571D01*
X196349380Y-104147809D01*
X196349380Y-104290666D01*
X196301761Y-104385904D01*
X196254142Y-104433523D01*
X196301761Y-104957333D02*
X196349380Y-104957333D01*
X196444619Y-104909714D01*
X196492238Y-104862095D01*
X195349380Y-106195428D02*
X195539857Y-106100190D01*
X195444619Y-106576380D02*
X195397000Y-106624000D01*
X195349380Y-106719238D01*
X195349380Y-106957333D01*
X195397000Y-107052571D01*
X195444619Y-107100190D01*
X195539857Y-107147809D01*
X195635095Y-107147809D01*
X195777952Y-107100190D01*
X196349380Y-106528761D01*
X196349380Y-107147809D01*
X195349380Y-107481142D02*
X195349380Y-108100190D01*
X195730333Y-107766857D01*
X195730333Y-107909714D01*
X195777952Y-108004952D01*
X195825571Y-108052571D01*
X195920809Y-108100190D01*
X196158904Y-108100190D01*
X196254142Y-108052571D01*
X196301761Y-108004952D01*
X196349380Y-107909714D01*
X196349380Y-107624000D01*
X196301761Y-107528761D01*
X196254142Y-107481142D01*
X110084619Y-129285142D02*
X110084619Y-128713714D01*
X109084619Y-128999428D02*
X110084619Y-128999428D01*
X110084619Y-128094666D02*
X109370333Y-128094666D01*
X109227476Y-128142285D01*
X109132238Y-128237523D01*
X109084619Y-128380380D01*
X109084619Y-128475619D01*
X109179857Y-126285142D02*
X109132238Y-126332761D01*
X109084619Y-126475619D01*
X109084619Y-126570857D01*
X109132238Y-126713714D01*
X109227476Y-126808952D01*
X109322714Y-126856571D01*
X109513190Y-126904190D01*
X109656047Y-126904190D01*
X109846523Y-126856571D01*
X109941761Y-126808952D01*
X110037000Y-126713714D01*
X110084619Y-126570857D01*
X110084619Y-126475619D01*
X110037000Y-126332761D01*
X109989380Y-126285142D01*
X109751285Y-125428000D02*
X109084619Y-125428000D01*
X109751285Y-125856571D02*
X109227476Y-125856571D01*
X109132238Y-125808952D01*
X109084619Y-125713714D01*
X109084619Y-125570857D01*
X109132238Y-125475619D01*
X109179857Y-125428000D01*
X109132238Y-124999428D02*
X109084619Y-124904190D01*
X109084619Y-124713714D01*
X109132238Y-124618476D01*
X109227476Y-124570857D01*
X109275095Y-124570857D01*
X109370333Y-124618476D01*
X109417952Y-124713714D01*
X109417952Y-124856571D01*
X109465571Y-124951809D01*
X109560809Y-124999428D01*
X109608428Y-124999428D01*
X109703666Y-124951809D01*
X109751285Y-124856571D01*
X109751285Y-124713714D01*
X109703666Y-124618476D01*
X109751285Y-124285142D02*
X109751285Y-123904190D01*
X110084619Y-124142285D02*
X109227476Y-124142285D01*
X109132238Y-124094666D01*
X109084619Y-123999428D01*
X109084619Y-123904190D01*
X109084619Y-123428000D02*
X109132238Y-123523238D01*
X109179857Y-123570857D01*
X109275095Y-123618476D01*
X109560809Y-123618476D01*
X109656047Y-123570857D01*
X109703666Y-123523238D01*
X109751285Y-123428000D01*
X109751285Y-123285142D01*
X109703666Y-123189904D01*
X109656047Y-123142285D01*
X109560809Y-123094666D01*
X109275095Y-123094666D01*
X109179857Y-123142285D01*
X109132238Y-123189904D01*
X109084619Y-123285142D01*
X109084619Y-123428000D01*
X109084619Y-122666095D02*
X109751285Y-122666095D01*
X109656047Y-122666095D02*
X109703666Y-122618476D01*
X109751285Y-122523238D01*
X109751285Y-122380380D01*
X109703666Y-122285142D01*
X109608428Y-122237523D01*
X109084619Y-122237523D01*
X109608428Y-122237523D02*
X109703666Y-122189904D01*
X109751285Y-122094666D01*
X109751285Y-121951809D01*
X109703666Y-121856571D01*
X109608428Y-121808952D01*
X109084619Y-121808952D01*
X109608428Y-120570857D02*
X109608428Y-120237523D01*
X109084619Y-120094666D02*
X109084619Y-120570857D01*
X110084619Y-120570857D01*
X110084619Y-120094666D01*
X109084619Y-119666095D02*
X110084619Y-119666095D01*
X110084619Y-119285142D01*
X110037000Y-119189904D01*
X109989380Y-119142285D01*
X109894142Y-119094666D01*
X109751285Y-119094666D01*
X109656047Y-119142285D01*
X109608428Y-119189904D01*
X109560809Y-119285142D01*
X109560809Y-119666095D01*
X109132238Y-118713714D02*
X109084619Y-118570857D01*
X109084619Y-118332761D01*
X109132238Y-118237523D01*
X109179857Y-118189904D01*
X109275095Y-118142285D01*
X109370333Y-118142285D01*
X109465571Y-118189904D01*
X109513190Y-118237523D01*
X109560809Y-118332761D01*
X109608428Y-118523238D01*
X109656047Y-118618476D01*
X109703666Y-118666095D01*
X109798904Y-118713714D01*
X109894142Y-118713714D01*
X109989380Y-118666095D01*
X110037000Y-118618476D01*
X110084619Y-118523238D01*
X110084619Y-118285142D01*
X110037000Y-118142285D01*
X109751285Y-117047047D02*
X109084619Y-116808952D01*
X109751285Y-116570857D01*
X109084619Y-115666095D02*
X109084619Y-116237523D01*
X109084619Y-115951809D02*
X110084619Y-115951809D01*
X109941761Y-116047047D01*
X109846523Y-116142285D01*
X109798904Y-116237523D01*
X107720333Y-127404190D02*
X107720333Y-126928000D01*
X107434619Y-127499428D02*
X108434619Y-127166095D01*
X107434619Y-126832761D01*
X107434619Y-126356571D02*
X107482238Y-126451809D01*
X107577476Y-126499428D01*
X108434619Y-126499428D01*
X107434619Y-125547047D02*
X107958428Y-125547047D01*
X108053666Y-125594666D01*
X108101285Y-125689904D01*
X108101285Y-125880380D01*
X108053666Y-125975619D01*
X107482238Y-125547047D02*
X107434619Y-125642285D01*
X107434619Y-125880380D01*
X107482238Y-125975619D01*
X107577476Y-126023238D01*
X107672714Y-126023238D01*
X107767952Y-125975619D01*
X107815571Y-125880380D01*
X107815571Y-125642285D01*
X107863190Y-125547047D01*
X108101285Y-125070857D02*
X107434619Y-125070857D01*
X108006047Y-125070857D02*
X108053666Y-125023238D01*
X108101285Y-124928000D01*
X108101285Y-124785142D01*
X108053666Y-124689904D01*
X107958428Y-124642285D01*
X107434619Y-124642285D01*
X107434619Y-123404190D02*
X108434619Y-123404190D01*
X107958428Y-123404190D02*
X107958428Y-122832761D01*
X107434619Y-122832761D02*
X108434619Y-122832761D01*
X107482238Y-122404190D02*
X107434619Y-122308952D01*
X107434619Y-122118476D01*
X107482238Y-122023238D01*
X107577476Y-121975619D01*
X107625095Y-121975619D01*
X107720333Y-122023238D01*
X107767952Y-122118476D01*
X107767952Y-122261333D01*
X107815571Y-122356571D01*
X107910809Y-122404190D01*
X107958428Y-122404190D01*
X108053666Y-122356571D01*
X108101285Y-122261333D01*
X108101285Y-122118476D01*
X108053666Y-122023238D01*
X108101285Y-121118476D02*
X107434619Y-121118476D01*
X108101285Y-121547047D02*
X107577476Y-121547047D01*
X107482238Y-121499428D01*
X107434619Y-121404190D01*
X107434619Y-121261333D01*
X107482238Y-121166095D01*
X107529857Y-121118476D01*
X107482238Y-120594666D02*
X107434619Y-120594666D01*
X107339380Y-120642285D01*
X107291761Y-120689904D01*
X108434619Y-119356571D02*
X108244142Y-119451809D01*
X108339380Y-118975619D02*
X108387000Y-118928000D01*
X108434619Y-118832761D01*
X108434619Y-118594666D01*
X108387000Y-118499428D01*
X108339380Y-118451809D01*
X108244142Y-118404190D01*
X108148904Y-118404190D01*
X108006047Y-118451809D01*
X107434619Y-119023238D01*
X107434619Y-118404190D01*
X108434619Y-118070857D02*
X108434619Y-117451809D01*
X108053666Y-117785142D01*
X108053666Y-117642285D01*
X108006047Y-117547047D01*
X107958428Y-117499428D01*
X107863190Y-117451809D01*
X107625095Y-117451809D01*
X107529857Y-117499428D01*
X107482238Y-117547047D01*
X107434619Y-117642285D01*
X107434619Y-117928000D01*
X107482238Y-118023238D01*
X107529857Y-118070857D01*
D11*
%TO.C,Q26*%
X126492000Y-120416000D02*
X124542000Y-120416000D01*
X126492000Y-120416000D02*
X128442000Y-120416000D01*
X126492000Y-115296000D02*
X124542000Y-115296000D01*
X126492000Y-115296000D02*
X129942000Y-115296000D01*
%TO.C,JP1*%
X125446000Y-75762000D02*
X125746000Y-75462000D01*
X125146000Y-75462000D02*
X125746000Y-75462000D01*
X125446000Y-75762000D02*
X125146000Y-75462000D01*
X124696000Y-75962000D02*
X124696000Y-77962000D01*
X128796000Y-75962000D02*
X124696000Y-75962000D01*
X128796000Y-77962000D02*
X128796000Y-75962000D01*
X124696000Y-77962000D02*
X128796000Y-77962000D01*
%TO.C,U5*%
X184490000Y-77724000D02*
X184490000Y-79224000D01*
X184490000Y-77724000D02*
X184490000Y-76224000D01*
X181270000Y-77724000D02*
X181270000Y-79224000D01*
X181270000Y-77724000D02*
X181270000Y-74799000D01*
%TO.C,U4*%
X180594000Y-97048000D02*
X178644000Y-97048000D01*
X180594000Y-97048000D02*
X182544000Y-97048000D01*
X180594000Y-91928000D02*
X178644000Y-91928000D01*
X180594000Y-91928000D02*
X184044000Y-91928000D01*
%TO.C,Q4*%
X179598000Y-77724000D02*
X179598000Y-79674000D01*
X179598000Y-77724000D02*
X179598000Y-75774000D01*
X174478000Y-77724000D02*
X174478000Y-79674000D01*
X174478000Y-77724000D02*
X174478000Y-74274000D01*
%TO.C,C9*%
X170715000Y-80886748D02*
X170715000Y-81409252D01*
X172185000Y-80886748D02*
X172185000Y-81409252D01*
%TO.C,H1*%
X119476000Y-60479000D02*
X119476000Y-61809000D01*
X119476000Y-61809000D02*
X120806000Y-61809000D01*
X119476000Y-59209000D02*
X122076000Y-59209000D01*
X122076000Y-59209000D02*
X122076000Y-61809000D01*
X122076000Y-61809000D02*
X185636000Y-61809000D01*
X185636000Y-56609000D02*
X185636000Y-61809000D01*
X119476000Y-56609000D02*
X185636000Y-56609000D01*
X119476000Y-56609000D02*
X119476000Y-59209000D01*
%TO.C,H2*%
X119476000Y-65559000D02*
X119476000Y-66889000D01*
X119476000Y-66889000D02*
X120806000Y-66889000D01*
X119476000Y-64289000D02*
X122076000Y-64289000D01*
X122076000Y-64289000D02*
X122076000Y-66889000D01*
X122076000Y-66889000D02*
X185636000Y-66889000D01*
X185636000Y-61689000D02*
X185636000Y-66889000D01*
X119476000Y-61689000D02*
X185636000Y-61689000D01*
X119476000Y-61689000D02*
X119476000Y-64289000D01*
%TO.C,Q25*%
X168912000Y-126294000D02*
X168912000Y-125364000D01*
X168912000Y-123134000D02*
X168912000Y-124064000D01*
X168912000Y-123134000D02*
X171072000Y-123134000D01*
X168912000Y-126294000D02*
X170372000Y-126294000D01*
%TO.C,Q24*%
X165356000Y-123754000D02*
X165356000Y-122824000D01*
X165356000Y-120594000D02*
X165356000Y-121524000D01*
X165356000Y-120594000D02*
X167516000Y-120594000D01*
X165356000Y-123754000D02*
X166816000Y-123754000D01*
%TO.C,Q22*%
X189740000Y-135438000D02*
X189740000Y-134508000D01*
X189740000Y-132278000D02*
X189740000Y-133208000D01*
X189740000Y-132278000D02*
X191900000Y-132278000D01*
X189740000Y-135438000D02*
X191200000Y-135438000D01*
%TO.C,Q21*%
X186184000Y-132898000D02*
X186184000Y-131968000D01*
X186184000Y-129738000D02*
X186184000Y-130668000D01*
X186184000Y-129738000D02*
X188344000Y-129738000D01*
X186184000Y-132898000D02*
X187644000Y-132898000D01*
%TO.C,Q19*%
X185930000Y-124770000D02*
X185930000Y-123840000D01*
X185930000Y-121610000D02*
X185930000Y-122540000D01*
X185930000Y-121610000D02*
X188090000Y-121610000D01*
X185930000Y-124770000D02*
X187390000Y-124770000D01*
%TO.C,Q18*%
X182374000Y-122230000D02*
X182374000Y-121300000D01*
X182374000Y-119070000D02*
X182374000Y-120000000D01*
X182374000Y-119070000D02*
X184534000Y-119070000D01*
X182374000Y-122230000D02*
X183834000Y-122230000D01*
%TO.C,Q16*%
X170436000Y-136454000D02*
X170436000Y-135524000D01*
X170436000Y-133294000D02*
X170436000Y-134224000D01*
X170436000Y-133294000D02*
X172596000Y-133294000D01*
X170436000Y-136454000D02*
X171896000Y-136454000D01*
%TO.C,Q15*%
X166880000Y-133914000D02*
X166880000Y-132984000D01*
X166880000Y-130754000D02*
X166880000Y-131684000D01*
X166880000Y-130754000D02*
X169040000Y-130754000D01*
X166880000Y-133914000D02*
X168340000Y-133914000D01*
%TO.C,U2*%
X164962000Y-86782000D02*
X166762000Y-86782000D01*
X166762000Y-90002000D02*
X164312000Y-90002000D01*
%TO.C,U1*%
X159380000Y-80626000D02*
X159380000Y-79366000D01*
X159380000Y-73806000D02*
X159380000Y-75066000D01*
X163140000Y-80626000D02*
X159380000Y-80626000D01*
X165390000Y-73806000D02*
X159380000Y-73806000D01*
%TO.C,R25*%
X167285936Y-114908000D02*
X167740064Y-114908000D01*
X167285936Y-113438000D02*
X167740064Y-113438000D01*
%TO.C,R23*%
X162841000Y-114834936D02*
X162841000Y-115289064D01*
X164311000Y-114834936D02*
X164311000Y-115289064D01*
%TO.C,R12*%
X176303000Y-99594936D02*
X176303000Y-100049064D01*
X177773000Y-99594936D02*
X177773000Y-100049064D01*
%TO.C,R11*%
X173762936Y-98017000D02*
X174217064Y-98017000D01*
X173762936Y-96547000D02*
X174217064Y-96547000D01*
%TO.C,R7*%
X188240936Y-94207000D02*
X188695064Y-94207000D01*
X188240936Y-92737000D02*
X188695064Y-92737000D01*
%TO.C,R6*%
X186663000Y-96747064D02*
X186663000Y-96292936D01*
X185193000Y-96747064D02*
X185193000Y-96292936D01*
%TO.C,R5*%
X169191000Y-90093436D02*
X169191000Y-90547564D01*
X170661000Y-90093436D02*
X170661000Y-90547564D01*
%TO.C,R4*%
X170661000Y-86841064D02*
X170661000Y-86386936D01*
X169191000Y-86841064D02*
X169191000Y-86386936D01*
%TO.C,R1*%
X166589064Y-83418000D02*
X165134936Y-83418000D01*
X166589064Y-85238000D02*
X165134936Y-85238000D01*
%TO.C,Q9*%
X162032000Y-108458000D02*
X162032000Y-106508000D01*
X162032000Y-108458000D02*
X162032000Y-110408000D01*
X167152000Y-108458000D02*
X167152000Y-106508000D01*
X167152000Y-108458000D02*
X167152000Y-111908000D01*
%TO.C,Q8*%
X169398000Y-108458000D02*
X169398000Y-106508000D01*
X169398000Y-108458000D02*
X169398000Y-110408000D01*
X174518000Y-108458000D02*
X174518000Y-106508000D01*
X174518000Y-108458000D02*
X174518000Y-111908000D01*
%TO.C,JP3*%
X154499000Y-121252000D02*
X154499000Y-120449530D01*
X154499000Y-119834470D02*
X154499000Y-119032000D01*
X155704000Y-121252000D02*
X154499000Y-121252000D01*
X155704000Y-119032000D02*
X154499000Y-119032000D01*
X155704000Y-121252000D02*
X155704000Y-120705471D01*
X155704000Y-119578529D02*
X155704000Y-119032000D01*
X156464000Y-121252000D02*
X157224000Y-121252000D01*
X157224000Y-121252000D02*
X157224000Y-120142000D01*
%TO.C,JP2*%
X148403000Y-118204000D02*
X148403000Y-117401530D01*
X148403000Y-116786470D02*
X148403000Y-115984000D01*
X149608000Y-118204000D02*
X148403000Y-118204000D01*
X149608000Y-115984000D02*
X148403000Y-115984000D01*
X149608000Y-118204000D02*
X149608000Y-117657471D01*
X149608000Y-116530529D02*
X149608000Y-115984000D01*
X150368000Y-118204000D02*
X151128000Y-118204000D01*
X151128000Y-118204000D02*
X151128000Y-117094000D01*
%TO.C,C13*%
X159539000Y-109720748D02*
X159539000Y-110243252D01*
X161009000Y-109720748D02*
X161009000Y-110243252D01*
%TO.C,C7*%
X180332748Y-90143000D02*
X180855252Y-90143000D01*
X180332748Y-88673000D02*
X180855252Y-88673000D01*
%TO.C,C2*%
X163041000Y-91701252D02*
X163041000Y-91178748D01*
X161571000Y-91701252D02*
X161571000Y-91178748D01*
%TO.C,C1*%
X168629000Y-78747252D02*
X168629000Y-78224748D01*
X167159000Y-78747252D02*
X167159000Y-78224748D01*
%TO.C,Y1*%
X136413000Y-85346000D02*
X136413000Y-91746000D01*
X141463000Y-85346000D02*
X141463000Y-91746000D01*
X141463000Y-91746000D02*
G75*
G02*
X136413000Y-91746000I-2525000J0D01*
G01*
X141463000Y-85346000D02*
G75*
G03*
X136413000Y-85346000I-2525000J0D01*
G01*
%TO.C,U3*%
X125030000Y-130936000D02*
X124080000Y-130936000D01*
X127730000Y-127636000D02*
X126430000Y-127636000D01*
X125030000Y-127636000D02*
X124080000Y-127636000D01*
X127380000Y-130936000D02*
X126430000Y-130936000D01*
X124080000Y-127836000D02*
X124080000Y-127636000D01*
X124080000Y-130736000D02*
X124080000Y-130936000D01*
X127380000Y-130936000D02*
X127380000Y-130736000D01*
%TO.C,U8*%
X123233500Y-92736000D02*
X122783500Y-92736000D01*
X122783500Y-92736000D02*
X122783500Y-92286000D01*
X129553500Y-92736000D02*
X130003500Y-92736000D01*
X130003500Y-92736000D02*
X130003500Y-92286000D01*
X123233500Y-85516000D02*
X122783500Y-85516000D01*
X122783500Y-85516000D02*
X122783500Y-85966000D01*
X129553500Y-85516000D02*
X130003500Y-85516000D01*
X130003500Y-85516000D02*
X130003500Y-85966000D01*
X130003500Y-85966000D02*
X131293500Y-85966000D01*
%TO.C,U7*%
X185030000Y-111288000D02*
X183270000Y-111288000D01*
X183270000Y-108218000D02*
X185700000Y-108218000D01*
%TO.C,U6*%
X148960000Y-81448000D02*
X150760000Y-81448000D01*
X150760000Y-84668000D02*
X148310000Y-84668000D01*
%TO.C,R57*%
X120423000Y-144656436D02*
X120423000Y-145110564D01*
X121893000Y-144656436D02*
X121893000Y-145110564D01*
%TO.C,R55*%
X171985000Y-124486936D02*
X171985000Y-124941064D01*
X173455000Y-124486936D02*
X173455000Y-124941064D01*
%TO.C,R54*%
X165581064Y-124233000D02*
X165126936Y-124233000D01*
X165581064Y-125703000D02*
X165126936Y-125703000D01*
%TO.C,R53*%
X163803000Y-122401064D02*
X163803000Y-121946936D01*
X162333000Y-122401064D02*
X162333000Y-121946936D01*
%TO.C,R52*%
X171985000Y-120676936D02*
X171985000Y-121131064D01*
X173455000Y-120676936D02*
X173455000Y-121131064D01*
%TO.C,R51*%
X162787064Y-118391000D02*
X162332936Y-118391000D01*
X162787064Y-119861000D02*
X162332936Y-119861000D01*
%TO.C,R50*%
X180621000Y-144552936D02*
X180621000Y-145007064D01*
X182091000Y-144552936D02*
X182091000Y-145007064D01*
%TO.C,R48*%
X192813000Y-133630936D02*
X192813000Y-134085064D01*
X194283000Y-133630936D02*
X194283000Y-134085064D01*
%TO.C,R47*%
X186917064Y-133377000D02*
X186462936Y-133377000D01*
X186917064Y-134847000D02*
X186462936Y-134847000D01*
%TO.C,R46*%
X184631000Y-131545064D02*
X184631000Y-131090936D01*
X183161000Y-131545064D02*
X183161000Y-131090936D01*
%TO.C,R45*%
X192813000Y-129820936D02*
X192813000Y-130275064D01*
X194283000Y-129820936D02*
X194283000Y-130275064D01*
%TO.C,R44*%
X183869064Y-127535000D02*
X183414936Y-127535000D01*
X183869064Y-129005000D02*
X183414936Y-129005000D01*
%TO.C,R43*%
X160555000Y-144552936D02*
X160555000Y-145007064D01*
X162025000Y-144552936D02*
X162025000Y-145007064D01*
%TO.C,R41*%
X188749000Y-122962936D02*
X188749000Y-123417064D01*
X190219000Y-122962936D02*
X190219000Y-123417064D01*
%TO.C,R40*%
X183107064Y-122709000D02*
X182652936Y-122709000D01*
X183107064Y-124179000D02*
X182652936Y-124179000D01*
%TO.C,R39*%
X181075000Y-120877064D02*
X181075000Y-120422936D01*
X179605000Y-120877064D02*
X179605000Y-120422936D01*
%TO.C,R38*%
X188749000Y-119152936D02*
X188749000Y-119607064D01*
X190219000Y-119152936D02*
X190219000Y-119607064D01*
%TO.C,R37*%
X180059064Y-116867000D02*
X179604936Y-116867000D01*
X180059064Y-118337000D02*
X179604936Y-118337000D01*
%TO.C,R36*%
X140489000Y-144656436D02*
X140489000Y-145110564D01*
X141959000Y-144656436D02*
X141959000Y-145110564D01*
%TO.C,R34*%
X173509000Y-134646936D02*
X173509000Y-135101064D01*
X174979000Y-134646936D02*
X174979000Y-135101064D01*
%TO.C,R33*%
X167613064Y-134393000D02*
X167158936Y-134393000D01*
X167613064Y-135863000D02*
X167158936Y-135863000D01*
%TO.C,R32*%
X165581000Y-132561064D02*
X165581000Y-132106936D01*
X164111000Y-132561064D02*
X164111000Y-132106936D01*
%TO.C,R31*%
X173509000Y-130836936D02*
X173509000Y-131291064D01*
X174979000Y-130836936D02*
X174979000Y-131291064D01*
%TO.C,R30*%
X177011000Y-127989064D02*
X177011000Y-127534936D01*
X175541000Y-127989064D02*
X175541000Y-127534936D01*
%TO.C,R10*%
X139727000Y-123470936D02*
X139727000Y-123925064D01*
X141197000Y-123470936D02*
X141197000Y-123925064D01*
%TO.C,R9*%
X136171000Y-123470936D02*
X136171000Y-123925064D01*
X137641000Y-123470936D02*
X137641000Y-123925064D01*
%TO.C,R8*%
X126773000Y-124740936D02*
X126773000Y-125195064D01*
X128243000Y-124740936D02*
X128243000Y-125195064D01*
%TO.C,R3*%
X122709000Y-124740936D02*
X122709000Y-125195064D01*
X124179000Y-124740936D02*
X124179000Y-125195064D01*
%TO.C,R2*%
X119153000Y-126772936D02*
X119153000Y-127227064D01*
X120623000Y-126772936D02*
X120623000Y-127227064D01*
%TO.C,R24*%
X136424936Y-96493000D02*
X136879064Y-96493000D01*
X136424936Y-95023000D02*
X136879064Y-95023000D01*
%TO.C,R18*%
X186971000Y-107722936D02*
X186971000Y-108177064D01*
X188441000Y-107722936D02*
X188441000Y-108177064D01*
%TO.C,R16*%
X188187064Y-112549000D02*
X187732936Y-112549000D01*
X188187064Y-114019000D02*
X187732936Y-114019000D01*
%TO.C,R15*%
X190019000Y-110262936D02*
X190019000Y-110717064D01*
X191489000Y-110262936D02*
X191489000Y-110717064D01*
%TO.C,R20*%
X154205000Y-77496936D02*
X154205000Y-77951064D01*
X155675000Y-77496936D02*
X155675000Y-77951064D01*
%TO.C,R19*%
X152172936Y-87349000D02*
X152627064Y-87349000D01*
X152172936Y-85879000D02*
X152627064Y-85879000D01*
%TO.C,R17*%
X127481000Y-81356564D02*
X127481000Y-80902436D01*
X126011000Y-81356564D02*
X126011000Y-80902436D01*
%TO.C,R14*%
X147855000Y-87656936D02*
X147855000Y-88111064D01*
X149325000Y-87656936D02*
X149325000Y-88111064D01*
%TO.C,R13*%
X124941064Y-99341000D02*
X124486936Y-99341000D01*
X124941064Y-100811000D02*
X124486936Y-100811000D01*
%TO.C,R29*%
X155983000Y-115342936D02*
X155983000Y-115797064D01*
X157453000Y-115342936D02*
X157453000Y-115797064D01*
%TO.C,R28*%
X142775000Y-109246936D02*
X142775000Y-109701064D01*
X144245000Y-109246936D02*
X144245000Y-109701064D01*
%TO.C,R27*%
X144553000Y-121438936D02*
X144553000Y-121893064D01*
X146023000Y-121438936D02*
X146023000Y-121893064D01*
%TO.C,R26*%
X148109000Y-121438936D02*
X148109000Y-121893064D01*
X149579000Y-121438936D02*
X149579000Y-121893064D01*
%TO.C,R22*%
X178335000Y-110516936D02*
X178335000Y-110971064D01*
X179805000Y-110516936D02*
X179805000Y-110971064D01*
%TO.C,R21*%
X178335000Y-106706936D02*
X178335000Y-107161064D01*
X179805000Y-106706936D02*
X179805000Y-107161064D01*
%TO.C,Q23*%
X168912000Y-122484000D02*
X168912000Y-121554000D01*
X168912000Y-119324000D02*
X168912000Y-120254000D01*
X168912000Y-119324000D02*
X171072000Y-119324000D01*
X168912000Y-122484000D02*
X170372000Y-122484000D01*
%TO.C,Q20*%
X189740000Y-131628000D02*
X189740000Y-130698000D01*
X189740000Y-128468000D02*
X189740000Y-129398000D01*
X189740000Y-128468000D02*
X191900000Y-128468000D01*
X189740000Y-131628000D02*
X191200000Y-131628000D01*
%TO.C,Q17*%
X185930000Y-120960000D02*
X185930000Y-120030000D01*
X185930000Y-117800000D02*
X185930000Y-118730000D01*
X185930000Y-117800000D02*
X188090000Y-117800000D01*
X185930000Y-120960000D02*
X187390000Y-120960000D01*
%TO.C,Q14*%
X170436000Y-132644000D02*
X170436000Y-131714000D01*
X170436000Y-129484000D02*
X170436000Y-130414000D01*
X170436000Y-129484000D02*
X172596000Y-129484000D01*
X170436000Y-132644000D02*
X171896000Y-132644000D01*
%TO.C,Q1*%
X118618000Y-120416000D02*
X116668000Y-120416000D01*
X118618000Y-120416000D02*
X120568000Y-120416000D01*
X118618000Y-115296000D02*
X116668000Y-115296000D01*
X118618000Y-115296000D02*
X122068000Y-115296000D01*
%TO.C,Q5*%
X188214000Y-100310000D02*
X190164000Y-100310000D01*
X188214000Y-100310000D02*
X186264000Y-100310000D01*
X188214000Y-105430000D02*
X190164000Y-105430000D01*
X188214000Y-105430000D02*
X184764000Y-105430000D01*
%TO.C,Q7*%
X149860000Y-79776000D02*
X147910000Y-79776000D01*
X149860000Y-79776000D02*
X151810000Y-79776000D01*
X149860000Y-74656000D02*
X147910000Y-74656000D01*
X149860000Y-74656000D02*
X153310000Y-74656000D01*
%TO.C,Q3*%
X183368000Y-86868000D02*
X183368000Y-84918000D01*
X183368000Y-86868000D02*
X183368000Y-88818000D01*
X188488000Y-86868000D02*
X188488000Y-84918000D01*
X188488000Y-86868000D02*
X188488000Y-90318000D01*
%TO.C,Q6*%
X155192000Y-80716000D02*
X155192000Y-81646000D01*
X155192000Y-83876000D02*
X155192000Y-82946000D01*
X155192000Y-83876000D02*
X153032000Y-83876000D01*
X155192000Y-80716000D02*
X153732000Y-80716000D01*
%TO.C,Q2*%
X172700000Y-86868000D02*
X172700000Y-84918000D01*
X172700000Y-86868000D02*
X172700000Y-88818000D01*
X177820000Y-86868000D02*
X177820000Y-84918000D01*
X177820000Y-86868000D02*
X177820000Y-90318000D01*
%TO.C,Q13*%
X158516000Y-129286000D02*
X158516000Y-131236000D01*
X158516000Y-129286000D02*
X158516000Y-127336000D01*
X153396000Y-129286000D02*
X153396000Y-131236000D01*
X153396000Y-129286000D02*
X153396000Y-125836000D01*
%TO.C,Q12*%
X145014000Y-108204000D02*
X145014000Y-106254000D01*
X145014000Y-108204000D02*
X145014000Y-110154000D01*
X150134000Y-108204000D02*
X150134000Y-106254000D01*
X150134000Y-108204000D02*
X150134000Y-111654000D01*
%TO.C,Q11*%
X150261000Y-129221000D02*
X150261000Y-131171000D01*
X150261000Y-129221000D02*
X150261000Y-127271000D01*
X145141000Y-129221000D02*
X145141000Y-131171000D01*
X145141000Y-129221000D02*
X145141000Y-125771000D01*
%TO.C,Q10*%
X153396000Y-108458000D02*
X153396000Y-106508000D01*
X153396000Y-108458000D02*
X153396000Y-110408000D01*
X158516000Y-108458000D02*
X158516000Y-106508000D01*
X158516000Y-108458000D02*
X158516000Y-111908000D01*
%TO.C,F2*%
X116988000Y-125187064D02*
X116988000Y-123732936D01*
X115168000Y-125187064D02*
X115168000Y-123732936D01*
%TO.C,F1*%
X116874936Y-113432000D02*
X118329064Y-113432000D01*
X116874936Y-111612000D02*
X118329064Y-111612000D01*
%TO.C,C24*%
X118117252Y-146839000D02*
X117594748Y-146839000D01*
X118117252Y-148309000D02*
X117594748Y-148309000D01*
%TO.C,C23*%
X178315252Y-146839000D02*
X177792748Y-146839000D01*
X178315252Y-148309000D02*
X177792748Y-148309000D01*
%TO.C,C22*%
X158249252Y-146839000D02*
X157726748Y-146839000D01*
X158249252Y-148309000D02*
X157726748Y-148309000D01*
%TO.C,C21*%
X138183252Y-146839000D02*
X137660748Y-146839000D01*
X138183252Y-148309000D02*
X137660748Y-148309000D01*
%TO.C,C20*%
X142467000Y-78493252D02*
X142467000Y-77970748D01*
X140997000Y-78493252D02*
X140997000Y-77970748D01*
%TO.C,C6*%
X128023252Y-131599000D02*
X127500748Y-131599000D01*
X128023252Y-133069000D02*
X127500748Y-133069000D01*
%TO.C,C5*%
X129821000Y-129278748D02*
X129821000Y-129801252D01*
X131291000Y-129278748D02*
X131291000Y-129801252D01*
%TO.C,C4*%
X129821000Y-125722748D02*
X129821000Y-126245252D01*
X131291000Y-125722748D02*
X131291000Y-126245252D01*
%TO.C,C18*%
X134339000Y-91701252D02*
X134339000Y-91178748D01*
X132869000Y-91701252D02*
X132869000Y-91178748D01*
%TO.C,C17*%
X132307000Y-82303252D02*
X132307000Y-81780748D01*
X130837000Y-82303252D02*
X130837000Y-81780748D01*
%TO.C,C15*%
X122674748Y-97255000D02*
X123197252Y-97255000D01*
X122674748Y-95785000D02*
X123197252Y-95785000D01*
%TO.C,C14*%
X117121000Y-85336748D02*
X117121000Y-85859252D01*
X118591000Y-85336748D02*
X118591000Y-85859252D01*
%TO.C,C3*%
X119153000Y-130802748D02*
X119153000Y-131325252D01*
X120623000Y-130802748D02*
X120623000Y-131325252D01*
%TO.C,C12*%
X143502748Y-91667000D02*
X144025252Y-91667000D01*
X143502748Y-90197000D02*
X144025252Y-90197000D01*
%TO.C,C11*%
X143502748Y-86841000D02*
X144025252Y-86841000D01*
X143502748Y-85371000D02*
X144025252Y-85371000D01*
%TO.C,C8*%
X145315000Y-82542748D02*
X145315000Y-83065252D01*
X146785000Y-82542748D02*
X146785000Y-83065252D01*
%TO.C,C19*%
X150903000Y-125468748D02*
X150903000Y-125991252D01*
X152373000Y-125468748D02*
X152373000Y-125991252D01*
%TO.C,C16*%
X151157000Y-111310748D02*
X151157000Y-111833252D01*
X152627000Y-111310748D02*
X152627000Y-111833252D01*
%TO.C,C10*%
X129786748Y-98017000D02*
X130309252Y-98017000D01*
X129786748Y-96547000D02*
X130309252Y-96547000D01*
%TO.C,Q26*%
D10*
X127063428Y-115003619D02*
X127158666Y-114956000D01*
X127253904Y-114860761D01*
X127396761Y-114717904D01*
X127492000Y-114670285D01*
X127587238Y-114670285D01*
X127539619Y-114908380D02*
X127634857Y-114860761D01*
X127730095Y-114765523D01*
X127777714Y-114575047D01*
X127777714Y-114241714D01*
X127730095Y-114051238D01*
X127634857Y-113956000D01*
X127539619Y-113908380D01*
X127349142Y-113908380D01*
X127253904Y-113956000D01*
X127158666Y-114051238D01*
X127111047Y-114241714D01*
X127111047Y-114575047D01*
X127158666Y-114765523D01*
X127253904Y-114860761D01*
X127349142Y-114908380D01*
X127539619Y-114908380D01*
X126730095Y-114003619D02*
X126682476Y-113956000D01*
X126587238Y-113908380D01*
X126349142Y-113908380D01*
X126253904Y-113956000D01*
X126206285Y-114003619D01*
X126158666Y-114098857D01*
X126158666Y-114194095D01*
X126206285Y-114336952D01*
X126777714Y-114908380D01*
X126158666Y-114908380D01*
X125301523Y-113908380D02*
X125492000Y-113908380D01*
X125587238Y-113956000D01*
X125634857Y-114003619D01*
X125730095Y-114146476D01*
X125777714Y-114336952D01*
X125777714Y-114717904D01*
X125730095Y-114813142D01*
X125682476Y-114860761D01*
X125587238Y-114908380D01*
X125396761Y-114908380D01*
X125301523Y-114860761D01*
X125253904Y-114813142D01*
X125206285Y-114717904D01*
X125206285Y-114479809D01*
X125253904Y-114384571D01*
X125301523Y-114336952D01*
X125396761Y-114289333D01*
X125587238Y-114289333D01*
X125682476Y-114336952D01*
X125730095Y-114384571D01*
X125777714Y-114479809D01*
%TO.C,JP1*%
X127579333Y-78214380D02*
X127579333Y-78928666D01*
X127626952Y-79071523D01*
X127722190Y-79166761D01*
X127865047Y-79214380D01*
X127960285Y-79214380D01*
X127103142Y-79214380D02*
X127103142Y-78214380D01*
X126722190Y-78214380D01*
X126626952Y-78262000D01*
X126579333Y-78309619D01*
X126531714Y-78404857D01*
X126531714Y-78547714D01*
X126579333Y-78642952D01*
X126626952Y-78690571D01*
X126722190Y-78738190D01*
X127103142Y-78738190D01*
X125579333Y-79214380D02*
X126150761Y-79214380D01*
X125865047Y-79214380D02*
X125865047Y-78214380D01*
X125960285Y-78357238D01*
X126055523Y-78452476D01*
X126150761Y-78500095D01*
%TO.C,U5*%
X179882380Y-76962095D02*
X180691904Y-76962095D01*
X180787142Y-77009714D01*
X180834761Y-77057333D01*
X180882380Y-77152571D01*
X180882380Y-77343047D01*
X180834761Y-77438285D01*
X180787142Y-77485904D01*
X180691904Y-77533523D01*
X179882380Y-77533523D01*
X179882380Y-78485904D02*
X179882380Y-78009714D01*
X180358571Y-77962095D01*
X180310952Y-78009714D01*
X180263333Y-78104952D01*
X180263333Y-78343047D01*
X180310952Y-78438285D01*
X180358571Y-78485904D01*
X180453809Y-78533523D01*
X180691904Y-78533523D01*
X180787142Y-78485904D01*
X180834761Y-78438285D01*
X180882380Y-78343047D01*
X180882380Y-78104952D01*
X180834761Y-78009714D01*
X180787142Y-77962095D01*
%TO.C,U4*%
X181355904Y-90540380D02*
X181355904Y-91349904D01*
X181308285Y-91445142D01*
X181260666Y-91492761D01*
X181165428Y-91540380D01*
X180974952Y-91540380D01*
X180879714Y-91492761D01*
X180832095Y-91445142D01*
X180784476Y-91349904D01*
X180784476Y-90540380D01*
X179879714Y-90873714D02*
X179879714Y-91540380D01*
X180117809Y-90492761D02*
X180355904Y-91207047D01*
X179736857Y-91207047D01*
%TO.C,Q4*%
X174185619Y-77628761D02*
X174138000Y-77533523D01*
X174042761Y-77438285D01*
X173899904Y-77295428D01*
X173852285Y-77200190D01*
X173852285Y-77104952D01*
X174090380Y-77152571D02*
X174042761Y-77057333D01*
X173947523Y-76962095D01*
X173757047Y-76914476D01*
X173423714Y-76914476D01*
X173233238Y-76962095D01*
X173138000Y-77057333D01*
X173090380Y-77152571D01*
X173090380Y-77343047D01*
X173138000Y-77438285D01*
X173233238Y-77533523D01*
X173423714Y-77581142D01*
X173757047Y-77581142D01*
X173947523Y-77533523D01*
X174042761Y-77438285D01*
X174090380Y-77343047D01*
X174090380Y-77152571D01*
X173423714Y-78438285D02*
X174090380Y-78438285D01*
X173042761Y-78200190D02*
X173757047Y-77962095D01*
X173757047Y-78581142D01*
%TO.C,C9*%
X170127142Y-80981333D02*
X170174761Y-80933714D01*
X170222380Y-80790857D01*
X170222380Y-80695619D01*
X170174761Y-80552761D01*
X170079523Y-80457523D01*
X169984285Y-80409904D01*
X169793809Y-80362285D01*
X169650952Y-80362285D01*
X169460476Y-80409904D01*
X169365238Y-80457523D01*
X169270000Y-80552761D01*
X169222380Y-80695619D01*
X169222380Y-80790857D01*
X169270000Y-80933714D01*
X169317619Y-80981333D01*
X170222380Y-81457523D02*
X170222380Y-81648000D01*
X170174761Y-81743238D01*
X170127142Y-81790857D01*
X169984285Y-81886095D01*
X169793809Y-81933714D01*
X169412857Y-81933714D01*
X169317619Y-81886095D01*
X169270000Y-81838476D01*
X169222380Y-81743238D01*
X169222380Y-81552761D01*
X169270000Y-81457523D01*
X169317619Y-81409904D01*
X169412857Y-81362285D01*
X169650952Y-81362285D01*
X169746190Y-81409904D01*
X169793809Y-81457523D01*
X169841428Y-81552761D01*
X169841428Y-81743238D01*
X169793809Y-81838476D01*
X169746190Y-81886095D01*
X169650952Y-81933714D01*
%TO.C,H1*%
X121665904Y-56078380D02*
X121665904Y-55078380D01*
X121665904Y-55554571D02*
X121094476Y-55554571D01*
X121094476Y-56078380D02*
X121094476Y-55078380D01*
X120094476Y-56078380D02*
X120665904Y-56078380D01*
X120380190Y-56078380D02*
X120380190Y-55078380D01*
X120475428Y-55221238D01*
X120570666Y-55316476D01*
X120665904Y-55364095D01*
%TO.C,H2*%
X118871904Y-65984380D02*
X118871904Y-64984380D01*
X118871904Y-65460571D02*
X118300476Y-65460571D01*
X118300476Y-65984380D02*
X118300476Y-64984380D01*
X117871904Y-65079619D02*
X117824285Y-65032000D01*
X117729047Y-64984380D01*
X117490952Y-64984380D01*
X117395714Y-65032000D01*
X117348095Y-65079619D01*
X117300476Y-65174857D01*
X117300476Y-65270095D01*
X117348095Y-65412952D01*
X117919523Y-65984380D01*
X117300476Y-65984380D01*
%TO.C,Q25*%
X170243428Y-127801619D02*
X170338666Y-127754000D01*
X170433904Y-127658761D01*
X170576761Y-127515904D01*
X170672000Y-127468285D01*
X170767238Y-127468285D01*
X170719619Y-127706380D02*
X170814857Y-127658761D01*
X170910095Y-127563523D01*
X170957714Y-127373047D01*
X170957714Y-127039714D01*
X170910095Y-126849238D01*
X170814857Y-126754000D01*
X170719619Y-126706380D01*
X170529142Y-126706380D01*
X170433904Y-126754000D01*
X170338666Y-126849238D01*
X170291047Y-127039714D01*
X170291047Y-127373047D01*
X170338666Y-127563523D01*
X170433904Y-127658761D01*
X170529142Y-127706380D01*
X170719619Y-127706380D01*
X169910095Y-126801619D02*
X169862476Y-126754000D01*
X169767238Y-126706380D01*
X169529142Y-126706380D01*
X169433904Y-126754000D01*
X169386285Y-126801619D01*
X169338666Y-126896857D01*
X169338666Y-126992095D01*
X169386285Y-127134952D01*
X169957714Y-127706380D01*
X169338666Y-127706380D01*
X168433904Y-126706380D02*
X168910095Y-126706380D01*
X168957714Y-127182571D01*
X168910095Y-127134952D01*
X168814857Y-127087333D01*
X168576761Y-127087333D01*
X168481523Y-127134952D01*
X168433904Y-127182571D01*
X168386285Y-127277809D01*
X168386285Y-127515904D01*
X168433904Y-127611142D01*
X168481523Y-127658761D01*
X168576761Y-127706380D01*
X168814857Y-127706380D01*
X168910095Y-127658761D01*
X168957714Y-127611142D01*
%TO.C,Q24*%
X166687428Y-120221619D02*
X166782666Y-120174000D01*
X166877904Y-120078761D01*
X167020761Y-119935904D01*
X167116000Y-119888285D01*
X167211238Y-119888285D01*
X167163619Y-120126380D02*
X167258857Y-120078761D01*
X167354095Y-119983523D01*
X167401714Y-119793047D01*
X167401714Y-119459714D01*
X167354095Y-119269238D01*
X167258857Y-119174000D01*
X167163619Y-119126380D01*
X166973142Y-119126380D01*
X166877904Y-119174000D01*
X166782666Y-119269238D01*
X166735047Y-119459714D01*
X166735047Y-119793047D01*
X166782666Y-119983523D01*
X166877904Y-120078761D01*
X166973142Y-120126380D01*
X167163619Y-120126380D01*
X166354095Y-119221619D02*
X166306476Y-119174000D01*
X166211238Y-119126380D01*
X165973142Y-119126380D01*
X165877904Y-119174000D01*
X165830285Y-119221619D01*
X165782666Y-119316857D01*
X165782666Y-119412095D01*
X165830285Y-119554952D01*
X166401714Y-120126380D01*
X165782666Y-120126380D01*
X164925523Y-119459714D02*
X164925523Y-120126380D01*
X165163619Y-119078761D02*
X165401714Y-119793047D01*
X164782666Y-119793047D01*
%TO.C,Q22*%
X191071428Y-136945619D02*
X191166666Y-136898000D01*
X191261904Y-136802761D01*
X191404761Y-136659904D01*
X191500000Y-136612285D01*
X191595238Y-136612285D01*
X191547619Y-136850380D02*
X191642857Y-136802761D01*
X191738095Y-136707523D01*
X191785714Y-136517047D01*
X191785714Y-136183714D01*
X191738095Y-135993238D01*
X191642857Y-135898000D01*
X191547619Y-135850380D01*
X191357142Y-135850380D01*
X191261904Y-135898000D01*
X191166666Y-135993238D01*
X191119047Y-136183714D01*
X191119047Y-136517047D01*
X191166666Y-136707523D01*
X191261904Y-136802761D01*
X191357142Y-136850380D01*
X191547619Y-136850380D01*
X190738095Y-135945619D02*
X190690476Y-135898000D01*
X190595238Y-135850380D01*
X190357142Y-135850380D01*
X190261904Y-135898000D01*
X190214285Y-135945619D01*
X190166666Y-136040857D01*
X190166666Y-136136095D01*
X190214285Y-136278952D01*
X190785714Y-136850380D01*
X190166666Y-136850380D01*
X189785714Y-135945619D02*
X189738095Y-135898000D01*
X189642857Y-135850380D01*
X189404761Y-135850380D01*
X189309523Y-135898000D01*
X189261904Y-135945619D01*
X189214285Y-136040857D01*
X189214285Y-136136095D01*
X189261904Y-136278952D01*
X189833333Y-136850380D01*
X189214285Y-136850380D01*
%TO.C,Q21*%
X187515428Y-129365619D02*
X187610666Y-129318000D01*
X187705904Y-129222761D01*
X187848761Y-129079904D01*
X187944000Y-129032285D01*
X188039238Y-129032285D01*
X187991619Y-129270380D02*
X188086857Y-129222761D01*
X188182095Y-129127523D01*
X188229714Y-128937047D01*
X188229714Y-128603714D01*
X188182095Y-128413238D01*
X188086857Y-128318000D01*
X187991619Y-128270380D01*
X187801142Y-128270380D01*
X187705904Y-128318000D01*
X187610666Y-128413238D01*
X187563047Y-128603714D01*
X187563047Y-128937047D01*
X187610666Y-129127523D01*
X187705904Y-129222761D01*
X187801142Y-129270380D01*
X187991619Y-129270380D01*
X187182095Y-128365619D02*
X187134476Y-128318000D01*
X187039238Y-128270380D01*
X186801142Y-128270380D01*
X186705904Y-128318000D01*
X186658285Y-128365619D01*
X186610666Y-128460857D01*
X186610666Y-128556095D01*
X186658285Y-128698952D01*
X187229714Y-129270380D01*
X186610666Y-129270380D01*
X185658285Y-129270380D02*
X186229714Y-129270380D01*
X185944000Y-129270380D02*
X185944000Y-128270380D01*
X186039238Y-128413238D01*
X186134476Y-128508476D01*
X186229714Y-128556095D01*
%TO.C,Q19*%
X187261428Y-126277619D02*
X187356666Y-126230000D01*
X187451904Y-126134761D01*
X187594761Y-125991904D01*
X187690000Y-125944285D01*
X187785238Y-125944285D01*
X187737619Y-126182380D02*
X187832857Y-126134761D01*
X187928095Y-126039523D01*
X187975714Y-125849047D01*
X187975714Y-125515714D01*
X187928095Y-125325238D01*
X187832857Y-125230000D01*
X187737619Y-125182380D01*
X187547142Y-125182380D01*
X187451904Y-125230000D01*
X187356666Y-125325238D01*
X187309047Y-125515714D01*
X187309047Y-125849047D01*
X187356666Y-126039523D01*
X187451904Y-126134761D01*
X187547142Y-126182380D01*
X187737619Y-126182380D01*
X186356666Y-126182380D02*
X186928095Y-126182380D01*
X186642380Y-126182380D02*
X186642380Y-125182380D01*
X186737619Y-125325238D01*
X186832857Y-125420476D01*
X186928095Y-125468095D01*
X185880476Y-126182380D02*
X185690000Y-126182380D01*
X185594761Y-126134761D01*
X185547142Y-126087142D01*
X185451904Y-125944285D01*
X185404285Y-125753809D01*
X185404285Y-125372857D01*
X185451904Y-125277619D01*
X185499523Y-125230000D01*
X185594761Y-125182380D01*
X185785238Y-125182380D01*
X185880476Y-125230000D01*
X185928095Y-125277619D01*
X185975714Y-125372857D01*
X185975714Y-125610952D01*
X185928095Y-125706190D01*
X185880476Y-125753809D01*
X185785238Y-125801428D01*
X185594761Y-125801428D01*
X185499523Y-125753809D01*
X185451904Y-125706190D01*
X185404285Y-125610952D01*
%TO.C,Q18*%
X183705428Y-118697619D02*
X183800666Y-118650000D01*
X183895904Y-118554761D01*
X184038761Y-118411904D01*
X184134000Y-118364285D01*
X184229238Y-118364285D01*
X184181619Y-118602380D02*
X184276857Y-118554761D01*
X184372095Y-118459523D01*
X184419714Y-118269047D01*
X184419714Y-117935714D01*
X184372095Y-117745238D01*
X184276857Y-117650000D01*
X184181619Y-117602380D01*
X183991142Y-117602380D01*
X183895904Y-117650000D01*
X183800666Y-117745238D01*
X183753047Y-117935714D01*
X183753047Y-118269047D01*
X183800666Y-118459523D01*
X183895904Y-118554761D01*
X183991142Y-118602380D01*
X184181619Y-118602380D01*
X182800666Y-118602380D02*
X183372095Y-118602380D01*
X183086380Y-118602380D02*
X183086380Y-117602380D01*
X183181619Y-117745238D01*
X183276857Y-117840476D01*
X183372095Y-117888095D01*
X182229238Y-118030952D02*
X182324476Y-117983333D01*
X182372095Y-117935714D01*
X182419714Y-117840476D01*
X182419714Y-117792857D01*
X182372095Y-117697619D01*
X182324476Y-117650000D01*
X182229238Y-117602380D01*
X182038761Y-117602380D01*
X181943523Y-117650000D01*
X181895904Y-117697619D01*
X181848285Y-117792857D01*
X181848285Y-117840476D01*
X181895904Y-117935714D01*
X181943523Y-117983333D01*
X182038761Y-118030952D01*
X182229238Y-118030952D01*
X182324476Y-118078571D01*
X182372095Y-118126190D01*
X182419714Y-118221428D01*
X182419714Y-118411904D01*
X182372095Y-118507142D01*
X182324476Y-118554761D01*
X182229238Y-118602380D01*
X182038761Y-118602380D01*
X181943523Y-118554761D01*
X181895904Y-118507142D01*
X181848285Y-118411904D01*
X181848285Y-118221428D01*
X181895904Y-118126190D01*
X181943523Y-118078571D01*
X182038761Y-118030952D01*
%TO.C,Q16*%
X171767428Y-137961619D02*
X171862666Y-137914000D01*
X171957904Y-137818761D01*
X172100761Y-137675904D01*
X172196000Y-137628285D01*
X172291238Y-137628285D01*
X172243619Y-137866380D02*
X172338857Y-137818761D01*
X172434095Y-137723523D01*
X172481714Y-137533047D01*
X172481714Y-137199714D01*
X172434095Y-137009238D01*
X172338857Y-136914000D01*
X172243619Y-136866380D01*
X172053142Y-136866380D01*
X171957904Y-136914000D01*
X171862666Y-137009238D01*
X171815047Y-137199714D01*
X171815047Y-137533047D01*
X171862666Y-137723523D01*
X171957904Y-137818761D01*
X172053142Y-137866380D01*
X172243619Y-137866380D01*
X170862666Y-137866380D02*
X171434095Y-137866380D01*
X171148380Y-137866380D02*
X171148380Y-136866380D01*
X171243619Y-137009238D01*
X171338857Y-137104476D01*
X171434095Y-137152095D01*
X170005523Y-136866380D02*
X170196000Y-136866380D01*
X170291238Y-136914000D01*
X170338857Y-136961619D01*
X170434095Y-137104476D01*
X170481714Y-137294952D01*
X170481714Y-137675904D01*
X170434095Y-137771142D01*
X170386476Y-137818761D01*
X170291238Y-137866380D01*
X170100761Y-137866380D01*
X170005523Y-137818761D01*
X169957904Y-137771142D01*
X169910285Y-137675904D01*
X169910285Y-137437809D01*
X169957904Y-137342571D01*
X170005523Y-137294952D01*
X170100761Y-137247333D01*
X170291238Y-137247333D01*
X170386476Y-137294952D01*
X170434095Y-137342571D01*
X170481714Y-137437809D01*
%TO.C,Q15*%
X168211428Y-130381619D02*
X168306666Y-130334000D01*
X168401904Y-130238761D01*
X168544761Y-130095904D01*
X168640000Y-130048285D01*
X168735238Y-130048285D01*
X168687619Y-130286380D02*
X168782857Y-130238761D01*
X168878095Y-130143523D01*
X168925714Y-129953047D01*
X168925714Y-129619714D01*
X168878095Y-129429238D01*
X168782857Y-129334000D01*
X168687619Y-129286380D01*
X168497142Y-129286380D01*
X168401904Y-129334000D01*
X168306666Y-129429238D01*
X168259047Y-129619714D01*
X168259047Y-129953047D01*
X168306666Y-130143523D01*
X168401904Y-130238761D01*
X168497142Y-130286380D01*
X168687619Y-130286380D01*
X167306666Y-130286380D02*
X167878095Y-130286380D01*
X167592380Y-130286380D02*
X167592380Y-129286380D01*
X167687619Y-129429238D01*
X167782857Y-129524476D01*
X167878095Y-129572095D01*
X166401904Y-129286380D02*
X166878095Y-129286380D01*
X166925714Y-129762571D01*
X166878095Y-129714952D01*
X166782857Y-129667333D01*
X166544761Y-129667333D01*
X166449523Y-129714952D01*
X166401904Y-129762571D01*
X166354285Y-129857809D01*
X166354285Y-130095904D01*
X166401904Y-130191142D01*
X166449523Y-130238761D01*
X166544761Y-130286380D01*
X166782857Y-130286380D01*
X166878095Y-130238761D01*
X166925714Y-130191142D01*
%TO.C,U2*%
X166623904Y-90744380D02*
X166623904Y-91553904D01*
X166576285Y-91649142D01*
X166528666Y-91696761D01*
X166433428Y-91744380D01*
X166242952Y-91744380D01*
X166147714Y-91696761D01*
X166100095Y-91649142D01*
X166052476Y-91553904D01*
X166052476Y-90744380D01*
X165623904Y-90839619D02*
X165576285Y-90792000D01*
X165481047Y-90744380D01*
X165242952Y-90744380D01*
X165147714Y-90792000D01*
X165100095Y-90839619D01*
X165052476Y-90934857D01*
X165052476Y-91030095D01*
X165100095Y-91172952D01*
X165671523Y-91744380D01*
X165052476Y-91744380D01*
%TO.C,U1*%
X159003904Y-80732380D02*
X159003904Y-81541904D01*
X158956285Y-81637142D01*
X158908666Y-81684761D01*
X158813428Y-81732380D01*
X158622952Y-81732380D01*
X158527714Y-81684761D01*
X158480095Y-81637142D01*
X158432476Y-81541904D01*
X158432476Y-80732380D01*
X157432476Y-81732380D02*
X158003904Y-81732380D01*
X157718190Y-81732380D02*
X157718190Y-80732380D01*
X157813428Y-80875238D01*
X157908666Y-80970476D01*
X158003904Y-81018095D01*
%TO.C,R25*%
X168155857Y-116275380D02*
X168489190Y-115799190D01*
X168727285Y-116275380D02*
X168727285Y-115275380D01*
X168346333Y-115275380D01*
X168251095Y-115323000D01*
X168203476Y-115370619D01*
X168155857Y-115465857D01*
X168155857Y-115608714D01*
X168203476Y-115703952D01*
X168251095Y-115751571D01*
X168346333Y-115799190D01*
X168727285Y-115799190D01*
X167774904Y-115370619D02*
X167727285Y-115323000D01*
X167632047Y-115275380D01*
X167393952Y-115275380D01*
X167298714Y-115323000D01*
X167251095Y-115370619D01*
X167203476Y-115465857D01*
X167203476Y-115561095D01*
X167251095Y-115703952D01*
X167822523Y-116275380D01*
X167203476Y-116275380D01*
X166298714Y-115275380D02*
X166774904Y-115275380D01*
X166822523Y-115751571D01*
X166774904Y-115703952D01*
X166679666Y-115656333D01*
X166441571Y-115656333D01*
X166346333Y-115703952D01*
X166298714Y-115751571D01*
X166251095Y-115846809D01*
X166251095Y-116084904D01*
X166298714Y-116180142D01*
X166346333Y-116227761D01*
X166441571Y-116275380D01*
X166679666Y-116275380D01*
X166774904Y-116227761D01*
X166822523Y-116180142D01*
%TO.C,R23*%
X162378380Y-114419142D02*
X161902190Y-114085809D01*
X162378380Y-113847714D02*
X161378380Y-113847714D01*
X161378380Y-114228666D01*
X161426000Y-114323904D01*
X161473619Y-114371523D01*
X161568857Y-114419142D01*
X161711714Y-114419142D01*
X161806952Y-114371523D01*
X161854571Y-114323904D01*
X161902190Y-114228666D01*
X161902190Y-113847714D01*
X161473619Y-114800095D02*
X161426000Y-114847714D01*
X161378380Y-114942952D01*
X161378380Y-115181047D01*
X161426000Y-115276285D01*
X161473619Y-115323904D01*
X161568857Y-115371523D01*
X161664095Y-115371523D01*
X161806952Y-115323904D01*
X162378380Y-114752476D01*
X162378380Y-115371523D01*
X161378380Y-115704857D02*
X161378380Y-116323904D01*
X161759333Y-115990571D01*
X161759333Y-116133428D01*
X161806952Y-116228666D01*
X161854571Y-116276285D01*
X161949809Y-116323904D01*
X162187904Y-116323904D01*
X162283142Y-116276285D01*
X162330761Y-116228666D01*
X162378380Y-116133428D01*
X162378380Y-115847714D01*
X162330761Y-115752476D01*
X162283142Y-115704857D01*
%TO.C,R12*%
X179268380Y-99179142D02*
X178792190Y-98845809D01*
X179268380Y-98607714D02*
X178268380Y-98607714D01*
X178268380Y-98988666D01*
X178316000Y-99083904D01*
X178363619Y-99131523D01*
X178458857Y-99179142D01*
X178601714Y-99179142D01*
X178696952Y-99131523D01*
X178744571Y-99083904D01*
X178792190Y-98988666D01*
X178792190Y-98607714D01*
X179268380Y-100131523D02*
X179268380Y-99560095D01*
X179268380Y-99845809D02*
X178268380Y-99845809D01*
X178411238Y-99750571D01*
X178506476Y-99655333D01*
X178554095Y-99560095D01*
X178363619Y-100512476D02*
X178316000Y-100560095D01*
X178268380Y-100655333D01*
X178268380Y-100893428D01*
X178316000Y-100988666D01*
X178363619Y-101036285D01*
X178458857Y-101083904D01*
X178554095Y-101083904D01*
X178696952Y-101036285D01*
X179268380Y-100464857D01*
X179268380Y-101083904D01*
%TO.C,R11*%
X174632857Y-95956380D02*
X174966190Y-95480190D01*
X175204285Y-95956380D02*
X175204285Y-94956380D01*
X174823333Y-94956380D01*
X174728095Y-95004000D01*
X174680476Y-95051619D01*
X174632857Y-95146857D01*
X174632857Y-95289714D01*
X174680476Y-95384952D01*
X174728095Y-95432571D01*
X174823333Y-95480190D01*
X175204285Y-95480190D01*
X173680476Y-95956380D02*
X174251904Y-95956380D01*
X173966190Y-95956380D02*
X173966190Y-94956380D01*
X174061428Y-95099238D01*
X174156666Y-95194476D01*
X174251904Y-95242095D01*
X172728095Y-95956380D02*
X173299523Y-95956380D01*
X173013809Y-95956380D02*
X173013809Y-94956380D01*
X173109047Y-95099238D01*
X173204285Y-95194476D01*
X173299523Y-95242095D01*
%TO.C,R7*%
X188634666Y-92400380D02*
X188968000Y-91924190D01*
X189206095Y-92400380D02*
X189206095Y-91400380D01*
X188825142Y-91400380D01*
X188729904Y-91448000D01*
X188682285Y-91495619D01*
X188634666Y-91590857D01*
X188634666Y-91733714D01*
X188682285Y-91828952D01*
X188729904Y-91876571D01*
X188825142Y-91924190D01*
X189206095Y-91924190D01*
X188301333Y-91400380D02*
X187634666Y-91400380D01*
X188063238Y-92400380D01*
%TO.C,R6*%
X188030380Y-96353333D02*
X187554190Y-96020000D01*
X188030380Y-95781904D02*
X187030380Y-95781904D01*
X187030380Y-96162857D01*
X187078000Y-96258095D01*
X187125619Y-96305714D01*
X187220857Y-96353333D01*
X187363714Y-96353333D01*
X187458952Y-96305714D01*
X187506571Y-96258095D01*
X187554190Y-96162857D01*
X187554190Y-95781904D01*
X187030380Y-97210476D02*
X187030380Y-97020000D01*
X187078000Y-96924761D01*
X187125619Y-96877142D01*
X187268476Y-96781904D01*
X187458952Y-96734285D01*
X187839904Y-96734285D01*
X187935142Y-96781904D01*
X187982761Y-96829523D01*
X188030380Y-96924761D01*
X188030380Y-97115238D01*
X187982761Y-97210476D01*
X187935142Y-97258095D01*
X187839904Y-97305714D01*
X187601809Y-97305714D01*
X187506571Y-97258095D01*
X187458952Y-97210476D01*
X187411333Y-97115238D01*
X187411333Y-96924761D01*
X187458952Y-96829523D01*
X187506571Y-96781904D01*
X187601809Y-96734285D01*
%TO.C,R5*%
X172156380Y-90153833D02*
X171680190Y-89820500D01*
X172156380Y-89582404D02*
X171156380Y-89582404D01*
X171156380Y-89963357D01*
X171204000Y-90058595D01*
X171251619Y-90106214D01*
X171346857Y-90153833D01*
X171489714Y-90153833D01*
X171584952Y-90106214D01*
X171632571Y-90058595D01*
X171680190Y-89963357D01*
X171680190Y-89582404D01*
X171156380Y-91058595D02*
X171156380Y-90582404D01*
X171632571Y-90534785D01*
X171584952Y-90582404D01*
X171537333Y-90677642D01*
X171537333Y-90915738D01*
X171584952Y-91010976D01*
X171632571Y-91058595D01*
X171727809Y-91106214D01*
X171965904Y-91106214D01*
X172061142Y-91058595D01*
X172108761Y-91010976D01*
X172156380Y-90915738D01*
X172156380Y-90677642D01*
X172108761Y-90582404D01*
X172061142Y-90534785D01*
%TO.C,R4*%
X172156380Y-86447333D02*
X171680190Y-86114000D01*
X172156380Y-85875904D02*
X171156380Y-85875904D01*
X171156380Y-86256857D01*
X171204000Y-86352095D01*
X171251619Y-86399714D01*
X171346857Y-86447333D01*
X171489714Y-86447333D01*
X171584952Y-86399714D01*
X171632571Y-86352095D01*
X171680190Y-86256857D01*
X171680190Y-85875904D01*
X171489714Y-87304476D02*
X172156380Y-87304476D01*
X171108761Y-87066380D02*
X171823047Y-86828285D01*
X171823047Y-87447333D01*
%TO.C,R1*%
X166028666Y-82960380D02*
X166362000Y-82484190D01*
X166600095Y-82960380D02*
X166600095Y-81960380D01*
X166219142Y-81960380D01*
X166123904Y-82008000D01*
X166076285Y-82055619D01*
X166028666Y-82150857D01*
X166028666Y-82293714D01*
X166076285Y-82388952D01*
X166123904Y-82436571D01*
X166219142Y-82484190D01*
X166600095Y-82484190D01*
X165076285Y-82960380D02*
X165647714Y-82960380D01*
X165362000Y-82960380D02*
X165362000Y-81960380D01*
X165457238Y-82103238D01*
X165552476Y-82198476D01*
X165647714Y-82246095D01*
%TO.C,Q9*%
X168539619Y-108362761D02*
X168492000Y-108267523D01*
X168396761Y-108172285D01*
X168253904Y-108029428D01*
X168206285Y-107934190D01*
X168206285Y-107838952D01*
X168444380Y-107886571D02*
X168396761Y-107791333D01*
X168301523Y-107696095D01*
X168111047Y-107648476D01*
X167777714Y-107648476D01*
X167587238Y-107696095D01*
X167492000Y-107791333D01*
X167444380Y-107886571D01*
X167444380Y-108077047D01*
X167492000Y-108172285D01*
X167587238Y-108267523D01*
X167777714Y-108315142D01*
X168111047Y-108315142D01*
X168301523Y-108267523D01*
X168396761Y-108172285D01*
X168444380Y-108077047D01*
X168444380Y-107886571D01*
X168444380Y-108791333D02*
X168444380Y-108981809D01*
X168396761Y-109077047D01*
X168349142Y-109124666D01*
X168206285Y-109219904D01*
X168015809Y-109267523D01*
X167634857Y-109267523D01*
X167539619Y-109219904D01*
X167492000Y-109172285D01*
X167444380Y-109077047D01*
X167444380Y-108886571D01*
X167492000Y-108791333D01*
X167539619Y-108743714D01*
X167634857Y-108696095D01*
X167872952Y-108696095D01*
X167968190Y-108743714D01*
X168015809Y-108791333D01*
X168063428Y-108886571D01*
X168063428Y-109077047D01*
X168015809Y-109172285D01*
X167968190Y-109219904D01*
X167872952Y-109267523D01*
%TO.C,Q8*%
X175905619Y-108362761D02*
X175858000Y-108267523D01*
X175762761Y-108172285D01*
X175619904Y-108029428D01*
X175572285Y-107934190D01*
X175572285Y-107838952D01*
X175810380Y-107886571D02*
X175762761Y-107791333D01*
X175667523Y-107696095D01*
X175477047Y-107648476D01*
X175143714Y-107648476D01*
X174953238Y-107696095D01*
X174858000Y-107791333D01*
X174810380Y-107886571D01*
X174810380Y-108077047D01*
X174858000Y-108172285D01*
X174953238Y-108267523D01*
X175143714Y-108315142D01*
X175477047Y-108315142D01*
X175667523Y-108267523D01*
X175762761Y-108172285D01*
X175810380Y-108077047D01*
X175810380Y-107886571D01*
X175238952Y-108886571D02*
X175191333Y-108791333D01*
X175143714Y-108743714D01*
X175048476Y-108696095D01*
X175000857Y-108696095D01*
X174905619Y-108743714D01*
X174858000Y-108791333D01*
X174810380Y-108886571D01*
X174810380Y-109077047D01*
X174858000Y-109172285D01*
X174905619Y-109219904D01*
X175000857Y-109267523D01*
X175048476Y-109267523D01*
X175143714Y-109219904D01*
X175191333Y-109172285D01*
X175238952Y-109077047D01*
X175238952Y-108886571D01*
X175286571Y-108791333D01*
X175334190Y-108743714D01*
X175429428Y-108696095D01*
X175619904Y-108696095D01*
X175715142Y-108743714D01*
X175762761Y-108791333D01*
X175810380Y-108886571D01*
X175810380Y-109077047D01*
X175762761Y-109172285D01*
X175715142Y-109219904D01*
X175619904Y-109267523D01*
X175429428Y-109267523D01*
X175334190Y-109219904D01*
X175286571Y-109172285D01*
X175238952Y-109077047D01*
%TO.C,JP3*%
X157611380Y-119308666D02*
X158325666Y-119308666D01*
X158468523Y-119261047D01*
X158563761Y-119165809D01*
X158611380Y-119022952D01*
X158611380Y-118927714D01*
X158611380Y-119784857D02*
X157611380Y-119784857D01*
X157611380Y-120165809D01*
X157659000Y-120261047D01*
X157706619Y-120308666D01*
X157801857Y-120356285D01*
X157944714Y-120356285D01*
X158039952Y-120308666D01*
X158087571Y-120261047D01*
X158135190Y-120165809D01*
X158135190Y-119784857D01*
X157611380Y-120689619D02*
X157611380Y-121308666D01*
X157992333Y-120975333D01*
X157992333Y-121118190D01*
X158039952Y-121213428D01*
X158087571Y-121261047D01*
X158182809Y-121308666D01*
X158420904Y-121308666D01*
X158516142Y-121261047D01*
X158563761Y-121213428D01*
X158611380Y-121118190D01*
X158611380Y-120832476D01*
X158563761Y-120737238D01*
X158516142Y-120689619D01*
%TO.C,JP2*%
X151515380Y-116260666D02*
X152229666Y-116260666D01*
X152372523Y-116213047D01*
X152467761Y-116117809D01*
X152515380Y-115974952D01*
X152515380Y-115879714D01*
X152515380Y-116736857D02*
X151515380Y-116736857D01*
X151515380Y-117117809D01*
X151563000Y-117213047D01*
X151610619Y-117260666D01*
X151705857Y-117308285D01*
X151848714Y-117308285D01*
X151943952Y-117260666D01*
X151991571Y-117213047D01*
X152039190Y-117117809D01*
X152039190Y-116736857D01*
X151610619Y-117689238D02*
X151563000Y-117736857D01*
X151515380Y-117832095D01*
X151515380Y-118070190D01*
X151563000Y-118165428D01*
X151610619Y-118213047D01*
X151705857Y-118260666D01*
X151801095Y-118260666D01*
X151943952Y-118213047D01*
X152515380Y-117641619D01*
X152515380Y-118260666D01*
%TO.C,C13*%
X160631142Y-112641142D02*
X160678761Y-112593523D01*
X160726380Y-112450666D01*
X160726380Y-112355428D01*
X160678761Y-112212571D01*
X160583523Y-112117333D01*
X160488285Y-112069714D01*
X160297809Y-112022095D01*
X160154952Y-112022095D01*
X159964476Y-112069714D01*
X159869238Y-112117333D01*
X159774000Y-112212571D01*
X159726380Y-112355428D01*
X159726380Y-112450666D01*
X159774000Y-112593523D01*
X159821619Y-112641142D01*
X160726380Y-113593523D02*
X160726380Y-113022095D01*
X160726380Y-113307809D02*
X159726380Y-113307809D01*
X159869238Y-113212571D01*
X159964476Y-113117333D01*
X160012095Y-113022095D01*
X159726380Y-113926857D02*
X159726380Y-114545904D01*
X160107333Y-114212571D01*
X160107333Y-114355428D01*
X160154952Y-114450666D01*
X160202571Y-114498285D01*
X160297809Y-114545904D01*
X160535904Y-114545904D01*
X160631142Y-114498285D01*
X160678761Y-114450666D01*
X160726380Y-114355428D01*
X160726380Y-114069714D01*
X160678761Y-113974476D01*
X160631142Y-113926857D01*
%TO.C,C7*%
X180760666Y-88241142D02*
X180808285Y-88288761D01*
X180951142Y-88336380D01*
X181046380Y-88336380D01*
X181189238Y-88288761D01*
X181284476Y-88193523D01*
X181332095Y-88098285D01*
X181379714Y-87907809D01*
X181379714Y-87764952D01*
X181332095Y-87574476D01*
X181284476Y-87479238D01*
X181189238Y-87384000D01*
X181046380Y-87336380D01*
X180951142Y-87336380D01*
X180808285Y-87384000D01*
X180760666Y-87431619D01*
X180427333Y-87336380D02*
X179760666Y-87336380D01*
X180189238Y-88336380D01*
%TO.C,C2*%
X160631142Y-91273333D02*
X160678761Y-91225714D01*
X160726380Y-91082857D01*
X160726380Y-90987619D01*
X160678761Y-90844761D01*
X160583523Y-90749523D01*
X160488285Y-90701904D01*
X160297809Y-90654285D01*
X160154952Y-90654285D01*
X159964476Y-90701904D01*
X159869238Y-90749523D01*
X159774000Y-90844761D01*
X159726380Y-90987619D01*
X159726380Y-91082857D01*
X159774000Y-91225714D01*
X159821619Y-91273333D01*
X159821619Y-91654285D02*
X159774000Y-91701904D01*
X159726380Y-91797142D01*
X159726380Y-92035238D01*
X159774000Y-92130476D01*
X159821619Y-92178095D01*
X159916857Y-92225714D01*
X160012095Y-92225714D01*
X160154952Y-92178095D01*
X160726380Y-91606666D01*
X160726380Y-92225714D01*
%TO.C,C1*%
X166473142Y-78319333D02*
X166520761Y-78271714D01*
X166568380Y-78128857D01*
X166568380Y-78033619D01*
X166520761Y-77890761D01*
X166425523Y-77795523D01*
X166330285Y-77747904D01*
X166139809Y-77700285D01*
X165996952Y-77700285D01*
X165806476Y-77747904D01*
X165711238Y-77795523D01*
X165616000Y-77890761D01*
X165568380Y-78033619D01*
X165568380Y-78128857D01*
X165616000Y-78271714D01*
X165663619Y-78319333D01*
X166568380Y-79271714D02*
X166568380Y-78700285D01*
X166568380Y-78986000D02*
X165568380Y-78986000D01*
X165711238Y-78890761D01*
X165806476Y-78795523D01*
X165854095Y-78700285D01*
%TO.C,Y1*%
X142470190Y-88169809D02*
X142946380Y-88169809D01*
X141946380Y-87836476D02*
X142470190Y-88169809D01*
X141946380Y-88503142D01*
X142946380Y-89360285D02*
X142946380Y-88788857D01*
X142946380Y-89074571D02*
X141946380Y-89074571D01*
X142089238Y-88979333D01*
X142184476Y-88884095D01*
X142232095Y-88788857D01*
%TO.C,U3*%
X126491904Y-126238380D02*
X126491904Y-127047904D01*
X126444285Y-127143142D01*
X126396666Y-127190761D01*
X126301428Y-127238380D01*
X126110952Y-127238380D01*
X126015714Y-127190761D01*
X125968095Y-127143142D01*
X125920476Y-127047904D01*
X125920476Y-126238380D01*
X125539523Y-126238380D02*
X124920476Y-126238380D01*
X125253809Y-126619333D01*
X125110952Y-126619333D01*
X125015714Y-126666952D01*
X124968095Y-126714571D01*
X124920476Y-126809809D01*
X124920476Y-127047904D01*
X124968095Y-127143142D01*
X125015714Y-127190761D01*
X125110952Y-127238380D01*
X125396666Y-127238380D01*
X125491904Y-127190761D01*
X125539523Y-127143142D01*
%TO.C,U8*%
X131825904Y-84034380D02*
X131825904Y-84843904D01*
X131778285Y-84939142D01*
X131730666Y-84986761D01*
X131635428Y-85034380D01*
X131444952Y-85034380D01*
X131349714Y-84986761D01*
X131302095Y-84939142D01*
X131254476Y-84843904D01*
X131254476Y-84034380D01*
X130635428Y-84462952D02*
X130730666Y-84415333D01*
X130778285Y-84367714D01*
X130825904Y-84272476D01*
X130825904Y-84224857D01*
X130778285Y-84129619D01*
X130730666Y-84082000D01*
X130635428Y-84034380D01*
X130444952Y-84034380D01*
X130349714Y-84082000D01*
X130302095Y-84129619D01*
X130254476Y-84224857D01*
X130254476Y-84272476D01*
X130302095Y-84367714D01*
X130349714Y-84415333D01*
X130444952Y-84462952D01*
X130635428Y-84462952D01*
X130730666Y-84510571D01*
X130778285Y-84558190D01*
X130825904Y-84653428D01*
X130825904Y-84843904D01*
X130778285Y-84939142D01*
X130730666Y-84986761D01*
X130635428Y-85034380D01*
X130444952Y-85034380D01*
X130349714Y-84986761D01*
X130302095Y-84939142D01*
X130254476Y-84843904D01*
X130254476Y-84653428D01*
X130302095Y-84558190D01*
X130349714Y-84510571D01*
X130444952Y-84462952D01*
%TO.C,U7*%
X184911904Y-106730380D02*
X184911904Y-107539904D01*
X184864285Y-107635142D01*
X184816666Y-107682761D01*
X184721428Y-107730380D01*
X184530952Y-107730380D01*
X184435714Y-107682761D01*
X184388095Y-107635142D01*
X184340476Y-107539904D01*
X184340476Y-106730380D01*
X183959523Y-106730380D02*
X183292857Y-106730380D01*
X183721428Y-107730380D01*
%TO.C,U6*%
X150621904Y-85010380D02*
X150621904Y-85819904D01*
X150574285Y-85915142D01*
X150526666Y-85962761D01*
X150431428Y-86010380D01*
X150240952Y-86010380D01*
X150145714Y-85962761D01*
X150098095Y-85915142D01*
X150050476Y-85819904D01*
X150050476Y-85010380D01*
X149145714Y-85010380D02*
X149336190Y-85010380D01*
X149431428Y-85058000D01*
X149479047Y-85105619D01*
X149574285Y-85248476D01*
X149621904Y-85438952D01*
X149621904Y-85819904D01*
X149574285Y-85915142D01*
X149526666Y-85962761D01*
X149431428Y-86010380D01*
X149240952Y-86010380D01*
X149145714Y-85962761D01*
X149098095Y-85915142D01*
X149050476Y-85819904D01*
X149050476Y-85581809D01*
X149098095Y-85486571D01*
X149145714Y-85438952D01*
X149240952Y-85391333D01*
X149431428Y-85391333D01*
X149526666Y-85438952D01*
X149574285Y-85486571D01*
X149621904Y-85581809D01*
%TO.C,R57*%
X123388380Y-144240642D02*
X122912190Y-143907309D01*
X123388380Y-143669214D02*
X122388380Y-143669214D01*
X122388380Y-144050166D01*
X122436000Y-144145404D01*
X122483619Y-144193023D01*
X122578857Y-144240642D01*
X122721714Y-144240642D01*
X122816952Y-144193023D01*
X122864571Y-144145404D01*
X122912190Y-144050166D01*
X122912190Y-143669214D01*
X122388380Y-145145404D02*
X122388380Y-144669214D01*
X122864571Y-144621595D01*
X122816952Y-144669214D01*
X122769333Y-144764452D01*
X122769333Y-145002547D01*
X122816952Y-145097785D01*
X122864571Y-145145404D01*
X122959809Y-145193023D01*
X123197904Y-145193023D01*
X123293142Y-145145404D01*
X123340761Y-145097785D01*
X123388380Y-145002547D01*
X123388380Y-144764452D01*
X123340761Y-144669214D01*
X123293142Y-144621595D01*
X122388380Y-145526357D02*
X122388380Y-146193023D01*
X123388380Y-145764452D01*
%TO.C,R55*%
X174950380Y-124071142D02*
X174474190Y-123737809D01*
X174950380Y-123499714D02*
X173950380Y-123499714D01*
X173950380Y-123880666D01*
X173998000Y-123975904D01*
X174045619Y-124023523D01*
X174140857Y-124071142D01*
X174283714Y-124071142D01*
X174378952Y-124023523D01*
X174426571Y-123975904D01*
X174474190Y-123880666D01*
X174474190Y-123499714D01*
X173950380Y-124975904D02*
X173950380Y-124499714D01*
X174426571Y-124452095D01*
X174378952Y-124499714D01*
X174331333Y-124594952D01*
X174331333Y-124833047D01*
X174378952Y-124928285D01*
X174426571Y-124975904D01*
X174521809Y-125023523D01*
X174759904Y-125023523D01*
X174855142Y-124975904D01*
X174902761Y-124928285D01*
X174950380Y-124833047D01*
X174950380Y-124594952D01*
X174902761Y-124499714D01*
X174855142Y-124452095D01*
X173950380Y-125928285D02*
X173950380Y-125452095D01*
X174426571Y-125404476D01*
X174378952Y-125452095D01*
X174331333Y-125547333D01*
X174331333Y-125785428D01*
X174378952Y-125880666D01*
X174426571Y-125928285D01*
X174521809Y-125975904D01*
X174759904Y-125975904D01*
X174855142Y-125928285D01*
X174902761Y-125880666D01*
X174950380Y-125785428D01*
X174950380Y-125547333D01*
X174902761Y-125452095D01*
X174855142Y-125404476D01*
%TO.C,R54*%
X165996857Y-127198380D02*
X166330190Y-126722190D01*
X166568285Y-127198380D02*
X166568285Y-126198380D01*
X166187333Y-126198380D01*
X166092095Y-126246000D01*
X166044476Y-126293619D01*
X165996857Y-126388857D01*
X165996857Y-126531714D01*
X166044476Y-126626952D01*
X166092095Y-126674571D01*
X166187333Y-126722190D01*
X166568285Y-126722190D01*
X165092095Y-126198380D02*
X165568285Y-126198380D01*
X165615904Y-126674571D01*
X165568285Y-126626952D01*
X165473047Y-126579333D01*
X165234952Y-126579333D01*
X165139714Y-126626952D01*
X165092095Y-126674571D01*
X165044476Y-126769809D01*
X165044476Y-127007904D01*
X165092095Y-127103142D01*
X165139714Y-127150761D01*
X165234952Y-127198380D01*
X165473047Y-127198380D01*
X165568285Y-127150761D01*
X165615904Y-127103142D01*
X164187333Y-126531714D02*
X164187333Y-127198380D01*
X164425428Y-126150761D02*
X164663523Y-126865047D01*
X164044476Y-126865047D01*
%TO.C,R53*%
X161996380Y-121531142D02*
X161520190Y-121197809D01*
X161996380Y-120959714D02*
X160996380Y-120959714D01*
X160996380Y-121340666D01*
X161044000Y-121435904D01*
X161091619Y-121483523D01*
X161186857Y-121531142D01*
X161329714Y-121531142D01*
X161424952Y-121483523D01*
X161472571Y-121435904D01*
X161520190Y-121340666D01*
X161520190Y-120959714D01*
X160996380Y-122435904D02*
X160996380Y-121959714D01*
X161472571Y-121912095D01*
X161424952Y-121959714D01*
X161377333Y-122054952D01*
X161377333Y-122293047D01*
X161424952Y-122388285D01*
X161472571Y-122435904D01*
X161567809Y-122483523D01*
X161805904Y-122483523D01*
X161901142Y-122435904D01*
X161948761Y-122388285D01*
X161996380Y-122293047D01*
X161996380Y-122054952D01*
X161948761Y-121959714D01*
X161901142Y-121912095D01*
X160996380Y-122816857D02*
X160996380Y-123435904D01*
X161377333Y-123102571D01*
X161377333Y-123245428D01*
X161424952Y-123340666D01*
X161472571Y-123388285D01*
X161567809Y-123435904D01*
X161805904Y-123435904D01*
X161901142Y-123388285D01*
X161948761Y-123340666D01*
X161996380Y-123245428D01*
X161996380Y-122959714D01*
X161948761Y-122864476D01*
X161901142Y-122816857D01*
%TO.C,R52*%
X174950380Y-120261142D02*
X174474190Y-119927809D01*
X174950380Y-119689714D02*
X173950380Y-119689714D01*
X173950380Y-120070666D01*
X173998000Y-120165904D01*
X174045619Y-120213523D01*
X174140857Y-120261142D01*
X174283714Y-120261142D01*
X174378952Y-120213523D01*
X174426571Y-120165904D01*
X174474190Y-120070666D01*
X174474190Y-119689714D01*
X173950380Y-121165904D02*
X173950380Y-120689714D01*
X174426571Y-120642095D01*
X174378952Y-120689714D01*
X174331333Y-120784952D01*
X174331333Y-121023047D01*
X174378952Y-121118285D01*
X174426571Y-121165904D01*
X174521809Y-121213523D01*
X174759904Y-121213523D01*
X174855142Y-121165904D01*
X174902761Y-121118285D01*
X174950380Y-121023047D01*
X174950380Y-120784952D01*
X174902761Y-120689714D01*
X174855142Y-120642095D01*
X174045619Y-121594476D02*
X173998000Y-121642095D01*
X173950380Y-121737333D01*
X173950380Y-121975428D01*
X173998000Y-122070666D01*
X174045619Y-122118285D01*
X174140857Y-122165904D01*
X174236095Y-122165904D01*
X174378952Y-122118285D01*
X174950380Y-121546857D01*
X174950380Y-122165904D01*
%TO.C,R51*%
X162440857Y-117928380D02*
X162774190Y-117452190D01*
X163012285Y-117928380D02*
X163012285Y-116928380D01*
X162631333Y-116928380D01*
X162536095Y-116976000D01*
X162488476Y-117023619D01*
X162440857Y-117118857D01*
X162440857Y-117261714D01*
X162488476Y-117356952D01*
X162536095Y-117404571D01*
X162631333Y-117452190D01*
X163012285Y-117452190D01*
X161536095Y-116928380D02*
X162012285Y-116928380D01*
X162059904Y-117404571D01*
X162012285Y-117356952D01*
X161917047Y-117309333D01*
X161678952Y-117309333D01*
X161583714Y-117356952D01*
X161536095Y-117404571D01*
X161488476Y-117499809D01*
X161488476Y-117737904D01*
X161536095Y-117833142D01*
X161583714Y-117880761D01*
X161678952Y-117928380D01*
X161917047Y-117928380D01*
X162012285Y-117880761D01*
X162059904Y-117833142D01*
X160536095Y-117928380D02*
X161107523Y-117928380D01*
X160821809Y-117928380D02*
X160821809Y-116928380D01*
X160917047Y-117071238D01*
X161012285Y-117166476D01*
X161107523Y-117214095D01*
%TO.C,R50*%
X183586380Y-144137142D02*
X183110190Y-143803809D01*
X183586380Y-143565714D02*
X182586380Y-143565714D01*
X182586380Y-143946666D01*
X182634000Y-144041904D01*
X182681619Y-144089523D01*
X182776857Y-144137142D01*
X182919714Y-144137142D01*
X183014952Y-144089523D01*
X183062571Y-144041904D01*
X183110190Y-143946666D01*
X183110190Y-143565714D01*
X182586380Y-145041904D02*
X182586380Y-144565714D01*
X183062571Y-144518095D01*
X183014952Y-144565714D01*
X182967333Y-144660952D01*
X182967333Y-144899047D01*
X183014952Y-144994285D01*
X183062571Y-145041904D01*
X183157809Y-145089523D01*
X183395904Y-145089523D01*
X183491142Y-145041904D01*
X183538761Y-144994285D01*
X183586380Y-144899047D01*
X183586380Y-144660952D01*
X183538761Y-144565714D01*
X183491142Y-144518095D01*
X182586380Y-145708571D02*
X182586380Y-145803809D01*
X182634000Y-145899047D01*
X182681619Y-145946666D01*
X182776857Y-145994285D01*
X182967333Y-146041904D01*
X183205428Y-146041904D01*
X183395904Y-145994285D01*
X183491142Y-145946666D01*
X183538761Y-145899047D01*
X183586380Y-145803809D01*
X183586380Y-145708571D01*
X183538761Y-145613333D01*
X183491142Y-145565714D01*
X183395904Y-145518095D01*
X183205428Y-145470476D01*
X182967333Y-145470476D01*
X182776857Y-145518095D01*
X182681619Y-145565714D01*
X182634000Y-145613333D01*
X182586380Y-145708571D01*
%TO.C,R48*%
X195778380Y-133215142D02*
X195302190Y-132881809D01*
X195778380Y-132643714D02*
X194778380Y-132643714D01*
X194778380Y-133024666D01*
X194826000Y-133119904D01*
X194873619Y-133167523D01*
X194968857Y-133215142D01*
X195111714Y-133215142D01*
X195206952Y-133167523D01*
X195254571Y-133119904D01*
X195302190Y-133024666D01*
X195302190Y-132643714D01*
X195111714Y-134072285D02*
X195778380Y-134072285D01*
X194730761Y-133834190D02*
X195445047Y-133596095D01*
X195445047Y-134215142D01*
X195206952Y-134738952D02*
X195159333Y-134643714D01*
X195111714Y-134596095D01*
X195016476Y-134548476D01*
X194968857Y-134548476D01*
X194873619Y-134596095D01*
X194826000Y-134643714D01*
X194778380Y-134738952D01*
X194778380Y-134929428D01*
X194826000Y-135024666D01*
X194873619Y-135072285D01*
X194968857Y-135119904D01*
X195016476Y-135119904D01*
X195111714Y-135072285D01*
X195159333Y-135024666D01*
X195206952Y-134929428D01*
X195206952Y-134738952D01*
X195254571Y-134643714D01*
X195302190Y-134596095D01*
X195397428Y-134548476D01*
X195587904Y-134548476D01*
X195683142Y-134596095D01*
X195730761Y-134643714D01*
X195778380Y-134738952D01*
X195778380Y-134929428D01*
X195730761Y-135024666D01*
X195683142Y-135072285D01*
X195587904Y-135119904D01*
X195397428Y-135119904D01*
X195302190Y-135072285D01*
X195254571Y-135024666D01*
X195206952Y-134929428D01*
%TO.C,R47*%
X187332857Y-136342380D02*
X187666190Y-135866190D01*
X187904285Y-136342380D02*
X187904285Y-135342380D01*
X187523333Y-135342380D01*
X187428095Y-135390000D01*
X187380476Y-135437619D01*
X187332857Y-135532857D01*
X187332857Y-135675714D01*
X187380476Y-135770952D01*
X187428095Y-135818571D01*
X187523333Y-135866190D01*
X187904285Y-135866190D01*
X186475714Y-135675714D02*
X186475714Y-136342380D01*
X186713809Y-135294761D02*
X186951904Y-136009047D01*
X186332857Y-136009047D01*
X186047142Y-135342380D02*
X185380476Y-135342380D01*
X185809047Y-136342380D01*
%TO.C,R46*%
X182570380Y-130675142D02*
X182094190Y-130341809D01*
X182570380Y-130103714D02*
X181570380Y-130103714D01*
X181570380Y-130484666D01*
X181618000Y-130579904D01*
X181665619Y-130627523D01*
X181760857Y-130675142D01*
X181903714Y-130675142D01*
X181998952Y-130627523D01*
X182046571Y-130579904D01*
X182094190Y-130484666D01*
X182094190Y-130103714D01*
X181903714Y-131532285D02*
X182570380Y-131532285D01*
X181522761Y-131294190D02*
X182237047Y-131056095D01*
X182237047Y-131675142D01*
X181570380Y-132484666D02*
X181570380Y-132294190D01*
X181618000Y-132198952D01*
X181665619Y-132151333D01*
X181808476Y-132056095D01*
X181998952Y-132008476D01*
X182379904Y-132008476D01*
X182475142Y-132056095D01*
X182522761Y-132103714D01*
X182570380Y-132198952D01*
X182570380Y-132389428D01*
X182522761Y-132484666D01*
X182475142Y-132532285D01*
X182379904Y-132579904D01*
X182141809Y-132579904D01*
X182046571Y-132532285D01*
X181998952Y-132484666D01*
X181951333Y-132389428D01*
X181951333Y-132198952D01*
X181998952Y-132103714D01*
X182046571Y-132056095D01*
X182141809Y-132008476D01*
%TO.C,R45*%
X195778380Y-129405142D02*
X195302190Y-129071809D01*
X195778380Y-128833714D02*
X194778380Y-128833714D01*
X194778380Y-129214666D01*
X194826000Y-129309904D01*
X194873619Y-129357523D01*
X194968857Y-129405142D01*
X195111714Y-129405142D01*
X195206952Y-129357523D01*
X195254571Y-129309904D01*
X195302190Y-129214666D01*
X195302190Y-128833714D01*
X195111714Y-130262285D02*
X195778380Y-130262285D01*
X194730761Y-130024190D02*
X195445047Y-129786095D01*
X195445047Y-130405142D01*
X194778380Y-131262285D02*
X194778380Y-130786095D01*
X195254571Y-130738476D01*
X195206952Y-130786095D01*
X195159333Y-130881333D01*
X195159333Y-131119428D01*
X195206952Y-131214666D01*
X195254571Y-131262285D01*
X195349809Y-131309904D01*
X195587904Y-131309904D01*
X195683142Y-131262285D01*
X195730761Y-131214666D01*
X195778380Y-131119428D01*
X195778380Y-130881333D01*
X195730761Y-130786095D01*
X195683142Y-130738476D01*
%TO.C,R44*%
X186062857Y-127072380D02*
X186396190Y-126596190D01*
X186634285Y-127072380D02*
X186634285Y-126072380D01*
X186253333Y-126072380D01*
X186158095Y-126120000D01*
X186110476Y-126167619D01*
X186062857Y-126262857D01*
X186062857Y-126405714D01*
X186110476Y-126500952D01*
X186158095Y-126548571D01*
X186253333Y-126596190D01*
X186634285Y-126596190D01*
X185205714Y-126405714D02*
X185205714Y-127072380D01*
X185443809Y-126024761D02*
X185681904Y-126739047D01*
X185062857Y-126739047D01*
X184253333Y-126405714D02*
X184253333Y-127072380D01*
X184491428Y-126024761D02*
X184729523Y-126739047D01*
X184110476Y-126739047D01*
%TO.C,R43*%
X163520380Y-144137142D02*
X163044190Y-143803809D01*
X163520380Y-143565714D02*
X162520380Y-143565714D01*
X162520380Y-143946666D01*
X162568000Y-144041904D01*
X162615619Y-144089523D01*
X162710857Y-144137142D01*
X162853714Y-144137142D01*
X162948952Y-144089523D01*
X162996571Y-144041904D01*
X163044190Y-143946666D01*
X163044190Y-143565714D01*
X162853714Y-144994285D02*
X163520380Y-144994285D01*
X162472761Y-144756190D02*
X163187047Y-144518095D01*
X163187047Y-145137142D01*
X162520380Y-145422857D02*
X162520380Y-146041904D01*
X162901333Y-145708571D01*
X162901333Y-145851428D01*
X162948952Y-145946666D01*
X162996571Y-145994285D01*
X163091809Y-146041904D01*
X163329904Y-146041904D01*
X163425142Y-145994285D01*
X163472761Y-145946666D01*
X163520380Y-145851428D01*
X163520380Y-145565714D01*
X163472761Y-145470476D01*
X163425142Y-145422857D01*
%TO.C,R41*%
X191714380Y-122547142D02*
X191238190Y-122213809D01*
X191714380Y-121975714D02*
X190714380Y-121975714D01*
X190714380Y-122356666D01*
X190762000Y-122451904D01*
X190809619Y-122499523D01*
X190904857Y-122547142D01*
X191047714Y-122547142D01*
X191142952Y-122499523D01*
X191190571Y-122451904D01*
X191238190Y-122356666D01*
X191238190Y-121975714D01*
X191047714Y-123404285D02*
X191714380Y-123404285D01*
X190666761Y-123166190D02*
X191381047Y-122928095D01*
X191381047Y-123547142D01*
X191714380Y-124451904D02*
X191714380Y-123880476D01*
X191714380Y-124166190D02*
X190714380Y-124166190D01*
X190857238Y-124070952D01*
X190952476Y-123975714D01*
X191000095Y-123880476D01*
%TO.C,R40*%
X183522857Y-125674380D02*
X183856190Y-125198190D01*
X184094285Y-125674380D02*
X184094285Y-124674380D01*
X183713333Y-124674380D01*
X183618095Y-124722000D01*
X183570476Y-124769619D01*
X183522857Y-124864857D01*
X183522857Y-125007714D01*
X183570476Y-125102952D01*
X183618095Y-125150571D01*
X183713333Y-125198190D01*
X184094285Y-125198190D01*
X182665714Y-125007714D02*
X182665714Y-125674380D01*
X182903809Y-124626761D02*
X183141904Y-125341047D01*
X182522857Y-125341047D01*
X181951428Y-124674380D02*
X181856190Y-124674380D01*
X181760952Y-124722000D01*
X181713333Y-124769619D01*
X181665714Y-124864857D01*
X181618095Y-125055333D01*
X181618095Y-125293428D01*
X181665714Y-125483904D01*
X181713333Y-125579142D01*
X181760952Y-125626761D01*
X181856190Y-125674380D01*
X181951428Y-125674380D01*
X182046666Y-125626761D01*
X182094285Y-125579142D01*
X182141904Y-125483904D01*
X182189523Y-125293428D01*
X182189523Y-125055333D01*
X182141904Y-124864857D01*
X182094285Y-124769619D01*
X182046666Y-124722000D01*
X181951428Y-124674380D01*
%TO.C,R39*%
X179014380Y-120007142D02*
X178538190Y-119673809D01*
X179014380Y-119435714D02*
X178014380Y-119435714D01*
X178014380Y-119816666D01*
X178062000Y-119911904D01*
X178109619Y-119959523D01*
X178204857Y-120007142D01*
X178347714Y-120007142D01*
X178442952Y-119959523D01*
X178490571Y-119911904D01*
X178538190Y-119816666D01*
X178538190Y-119435714D01*
X178014380Y-120340476D02*
X178014380Y-120959523D01*
X178395333Y-120626190D01*
X178395333Y-120769047D01*
X178442952Y-120864285D01*
X178490571Y-120911904D01*
X178585809Y-120959523D01*
X178823904Y-120959523D01*
X178919142Y-120911904D01*
X178966761Y-120864285D01*
X179014380Y-120769047D01*
X179014380Y-120483333D01*
X178966761Y-120388095D01*
X178919142Y-120340476D01*
X179014380Y-121435714D02*
X179014380Y-121626190D01*
X178966761Y-121721428D01*
X178919142Y-121769047D01*
X178776285Y-121864285D01*
X178585809Y-121911904D01*
X178204857Y-121911904D01*
X178109619Y-121864285D01*
X178062000Y-121816666D01*
X178014380Y-121721428D01*
X178014380Y-121530952D01*
X178062000Y-121435714D01*
X178109619Y-121388095D01*
X178204857Y-121340476D01*
X178442952Y-121340476D01*
X178538190Y-121388095D01*
X178585809Y-121435714D01*
X178633428Y-121530952D01*
X178633428Y-121721428D01*
X178585809Y-121816666D01*
X178538190Y-121864285D01*
X178442952Y-121911904D01*
%TO.C,R38*%
X191714380Y-117213142D02*
X191238190Y-116879809D01*
X191714380Y-116641714D02*
X190714380Y-116641714D01*
X190714380Y-117022666D01*
X190762000Y-117117904D01*
X190809619Y-117165523D01*
X190904857Y-117213142D01*
X191047714Y-117213142D01*
X191142952Y-117165523D01*
X191190571Y-117117904D01*
X191238190Y-117022666D01*
X191238190Y-116641714D01*
X190714380Y-117546476D02*
X190714380Y-118165523D01*
X191095333Y-117832190D01*
X191095333Y-117975047D01*
X191142952Y-118070285D01*
X191190571Y-118117904D01*
X191285809Y-118165523D01*
X191523904Y-118165523D01*
X191619142Y-118117904D01*
X191666761Y-118070285D01*
X191714380Y-117975047D01*
X191714380Y-117689333D01*
X191666761Y-117594095D01*
X191619142Y-117546476D01*
X191142952Y-118736952D02*
X191095333Y-118641714D01*
X191047714Y-118594095D01*
X190952476Y-118546476D01*
X190904857Y-118546476D01*
X190809619Y-118594095D01*
X190762000Y-118641714D01*
X190714380Y-118736952D01*
X190714380Y-118927428D01*
X190762000Y-119022666D01*
X190809619Y-119070285D01*
X190904857Y-119117904D01*
X190952476Y-119117904D01*
X191047714Y-119070285D01*
X191095333Y-119022666D01*
X191142952Y-118927428D01*
X191142952Y-118736952D01*
X191190571Y-118641714D01*
X191238190Y-118594095D01*
X191333428Y-118546476D01*
X191523904Y-118546476D01*
X191619142Y-118594095D01*
X191666761Y-118641714D01*
X191714380Y-118736952D01*
X191714380Y-118927428D01*
X191666761Y-119022666D01*
X191619142Y-119070285D01*
X191523904Y-119117904D01*
X191333428Y-119117904D01*
X191238190Y-119070285D01*
X191190571Y-119022666D01*
X191142952Y-118927428D01*
%TO.C,R37*%
X180474857Y-116404380D02*
X180808190Y-115928190D01*
X181046285Y-116404380D02*
X181046285Y-115404380D01*
X180665333Y-115404380D01*
X180570095Y-115452000D01*
X180522476Y-115499619D01*
X180474857Y-115594857D01*
X180474857Y-115737714D01*
X180522476Y-115832952D01*
X180570095Y-115880571D01*
X180665333Y-115928190D01*
X181046285Y-115928190D01*
X180141523Y-115404380D02*
X179522476Y-115404380D01*
X179855809Y-115785333D01*
X179712952Y-115785333D01*
X179617714Y-115832952D01*
X179570095Y-115880571D01*
X179522476Y-115975809D01*
X179522476Y-116213904D01*
X179570095Y-116309142D01*
X179617714Y-116356761D01*
X179712952Y-116404380D01*
X179998666Y-116404380D01*
X180093904Y-116356761D01*
X180141523Y-116309142D01*
X179189142Y-115404380D02*
X178522476Y-115404380D01*
X178951047Y-116404380D01*
%TO.C,R36*%
X143454380Y-144240642D02*
X142978190Y-143907309D01*
X143454380Y-143669214D02*
X142454380Y-143669214D01*
X142454380Y-144050166D01*
X142502000Y-144145404D01*
X142549619Y-144193023D01*
X142644857Y-144240642D01*
X142787714Y-144240642D01*
X142882952Y-144193023D01*
X142930571Y-144145404D01*
X142978190Y-144050166D01*
X142978190Y-143669214D01*
X142454380Y-144573976D02*
X142454380Y-145193023D01*
X142835333Y-144859690D01*
X142835333Y-145002547D01*
X142882952Y-145097785D01*
X142930571Y-145145404D01*
X143025809Y-145193023D01*
X143263904Y-145193023D01*
X143359142Y-145145404D01*
X143406761Y-145097785D01*
X143454380Y-145002547D01*
X143454380Y-144716833D01*
X143406761Y-144621595D01*
X143359142Y-144573976D01*
X142454380Y-146050166D02*
X142454380Y-145859690D01*
X142502000Y-145764452D01*
X142549619Y-145716833D01*
X142692476Y-145621595D01*
X142882952Y-145573976D01*
X143263904Y-145573976D01*
X143359142Y-145621595D01*
X143406761Y-145669214D01*
X143454380Y-145764452D01*
X143454380Y-145954928D01*
X143406761Y-146050166D01*
X143359142Y-146097785D01*
X143263904Y-146145404D01*
X143025809Y-146145404D01*
X142930571Y-146097785D01*
X142882952Y-146050166D01*
X142835333Y-145954928D01*
X142835333Y-145764452D01*
X142882952Y-145669214D01*
X142930571Y-145621595D01*
X143025809Y-145573976D01*
%TO.C,R34*%
X176474380Y-134231142D02*
X175998190Y-133897809D01*
X176474380Y-133659714D02*
X175474380Y-133659714D01*
X175474380Y-134040666D01*
X175522000Y-134135904D01*
X175569619Y-134183523D01*
X175664857Y-134231142D01*
X175807714Y-134231142D01*
X175902952Y-134183523D01*
X175950571Y-134135904D01*
X175998190Y-134040666D01*
X175998190Y-133659714D01*
X175474380Y-134564476D02*
X175474380Y-135183523D01*
X175855333Y-134850190D01*
X175855333Y-134993047D01*
X175902952Y-135088285D01*
X175950571Y-135135904D01*
X176045809Y-135183523D01*
X176283904Y-135183523D01*
X176379142Y-135135904D01*
X176426761Y-135088285D01*
X176474380Y-134993047D01*
X176474380Y-134707333D01*
X176426761Y-134612095D01*
X176379142Y-134564476D01*
X175807714Y-136040666D02*
X176474380Y-136040666D01*
X175426761Y-135802571D02*
X176141047Y-135564476D01*
X176141047Y-136183523D01*
%TO.C,R33*%
X164980857Y-135580380D02*
X165314190Y-135104190D01*
X165552285Y-135580380D02*
X165552285Y-134580380D01*
X165171333Y-134580380D01*
X165076095Y-134628000D01*
X165028476Y-134675619D01*
X164980857Y-134770857D01*
X164980857Y-134913714D01*
X165028476Y-135008952D01*
X165076095Y-135056571D01*
X165171333Y-135104190D01*
X165552285Y-135104190D01*
X164647523Y-134580380D02*
X164028476Y-134580380D01*
X164361809Y-134961333D01*
X164218952Y-134961333D01*
X164123714Y-135008952D01*
X164076095Y-135056571D01*
X164028476Y-135151809D01*
X164028476Y-135389904D01*
X164076095Y-135485142D01*
X164123714Y-135532761D01*
X164218952Y-135580380D01*
X164504666Y-135580380D01*
X164599904Y-135532761D01*
X164647523Y-135485142D01*
X163695142Y-134580380D02*
X163076095Y-134580380D01*
X163409428Y-134961333D01*
X163266571Y-134961333D01*
X163171333Y-135008952D01*
X163123714Y-135056571D01*
X163076095Y-135151809D01*
X163076095Y-135389904D01*
X163123714Y-135485142D01*
X163171333Y-135532761D01*
X163266571Y-135580380D01*
X163552285Y-135580380D01*
X163647523Y-135532761D01*
X163695142Y-135485142D01*
%TO.C,R32*%
X163520380Y-131691142D02*
X163044190Y-131357809D01*
X163520380Y-131119714D02*
X162520380Y-131119714D01*
X162520380Y-131500666D01*
X162568000Y-131595904D01*
X162615619Y-131643523D01*
X162710857Y-131691142D01*
X162853714Y-131691142D01*
X162948952Y-131643523D01*
X162996571Y-131595904D01*
X163044190Y-131500666D01*
X163044190Y-131119714D01*
X162520380Y-132024476D02*
X162520380Y-132643523D01*
X162901333Y-132310190D01*
X162901333Y-132453047D01*
X162948952Y-132548285D01*
X162996571Y-132595904D01*
X163091809Y-132643523D01*
X163329904Y-132643523D01*
X163425142Y-132595904D01*
X163472761Y-132548285D01*
X163520380Y-132453047D01*
X163520380Y-132167333D01*
X163472761Y-132072095D01*
X163425142Y-132024476D01*
X162615619Y-133024476D02*
X162568000Y-133072095D01*
X162520380Y-133167333D01*
X162520380Y-133405428D01*
X162568000Y-133500666D01*
X162615619Y-133548285D01*
X162710857Y-133595904D01*
X162806095Y-133595904D01*
X162948952Y-133548285D01*
X163520380Y-132976857D01*
X163520380Y-133595904D01*
%TO.C,R31*%
X177744380Y-130421142D02*
X177268190Y-130087809D01*
X177744380Y-129849714D02*
X176744380Y-129849714D01*
X176744380Y-130230666D01*
X176792000Y-130325904D01*
X176839619Y-130373523D01*
X176934857Y-130421142D01*
X177077714Y-130421142D01*
X177172952Y-130373523D01*
X177220571Y-130325904D01*
X177268190Y-130230666D01*
X177268190Y-129849714D01*
X176744380Y-130754476D02*
X176744380Y-131373523D01*
X177125333Y-131040190D01*
X177125333Y-131183047D01*
X177172952Y-131278285D01*
X177220571Y-131325904D01*
X177315809Y-131373523D01*
X177553904Y-131373523D01*
X177649142Y-131325904D01*
X177696761Y-131278285D01*
X177744380Y-131183047D01*
X177744380Y-130897333D01*
X177696761Y-130802095D01*
X177649142Y-130754476D01*
X177744380Y-132325904D02*
X177744380Y-131754476D01*
X177744380Y-132040190D02*
X176744380Y-132040190D01*
X176887238Y-131944952D01*
X176982476Y-131849714D01*
X177030095Y-131754476D01*
%TO.C,R30*%
X178378380Y-127119142D02*
X177902190Y-126785809D01*
X178378380Y-126547714D02*
X177378380Y-126547714D01*
X177378380Y-126928666D01*
X177426000Y-127023904D01*
X177473619Y-127071523D01*
X177568857Y-127119142D01*
X177711714Y-127119142D01*
X177806952Y-127071523D01*
X177854571Y-127023904D01*
X177902190Y-126928666D01*
X177902190Y-126547714D01*
X177378380Y-127452476D02*
X177378380Y-128071523D01*
X177759333Y-127738190D01*
X177759333Y-127881047D01*
X177806952Y-127976285D01*
X177854571Y-128023904D01*
X177949809Y-128071523D01*
X178187904Y-128071523D01*
X178283142Y-128023904D01*
X178330761Y-127976285D01*
X178378380Y-127881047D01*
X178378380Y-127595333D01*
X178330761Y-127500095D01*
X178283142Y-127452476D01*
X177378380Y-128690571D02*
X177378380Y-128785809D01*
X177426000Y-128881047D01*
X177473619Y-128928666D01*
X177568857Y-128976285D01*
X177759333Y-129023904D01*
X177997428Y-129023904D01*
X178187904Y-128976285D01*
X178283142Y-128928666D01*
X178330761Y-128881047D01*
X178378380Y-128785809D01*
X178378380Y-128690571D01*
X178330761Y-128595333D01*
X178283142Y-128547714D01*
X178187904Y-128500095D01*
X177997428Y-128452476D01*
X177759333Y-128452476D01*
X177568857Y-128500095D01*
X177473619Y-128547714D01*
X177426000Y-128595333D01*
X177378380Y-128690571D01*
%TO.C,R10*%
X139264380Y-123055142D02*
X138788190Y-122721809D01*
X139264380Y-122483714D02*
X138264380Y-122483714D01*
X138264380Y-122864666D01*
X138312000Y-122959904D01*
X138359619Y-123007523D01*
X138454857Y-123055142D01*
X138597714Y-123055142D01*
X138692952Y-123007523D01*
X138740571Y-122959904D01*
X138788190Y-122864666D01*
X138788190Y-122483714D01*
X139264380Y-124007523D02*
X139264380Y-123436095D01*
X139264380Y-123721809D02*
X138264380Y-123721809D01*
X138407238Y-123626571D01*
X138502476Y-123531333D01*
X138550095Y-123436095D01*
X138264380Y-124626571D02*
X138264380Y-124721809D01*
X138312000Y-124817047D01*
X138359619Y-124864666D01*
X138454857Y-124912285D01*
X138645333Y-124959904D01*
X138883428Y-124959904D01*
X139073904Y-124912285D01*
X139169142Y-124864666D01*
X139216761Y-124817047D01*
X139264380Y-124721809D01*
X139264380Y-124626571D01*
X139216761Y-124531333D01*
X139169142Y-124483714D01*
X139073904Y-124436095D01*
X138883428Y-124388476D01*
X138645333Y-124388476D01*
X138454857Y-124436095D01*
X138359619Y-124483714D01*
X138312000Y-124531333D01*
X138264380Y-124626571D01*
%TO.C,R9*%
X135708380Y-123531333D02*
X135232190Y-123198000D01*
X135708380Y-122959904D02*
X134708380Y-122959904D01*
X134708380Y-123340857D01*
X134756000Y-123436095D01*
X134803619Y-123483714D01*
X134898857Y-123531333D01*
X135041714Y-123531333D01*
X135136952Y-123483714D01*
X135184571Y-123436095D01*
X135232190Y-123340857D01*
X135232190Y-122959904D01*
X135708380Y-124007523D02*
X135708380Y-124198000D01*
X135660761Y-124293238D01*
X135613142Y-124340857D01*
X135470285Y-124436095D01*
X135279809Y-124483714D01*
X134898857Y-124483714D01*
X134803619Y-124436095D01*
X134756000Y-124388476D01*
X134708380Y-124293238D01*
X134708380Y-124102761D01*
X134756000Y-124007523D01*
X134803619Y-123959904D01*
X134898857Y-123912285D01*
X135136952Y-123912285D01*
X135232190Y-123959904D01*
X135279809Y-124007523D01*
X135327428Y-124102761D01*
X135327428Y-124293238D01*
X135279809Y-124388476D01*
X135232190Y-124436095D01*
X135136952Y-124483714D01*
%TO.C,R8*%
X126310380Y-124801333D02*
X125834190Y-124468000D01*
X126310380Y-124229904D02*
X125310380Y-124229904D01*
X125310380Y-124610857D01*
X125358000Y-124706095D01*
X125405619Y-124753714D01*
X125500857Y-124801333D01*
X125643714Y-124801333D01*
X125738952Y-124753714D01*
X125786571Y-124706095D01*
X125834190Y-124610857D01*
X125834190Y-124229904D01*
X125738952Y-125372761D02*
X125691333Y-125277523D01*
X125643714Y-125229904D01*
X125548476Y-125182285D01*
X125500857Y-125182285D01*
X125405619Y-125229904D01*
X125358000Y-125277523D01*
X125310380Y-125372761D01*
X125310380Y-125563238D01*
X125358000Y-125658476D01*
X125405619Y-125706095D01*
X125500857Y-125753714D01*
X125548476Y-125753714D01*
X125643714Y-125706095D01*
X125691333Y-125658476D01*
X125738952Y-125563238D01*
X125738952Y-125372761D01*
X125786571Y-125277523D01*
X125834190Y-125229904D01*
X125929428Y-125182285D01*
X126119904Y-125182285D01*
X126215142Y-125229904D01*
X126262761Y-125277523D01*
X126310380Y-125372761D01*
X126310380Y-125563238D01*
X126262761Y-125658476D01*
X126215142Y-125706095D01*
X126119904Y-125753714D01*
X125929428Y-125753714D01*
X125834190Y-125706095D01*
X125786571Y-125658476D01*
X125738952Y-125563238D01*
%TO.C,R3*%
X122246380Y-124801333D02*
X121770190Y-124468000D01*
X122246380Y-124229904D02*
X121246380Y-124229904D01*
X121246380Y-124610857D01*
X121294000Y-124706095D01*
X121341619Y-124753714D01*
X121436857Y-124801333D01*
X121579714Y-124801333D01*
X121674952Y-124753714D01*
X121722571Y-124706095D01*
X121770190Y-124610857D01*
X121770190Y-124229904D01*
X121246380Y-125134666D02*
X121246380Y-125753714D01*
X121627333Y-125420380D01*
X121627333Y-125563238D01*
X121674952Y-125658476D01*
X121722571Y-125706095D01*
X121817809Y-125753714D01*
X122055904Y-125753714D01*
X122151142Y-125706095D01*
X122198761Y-125658476D01*
X122246380Y-125563238D01*
X122246380Y-125277523D01*
X122198761Y-125182285D01*
X122151142Y-125134666D01*
%TO.C,R2*%
X118690380Y-126833333D02*
X118214190Y-126500000D01*
X118690380Y-126261904D02*
X117690380Y-126261904D01*
X117690380Y-126642857D01*
X117738000Y-126738095D01*
X117785619Y-126785714D01*
X117880857Y-126833333D01*
X118023714Y-126833333D01*
X118118952Y-126785714D01*
X118166571Y-126738095D01*
X118214190Y-126642857D01*
X118214190Y-126261904D01*
X117785619Y-127214285D02*
X117738000Y-127261904D01*
X117690380Y-127357142D01*
X117690380Y-127595238D01*
X117738000Y-127690476D01*
X117785619Y-127738095D01*
X117880857Y-127785714D01*
X117976095Y-127785714D01*
X118118952Y-127738095D01*
X118690380Y-127166666D01*
X118690380Y-127785714D01*
%TO.C,R24*%
X137294857Y-97860380D02*
X137628190Y-97384190D01*
X137866285Y-97860380D02*
X137866285Y-96860380D01*
X137485333Y-96860380D01*
X137390095Y-96908000D01*
X137342476Y-96955619D01*
X137294857Y-97050857D01*
X137294857Y-97193714D01*
X137342476Y-97288952D01*
X137390095Y-97336571D01*
X137485333Y-97384190D01*
X137866285Y-97384190D01*
X136913904Y-96955619D02*
X136866285Y-96908000D01*
X136771047Y-96860380D01*
X136532952Y-96860380D01*
X136437714Y-96908000D01*
X136390095Y-96955619D01*
X136342476Y-97050857D01*
X136342476Y-97146095D01*
X136390095Y-97288952D01*
X136961523Y-97860380D01*
X136342476Y-97860380D01*
X135485333Y-97193714D02*
X135485333Y-97860380D01*
X135723428Y-96812761D02*
X135961523Y-97527047D01*
X135342476Y-97527047D01*
%TO.C,R18*%
X189682380Y-107307142D02*
X189206190Y-106973809D01*
X189682380Y-106735714D02*
X188682380Y-106735714D01*
X188682380Y-107116666D01*
X188730000Y-107211904D01*
X188777619Y-107259523D01*
X188872857Y-107307142D01*
X189015714Y-107307142D01*
X189110952Y-107259523D01*
X189158571Y-107211904D01*
X189206190Y-107116666D01*
X189206190Y-106735714D01*
X189682380Y-108259523D02*
X189682380Y-107688095D01*
X189682380Y-107973809D02*
X188682380Y-107973809D01*
X188825238Y-107878571D01*
X188920476Y-107783333D01*
X188968095Y-107688095D01*
X189110952Y-108830952D02*
X189063333Y-108735714D01*
X189015714Y-108688095D01*
X188920476Y-108640476D01*
X188872857Y-108640476D01*
X188777619Y-108688095D01*
X188730000Y-108735714D01*
X188682380Y-108830952D01*
X188682380Y-109021428D01*
X188730000Y-109116666D01*
X188777619Y-109164285D01*
X188872857Y-109211904D01*
X188920476Y-109211904D01*
X189015714Y-109164285D01*
X189063333Y-109116666D01*
X189110952Y-109021428D01*
X189110952Y-108830952D01*
X189158571Y-108735714D01*
X189206190Y-108688095D01*
X189301428Y-108640476D01*
X189491904Y-108640476D01*
X189587142Y-108688095D01*
X189634761Y-108735714D01*
X189682380Y-108830952D01*
X189682380Y-109021428D01*
X189634761Y-109116666D01*
X189587142Y-109164285D01*
X189491904Y-109211904D01*
X189301428Y-109211904D01*
X189206190Y-109164285D01*
X189158571Y-109116666D01*
X189110952Y-109021428D01*
%TO.C,R16*%
X188602857Y-115514380D02*
X188936190Y-115038190D01*
X189174285Y-115514380D02*
X189174285Y-114514380D01*
X188793333Y-114514380D01*
X188698095Y-114562000D01*
X188650476Y-114609619D01*
X188602857Y-114704857D01*
X188602857Y-114847714D01*
X188650476Y-114942952D01*
X188698095Y-114990571D01*
X188793333Y-115038190D01*
X189174285Y-115038190D01*
X187650476Y-115514380D02*
X188221904Y-115514380D01*
X187936190Y-115514380D02*
X187936190Y-114514380D01*
X188031428Y-114657238D01*
X188126666Y-114752476D01*
X188221904Y-114800095D01*
X186793333Y-114514380D02*
X186983809Y-114514380D01*
X187079047Y-114562000D01*
X187126666Y-114609619D01*
X187221904Y-114752476D01*
X187269523Y-114942952D01*
X187269523Y-115323904D01*
X187221904Y-115419142D01*
X187174285Y-115466761D01*
X187079047Y-115514380D01*
X186888571Y-115514380D01*
X186793333Y-115466761D01*
X186745714Y-115419142D01*
X186698095Y-115323904D01*
X186698095Y-115085809D01*
X186745714Y-114990571D01*
X186793333Y-114942952D01*
X186888571Y-114895333D01*
X187079047Y-114895333D01*
X187174285Y-114942952D01*
X187221904Y-114990571D01*
X187269523Y-115085809D01*
%TO.C,R15*%
X191206380Y-106545142D02*
X190730190Y-106211809D01*
X191206380Y-105973714D02*
X190206380Y-105973714D01*
X190206380Y-106354666D01*
X190254000Y-106449904D01*
X190301619Y-106497523D01*
X190396857Y-106545142D01*
X190539714Y-106545142D01*
X190634952Y-106497523D01*
X190682571Y-106449904D01*
X190730190Y-106354666D01*
X190730190Y-105973714D01*
X191206380Y-107497523D02*
X191206380Y-106926095D01*
X191206380Y-107211809D02*
X190206380Y-107211809D01*
X190349238Y-107116571D01*
X190444476Y-107021333D01*
X190492095Y-106926095D01*
X190206380Y-108402285D02*
X190206380Y-107926095D01*
X190682571Y-107878476D01*
X190634952Y-107926095D01*
X190587333Y-108021333D01*
X190587333Y-108259428D01*
X190634952Y-108354666D01*
X190682571Y-108402285D01*
X190777809Y-108449904D01*
X191015904Y-108449904D01*
X191111142Y-108402285D01*
X191158761Y-108354666D01*
X191206380Y-108259428D01*
X191206380Y-108021333D01*
X191158761Y-107926095D01*
X191111142Y-107878476D01*
%TO.C,R20*%
X155392380Y-73779142D02*
X154916190Y-73445809D01*
X155392380Y-73207714D02*
X154392380Y-73207714D01*
X154392380Y-73588666D01*
X154440000Y-73683904D01*
X154487619Y-73731523D01*
X154582857Y-73779142D01*
X154725714Y-73779142D01*
X154820952Y-73731523D01*
X154868571Y-73683904D01*
X154916190Y-73588666D01*
X154916190Y-73207714D01*
X154487619Y-74160095D02*
X154440000Y-74207714D01*
X154392380Y-74302952D01*
X154392380Y-74541047D01*
X154440000Y-74636285D01*
X154487619Y-74683904D01*
X154582857Y-74731523D01*
X154678095Y-74731523D01*
X154820952Y-74683904D01*
X155392380Y-74112476D01*
X155392380Y-74731523D01*
X154392380Y-75350571D02*
X154392380Y-75445809D01*
X154440000Y-75541047D01*
X154487619Y-75588666D01*
X154582857Y-75636285D01*
X154773333Y-75683904D01*
X155011428Y-75683904D01*
X155201904Y-75636285D01*
X155297142Y-75588666D01*
X155344761Y-75541047D01*
X155392380Y-75445809D01*
X155392380Y-75350571D01*
X155344761Y-75255333D01*
X155297142Y-75207714D01*
X155201904Y-75160095D01*
X155011428Y-75112476D01*
X154773333Y-75112476D01*
X154582857Y-75160095D01*
X154487619Y-75207714D01*
X154440000Y-75255333D01*
X154392380Y-75350571D01*
%TO.C,R19*%
X153042857Y-88716380D02*
X153376190Y-88240190D01*
X153614285Y-88716380D02*
X153614285Y-87716380D01*
X153233333Y-87716380D01*
X153138095Y-87764000D01*
X153090476Y-87811619D01*
X153042857Y-87906857D01*
X153042857Y-88049714D01*
X153090476Y-88144952D01*
X153138095Y-88192571D01*
X153233333Y-88240190D01*
X153614285Y-88240190D01*
X152090476Y-88716380D02*
X152661904Y-88716380D01*
X152376190Y-88716380D02*
X152376190Y-87716380D01*
X152471428Y-87859238D01*
X152566666Y-87954476D01*
X152661904Y-88002095D01*
X151614285Y-88716380D02*
X151423809Y-88716380D01*
X151328571Y-88668761D01*
X151280952Y-88621142D01*
X151185714Y-88478285D01*
X151138095Y-88287809D01*
X151138095Y-87906857D01*
X151185714Y-87811619D01*
X151233333Y-87764000D01*
X151328571Y-87716380D01*
X151519047Y-87716380D01*
X151614285Y-87764000D01*
X151661904Y-87811619D01*
X151709523Y-87906857D01*
X151709523Y-88144952D01*
X151661904Y-88240190D01*
X151614285Y-88287809D01*
X151519047Y-88335428D01*
X151328571Y-88335428D01*
X151233333Y-88287809D01*
X151185714Y-88240190D01*
X151138095Y-88144952D01*
%TO.C,R17*%
X128848380Y-80486642D02*
X128372190Y-80153309D01*
X128848380Y-79915214D02*
X127848380Y-79915214D01*
X127848380Y-80296166D01*
X127896000Y-80391404D01*
X127943619Y-80439023D01*
X128038857Y-80486642D01*
X128181714Y-80486642D01*
X128276952Y-80439023D01*
X128324571Y-80391404D01*
X128372190Y-80296166D01*
X128372190Y-79915214D01*
X128848380Y-81439023D02*
X128848380Y-80867595D01*
X128848380Y-81153309D02*
X127848380Y-81153309D01*
X127991238Y-81058071D01*
X128086476Y-80962833D01*
X128134095Y-80867595D01*
X127848380Y-81772357D02*
X127848380Y-82439023D01*
X128848380Y-82010452D01*
%TO.C,R14*%
X147392380Y-87241142D02*
X146916190Y-86907809D01*
X147392380Y-86669714D02*
X146392380Y-86669714D01*
X146392380Y-87050666D01*
X146440000Y-87145904D01*
X146487619Y-87193523D01*
X146582857Y-87241142D01*
X146725714Y-87241142D01*
X146820952Y-87193523D01*
X146868571Y-87145904D01*
X146916190Y-87050666D01*
X146916190Y-86669714D01*
X147392380Y-88193523D02*
X147392380Y-87622095D01*
X147392380Y-87907809D02*
X146392380Y-87907809D01*
X146535238Y-87812571D01*
X146630476Y-87717333D01*
X146678095Y-87622095D01*
X146725714Y-89050666D02*
X147392380Y-89050666D01*
X146344761Y-88812571D02*
X147059047Y-88574476D01*
X147059047Y-89193523D01*
%TO.C,R13*%
X125356857Y-102306380D02*
X125690190Y-101830190D01*
X125928285Y-102306380D02*
X125928285Y-101306380D01*
X125547333Y-101306380D01*
X125452095Y-101354000D01*
X125404476Y-101401619D01*
X125356857Y-101496857D01*
X125356857Y-101639714D01*
X125404476Y-101734952D01*
X125452095Y-101782571D01*
X125547333Y-101830190D01*
X125928285Y-101830190D01*
X124404476Y-102306380D02*
X124975904Y-102306380D01*
X124690190Y-102306380D02*
X124690190Y-101306380D01*
X124785428Y-101449238D01*
X124880666Y-101544476D01*
X124975904Y-101592095D01*
X124071142Y-101306380D02*
X123452095Y-101306380D01*
X123785428Y-101687333D01*
X123642571Y-101687333D01*
X123547333Y-101734952D01*
X123499714Y-101782571D01*
X123452095Y-101877809D01*
X123452095Y-102115904D01*
X123499714Y-102211142D01*
X123547333Y-102258761D01*
X123642571Y-102306380D01*
X123928285Y-102306380D01*
X124023523Y-102258761D01*
X124071142Y-102211142D01*
%TO.C,R29*%
X155520380Y-114927142D02*
X155044190Y-114593809D01*
X155520380Y-114355714D02*
X154520380Y-114355714D01*
X154520380Y-114736666D01*
X154568000Y-114831904D01*
X154615619Y-114879523D01*
X154710857Y-114927142D01*
X154853714Y-114927142D01*
X154948952Y-114879523D01*
X154996571Y-114831904D01*
X155044190Y-114736666D01*
X155044190Y-114355714D01*
X154615619Y-115308095D02*
X154568000Y-115355714D01*
X154520380Y-115450952D01*
X154520380Y-115689047D01*
X154568000Y-115784285D01*
X154615619Y-115831904D01*
X154710857Y-115879523D01*
X154806095Y-115879523D01*
X154948952Y-115831904D01*
X155520380Y-115260476D01*
X155520380Y-115879523D01*
X155520380Y-116355714D02*
X155520380Y-116546190D01*
X155472761Y-116641428D01*
X155425142Y-116689047D01*
X155282285Y-116784285D01*
X155091809Y-116831904D01*
X154710857Y-116831904D01*
X154615619Y-116784285D01*
X154568000Y-116736666D01*
X154520380Y-116641428D01*
X154520380Y-116450952D01*
X154568000Y-116355714D01*
X154615619Y-116308095D01*
X154710857Y-116260476D01*
X154948952Y-116260476D01*
X155044190Y-116308095D01*
X155091809Y-116355714D01*
X155139428Y-116450952D01*
X155139428Y-116641428D01*
X155091809Y-116736666D01*
X155044190Y-116784285D01*
X154948952Y-116831904D01*
%TO.C,R28*%
X142312380Y-108831142D02*
X141836190Y-108497809D01*
X142312380Y-108259714D02*
X141312380Y-108259714D01*
X141312380Y-108640666D01*
X141360000Y-108735904D01*
X141407619Y-108783523D01*
X141502857Y-108831142D01*
X141645714Y-108831142D01*
X141740952Y-108783523D01*
X141788571Y-108735904D01*
X141836190Y-108640666D01*
X141836190Y-108259714D01*
X141407619Y-109212095D02*
X141360000Y-109259714D01*
X141312380Y-109354952D01*
X141312380Y-109593047D01*
X141360000Y-109688285D01*
X141407619Y-109735904D01*
X141502857Y-109783523D01*
X141598095Y-109783523D01*
X141740952Y-109735904D01*
X142312380Y-109164476D01*
X142312380Y-109783523D01*
X141740952Y-110354952D02*
X141693333Y-110259714D01*
X141645714Y-110212095D01*
X141550476Y-110164476D01*
X141502857Y-110164476D01*
X141407619Y-110212095D01*
X141360000Y-110259714D01*
X141312380Y-110354952D01*
X141312380Y-110545428D01*
X141360000Y-110640666D01*
X141407619Y-110688285D01*
X141502857Y-110735904D01*
X141550476Y-110735904D01*
X141645714Y-110688285D01*
X141693333Y-110640666D01*
X141740952Y-110545428D01*
X141740952Y-110354952D01*
X141788571Y-110259714D01*
X141836190Y-110212095D01*
X141931428Y-110164476D01*
X142121904Y-110164476D01*
X142217142Y-110212095D01*
X142264761Y-110259714D01*
X142312380Y-110354952D01*
X142312380Y-110545428D01*
X142264761Y-110640666D01*
X142217142Y-110688285D01*
X142121904Y-110735904D01*
X141931428Y-110735904D01*
X141836190Y-110688285D01*
X141788571Y-110640666D01*
X141740952Y-110545428D01*
%TO.C,R27*%
X144090380Y-121023142D02*
X143614190Y-120689809D01*
X144090380Y-120451714D02*
X143090380Y-120451714D01*
X143090380Y-120832666D01*
X143138000Y-120927904D01*
X143185619Y-120975523D01*
X143280857Y-121023142D01*
X143423714Y-121023142D01*
X143518952Y-120975523D01*
X143566571Y-120927904D01*
X143614190Y-120832666D01*
X143614190Y-120451714D01*
X143185619Y-121404095D02*
X143138000Y-121451714D01*
X143090380Y-121546952D01*
X143090380Y-121785047D01*
X143138000Y-121880285D01*
X143185619Y-121927904D01*
X143280857Y-121975523D01*
X143376095Y-121975523D01*
X143518952Y-121927904D01*
X144090380Y-121356476D01*
X144090380Y-121975523D01*
X143090380Y-122308857D02*
X143090380Y-122975523D01*
X144090380Y-122546952D01*
%TO.C,R26*%
X147646380Y-121023142D02*
X147170190Y-120689809D01*
X147646380Y-120451714D02*
X146646380Y-120451714D01*
X146646380Y-120832666D01*
X146694000Y-120927904D01*
X146741619Y-120975523D01*
X146836857Y-121023142D01*
X146979714Y-121023142D01*
X147074952Y-120975523D01*
X147122571Y-120927904D01*
X147170190Y-120832666D01*
X147170190Y-120451714D01*
X146741619Y-121404095D02*
X146694000Y-121451714D01*
X146646380Y-121546952D01*
X146646380Y-121785047D01*
X146694000Y-121880285D01*
X146741619Y-121927904D01*
X146836857Y-121975523D01*
X146932095Y-121975523D01*
X147074952Y-121927904D01*
X147646380Y-121356476D01*
X147646380Y-121975523D01*
X146646380Y-122832666D02*
X146646380Y-122642190D01*
X146694000Y-122546952D01*
X146741619Y-122499333D01*
X146884476Y-122404095D01*
X147074952Y-122356476D01*
X147455904Y-122356476D01*
X147551142Y-122404095D01*
X147598761Y-122451714D01*
X147646380Y-122546952D01*
X147646380Y-122737428D01*
X147598761Y-122832666D01*
X147551142Y-122880285D01*
X147455904Y-122927904D01*
X147217809Y-122927904D01*
X147122571Y-122880285D01*
X147074952Y-122832666D01*
X147027333Y-122737428D01*
X147027333Y-122546952D01*
X147074952Y-122451714D01*
X147122571Y-122404095D01*
X147217809Y-122356476D01*
%TO.C,R22*%
X177872380Y-110101142D02*
X177396190Y-109767809D01*
X177872380Y-109529714D02*
X176872380Y-109529714D01*
X176872380Y-109910666D01*
X176920000Y-110005904D01*
X176967619Y-110053523D01*
X177062857Y-110101142D01*
X177205714Y-110101142D01*
X177300952Y-110053523D01*
X177348571Y-110005904D01*
X177396190Y-109910666D01*
X177396190Y-109529714D01*
X176967619Y-110482095D02*
X176920000Y-110529714D01*
X176872380Y-110624952D01*
X176872380Y-110863047D01*
X176920000Y-110958285D01*
X176967619Y-111005904D01*
X177062857Y-111053523D01*
X177158095Y-111053523D01*
X177300952Y-111005904D01*
X177872380Y-110434476D01*
X177872380Y-111053523D01*
X176967619Y-111434476D02*
X176920000Y-111482095D01*
X176872380Y-111577333D01*
X176872380Y-111815428D01*
X176920000Y-111910666D01*
X176967619Y-111958285D01*
X177062857Y-112005904D01*
X177158095Y-112005904D01*
X177300952Y-111958285D01*
X177872380Y-111386857D01*
X177872380Y-112005904D01*
%TO.C,R21*%
X177872380Y-106291142D02*
X177396190Y-105957809D01*
X177872380Y-105719714D02*
X176872380Y-105719714D01*
X176872380Y-106100666D01*
X176920000Y-106195904D01*
X176967619Y-106243523D01*
X177062857Y-106291142D01*
X177205714Y-106291142D01*
X177300952Y-106243523D01*
X177348571Y-106195904D01*
X177396190Y-106100666D01*
X177396190Y-105719714D01*
X176967619Y-106672095D02*
X176920000Y-106719714D01*
X176872380Y-106814952D01*
X176872380Y-107053047D01*
X176920000Y-107148285D01*
X176967619Y-107195904D01*
X177062857Y-107243523D01*
X177158095Y-107243523D01*
X177300952Y-107195904D01*
X177872380Y-106624476D01*
X177872380Y-107243523D01*
X177872380Y-108195904D02*
X177872380Y-107624476D01*
X177872380Y-107910190D02*
X176872380Y-107910190D01*
X177015238Y-107814952D01*
X177110476Y-107719714D01*
X177158095Y-107624476D01*
%TO.C,Q23*%
X170243428Y-118951619D02*
X170338666Y-118904000D01*
X170433904Y-118808761D01*
X170576761Y-118665904D01*
X170672000Y-118618285D01*
X170767238Y-118618285D01*
X170719619Y-118856380D02*
X170814857Y-118808761D01*
X170910095Y-118713523D01*
X170957714Y-118523047D01*
X170957714Y-118189714D01*
X170910095Y-117999238D01*
X170814857Y-117904000D01*
X170719619Y-117856380D01*
X170529142Y-117856380D01*
X170433904Y-117904000D01*
X170338666Y-117999238D01*
X170291047Y-118189714D01*
X170291047Y-118523047D01*
X170338666Y-118713523D01*
X170433904Y-118808761D01*
X170529142Y-118856380D01*
X170719619Y-118856380D01*
X169910095Y-117951619D02*
X169862476Y-117904000D01*
X169767238Y-117856380D01*
X169529142Y-117856380D01*
X169433904Y-117904000D01*
X169386285Y-117951619D01*
X169338666Y-118046857D01*
X169338666Y-118142095D01*
X169386285Y-118284952D01*
X169957714Y-118856380D01*
X169338666Y-118856380D01*
X169005333Y-117856380D02*
X168386285Y-117856380D01*
X168719619Y-118237333D01*
X168576761Y-118237333D01*
X168481523Y-118284952D01*
X168433904Y-118332571D01*
X168386285Y-118427809D01*
X168386285Y-118665904D01*
X168433904Y-118761142D01*
X168481523Y-118808761D01*
X168576761Y-118856380D01*
X168862476Y-118856380D01*
X168957714Y-118808761D01*
X169005333Y-118761142D01*
%TO.C,Q20*%
X191071428Y-128095619D02*
X191166666Y-128048000D01*
X191261904Y-127952761D01*
X191404761Y-127809904D01*
X191500000Y-127762285D01*
X191595238Y-127762285D01*
X191547619Y-128000380D02*
X191642857Y-127952761D01*
X191738095Y-127857523D01*
X191785714Y-127667047D01*
X191785714Y-127333714D01*
X191738095Y-127143238D01*
X191642857Y-127048000D01*
X191547619Y-127000380D01*
X191357142Y-127000380D01*
X191261904Y-127048000D01*
X191166666Y-127143238D01*
X191119047Y-127333714D01*
X191119047Y-127667047D01*
X191166666Y-127857523D01*
X191261904Y-127952761D01*
X191357142Y-128000380D01*
X191547619Y-128000380D01*
X190738095Y-127095619D02*
X190690476Y-127048000D01*
X190595238Y-127000380D01*
X190357142Y-127000380D01*
X190261904Y-127048000D01*
X190214285Y-127095619D01*
X190166666Y-127190857D01*
X190166666Y-127286095D01*
X190214285Y-127428952D01*
X190785714Y-128000380D01*
X190166666Y-128000380D01*
X189547619Y-127000380D02*
X189452380Y-127000380D01*
X189357142Y-127048000D01*
X189309523Y-127095619D01*
X189261904Y-127190857D01*
X189214285Y-127381333D01*
X189214285Y-127619428D01*
X189261904Y-127809904D01*
X189309523Y-127905142D01*
X189357142Y-127952761D01*
X189452380Y-128000380D01*
X189547619Y-128000380D01*
X189642857Y-127952761D01*
X189690476Y-127905142D01*
X189738095Y-127809904D01*
X189785714Y-127619428D01*
X189785714Y-127381333D01*
X189738095Y-127190857D01*
X189690476Y-127095619D01*
X189642857Y-127048000D01*
X189547619Y-127000380D01*
%TO.C,Q17*%
X187261428Y-117427619D02*
X187356666Y-117380000D01*
X187451904Y-117284761D01*
X187594761Y-117141904D01*
X187690000Y-117094285D01*
X187785238Y-117094285D01*
X187737619Y-117332380D02*
X187832857Y-117284761D01*
X187928095Y-117189523D01*
X187975714Y-116999047D01*
X187975714Y-116665714D01*
X187928095Y-116475238D01*
X187832857Y-116380000D01*
X187737619Y-116332380D01*
X187547142Y-116332380D01*
X187451904Y-116380000D01*
X187356666Y-116475238D01*
X187309047Y-116665714D01*
X187309047Y-116999047D01*
X187356666Y-117189523D01*
X187451904Y-117284761D01*
X187547142Y-117332380D01*
X187737619Y-117332380D01*
X186356666Y-117332380D02*
X186928095Y-117332380D01*
X186642380Y-117332380D02*
X186642380Y-116332380D01*
X186737619Y-116475238D01*
X186832857Y-116570476D01*
X186928095Y-116618095D01*
X186023333Y-116332380D02*
X185356666Y-116332380D01*
X185785238Y-117332380D01*
%TO.C,Q14*%
X171767428Y-129111619D02*
X171862666Y-129064000D01*
X171957904Y-128968761D01*
X172100761Y-128825904D01*
X172196000Y-128778285D01*
X172291238Y-128778285D01*
X172243619Y-129016380D02*
X172338857Y-128968761D01*
X172434095Y-128873523D01*
X172481714Y-128683047D01*
X172481714Y-128349714D01*
X172434095Y-128159238D01*
X172338857Y-128064000D01*
X172243619Y-128016380D01*
X172053142Y-128016380D01*
X171957904Y-128064000D01*
X171862666Y-128159238D01*
X171815047Y-128349714D01*
X171815047Y-128683047D01*
X171862666Y-128873523D01*
X171957904Y-128968761D01*
X172053142Y-129016380D01*
X172243619Y-129016380D01*
X170862666Y-129016380D02*
X171434095Y-129016380D01*
X171148380Y-129016380D02*
X171148380Y-128016380D01*
X171243619Y-128159238D01*
X171338857Y-128254476D01*
X171434095Y-128302095D01*
X170005523Y-128349714D02*
X170005523Y-129016380D01*
X170243619Y-127968761D02*
X170481714Y-128683047D01*
X169862666Y-128683047D01*
%TO.C,Q1*%
X118713238Y-115003619D02*
X118808476Y-114956000D01*
X118903714Y-114860761D01*
X119046571Y-114717904D01*
X119141809Y-114670285D01*
X119237047Y-114670285D01*
X119189428Y-114908380D02*
X119284666Y-114860761D01*
X119379904Y-114765523D01*
X119427523Y-114575047D01*
X119427523Y-114241714D01*
X119379904Y-114051238D01*
X119284666Y-113956000D01*
X119189428Y-113908380D01*
X118998952Y-113908380D01*
X118903714Y-113956000D01*
X118808476Y-114051238D01*
X118760857Y-114241714D01*
X118760857Y-114575047D01*
X118808476Y-114765523D01*
X118903714Y-114860761D01*
X118998952Y-114908380D01*
X119189428Y-114908380D01*
X117808476Y-114908380D02*
X118379904Y-114908380D01*
X118094190Y-114908380D02*
X118094190Y-113908380D01*
X118189428Y-114051238D01*
X118284666Y-114146476D01*
X118379904Y-114194095D01*
%TO.C,Q5*%
X188309238Y-99861619D02*
X188404476Y-99814000D01*
X188499714Y-99718761D01*
X188642571Y-99575904D01*
X188737809Y-99528285D01*
X188833047Y-99528285D01*
X188785428Y-99766380D02*
X188880666Y-99718761D01*
X188975904Y-99623523D01*
X189023523Y-99433047D01*
X189023523Y-99099714D01*
X188975904Y-98909238D01*
X188880666Y-98814000D01*
X188785428Y-98766380D01*
X188594952Y-98766380D01*
X188499714Y-98814000D01*
X188404476Y-98909238D01*
X188356857Y-99099714D01*
X188356857Y-99433047D01*
X188404476Y-99623523D01*
X188499714Y-99718761D01*
X188594952Y-99766380D01*
X188785428Y-99766380D01*
X187452095Y-98766380D02*
X187928285Y-98766380D01*
X187975904Y-99242571D01*
X187928285Y-99194952D01*
X187833047Y-99147333D01*
X187594952Y-99147333D01*
X187499714Y-99194952D01*
X187452095Y-99242571D01*
X187404476Y-99337809D01*
X187404476Y-99575904D01*
X187452095Y-99671142D01*
X187499714Y-99718761D01*
X187594952Y-99766380D01*
X187833047Y-99766380D01*
X187928285Y-99718761D01*
X187975904Y-99671142D01*
%TO.C,Q7*%
X149955238Y-74363619D02*
X150050476Y-74316000D01*
X150145714Y-74220761D01*
X150288571Y-74077904D01*
X150383809Y-74030285D01*
X150479047Y-74030285D01*
X150431428Y-74268380D02*
X150526666Y-74220761D01*
X150621904Y-74125523D01*
X150669523Y-73935047D01*
X150669523Y-73601714D01*
X150621904Y-73411238D01*
X150526666Y-73316000D01*
X150431428Y-73268380D01*
X150240952Y-73268380D01*
X150145714Y-73316000D01*
X150050476Y-73411238D01*
X150002857Y-73601714D01*
X150002857Y-73935047D01*
X150050476Y-74125523D01*
X150145714Y-74220761D01*
X150240952Y-74268380D01*
X150431428Y-74268380D01*
X149669523Y-73268380D02*
X149002857Y-73268380D01*
X149431428Y-74268380D01*
%TO.C,Q3*%
X189875619Y-86772761D02*
X189828000Y-86677523D01*
X189732761Y-86582285D01*
X189589904Y-86439428D01*
X189542285Y-86344190D01*
X189542285Y-86248952D01*
X189780380Y-86296571D02*
X189732761Y-86201333D01*
X189637523Y-86106095D01*
X189447047Y-86058476D01*
X189113714Y-86058476D01*
X188923238Y-86106095D01*
X188828000Y-86201333D01*
X188780380Y-86296571D01*
X188780380Y-86487047D01*
X188828000Y-86582285D01*
X188923238Y-86677523D01*
X189113714Y-86725142D01*
X189447047Y-86725142D01*
X189637523Y-86677523D01*
X189732761Y-86582285D01*
X189780380Y-86487047D01*
X189780380Y-86296571D01*
X188780380Y-87058476D02*
X188780380Y-87677523D01*
X189161333Y-87344190D01*
X189161333Y-87487047D01*
X189208952Y-87582285D01*
X189256571Y-87629904D01*
X189351809Y-87677523D01*
X189589904Y-87677523D01*
X189685142Y-87629904D01*
X189732761Y-87582285D01*
X189780380Y-87487047D01*
X189780380Y-87201333D01*
X189732761Y-87106095D01*
X189685142Y-87058476D01*
%TO.C,Q6*%
X154527238Y-85343619D02*
X154622476Y-85296000D01*
X154717714Y-85200761D01*
X154860571Y-85057904D01*
X154955809Y-85010285D01*
X155051047Y-85010285D01*
X155003428Y-85248380D02*
X155098666Y-85200761D01*
X155193904Y-85105523D01*
X155241523Y-84915047D01*
X155241523Y-84581714D01*
X155193904Y-84391238D01*
X155098666Y-84296000D01*
X155003428Y-84248380D01*
X154812952Y-84248380D01*
X154717714Y-84296000D01*
X154622476Y-84391238D01*
X154574857Y-84581714D01*
X154574857Y-84915047D01*
X154622476Y-85105523D01*
X154717714Y-85200761D01*
X154812952Y-85248380D01*
X155003428Y-85248380D01*
X153717714Y-84248380D02*
X153908190Y-84248380D01*
X154003428Y-84296000D01*
X154051047Y-84343619D01*
X154146285Y-84486476D01*
X154193904Y-84676952D01*
X154193904Y-85057904D01*
X154146285Y-85153142D01*
X154098666Y-85200761D01*
X154003428Y-85248380D01*
X153812952Y-85248380D01*
X153717714Y-85200761D01*
X153670095Y-85153142D01*
X153622476Y-85057904D01*
X153622476Y-84819809D01*
X153670095Y-84724571D01*
X153717714Y-84676952D01*
X153812952Y-84629333D01*
X154003428Y-84629333D01*
X154098666Y-84676952D01*
X154146285Y-84724571D01*
X154193904Y-84819809D01*
%TO.C,Q2*%
X179207619Y-86772761D02*
X179160000Y-86677523D01*
X179064761Y-86582285D01*
X178921904Y-86439428D01*
X178874285Y-86344190D01*
X178874285Y-86248952D01*
X179112380Y-86296571D02*
X179064761Y-86201333D01*
X178969523Y-86106095D01*
X178779047Y-86058476D01*
X178445714Y-86058476D01*
X178255238Y-86106095D01*
X178160000Y-86201333D01*
X178112380Y-86296571D01*
X178112380Y-86487047D01*
X178160000Y-86582285D01*
X178255238Y-86677523D01*
X178445714Y-86725142D01*
X178779047Y-86725142D01*
X178969523Y-86677523D01*
X179064761Y-86582285D01*
X179112380Y-86487047D01*
X179112380Y-86296571D01*
X178207619Y-87106095D02*
X178160000Y-87153714D01*
X178112380Y-87248952D01*
X178112380Y-87487047D01*
X178160000Y-87582285D01*
X178207619Y-87629904D01*
X178302857Y-87677523D01*
X178398095Y-87677523D01*
X178540952Y-87629904D01*
X179112380Y-87058476D01*
X179112380Y-87677523D01*
%TO.C,Q13*%
X153103619Y-128714571D02*
X153056000Y-128619333D01*
X152960761Y-128524095D01*
X152817904Y-128381238D01*
X152770285Y-128286000D01*
X152770285Y-128190761D01*
X153008380Y-128238380D02*
X152960761Y-128143142D01*
X152865523Y-128047904D01*
X152675047Y-128000285D01*
X152341714Y-128000285D01*
X152151238Y-128047904D01*
X152056000Y-128143142D01*
X152008380Y-128238380D01*
X152008380Y-128428857D01*
X152056000Y-128524095D01*
X152151238Y-128619333D01*
X152341714Y-128666952D01*
X152675047Y-128666952D01*
X152865523Y-128619333D01*
X152960761Y-128524095D01*
X153008380Y-128428857D01*
X153008380Y-128238380D01*
X153008380Y-129619333D02*
X153008380Y-129047904D01*
X153008380Y-129333619D02*
X152008380Y-129333619D01*
X152151238Y-129238380D01*
X152246476Y-129143142D01*
X152294095Y-129047904D01*
X152008380Y-129952666D02*
X152008380Y-130571714D01*
X152389333Y-130238380D01*
X152389333Y-130381238D01*
X152436952Y-130476476D01*
X152484571Y-130524095D01*
X152579809Y-130571714D01*
X152817904Y-130571714D01*
X152913142Y-130524095D01*
X152960761Y-130476476D01*
X153008380Y-130381238D01*
X153008380Y-130095523D01*
X152960761Y-130000285D01*
X152913142Y-129952666D01*
%TO.C,Q12*%
X151521619Y-107632571D02*
X151474000Y-107537333D01*
X151378761Y-107442095D01*
X151235904Y-107299238D01*
X151188285Y-107204000D01*
X151188285Y-107108761D01*
X151426380Y-107156380D02*
X151378761Y-107061142D01*
X151283523Y-106965904D01*
X151093047Y-106918285D01*
X150759714Y-106918285D01*
X150569238Y-106965904D01*
X150474000Y-107061142D01*
X150426380Y-107156380D01*
X150426380Y-107346857D01*
X150474000Y-107442095D01*
X150569238Y-107537333D01*
X150759714Y-107584952D01*
X151093047Y-107584952D01*
X151283523Y-107537333D01*
X151378761Y-107442095D01*
X151426380Y-107346857D01*
X151426380Y-107156380D01*
X151426380Y-108537333D02*
X151426380Y-107965904D01*
X151426380Y-108251619D02*
X150426380Y-108251619D01*
X150569238Y-108156380D01*
X150664476Y-108061142D01*
X150712095Y-107965904D01*
X150521619Y-108918285D02*
X150474000Y-108965904D01*
X150426380Y-109061142D01*
X150426380Y-109299238D01*
X150474000Y-109394476D01*
X150521619Y-109442095D01*
X150616857Y-109489714D01*
X150712095Y-109489714D01*
X150854952Y-109442095D01*
X151426380Y-108870666D01*
X151426380Y-109489714D01*
%TO.C,Q11*%
X144848619Y-128649571D02*
X144801000Y-128554333D01*
X144705761Y-128459095D01*
X144562904Y-128316238D01*
X144515285Y-128221000D01*
X144515285Y-128125761D01*
X144753380Y-128173380D02*
X144705761Y-128078142D01*
X144610523Y-127982904D01*
X144420047Y-127935285D01*
X144086714Y-127935285D01*
X143896238Y-127982904D01*
X143801000Y-128078142D01*
X143753380Y-128173380D01*
X143753380Y-128363857D01*
X143801000Y-128459095D01*
X143896238Y-128554333D01*
X144086714Y-128601952D01*
X144420047Y-128601952D01*
X144610523Y-128554333D01*
X144705761Y-128459095D01*
X144753380Y-128363857D01*
X144753380Y-128173380D01*
X144753380Y-129554333D02*
X144753380Y-128982904D01*
X144753380Y-129268619D02*
X143753380Y-129268619D01*
X143896238Y-129173380D01*
X143991476Y-129078142D01*
X144039095Y-128982904D01*
X144753380Y-130506714D02*
X144753380Y-129935285D01*
X144753380Y-130221000D02*
X143753380Y-130221000D01*
X143896238Y-130125761D01*
X143991476Y-130030523D01*
X144039095Y-129935285D01*
%TO.C,Q10*%
X159903619Y-105346571D02*
X159856000Y-105251333D01*
X159760761Y-105156095D01*
X159617904Y-105013238D01*
X159570285Y-104918000D01*
X159570285Y-104822761D01*
X159808380Y-104870380D02*
X159760761Y-104775142D01*
X159665523Y-104679904D01*
X159475047Y-104632285D01*
X159141714Y-104632285D01*
X158951238Y-104679904D01*
X158856000Y-104775142D01*
X158808380Y-104870380D01*
X158808380Y-105060857D01*
X158856000Y-105156095D01*
X158951238Y-105251333D01*
X159141714Y-105298952D01*
X159475047Y-105298952D01*
X159665523Y-105251333D01*
X159760761Y-105156095D01*
X159808380Y-105060857D01*
X159808380Y-104870380D01*
X159808380Y-106251333D02*
X159808380Y-105679904D01*
X159808380Y-105965619D02*
X158808380Y-105965619D01*
X158951238Y-105870380D01*
X159046476Y-105775142D01*
X159094095Y-105679904D01*
X158808380Y-106870380D02*
X158808380Y-106965619D01*
X158856000Y-107060857D01*
X158903619Y-107108476D01*
X158998857Y-107156095D01*
X159189333Y-107203714D01*
X159427428Y-107203714D01*
X159617904Y-107156095D01*
X159713142Y-107108476D01*
X159760761Y-107060857D01*
X159808380Y-106965619D01*
X159808380Y-106870380D01*
X159760761Y-106775142D01*
X159713142Y-106727523D01*
X159617904Y-106679904D01*
X159427428Y-106632285D01*
X159189333Y-106632285D01*
X158998857Y-106679904D01*
X158903619Y-106727523D01*
X158856000Y-106775142D01*
X158808380Y-106870380D01*
%TO.C,F2*%
X117826571Y-124126666D02*
X117826571Y-123793333D01*
X118350380Y-123793333D02*
X117350380Y-123793333D01*
X117350380Y-124269523D01*
X117445619Y-124602857D02*
X117398000Y-124650476D01*
X117350380Y-124745714D01*
X117350380Y-124983809D01*
X117398000Y-125079047D01*
X117445619Y-125126666D01*
X117540857Y-125174285D01*
X117636095Y-125174285D01*
X117778952Y-125126666D01*
X118350380Y-124555238D01*
X118350380Y-125174285D01*
%TO.C,F1*%
X117935333Y-110672571D02*
X118268666Y-110672571D01*
X118268666Y-111196380D02*
X118268666Y-110196380D01*
X117792476Y-110196380D01*
X116887714Y-111196380D02*
X117459142Y-111196380D01*
X117173428Y-111196380D02*
X117173428Y-110196380D01*
X117268666Y-110339238D01*
X117363904Y-110434476D01*
X117459142Y-110482095D01*
%TO.C,C24*%
X121546857Y-147931142D02*
X121594476Y-147978761D01*
X121737333Y-148026380D01*
X121832571Y-148026380D01*
X121975428Y-147978761D01*
X122070666Y-147883523D01*
X122118285Y-147788285D01*
X122165904Y-147597809D01*
X122165904Y-147454952D01*
X122118285Y-147264476D01*
X122070666Y-147169238D01*
X121975428Y-147074000D01*
X121832571Y-147026380D01*
X121737333Y-147026380D01*
X121594476Y-147074000D01*
X121546857Y-147121619D01*
X121165904Y-147121619D02*
X121118285Y-147074000D01*
X121023047Y-147026380D01*
X120784952Y-147026380D01*
X120689714Y-147074000D01*
X120642095Y-147121619D01*
X120594476Y-147216857D01*
X120594476Y-147312095D01*
X120642095Y-147454952D01*
X121213523Y-148026380D01*
X120594476Y-148026380D01*
X119737333Y-147359714D02*
X119737333Y-148026380D01*
X119975428Y-146978761D02*
X120213523Y-147693047D01*
X119594476Y-147693047D01*
%TO.C,C23*%
X181998857Y-147931142D02*
X182046476Y-147978761D01*
X182189333Y-148026380D01*
X182284571Y-148026380D01*
X182427428Y-147978761D01*
X182522666Y-147883523D01*
X182570285Y-147788285D01*
X182617904Y-147597809D01*
X182617904Y-147454952D01*
X182570285Y-147264476D01*
X182522666Y-147169238D01*
X182427428Y-147074000D01*
X182284571Y-147026380D01*
X182189333Y-147026380D01*
X182046476Y-147074000D01*
X181998857Y-147121619D01*
X181617904Y-147121619D02*
X181570285Y-147074000D01*
X181475047Y-147026380D01*
X181236952Y-147026380D01*
X181141714Y-147074000D01*
X181094095Y-147121619D01*
X181046476Y-147216857D01*
X181046476Y-147312095D01*
X181094095Y-147454952D01*
X181665523Y-148026380D01*
X181046476Y-148026380D01*
X180713142Y-147026380D02*
X180094095Y-147026380D01*
X180427428Y-147407333D01*
X180284571Y-147407333D01*
X180189333Y-147454952D01*
X180141714Y-147502571D01*
X180094095Y-147597809D01*
X180094095Y-147835904D01*
X180141714Y-147931142D01*
X180189333Y-147978761D01*
X180284571Y-148026380D01*
X180570285Y-148026380D01*
X180665523Y-147978761D01*
X180713142Y-147931142D01*
%TO.C,C22*%
X161932857Y-147931142D02*
X161980476Y-147978761D01*
X162123333Y-148026380D01*
X162218571Y-148026380D01*
X162361428Y-147978761D01*
X162456666Y-147883523D01*
X162504285Y-147788285D01*
X162551904Y-147597809D01*
X162551904Y-147454952D01*
X162504285Y-147264476D01*
X162456666Y-147169238D01*
X162361428Y-147074000D01*
X162218571Y-147026380D01*
X162123333Y-147026380D01*
X161980476Y-147074000D01*
X161932857Y-147121619D01*
X161551904Y-147121619D02*
X161504285Y-147074000D01*
X161409047Y-147026380D01*
X161170952Y-147026380D01*
X161075714Y-147074000D01*
X161028095Y-147121619D01*
X160980476Y-147216857D01*
X160980476Y-147312095D01*
X161028095Y-147454952D01*
X161599523Y-148026380D01*
X160980476Y-148026380D01*
X160599523Y-147121619D02*
X160551904Y-147074000D01*
X160456666Y-147026380D01*
X160218571Y-147026380D01*
X160123333Y-147074000D01*
X160075714Y-147121619D01*
X160028095Y-147216857D01*
X160028095Y-147312095D01*
X160075714Y-147454952D01*
X160647142Y-148026380D01*
X160028095Y-148026380D01*
%TO.C,C21*%
X141866857Y-147931142D02*
X141914476Y-147978761D01*
X142057333Y-148026380D01*
X142152571Y-148026380D01*
X142295428Y-147978761D01*
X142390666Y-147883523D01*
X142438285Y-147788285D01*
X142485904Y-147597809D01*
X142485904Y-147454952D01*
X142438285Y-147264476D01*
X142390666Y-147169238D01*
X142295428Y-147074000D01*
X142152571Y-147026380D01*
X142057333Y-147026380D01*
X141914476Y-147074000D01*
X141866857Y-147121619D01*
X141485904Y-147121619D02*
X141438285Y-147074000D01*
X141343047Y-147026380D01*
X141104952Y-147026380D01*
X141009714Y-147074000D01*
X140962095Y-147121619D01*
X140914476Y-147216857D01*
X140914476Y-147312095D01*
X140962095Y-147454952D01*
X141533523Y-148026380D01*
X140914476Y-148026380D01*
X139962095Y-148026380D02*
X140533523Y-148026380D01*
X140247809Y-148026380D02*
X140247809Y-147026380D01*
X140343047Y-147169238D01*
X140438285Y-147264476D01*
X140533523Y-147312095D01*
%TO.C,C20*%
X143769142Y-77589142D02*
X143816761Y-77541523D01*
X143864380Y-77398666D01*
X143864380Y-77303428D01*
X143816761Y-77160571D01*
X143721523Y-77065333D01*
X143626285Y-77017714D01*
X143435809Y-76970095D01*
X143292952Y-76970095D01*
X143102476Y-77017714D01*
X143007238Y-77065333D01*
X142912000Y-77160571D01*
X142864380Y-77303428D01*
X142864380Y-77398666D01*
X142912000Y-77541523D01*
X142959619Y-77589142D01*
X142959619Y-77970095D02*
X142912000Y-78017714D01*
X142864380Y-78112952D01*
X142864380Y-78351047D01*
X142912000Y-78446285D01*
X142959619Y-78493904D01*
X143054857Y-78541523D01*
X143150095Y-78541523D01*
X143292952Y-78493904D01*
X143864380Y-77922476D01*
X143864380Y-78541523D01*
X142864380Y-79160571D02*
X142864380Y-79255809D01*
X142912000Y-79351047D01*
X142959619Y-79398666D01*
X143054857Y-79446285D01*
X143245333Y-79493904D01*
X143483428Y-79493904D01*
X143673904Y-79446285D01*
X143769142Y-79398666D01*
X143816761Y-79351047D01*
X143864380Y-79255809D01*
X143864380Y-79160571D01*
X143816761Y-79065333D01*
X143769142Y-79017714D01*
X143673904Y-78970095D01*
X143483428Y-78922476D01*
X143245333Y-78922476D01*
X143054857Y-78970095D01*
X142959619Y-79017714D01*
X142912000Y-79065333D01*
X142864380Y-79160571D01*
%TO.C,C6*%
X127928666Y-134469142D02*
X127976285Y-134516761D01*
X128119142Y-134564380D01*
X128214380Y-134564380D01*
X128357238Y-134516761D01*
X128452476Y-134421523D01*
X128500095Y-134326285D01*
X128547714Y-134135809D01*
X128547714Y-133992952D01*
X128500095Y-133802476D01*
X128452476Y-133707238D01*
X128357238Y-133612000D01*
X128214380Y-133564380D01*
X128119142Y-133564380D01*
X127976285Y-133612000D01*
X127928666Y-133659619D01*
X127071523Y-133564380D02*
X127262000Y-133564380D01*
X127357238Y-133612000D01*
X127404857Y-133659619D01*
X127500095Y-133802476D01*
X127547714Y-133992952D01*
X127547714Y-134373904D01*
X127500095Y-134469142D01*
X127452476Y-134516761D01*
X127357238Y-134564380D01*
X127166761Y-134564380D01*
X127071523Y-134516761D01*
X127023904Y-134469142D01*
X126976285Y-134373904D01*
X126976285Y-134135809D01*
X127023904Y-134040571D01*
X127071523Y-133992952D01*
X127166761Y-133945333D01*
X127357238Y-133945333D01*
X127452476Y-133992952D01*
X127500095Y-134040571D01*
X127547714Y-134135809D01*
%TO.C,C5*%
X129233142Y-129373333D02*
X129280761Y-129325714D01*
X129328380Y-129182857D01*
X129328380Y-129087619D01*
X129280761Y-128944761D01*
X129185523Y-128849523D01*
X129090285Y-128801904D01*
X128899809Y-128754285D01*
X128756952Y-128754285D01*
X128566476Y-128801904D01*
X128471238Y-128849523D01*
X128376000Y-128944761D01*
X128328380Y-129087619D01*
X128328380Y-129182857D01*
X128376000Y-129325714D01*
X128423619Y-129373333D01*
X128328380Y-130278095D02*
X128328380Y-129801904D01*
X128804571Y-129754285D01*
X128756952Y-129801904D01*
X128709333Y-129897142D01*
X128709333Y-130135238D01*
X128756952Y-130230476D01*
X128804571Y-130278095D01*
X128899809Y-130325714D01*
X129137904Y-130325714D01*
X129233142Y-130278095D01*
X129280761Y-130230476D01*
X129328380Y-130135238D01*
X129328380Y-129897142D01*
X129280761Y-129801904D01*
X129233142Y-129754285D01*
%TO.C,C4*%
X129233142Y-125817333D02*
X129280761Y-125769714D01*
X129328380Y-125626857D01*
X129328380Y-125531619D01*
X129280761Y-125388761D01*
X129185523Y-125293523D01*
X129090285Y-125245904D01*
X128899809Y-125198285D01*
X128756952Y-125198285D01*
X128566476Y-125245904D01*
X128471238Y-125293523D01*
X128376000Y-125388761D01*
X128328380Y-125531619D01*
X128328380Y-125626857D01*
X128376000Y-125769714D01*
X128423619Y-125817333D01*
X128661714Y-126674476D02*
X129328380Y-126674476D01*
X128280761Y-126436380D02*
X128995047Y-126198285D01*
X128995047Y-126817333D01*
%TO.C,C18*%
X135641142Y-90797142D02*
X135688761Y-90749523D01*
X135736380Y-90606666D01*
X135736380Y-90511428D01*
X135688761Y-90368571D01*
X135593523Y-90273333D01*
X135498285Y-90225714D01*
X135307809Y-90178095D01*
X135164952Y-90178095D01*
X134974476Y-90225714D01*
X134879238Y-90273333D01*
X134784000Y-90368571D01*
X134736380Y-90511428D01*
X134736380Y-90606666D01*
X134784000Y-90749523D01*
X134831619Y-90797142D01*
X135736380Y-91749523D02*
X135736380Y-91178095D01*
X135736380Y-91463809D02*
X134736380Y-91463809D01*
X134879238Y-91368571D01*
X134974476Y-91273333D01*
X135022095Y-91178095D01*
X135164952Y-92320952D02*
X135117333Y-92225714D01*
X135069714Y-92178095D01*
X134974476Y-92130476D01*
X134926857Y-92130476D01*
X134831619Y-92178095D01*
X134784000Y-92225714D01*
X134736380Y-92320952D01*
X134736380Y-92511428D01*
X134784000Y-92606666D01*
X134831619Y-92654285D01*
X134926857Y-92701904D01*
X134974476Y-92701904D01*
X135069714Y-92654285D01*
X135117333Y-92606666D01*
X135164952Y-92511428D01*
X135164952Y-92320952D01*
X135212571Y-92225714D01*
X135260190Y-92178095D01*
X135355428Y-92130476D01*
X135545904Y-92130476D01*
X135641142Y-92178095D01*
X135688761Y-92225714D01*
X135736380Y-92320952D01*
X135736380Y-92511428D01*
X135688761Y-92606666D01*
X135641142Y-92654285D01*
X135545904Y-92701904D01*
X135355428Y-92701904D01*
X135260190Y-92654285D01*
X135212571Y-92606666D01*
X135164952Y-92511428D01*
%TO.C,C17*%
X133609142Y-81399142D02*
X133656761Y-81351523D01*
X133704380Y-81208666D01*
X133704380Y-81113428D01*
X133656761Y-80970571D01*
X133561523Y-80875333D01*
X133466285Y-80827714D01*
X133275809Y-80780095D01*
X133132952Y-80780095D01*
X132942476Y-80827714D01*
X132847238Y-80875333D01*
X132752000Y-80970571D01*
X132704380Y-81113428D01*
X132704380Y-81208666D01*
X132752000Y-81351523D01*
X132799619Y-81399142D01*
X133704380Y-82351523D02*
X133704380Y-81780095D01*
X133704380Y-82065809D02*
X132704380Y-82065809D01*
X132847238Y-81970571D01*
X132942476Y-81875333D01*
X132990095Y-81780095D01*
X132704380Y-82684857D02*
X132704380Y-83351523D01*
X133704380Y-82922952D01*
%TO.C,C15*%
X123578857Y-98557142D02*
X123626476Y-98604761D01*
X123769333Y-98652380D01*
X123864571Y-98652380D01*
X124007428Y-98604761D01*
X124102666Y-98509523D01*
X124150285Y-98414285D01*
X124197904Y-98223809D01*
X124197904Y-98080952D01*
X124150285Y-97890476D01*
X124102666Y-97795238D01*
X124007428Y-97700000D01*
X123864571Y-97652380D01*
X123769333Y-97652380D01*
X123626476Y-97700000D01*
X123578857Y-97747619D01*
X122626476Y-98652380D02*
X123197904Y-98652380D01*
X122912190Y-98652380D02*
X122912190Y-97652380D01*
X123007428Y-97795238D01*
X123102666Y-97890476D01*
X123197904Y-97938095D01*
X121721714Y-97652380D02*
X122197904Y-97652380D01*
X122245523Y-98128571D01*
X122197904Y-98080952D01*
X122102666Y-98033333D01*
X121864571Y-98033333D01*
X121769333Y-98080952D01*
X121721714Y-98128571D01*
X121674095Y-98223809D01*
X121674095Y-98461904D01*
X121721714Y-98557142D01*
X121769333Y-98604761D01*
X121864571Y-98652380D01*
X122102666Y-98652380D01*
X122197904Y-98604761D01*
X122245523Y-98557142D01*
%TO.C,C14*%
X119991142Y-84955142D02*
X120038761Y-84907523D01*
X120086380Y-84764666D01*
X120086380Y-84669428D01*
X120038761Y-84526571D01*
X119943523Y-84431333D01*
X119848285Y-84383714D01*
X119657809Y-84336095D01*
X119514952Y-84336095D01*
X119324476Y-84383714D01*
X119229238Y-84431333D01*
X119134000Y-84526571D01*
X119086380Y-84669428D01*
X119086380Y-84764666D01*
X119134000Y-84907523D01*
X119181619Y-84955142D01*
X120086380Y-85907523D02*
X120086380Y-85336095D01*
X120086380Y-85621809D02*
X119086380Y-85621809D01*
X119229238Y-85526571D01*
X119324476Y-85431333D01*
X119372095Y-85336095D01*
X119419714Y-86764666D02*
X120086380Y-86764666D01*
X119038761Y-86526571D02*
X119753047Y-86288476D01*
X119753047Y-86907523D01*
%TO.C,C3*%
X118565142Y-130897333D02*
X118612761Y-130849714D01*
X118660380Y-130706857D01*
X118660380Y-130611619D01*
X118612761Y-130468761D01*
X118517523Y-130373523D01*
X118422285Y-130325904D01*
X118231809Y-130278285D01*
X118088952Y-130278285D01*
X117898476Y-130325904D01*
X117803238Y-130373523D01*
X117708000Y-130468761D01*
X117660380Y-130611619D01*
X117660380Y-130706857D01*
X117708000Y-130849714D01*
X117755619Y-130897333D01*
X117660380Y-131230666D02*
X117660380Y-131849714D01*
X118041333Y-131516380D01*
X118041333Y-131659238D01*
X118088952Y-131754476D01*
X118136571Y-131802095D01*
X118231809Y-131849714D01*
X118469904Y-131849714D01*
X118565142Y-131802095D01*
X118612761Y-131754476D01*
X118660380Y-131659238D01*
X118660380Y-131373523D01*
X118612761Y-131278285D01*
X118565142Y-131230666D01*
%TO.C,C12*%
X144406857Y-92969142D02*
X144454476Y-93016761D01*
X144597333Y-93064380D01*
X144692571Y-93064380D01*
X144835428Y-93016761D01*
X144930666Y-92921523D01*
X144978285Y-92826285D01*
X145025904Y-92635809D01*
X145025904Y-92492952D01*
X144978285Y-92302476D01*
X144930666Y-92207238D01*
X144835428Y-92112000D01*
X144692571Y-92064380D01*
X144597333Y-92064380D01*
X144454476Y-92112000D01*
X144406857Y-92159619D01*
X143454476Y-93064380D02*
X144025904Y-93064380D01*
X143740190Y-93064380D02*
X143740190Y-92064380D01*
X143835428Y-92207238D01*
X143930666Y-92302476D01*
X144025904Y-92350095D01*
X143073523Y-92159619D02*
X143025904Y-92112000D01*
X142930666Y-92064380D01*
X142692571Y-92064380D01*
X142597333Y-92112000D01*
X142549714Y-92159619D01*
X142502095Y-92254857D01*
X142502095Y-92350095D01*
X142549714Y-92492952D01*
X143121142Y-93064380D01*
X142502095Y-93064380D01*
%TO.C,C11*%
X144406857Y-84939142D02*
X144454476Y-84986761D01*
X144597333Y-85034380D01*
X144692571Y-85034380D01*
X144835428Y-84986761D01*
X144930666Y-84891523D01*
X144978285Y-84796285D01*
X145025904Y-84605809D01*
X145025904Y-84462952D01*
X144978285Y-84272476D01*
X144930666Y-84177238D01*
X144835428Y-84082000D01*
X144692571Y-84034380D01*
X144597333Y-84034380D01*
X144454476Y-84082000D01*
X144406857Y-84129619D01*
X143454476Y-85034380D02*
X144025904Y-85034380D01*
X143740190Y-85034380D02*
X143740190Y-84034380D01*
X143835428Y-84177238D01*
X143930666Y-84272476D01*
X144025904Y-84320095D01*
X142502095Y-85034380D02*
X143073523Y-85034380D01*
X142787809Y-85034380D02*
X142787809Y-84034380D01*
X142883047Y-84177238D01*
X142978285Y-84272476D01*
X143073523Y-84320095D01*
%TO.C,C8*%
X144727142Y-82637333D02*
X144774761Y-82589714D01*
X144822380Y-82446857D01*
X144822380Y-82351619D01*
X144774761Y-82208761D01*
X144679523Y-82113523D01*
X144584285Y-82065904D01*
X144393809Y-82018285D01*
X144250952Y-82018285D01*
X144060476Y-82065904D01*
X143965238Y-82113523D01*
X143870000Y-82208761D01*
X143822380Y-82351619D01*
X143822380Y-82446857D01*
X143870000Y-82589714D01*
X143917619Y-82637333D01*
X144250952Y-83208761D02*
X144203333Y-83113523D01*
X144155714Y-83065904D01*
X144060476Y-83018285D01*
X144012857Y-83018285D01*
X143917619Y-83065904D01*
X143870000Y-83113523D01*
X143822380Y-83208761D01*
X143822380Y-83399238D01*
X143870000Y-83494476D01*
X143917619Y-83542095D01*
X144012857Y-83589714D01*
X144060476Y-83589714D01*
X144155714Y-83542095D01*
X144203333Y-83494476D01*
X144250952Y-83399238D01*
X144250952Y-83208761D01*
X144298571Y-83113523D01*
X144346190Y-83065904D01*
X144441428Y-83018285D01*
X144631904Y-83018285D01*
X144727142Y-83065904D01*
X144774761Y-83113523D01*
X144822380Y-83208761D01*
X144822380Y-83399238D01*
X144774761Y-83494476D01*
X144727142Y-83542095D01*
X144631904Y-83589714D01*
X144441428Y-83589714D01*
X144346190Y-83542095D01*
X144298571Y-83494476D01*
X144250952Y-83399238D01*
%TO.C,C19*%
X151995142Y-121785142D02*
X152042761Y-121737523D01*
X152090380Y-121594666D01*
X152090380Y-121499428D01*
X152042761Y-121356571D01*
X151947523Y-121261333D01*
X151852285Y-121213714D01*
X151661809Y-121166095D01*
X151518952Y-121166095D01*
X151328476Y-121213714D01*
X151233238Y-121261333D01*
X151138000Y-121356571D01*
X151090380Y-121499428D01*
X151090380Y-121594666D01*
X151138000Y-121737523D01*
X151185619Y-121785142D01*
X152090380Y-122737523D02*
X152090380Y-122166095D01*
X152090380Y-122451809D02*
X151090380Y-122451809D01*
X151233238Y-122356571D01*
X151328476Y-122261333D01*
X151376095Y-122166095D01*
X152090380Y-123213714D02*
X152090380Y-123404190D01*
X152042761Y-123499428D01*
X151995142Y-123547047D01*
X151852285Y-123642285D01*
X151661809Y-123689904D01*
X151280857Y-123689904D01*
X151185619Y-123642285D01*
X151138000Y-123594666D01*
X151090380Y-123499428D01*
X151090380Y-123308952D01*
X151138000Y-123213714D01*
X151185619Y-123166095D01*
X151280857Y-123118476D01*
X151518952Y-123118476D01*
X151614190Y-123166095D01*
X151661809Y-123213714D01*
X151709428Y-123308952D01*
X151709428Y-123499428D01*
X151661809Y-123594666D01*
X151614190Y-123642285D01*
X151518952Y-123689904D01*
%TO.C,C16*%
X154027142Y-113149142D02*
X154074761Y-113101523D01*
X154122380Y-112958666D01*
X154122380Y-112863428D01*
X154074761Y-112720571D01*
X153979523Y-112625333D01*
X153884285Y-112577714D01*
X153693809Y-112530095D01*
X153550952Y-112530095D01*
X153360476Y-112577714D01*
X153265238Y-112625333D01*
X153170000Y-112720571D01*
X153122380Y-112863428D01*
X153122380Y-112958666D01*
X153170000Y-113101523D01*
X153217619Y-113149142D01*
X154122380Y-114101523D02*
X154122380Y-113530095D01*
X154122380Y-113815809D02*
X153122380Y-113815809D01*
X153265238Y-113720571D01*
X153360476Y-113625333D01*
X153408095Y-113530095D01*
X153122380Y-114958666D02*
X153122380Y-114768190D01*
X153170000Y-114672952D01*
X153217619Y-114625333D01*
X153360476Y-114530095D01*
X153550952Y-114482476D01*
X153931904Y-114482476D01*
X154027142Y-114530095D01*
X154074761Y-114577714D01*
X154122380Y-114672952D01*
X154122380Y-114863428D01*
X154074761Y-114958666D01*
X154027142Y-115006285D01*
X153931904Y-115053904D01*
X153693809Y-115053904D01*
X153598571Y-115006285D01*
X153550952Y-114958666D01*
X153503333Y-114863428D01*
X153503333Y-114672952D01*
X153550952Y-114577714D01*
X153598571Y-114530095D01*
X153693809Y-114482476D01*
%TO.C,C10*%
X130690857Y-99319142D02*
X130738476Y-99366761D01*
X130881333Y-99414380D01*
X130976571Y-99414380D01*
X131119428Y-99366761D01*
X131214666Y-99271523D01*
X131262285Y-99176285D01*
X131309904Y-98985809D01*
X131309904Y-98842952D01*
X131262285Y-98652476D01*
X131214666Y-98557238D01*
X131119428Y-98462000D01*
X130976571Y-98414380D01*
X130881333Y-98414380D01*
X130738476Y-98462000D01*
X130690857Y-98509619D01*
X129738476Y-99414380D02*
X130309904Y-99414380D01*
X130024190Y-99414380D02*
X130024190Y-98414380D01*
X130119428Y-98557238D01*
X130214666Y-98652476D01*
X130309904Y-98700095D01*
X129119428Y-98414380D02*
X129024190Y-98414380D01*
X128928952Y-98462000D01*
X128881333Y-98509619D01*
X128833714Y-98604857D01*
X128786095Y-98795333D01*
X128786095Y-99033428D01*
X128833714Y-99223904D01*
X128881333Y-99319142D01*
X128928952Y-99366761D01*
X129024190Y-99414380D01*
X129119428Y-99414380D01*
X129214666Y-99366761D01*
X129262285Y-99319142D01*
X129309904Y-99223904D01*
X129357523Y-99033428D01*
X129357523Y-98795333D01*
X129309904Y-98604857D01*
X129262285Y-98509619D01*
X129214666Y-98462000D01*
X129119428Y-98414380D01*
%TD*%
M02*
