M48
; DRILL file {KiCad (5.1.9)-1} date 01/29/22 13:33:31
; FORMAT={-:-/ absolute / inch / decimal}
; #@! TF.CreationDate,2022-01-29T13:33:31-05:00
; #@! TF.GenerationSoftware,Kicad,Pcbnew,(5.1.9)-1
; #@! TF.FileFunction,Plated,1,4,PTH
FMAT,2
INCH
T1C0.0098
T2C0.0157
T3C0.0197
T4C0.0236
T5C0.0256
T6C0.0315
T7C0.0394
T8C0.0472
T9C0.1260
%
G90
G05
T1
X4.9303Y-5.0605
X4.9303Y-5.1195
X4.95Y-5.09
X4.9697Y-5.0605
X4.9697Y-5.1195
T2
X4.24Y-2.34
X4.24Y-2.64
X4.24Y-2.94
X4.24Y-3.84
X4.24Y-4.14
X4.24Y-4.44
X4.28Y-5.39
X4.33Y-5.43
X4.38Y-3.5
X4.42Y-3.4714
X4.54Y-2.64
X4.54Y-2.94
X4.54Y-3.24
X4.54Y-3.54
X4.54Y-3.84
X4.54Y-4.14
X4.57Y-5.61
X4.7Y-4.04
X4.72Y-4.08
X4.73Y-3.58
X4.74Y-3.54
X4.7502Y-4.1053
X4.7632Y-4.1424
X4.84Y-2.64
X4.84Y-2.94
X4.84Y-3.24
X4.9Y-4.24
X4.9278Y-3.6122
X4.98Y-4.16
X5.03Y-3.76
X5.042Y-3.88
X5.05Y-3.24
X5.0931Y-4.2291
X5.14Y-2.64
X5.14Y-2.94
X5.14Y-4.0
X5.178Y-4.282
X5.18Y-4.04
X5.2211Y-4.0469
X5.28Y-4.06
X5.3Y-3.9
X5.32Y-3.09
X5.33Y-4.57
X5.34Y-3.13
X5.34Y-3.94
X5.37Y-4.61
X5.42Y-3.04
X5.43Y-4.66
X5.44Y-2.64
X5.44Y-2.94
X5.44Y-3.24
X5.44Y-3.84
X5.44Y-4.04
X5.44Y-4.24
X5.45Y-4.71
X5.74Y-2.64
X5.74Y-2.94
X5.74Y-3.84
X5.74Y-4.04
X5.957Y-2.91
X5.96Y-2.69
X5.96Y-2.86
X6.04Y-2.69
X6.04Y-2.85
X6.04Y-3.54
X6.04Y-3.84
X6.04Y-4.04
X6.04Y-4.24
X6.05Y-2.91
X6.14Y-2.73
X6.26Y-4.24
X6.288Y-5.202
X6.318Y-5.232
X6.34Y-3.24
X6.34Y-3.54
X6.34Y-3.84
X6.34Y-4.04
X6.358Y-5.272
X6.37Y-4.9
X6.42Y-3.84
X6.43Y-5.29
X6.4867Y-3.5833
X6.4867Y-3.6867
X6.54Y-4.04
X6.54Y-4.24
X6.64Y-2.64
X6.64Y-5.4
X6.66Y-4.03
X6.66Y-4.58
X6.87Y-5.0
X6.9Y-2.64
X6.94Y-4.11
X6.94Y-4.23
X6.97Y-5.31
X6.97Y-5.38
X6.9929Y-4.9329
X7.04Y-4.7
X7.0616Y-4.8627
X7.0689Y-4.93
X7.13Y-5.05
X7.2Y-2.64
X7.24Y-4.04
X7.38Y-5.34
X7.48Y-2.44
X7.48Y-2.64
X7.48Y-2.94
X7.48Y-3.24
X7.48Y-3.54
X7.48Y-3.84
X7.72Y-2.44
X7.72Y-2.64
X7.72Y-2.94
X7.72Y-3.24
X7.72Y-3.54
X7.72Y-3.84
X7.72Y-4.14
X7.72Y-4.44
T3
X4.57Y-3.39
X4.84Y-3.87
X4.95Y-3.09
X5.11Y-3.76
X5.25Y-3.18
X5.3Y-5.06
X5.33Y-3.62
X5.37Y-5.14
X5.39Y-4.97
X5.47Y-5.04
X5.58Y-2.98
X5.68Y-5.18
X5.76Y-3.38
X5.76Y-3.58
X5.95Y-5.18
X5.96Y-3.17
X6.44Y-4.62
X6.61Y-2.98
X6.67Y-3.23
X6.82Y-5.4
X6.85Y-4.67
X6.91Y-4.93
X6.93Y-5.17
X6.97Y-4.39
X7.05Y-3.96
X7.15Y-3.59
X7.2Y-5.6
X7.24Y-3.84
X7.29Y-4.42
X7.31Y-3.14
X7.45Y-3.6
X7.46Y-4.95
X7.53Y-4.72
X7.62Y-5.37
X7.68Y-5.03
T4
X4.31Y-3.9308
X4.31Y-3.98
X4.31Y-4.2508
X4.31Y-4.3
X4.6208Y-5.7
X4.67Y-5.7
X5.205Y-4.515
X5.4108Y-5.7
X5.46Y-5.7
X6.2008Y-5.7
X6.25Y-5.7
X6.9908Y-5.7
X7.04Y-5.7
X7.66Y-4.51
X7.66Y-4.5592
T5
X5.87Y-4.61
X5.92Y-4.61
X6.11Y-4.73
X6.16Y-4.73
T6
X5.47Y-3.39
X5.47Y-3.5821
T7
X4.29Y-3.03
X4.29Y-3.13
X4.29Y-3.23
X4.29Y-3.33
X4.29Y-3.43
X4.29Y-3.53
X4.7561Y-2.2811
X4.7561Y-2.3811
X4.7561Y-2.4811
X4.7561Y-2.5811
X4.8561Y-2.2811
X4.8561Y-2.3811
X4.8561Y-2.4811
X4.8561Y-2.5811
X4.93Y-5.7
X4.9561Y-2.2811
X4.9561Y-2.3811
X4.9561Y-2.4811
X4.9561Y-2.5811
X5.03Y-5.7
X5.0561Y-2.2811
X5.0561Y-2.3811
X5.0561Y-2.4811
X5.0561Y-2.5811
X5.1561Y-2.2811
X5.1561Y-2.3811
X5.1561Y-2.4811
X5.1561Y-2.5811
X5.2561Y-2.2811
X5.2561Y-2.3811
X5.2561Y-2.4811
X5.2561Y-2.5811
X5.3561Y-2.2811
X5.3561Y-2.3811
X5.3561Y-2.4811
X5.3561Y-2.5811
X5.4561Y-2.2811
X5.4561Y-2.3811
X5.4561Y-2.4811
X5.4561Y-2.5811
X5.5561Y-2.2811
X5.5561Y-2.3811
X5.5561Y-2.4811
X5.5561Y-2.5811
X5.6561Y-2.2811
X5.6561Y-2.3811
X5.6561Y-2.4811
X5.6561Y-2.5811
X5.72Y-5.7
X5.7561Y-2.2811
X5.7561Y-2.3811
X5.7561Y-2.4811
X5.7561Y-2.5811
X5.82Y-5.7
X5.8561Y-2.2811
X5.8561Y-2.3811
X5.8561Y-2.4811
X5.8561Y-2.5811
X5.9561Y-2.2811
X5.9561Y-2.3811
X5.9561Y-2.4811
X5.9561Y-2.5811
X6.0561Y-2.2811
X6.0561Y-2.3811
X6.0561Y-2.4811
X6.0561Y-2.5811
X6.1561Y-2.2811
X6.1561Y-2.3811
X6.1561Y-2.4811
X6.1561Y-2.5811
X6.2561Y-2.2811
X6.2561Y-2.3811
X6.2561Y-2.4811
X6.2561Y-2.5811
X6.3561Y-2.2811
X6.3561Y-2.3811
X6.3561Y-2.4811
X6.3561Y-2.5811
X6.4561Y-2.2811
X6.4561Y-2.3811
X6.4561Y-2.4811
X6.4561Y-2.5811
X6.5Y-5.7
X6.5561Y-2.2811
X6.5561Y-2.3811
X6.5561Y-2.4811
X6.5561Y-2.5811
X6.6Y-5.7
X6.6561Y-2.2811
X6.6561Y-2.3811
X6.6561Y-2.4811
X6.6561Y-2.5811
X6.7561Y-2.2811
X6.7561Y-2.3811
X6.7561Y-2.4811
X6.7561Y-2.5811
X6.8561Y-2.2811
X6.8561Y-2.3811
X6.8561Y-2.4811
X6.8561Y-2.5811
X6.9561Y-2.2811
X6.9561Y-2.3811
X6.9561Y-2.4811
X6.9561Y-2.5811
X7.0561Y-2.2811
X7.0561Y-2.3811
X7.0561Y-2.4811
X7.0561Y-2.5811
X7.1561Y-2.2811
X7.1561Y-2.3811
X7.1561Y-2.4811
X7.1561Y-2.5811
X7.2561Y-2.2811
X7.2561Y-2.3811
X7.2561Y-2.4811
X7.2561Y-2.5811
X7.27Y-5.7
X7.37Y-5.7
T9
X4.4061Y-5.6561
X4.5561Y-2.2811
X7.4561Y-2.2811
X7.5561Y-5.6561
T8
G00X4.6661Y-2.7914
M15
G01X4.9339Y-2.7914
M16
G05
G00X4.6661Y-5.4686
M15
G01X4.9339Y-5.4686
M16
G05
G00X5.4561Y-2.7914
M15
G01X5.7239Y-2.7914
M16
G05
G00X5.4561Y-5.4686
M15
G01X5.7239Y-5.4686
M16
G05
G00X6.5139Y-2.7914
M15
G01X6.2461Y-2.7914
M16
G05
G00X6.5139Y-5.4686
M15
G01X6.2461Y-5.4686
M16
G05
G00X7.3039Y-2.7914
M15
G01X7.0361Y-2.7914
M16
G05
G00X7.3039Y-5.4686
M15
G01X7.0361Y-5.4686
M16
G05
T0
M30
