%TF.GenerationSoftware,KiCad,Pcbnew,(5.1.9)-1*%
%TF.CreationDate,2022-01-29T17:26:47-05:00*%
%TF.ProjectId,BatteryMaster,42617474-6572-4794-9d61-737465722e6b,rev?*%
%TF.SameCoordinates,Original*%
%TF.FileFunction,Copper,L1,Top*%
%TF.FilePolarity,Positive*%
%FSLAX46Y46*%
G04 Gerber Fmt 4.6, Leading zero omitted, Abs format (unit mm)*
G04 Created by KiCad (PCBNEW (5.1.9)-1) date 2022-01-29 17:26:47*
%MOMM*%
%LPD*%
G01*
G04 APERTURE LIST*
%TA.AperFunction,ComponentPad*%
%ADD10O,10.000000X3.200000*%
%TD*%
%TA.AperFunction,ComponentPad*%
%ADD11O,0.900000X1.400000*%
%TD*%
%TA.AperFunction,ComponentPad*%
%ADD12O,1.700000X1.700000*%
%TD*%
%TA.AperFunction,ComponentPad*%
%ADD13R,1.700000X1.700000*%
%TD*%
%TA.AperFunction,ComponentPad*%
%ADD14O,1.500000X1.500000*%
%TD*%
%TA.AperFunction,ComponentPad*%
%ADD15R,1.500000X1.500000*%
%TD*%
%TA.AperFunction,ComponentPad*%
%ADD16O,1.400000X0.900000*%
%TD*%
%TA.AperFunction,ComponentPad*%
%ADD17O,1.000000X1.000000*%
%TD*%
%TA.AperFunction,ComponentPad*%
%ADD18R,1.000000X1.000000*%
%TD*%
%TA.AperFunction,ComponentPad*%
%ADD19C,1.500000*%
%TD*%
%TA.AperFunction,ComponentPad*%
%ADD20C,0.600000*%
%TD*%
%TA.AperFunction,SMDPad,CuDef*%
%ADD21R,1.650000X2.400000*%
%TD*%
%TA.AperFunction,ConnectorPad*%
%ADD22C,5.600000*%
%TD*%
%TA.AperFunction,ComponentPad*%
%ADD23C,3.600000*%
%TD*%
%TA.AperFunction,ViaPad*%
%ADD24C,1.200000*%
%TD*%
%TA.AperFunction,ViaPad*%
%ADD25C,0.800000*%
%TD*%
%TA.AperFunction,ViaPad*%
%ADD26C,1.000000*%
%TD*%
%TA.AperFunction,Conductor*%
%ADD27C,1.270000*%
%TD*%
%TA.AperFunction,Conductor*%
%ADD28C,1.016000*%
%TD*%
%TA.AperFunction,Conductor*%
%ADD29C,0.508000*%
%TD*%
%TA.AperFunction,Conductor*%
%ADD30C,0.381000*%
%TD*%
%TA.AperFunction,Conductor*%
%ADD31C,0.254000*%
%TD*%
%TA.AperFunction,Conductor*%
%ADD32C,0.100000*%
%TD*%
G04 APERTURE END LIST*
D10*
%TO.P,BT1,2*%
%TO.N,Net-(BT1-Pad2)*%
X121920000Y-70902000D03*
%TO.P,BT1,1*%
%TO.N,Net-(BT1-Pad1)*%
X121920000Y-138902000D03*
%TD*%
D11*
%TO.P,TH4,2*%
%TO.N,GND*%
X117368000Y-144780000D03*
%TO.P,TH4,1*%
%TO.N,/TBAT1*%
%TA.AperFunction,ComponentPad*%
G36*
G01*
X119068000Y-144305000D02*
X119068000Y-145255000D01*
G75*
G02*
X118843000Y-145480000I-225000J0D01*
G01*
X118393000Y-145480000D01*
G75*
G02*
X118168000Y-145255000I0J225000D01*
G01*
X118168000Y-144305000D01*
G75*
G02*
X118393000Y-144080000I225000J0D01*
G01*
X118843000Y-144080000D01*
G75*
G02*
X119068000Y-144305000I0J-225000D01*
G01*
G37*
%TD.AperFunction*%
%TD*%
%TO.P,TH3,2*%
%TO.N,GND*%
X177566000Y-144780000D03*
%TO.P,TH3,1*%
%TO.N,/TBAT4*%
%TA.AperFunction,ComponentPad*%
G36*
G01*
X179266000Y-144305000D02*
X179266000Y-145255000D01*
G75*
G02*
X179041000Y-145480000I-225000J0D01*
G01*
X178591000Y-145480000D01*
G75*
G02*
X178366000Y-145255000I0J225000D01*
G01*
X178366000Y-144305000D01*
G75*
G02*
X178591000Y-144080000I225000J0D01*
G01*
X179041000Y-144080000D01*
G75*
G02*
X179266000Y-144305000I0J-225000D01*
G01*
G37*
%TD.AperFunction*%
%TD*%
%TO.P,TH2,2*%
%TO.N,GND*%
X157500000Y-144780000D03*
%TO.P,TH2,1*%
%TO.N,/TBAT3*%
%TA.AperFunction,ComponentPad*%
G36*
G01*
X159200000Y-144305000D02*
X159200000Y-145255000D01*
G75*
G02*
X158975000Y-145480000I-225000J0D01*
G01*
X158525000Y-145480000D01*
G75*
G02*
X158300000Y-145255000I0J225000D01*
G01*
X158300000Y-144305000D01*
G75*
G02*
X158525000Y-144080000I225000J0D01*
G01*
X158975000Y-144080000D01*
G75*
G02*
X159200000Y-144305000I0J-225000D01*
G01*
G37*
%TD.AperFunction*%
%TD*%
%TO.P,TH1,2*%
%TO.N,GND*%
X137434000Y-144780000D03*
%TO.P,TH1,1*%
%TO.N,/TBAT2*%
%TA.AperFunction,ComponentPad*%
G36*
G01*
X139134000Y-144305000D02*
X139134000Y-145255000D01*
G75*
G02*
X138909000Y-145480000I-225000J0D01*
G01*
X138459000Y-145480000D01*
G75*
G02*
X138234000Y-145255000I0J225000D01*
G01*
X138234000Y-144305000D01*
G75*
G02*
X138459000Y-144080000I225000J0D01*
G01*
X138909000Y-144080000D01*
G75*
G02*
X139134000Y-144305000I0J-225000D01*
G01*
G37*
%TD.AperFunction*%
%TD*%
D12*
%TO.P,J1,6*%
%TO.N,/D+*%
X108966000Y-76962000D03*
%TO.P,J1,5*%
%TO.N,/D-*%
X108966000Y-79502000D03*
%TO.P,J1,4*%
%TO.N,GND*%
X108966000Y-82042000D03*
%TO.P,J1,3*%
%TO.N,/SWDCLK*%
X108966000Y-84582000D03*
%TO.P,J1,2*%
%TO.N,/SWDIO*%
X108966000Y-87122000D03*
D13*
%TO.P,J1,1*%
%TO.N,VDD*%
X108966000Y-89662000D03*
%TD*%
D14*
%TO.P,H1,52*%
%TO.N,N/C*%
X184306000Y-57939000D03*
%TO.P,H1,51*%
X184306000Y-60479000D03*
%TO.P,H1,50*%
X181766000Y-57939000D03*
%TO.P,H1,49*%
X181766000Y-60479000D03*
%TO.P,H1,48*%
X179226000Y-57939000D03*
%TO.P,H1,47*%
X179226000Y-60479000D03*
%TO.P,H1,46*%
%TO.N,+BATT*%
X176686000Y-57939000D03*
%TO.P,H1,45*%
X176686000Y-60479000D03*
%TO.P,H1,44*%
%TO.N,BCR_OUT*%
X174146000Y-57939000D03*
%TO.P,H1,43*%
X174146000Y-60479000D03*
%TO.P,H1,42*%
X171606000Y-57939000D03*
%TO.P,H1,41*%
X171606000Y-60479000D03*
%TO.P,H1,40*%
%TO.N,N/C*%
X169066000Y-57939000D03*
%TO.P,H1,39*%
X169066000Y-60479000D03*
%TO.P,H1,38*%
X166526000Y-57939000D03*
%TO.P,H1,37*%
X166526000Y-60479000D03*
%TO.P,H1,36*%
%TO.N,PCM_IN*%
X163986000Y-57939000D03*
%TO.P,H1,35*%
X163986000Y-60479000D03*
%TO.P,H1,34*%
%TO.N,N/C*%
X161446000Y-57939000D03*
%TO.P,H1,33*%
X161446000Y-60479000D03*
%TO.P,H1,32*%
%TO.N,GND*%
X158906000Y-57939000D03*
%TO.P,H1,31*%
X158906000Y-60479000D03*
%TO.P,H1,30*%
X156366000Y-57939000D03*
%TO.P,H1,29*%
X156366000Y-60479000D03*
%TO.P,H1,28*%
%TO.N,+3V3*%
X153826000Y-57939000D03*
%TO.P,H1,27*%
X153826000Y-60479000D03*
%TO.P,H1,26*%
%TO.N,+5V*%
X151286000Y-57939000D03*
%TO.P,H1,25*%
X151286000Y-60479000D03*
%TO.P,H1,24*%
%TO.N,N/C*%
X148746000Y-57939000D03*
%TO.P,H1,23*%
X148746000Y-60479000D03*
%TO.P,H1,22*%
%TO.N,GND*%
X146206000Y-57939000D03*
%TO.P,H1,21*%
X146206000Y-60479000D03*
%TO.P,H1,20*%
%TO.N,N/C*%
X143666000Y-57939000D03*
%TO.P,H1,19*%
X143666000Y-60479000D03*
%TO.P,H1,18*%
X141126000Y-57939000D03*
%TO.P,H1,17*%
X141126000Y-60479000D03*
%TO.P,H1,16*%
X138586000Y-57939000D03*
%TO.P,H1,15*%
X138586000Y-60479000D03*
%TO.P,H1,14*%
X136046000Y-57939000D03*
%TO.P,H1,13*%
X136046000Y-60479000D03*
%TO.P,H1,12*%
X133506000Y-57939000D03*
%TO.P,H1,11*%
X133506000Y-60479000D03*
%TO.P,H1,10*%
X130966000Y-57939000D03*
%TO.P,H1,9*%
X130966000Y-60479000D03*
%TO.P,H1,8*%
X128426000Y-57939000D03*
%TO.P,H1,7*%
X128426000Y-60479000D03*
%TO.P,H1,6*%
X125886000Y-57939000D03*
%TO.P,H1,5*%
X125886000Y-60479000D03*
%TO.P,H1,4*%
X123346000Y-57939000D03*
%TO.P,H1,3*%
X123346000Y-60479000D03*
%TO.P,H1,2*%
X120806000Y-57939000D03*
D15*
%TO.P,H1,1*%
X120806000Y-60479000D03*
%TD*%
D14*
%TO.P,H2,52*%
%TO.N,N/C*%
X184306000Y-63019000D03*
%TO.P,H2,51*%
X184306000Y-65559000D03*
%TO.P,H2,50*%
X181766000Y-63019000D03*
%TO.P,H2,49*%
X181766000Y-65559000D03*
%TO.P,H2,48*%
X179226000Y-63019000D03*
%TO.P,H2,47*%
X179226000Y-65559000D03*
%TO.P,H2,46*%
X176686000Y-63019000D03*
%TO.P,H2,45*%
X176686000Y-65559000D03*
%TO.P,H2,44*%
X174146000Y-63019000D03*
%TO.P,H2,43*%
X174146000Y-65559000D03*
%TO.P,H2,42*%
X171606000Y-63019000D03*
%TO.P,H2,41*%
X171606000Y-65559000D03*
%TO.P,H2,40*%
X169066000Y-63019000D03*
%TO.P,H2,39*%
%TO.N,/SS*%
X169066000Y-65559000D03*
%TO.P,H2,38*%
%TO.N,N/C*%
X166526000Y-63019000D03*
%TO.P,H2,37*%
%TO.N,/MOSI*%
X166526000Y-65559000D03*
%TO.P,H2,36*%
%TO.N,N/C*%
X163986000Y-63019000D03*
%TO.P,H2,35*%
%TO.N,/MISO*%
X163986000Y-65559000D03*
%TO.P,H2,34*%
%TO.N,N/C*%
X161446000Y-63019000D03*
%TO.P,H2,33*%
%TO.N,/SCK*%
X161446000Y-65559000D03*
%TO.P,H2,32*%
%TO.N,N/C*%
X158906000Y-63019000D03*
%TO.P,H2,31*%
X158906000Y-65559000D03*
%TO.P,H2,30*%
X156366000Y-63019000D03*
%TO.P,H2,29*%
X156366000Y-65559000D03*
%TO.P,H2,28*%
X153826000Y-63019000D03*
%TO.P,H2,27*%
X153826000Y-65559000D03*
%TO.P,H2,26*%
X151286000Y-63019000D03*
%TO.P,H2,25*%
X151286000Y-65559000D03*
%TO.P,H2,24*%
X148746000Y-63019000D03*
%TO.P,H2,23*%
X148746000Y-65559000D03*
%TO.P,H2,22*%
X146206000Y-63019000D03*
%TO.P,H2,21*%
X146206000Y-65559000D03*
%TO.P,H2,20*%
X143666000Y-63019000D03*
%TO.P,H2,19*%
X143666000Y-65559000D03*
%TO.P,H2,18*%
X141126000Y-63019000D03*
%TO.P,H2,17*%
X141126000Y-65559000D03*
%TO.P,H2,16*%
X138586000Y-63019000D03*
%TO.P,H2,15*%
X138586000Y-65559000D03*
%TO.P,H2,14*%
X136046000Y-63019000D03*
%TO.P,H2,13*%
X136046000Y-65559000D03*
%TO.P,H2,12*%
X133506000Y-63019000D03*
%TO.P,H2,11*%
X133506000Y-65559000D03*
%TO.P,H2,10*%
X130966000Y-63019000D03*
%TO.P,H2,9*%
X130966000Y-65559000D03*
%TO.P,H2,8*%
X128426000Y-63019000D03*
%TO.P,H2,7*%
X128426000Y-65559000D03*
%TO.P,H2,6*%
X125886000Y-63019000D03*
%TO.P,H2,5*%
X125886000Y-65559000D03*
%TO.P,H2,4*%
X123346000Y-63019000D03*
%TO.P,H2,3*%
X123346000Y-65559000D03*
%TO.P,H2,2*%
X120806000Y-63019000D03*
D15*
%TO.P,H2,1*%
X120806000Y-65559000D03*
%TD*%
D16*
%TO.P,SW1,2*%
%TO.N,Net-(R25-Pad2)*%
X194564000Y-115804000D03*
%TO.P,SW1,1*%
%TO.N,Net-(C13-Pad2)*%
%TA.AperFunction,ComponentPad*%
G36*
G01*
X194089000Y-114104000D02*
X195039000Y-114104000D01*
G75*
G02*
X195264000Y-114329000I0J-225000D01*
G01*
X195264000Y-114779000D01*
G75*
G02*
X195039000Y-115004000I-225000J0D01*
G01*
X194089000Y-115004000D01*
G75*
G02*
X193864000Y-114779000I0J225000D01*
G01*
X193864000Y-114329000D01*
G75*
G02*
X194089000Y-114104000I225000J0D01*
G01*
G37*
%TD.AperFunction*%
%TD*%
D17*
%TO.P,JP3,2*%
%TO.N,Net-(C19-Pad1)*%
X155194000Y-120142000D03*
D18*
%TO.P,JP3,1*%
%TO.N,Net-(JP3-Pad1)*%
X156464000Y-120142000D03*
%TD*%
D17*
%TO.P,JP2,2*%
%TO.N,Net-(JP2-Pad2)*%
X149098000Y-117094000D03*
D18*
%TO.P,JP2,1*%
%TO.N,Net-(C16-Pad2)*%
X150368000Y-117094000D03*
%TD*%
D10*
%TO.P,BT4,2*%
%TO.N,-BATT*%
X182118000Y-138902000D03*
%TO.P,BT4,1*%
%TO.N,Net-(BT1-Pad2)*%
X182118000Y-70902000D03*
%TD*%
%TO.P,BT2,2*%
%TO.N,-BATT*%
X162052000Y-138902000D03*
%TO.P,BT2,1*%
%TO.N,Net-(BT1-Pad2)*%
X162052000Y-70902000D03*
%TD*%
%TO.P,BT3,2*%
%TO.N,Net-(BT1-Pad2)*%
X141986000Y-70902000D03*
%TO.P,BT3,1*%
%TO.N,Net-(BT1-Pad1)*%
X141986000Y-138902000D03*
%TD*%
D19*
%TO.P,Y1,2*%
%TO.N,Net-(C12-Pad1)*%
X138938000Y-90986000D03*
%TO.P,Y1,1*%
%TO.N,Net-(C11-Pad1)*%
X138938000Y-86106000D03*
%TD*%
D20*
%TO.P,U3,9*%
%TO.N,-BATT*%
X125230000Y-130036000D03*
X126230000Y-130036000D03*
X125230000Y-128536000D03*
X126230000Y-128536000D03*
X125730000Y-129286000D03*
D21*
X125730000Y-129286000D03*
%TD*%
D16*
%TO.P,SW3,2*%
%TO.N,Net-(R27-Pad1)*%
X109474000Y-107970000D03*
%TO.P,SW3,1*%
%TO.N,Net-(C19-Pad1)*%
%TA.AperFunction,ComponentPad*%
G36*
G01*
X109949000Y-109670000D02*
X108999000Y-109670000D01*
G75*
G02*
X108774000Y-109445000I0J225000D01*
G01*
X108774000Y-108995000D01*
G75*
G02*
X108999000Y-108770000I225000J0D01*
G01*
X109949000Y-108770000D01*
G75*
G02*
X110174000Y-108995000I0J-225000D01*
G01*
X110174000Y-109445000D01*
G75*
G02*
X109949000Y-109670000I-225000J0D01*
G01*
G37*
%TD.AperFunction*%
%TD*%
%TO.P,SW2,2*%
%TO.N,Net-(C16-Pad2)*%
X109474000Y-99842000D03*
%TO.P,SW2,1*%
%TO.N,Net-(R28-Pad2)*%
%TA.AperFunction,ComponentPad*%
G36*
G01*
X109949000Y-101542000D02*
X108999000Y-101542000D01*
G75*
G02*
X108774000Y-101317000I0J225000D01*
G01*
X108774000Y-100867000D01*
G75*
G02*
X108999000Y-100642000I225000J0D01*
G01*
X109949000Y-100642000D01*
G75*
G02*
X110174000Y-100867000I0J-225000D01*
G01*
X110174000Y-101317000D01*
G75*
G02*
X109949000Y-101542000I-225000J0D01*
G01*
G37*
%TD.AperFunction*%
%TD*%
D12*
%TO.P,R56,2*%
%TO.N,Net-(Q25-Pad3)*%
X127762000Y-144780000D03*
D13*
%TO.P,R56,1*%
%TO.N,Net-(Q24-Pad3)*%
X125222000Y-144780000D03*
%TD*%
D12*
%TO.P,R49,2*%
%TO.N,Net-(Q22-Pad3)*%
X187198000Y-144780000D03*
D13*
%TO.P,R49,1*%
%TO.N,Net-(Q21-Pad3)*%
X184658000Y-144780000D03*
%TD*%
D12*
%TO.P,R42,2*%
%TO.N,Net-(Q19-Pad3)*%
X167640000Y-144780000D03*
D13*
%TO.P,R42,1*%
%TO.N,Net-(Q18-Pad3)*%
X165100000Y-144780000D03*
%TD*%
D12*
%TO.P,R35,2*%
%TO.N,Net-(Q16-Pad3)*%
X147828000Y-144780000D03*
D13*
%TO.P,R35,1*%
%TO.N,Net-(Q15-Pad3)*%
X145288000Y-144780000D03*
%TD*%
D22*
%TO.P,MH4,1*%
%TO.N,GND*%
X191926000Y-143664000D03*
D23*
X191926000Y-143664000D03*
%TD*%
D22*
%TO.P,MH3,1*%
%TO.N,GND*%
X111916000Y-143664000D03*
D23*
X111916000Y-143664000D03*
%TD*%
D22*
%TO.P,MH2,1*%
%TO.N,GND*%
X189386000Y-57939000D03*
D23*
X189386000Y-57939000D03*
%TD*%
D22*
%TO.P,MH1,1*%
%TO.N,GND*%
X115726000Y-57939000D03*
D23*
X115726000Y-57939000D03*
%TD*%
D24*
%TO.N,Net-(BT1-Pad2)*%
X130048000Y-114046000D03*
D25*
%TO.N,GND*%
X161036000Y-97536000D03*
X145796000Y-102616000D03*
X138176000Y-102616000D03*
X139192000Y-97282000D03*
D26*
X179070000Y-100584000D03*
X183896000Y-97536000D03*
X181610000Y-91186000D03*
X189230000Y-91440000D03*
X185674000Y-79756000D03*
X167894000Y-75692000D03*
X169418000Y-82042000D03*
X185166000Y-112268000D03*
X177038000Y-111506000D03*
X144272000Y-131572000D03*
X151130000Y-131572000D03*
X133350000Y-80772000D03*
X125730000Y-78486000D03*
X116078000Y-86106000D03*
X122936000Y-98298000D03*
X129794000Y-95504000D03*
X141732000Y-75692000D03*
X151384000Y-80518000D03*
X146304000Y-85852000D03*
X146304000Y-90932000D03*
X135382000Y-91948000D03*
X163576000Y-117348000D03*
X175514000Y-125222000D03*
X173228000Y-137160000D03*
X176022000Y-131318000D03*
X193548000Y-136398000D03*
X195072000Y-127762000D03*
X189484000Y-125730000D03*
X191262000Y-119888000D03*
X173990000Y-118618000D03*
D25*
X122936000Y-82296000D03*
X115316000Y-82296000D03*
X122936000Y-74676000D03*
X115316000Y-74676000D03*
X130556000Y-74676000D03*
X115316000Y-67056000D03*
X107696000Y-74676000D03*
X107696000Y-67056000D03*
X107696000Y-59436000D03*
X115316000Y-89916000D03*
X138176000Y-74676000D03*
X115316000Y-97536000D03*
X107696000Y-97536000D03*
X122936000Y-67056000D03*
X130556000Y-67056000D03*
X138176000Y-67056000D03*
X145796000Y-67056000D03*
X168656000Y-67056000D03*
X145542000Y-74930000D03*
X138176000Y-82296000D03*
X145796000Y-97536000D03*
X138176000Y-107696000D03*
X124460000Y-107696000D03*
X107696000Y-105156000D03*
X115316000Y-105156000D03*
X153416000Y-102616000D03*
X151638000Y-107188000D03*
X161036000Y-102616000D03*
X153416000Y-89916000D03*
X161036000Y-89916000D03*
X166116000Y-102616000D03*
X161036000Y-82296000D03*
X183896000Y-102616000D03*
X175260000Y-67056000D03*
X182880000Y-67056000D03*
X189992000Y-67056000D03*
X189992000Y-61976000D03*
X196088000Y-67056000D03*
X196088000Y-61976000D03*
X189992000Y-74676000D03*
X196088000Y-74676000D03*
X189992000Y-82296000D03*
X196088000Y-82296000D03*
X189992000Y-89916000D03*
X189992000Y-97536000D03*
X196088000Y-89916000D03*
X196088000Y-97536000D03*
X196088000Y-105156000D03*
X196088000Y-112776000D03*
X107696000Y-112776000D03*
X166116000Y-107696000D03*
X196088000Y-120396000D03*
X145796000Y-115316000D03*
X107696000Y-128016000D03*
X107696000Y-135636000D03*
X115316000Y-128016000D03*
X115316000Y-135636000D03*
X176784000Y-122428000D03*
X176784000Y-116840000D03*
X166116000Y-130048000D03*
X142240000Y-123190000D03*
X123190000Y-144272000D03*
X133096000Y-114300000D03*
X136906000Y-120396000D03*
X111252000Y-135636000D03*
X111252000Y-128016000D03*
X111252000Y-119888000D03*
X118364000Y-122936000D03*
X118364000Y-115824000D03*
X122428000Y-135636000D03*
X130556000Y-136652000D03*
X124460000Y-141732000D03*
X134112000Y-141732000D03*
X147320000Y-140716000D03*
X154432000Y-137668000D03*
X163322000Y-146558000D03*
X169164000Y-140462000D03*
X175006000Y-140462000D03*
X175006000Y-146558000D03*
X183134000Y-146558000D03*
X174752000Y-72898000D03*
X180340000Y-128270000D03*
X183388000Y-126492000D03*
X180340000Y-136144000D03*
X184658000Y-117094000D03*
X161544000Y-112776000D03*
X134366000Y-98044000D03*
X132842000Y-86360000D03*
X127254000Y-100584000D03*
X131826000Y-105918000D03*
%TO.N,/TELEM_VBAT*%
X176276000Y-104394000D03*
X176276000Y-107442000D03*
D26*
%TO.N,+3V3*%
X182880000Y-142240000D03*
D25*
%TO.N,/TBAT2*%
X116077998Y-142494000D03*
X132616122Y-102791500D03*
X120655221Y-104273440D03*
%TO.N,/TBAT3*%
X109982000Y-137922000D03*
X131571994Y-102616000D03*
X119888002Y-103632000D03*
%TO.N,/TBAT4*%
X108712000Y-136906000D03*
X130556000Y-101600000D03*
X119380000Y-102616000D03*
%TO.N,/TBAT1*%
X134112000Y-103124000D03*
X120985548Y-105217319D03*
%TO.N,/MOSI*%
X135128000Y-78486000D03*
X153670000Y-73914000D03*
%TO.N,/MISO*%
X153416000Y-72390000D03*
X128270000Y-72898000D03*
%TO.N,/SCK*%
X153416000Y-68326000D03*
X131572000Y-68580000D03*
%TO.N,+5V*%
X155956000Y-69341980D03*
X169164000Y-116332000D03*
X169164000Y-102362000D03*
X179364460Y-123513610D03*
X177620510Y-125296510D03*
%TO.N,/TELEM_IBAT*%
X164762000Y-91016000D03*
X164762000Y-93642000D03*
X127762000Y-95504000D03*
X163068000Y-97536000D03*
X134366000Y-100584000D03*
%TO.N,/HANDSHAKE*%
X128066975Y-98552000D03*
X134065294Y-99568000D03*
%TO.N,/H2TOP*%
X174497988Y-127000000D03*
X125299564Y-91882584D03*
%TO.N,/H2BOT*%
X163322000Y-134366000D03*
X126492000Y-105664000D03*
%TO.N,/H3TOP*%
X131521025Y-108762975D03*
X178816000Y-120142000D03*
%TO.N,/H3BOT*%
X179549490Y-125222000D03*
X129365481Y-107419531D03*
%TO.N,/H4TOP*%
X181356000Y-129794000D03*
X123952000Y-90932000D03*
%TO.N,/H4BOT*%
X187452000Y-135636010D03*
X124714000Y-89916000D03*
%TO.N,/H1TOP*%
X159004006Y-107696000D03*
X128270000Y-82296000D03*
X157226000Y-98552000D03*
X151384000Y-92710000D03*
%TO.N,/H1BOT*%
X135636000Y-79502000D03*
X158623000Y-98171000D03*
X151257000Y-90805000D03*
X161036000Y-123698000D03*
D26*
%TO.N,Net-(C4-Pad2)*%
X136906000Y-126238000D03*
X134619998Y-128524000D03*
%TO.N,Net-(C5-Pad2)*%
X138938000Y-128016000D03*
X136398000Y-130556000D03*
D25*
%TO.N,Net-(C19-Pad1)*%
X143595888Y-121844478D03*
%TO.N,Net-(Q16-Pad3)*%
X168656000Y-137160000D03*
%TO.N,Net-(Q19-Pad3)*%
X177038000Y-136652000D03*
%TO.N,Net-(R27-Pad1)*%
X143510000Y-120650000D03*
%TO.N,Net-(R28-Pad2)*%
X135382000Y-116078000D03*
%TO.N,Net-(Q15-Pad3)*%
X161493025Y-133908975D03*
%TO.N,Net-(Q18-Pad3)*%
X177038000Y-134874000D03*
%TO.N,Net-(Q24-Pad3)*%
X159715025Y-132130975D03*
%TO.N,Net-(C16-Pad2)*%
X136398000Y-117094000D03*
%TO.N,Net-(Q25-Pad3)*%
X160477025Y-132892975D03*
%TO.N,/D+*%
X112268002Y-88172990D03*
%TO.N,/D-*%
X111252000Y-88900000D03*
%TD*%
D27*
%TO.N,Net-(BT1-Pad2)*%
X121920000Y-70902000D02*
X141986000Y-70902000D01*
X141986000Y-70902000D02*
X182118000Y-70902000D01*
D28*
X128162068Y-114046000D02*
X130048000Y-114046000D01*
X113792000Y-99675932D02*
X128162068Y-114046000D01*
X121920000Y-70902000D02*
X113792000Y-79030000D01*
X113792000Y-79030000D02*
X113792000Y-99675932D01*
D29*
%TO.N,GND*%
X144870001Y-66130001D02*
X145796000Y-67056000D01*
X144870001Y-61814999D02*
X144870001Y-66130001D01*
X146206000Y-60479000D02*
X144870001Y-61814999D01*
X147410001Y-61683001D02*
X147410001Y-66136921D01*
X146206000Y-60479000D02*
X147410001Y-61683001D01*
X147410001Y-66136921D02*
X146304000Y-67242922D01*
X160110001Y-61683001D02*
X160110001Y-66892001D01*
X158906000Y-60479000D02*
X160110001Y-61683001D01*
X157570001Y-61683001D02*
X157570001Y-66892001D01*
X156366000Y-60479000D02*
X157570001Y-61683001D01*
X157570001Y-66892001D02*
X157988000Y-67310000D01*
X157701999Y-61683001D02*
X157570001Y-61683001D01*
X158906000Y-60479000D02*
X157701999Y-61683001D01*
X158906000Y-60479000D02*
X158215000Y-60479000D01*
X158215000Y-60479000D02*
X157734000Y-60960000D01*
X157734000Y-60960000D02*
X157480000Y-61214000D01*
X157480000Y-61214000D02*
X157226000Y-60960000D01*
D30*
%TO.N,/TELEM_VBAT*%
X176276000Y-104394000D02*
X176276000Y-107442000D01*
X176276000Y-107442000D02*
X176276000Y-107442000D01*
%TO.N,+3V3*%
X182880000Y-142240000D02*
X182880000Y-142240000D01*
X192786000Y-71882000D02*
X192786000Y-135382000D01*
X189484000Y-68580000D02*
X192786000Y-71882000D01*
X185928000Y-142240000D02*
X182880000Y-142240000D01*
X157699058Y-68580000D02*
X189484000Y-68580000D01*
X155225499Y-66106441D02*
X157699058Y-68580000D01*
X155225499Y-61878499D02*
X155225499Y-66106441D01*
X192786000Y-135382000D02*
X185928000Y-142240000D01*
X153826000Y-60479000D02*
X155225499Y-61878499D01*
%TO.N,/TBAT2*%
X138684000Y-144780000D02*
X138684000Y-144080000D01*
X138684000Y-144080000D02*
X138114000Y-143510000D01*
X138114000Y-143510000D02*
X136144000Y-143510000D01*
X136144000Y-143510000D02*
X133350000Y-146304000D01*
X118167685Y-142494000D02*
X116077998Y-142494000D01*
X133350000Y-146304000D02*
X121977685Y-146304000D01*
X121977685Y-146304000D02*
X118167685Y-142494000D01*
X132616122Y-102791500D02*
X131534181Y-103873441D01*
X121055220Y-103873441D02*
X120655221Y-104273440D01*
X131534181Y-103873441D02*
X121055220Y-103873441D01*
%TO.N,/TBAT3*%
X108458000Y-145288000D02*
X108458000Y-139446000D01*
X110236000Y-147066000D02*
X108458000Y-145288000D01*
X148590000Y-147066000D02*
X110236000Y-147066000D01*
X108458000Y-139446000D02*
X109982000Y-137922000D01*
X151966510Y-143689490D02*
X148590000Y-147066000D01*
X158359490Y-143689490D02*
X151966510Y-143689490D01*
X158750000Y-144080000D02*
X158359490Y-143689490D01*
X158750000Y-144780000D02*
X158750000Y-144080000D01*
X109982000Y-137922000D02*
X109982000Y-137922000D01*
X131571994Y-102616000D02*
X120904002Y-102616000D01*
X120904002Y-102616000D02*
X119888002Y-103632000D01*
%TO.N,/TBAT4*%
X107696000Y-145542000D02*
X107696000Y-137922000D01*
X109982000Y-147828000D02*
X107696000Y-145542000D01*
X166427942Y-147828000D02*
X109982000Y-147828000D01*
X170566452Y-143689490D02*
X166427942Y-147828000D01*
X178425490Y-143689490D02*
X170566452Y-143689490D01*
X107696000Y-137922000D02*
X108712000Y-136906000D01*
X178816000Y-144080000D02*
X178425490Y-143689490D01*
X178816000Y-144780000D02*
X178816000Y-144080000D01*
X108712000Y-136906000D02*
X108712000Y-136906000D01*
X130556000Y-101600000D02*
X120396000Y-101600000D01*
X120396000Y-101600000D02*
X119380000Y-102616000D01*
%TO.N,/TBAT1*%
X134112000Y-103124000D02*
X132418680Y-104817320D01*
X132418680Y-104817320D02*
X121385547Y-104817320D01*
X121385547Y-104817320D02*
X120985548Y-105217319D01*
D31*
%TO.N,/MOSI*%
X135128000Y-78486000D02*
X136398000Y-78486000D01*
X136398000Y-78486000D02*
X137668000Y-77216000D01*
X137668000Y-77216000D02*
X137668000Y-77216000D01*
X153670000Y-73914000D02*
X140970008Y-73914000D01*
X137668000Y-77216000D02*
X140970000Y-73914000D01*
%TO.N,/MISO*%
X152908000Y-72898000D02*
X128270000Y-72898000D01*
X153416000Y-72390000D02*
X152908000Y-72898000D01*
%TO.N,/SCK*%
X153416000Y-68326000D02*
X153416000Y-68326000D01*
X153416000Y-68326000D02*
X131826000Y-68326000D01*
X131826000Y-68326000D02*
X131572000Y-68580000D01*
D30*
%TO.N,+5V*%
X169164000Y-102362000D02*
X169164000Y-102362000D01*
X151286000Y-60479000D02*
X151286000Y-57939000D01*
X151286000Y-60479000D02*
X152426501Y-61619501D01*
X152426501Y-61619501D02*
X152426501Y-65812481D01*
X152426501Y-65812481D02*
X155956000Y-69341980D01*
X169164000Y-116332000D02*
X169164000Y-102362000D01*
X179364460Y-123513610D02*
X177620510Y-125257560D01*
X177620510Y-125257560D02*
X177620510Y-125296510D01*
D28*
%TO.N,+BATT*%
X176686000Y-57939000D02*
X176686000Y-60479000D01*
D29*
%TO.N,/TELEM_IBAT*%
X164762000Y-93642000D02*
X164762000Y-93642000D01*
D30*
X164762000Y-91016000D02*
X164762000Y-93642000D01*
X163068000Y-95336000D02*
X163068000Y-97536000D01*
X164762000Y-93642000D02*
X163068000Y-95336000D01*
X127108001Y-99168001D02*
X128524000Y-100584000D01*
X127762000Y-95504000D02*
X127108001Y-96157999D01*
X128524000Y-100584000D02*
X134366000Y-100584000D01*
X127108001Y-96157999D02*
X127108001Y-99168001D01*
D31*
%TO.N,/HANDSHAKE*%
X129082975Y-99568000D02*
X134065294Y-99568000D01*
X128066975Y-98552000D02*
X129082975Y-99568000D01*
D30*
%TO.N,/H2TOP*%
X153162000Y-120396000D02*
X153162000Y-115316000D01*
X153162000Y-115316000D02*
X129728584Y-91882584D01*
X159766000Y-127000000D02*
X153162000Y-120396000D01*
X129728584Y-91882584D02*
X125299564Y-91882584D01*
X174497988Y-127000000D02*
X159766000Y-127000000D01*
%TO.N,/H2BOT*%
X134112000Y-113284000D02*
X126492000Y-105664000D01*
X134747000Y-113284000D02*
X134112000Y-113284000D01*
X141097000Y-119634000D02*
X134747000Y-113284000D01*
X148590000Y-119634000D02*
X141097000Y-119634000D01*
X163322000Y-134366000D02*
X148590000Y-119634000D01*
%TO.N,/H3TOP*%
X180340000Y-121666000D02*
X178816000Y-120142000D01*
X180340000Y-126238000D02*
X180340000Y-121666000D01*
X177800000Y-128778000D02*
X180340000Y-126238000D01*
X159004000Y-128778000D02*
X177800000Y-128778000D01*
X149278989Y-119052989D02*
X159004000Y-128778000D01*
X131521025Y-108762975D02*
X141811039Y-119052989D01*
X141811039Y-119052989D02*
X149278989Y-119052989D01*
%TO.N,/H3BOT*%
X131803531Y-107419531D02*
X129365481Y-107419531D01*
X142748000Y-118364000D02*
X131803531Y-107419531D01*
X149802998Y-118364000D02*
X142748000Y-118364000D01*
X159229499Y-127790501D02*
X149802998Y-118364000D01*
X176980989Y-127790501D02*
X159229499Y-127790501D01*
X179549490Y-125222000D02*
X176980989Y-127790501D01*
%TO.N,/H4TOP*%
X179324000Y-119126000D02*
X181356000Y-121158000D01*
X177546000Y-119126000D02*
X179324000Y-119126000D01*
X181356000Y-121158000D02*
X181356000Y-129794000D01*
X170462501Y-126209499D02*
X177546000Y-119126000D01*
X160499499Y-126209499D02*
X170462501Y-126209499D01*
X158242000Y-123952000D02*
X160499499Y-126209499D01*
X158242000Y-119380000D02*
X158242000Y-123952000D01*
X129794000Y-90932000D02*
X158242000Y-119380000D01*
X123952000Y-90932000D02*
X129794000Y-90932000D01*
%TO.N,/H4BOT*%
X182118000Y-120904000D02*
X182118000Y-128778000D01*
X179578000Y-118364000D02*
X182118000Y-120904000D01*
X177038000Y-118364000D02*
X179578000Y-118364000D01*
X161064501Y-125250501D02*
X170151499Y-125250501D01*
X187452000Y-135070325D02*
X187452000Y-135636010D01*
X159258000Y-123444000D02*
X161064501Y-125250501D01*
X187452000Y-134112000D02*
X187452000Y-135070325D01*
X159258000Y-119380000D02*
X159258000Y-123444000D01*
X129794000Y-89916000D02*
X159258000Y-119380000D01*
X182118000Y-128778000D02*
X187452000Y-134112000D01*
X170151499Y-125250501D02*
X177038000Y-118364000D01*
X124714000Y-89916000D02*
X129794000Y-89916000D01*
%TO.N,/H1TOP*%
X128524000Y-82042000D02*
X128524000Y-82042000D01*
X149860000Y-91186000D02*
X151384000Y-92710000D01*
X159004006Y-100330006D02*
X159004006Y-107696000D01*
X149860000Y-87630000D02*
X149860000Y-91186000D01*
X143510000Y-81280000D02*
X149860000Y-87630000D01*
X134620000Y-81280000D02*
X143510000Y-81280000D01*
X133604000Y-82296000D02*
X134620000Y-81280000D01*
X128270000Y-82296000D02*
X133604000Y-82296000D01*
X157226000Y-98552000D02*
X159004006Y-100330006D01*
%TO.N,/H1BOT*%
X143510000Y-79502000D02*
X135636000Y-79502000D01*
X151130000Y-87122000D02*
X143510000Y-79502000D01*
X151130000Y-90678000D02*
X151130000Y-87122000D01*
X151257000Y-90805000D02*
X151130000Y-90678000D01*
X160020000Y-122682000D02*
X161036000Y-123698000D01*
X160020000Y-99568000D02*
X160020000Y-122682000D01*
X158623000Y-98171000D02*
X160020000Y-99568000D01*
D29*
%TO.N,Net-(C4-Pad2)*%
X136906000Y-126238000D02*
X134619998Y-128524002D01*
%TO.N,Net-(C5-Pad2)*%
X138938000Y-128016000D02*
X136398000Y-130556000D01*
X136398000Y-130556000D02*
X136398000Y-130556000D01*
D30*
%TO.N,Net-(C19-Pad1)*%
X140386478Y-121844478D02*
X143595888Y-121844478D01*
X137414000Y-118872000D02*
X140386478Y-121844478D01*
X127000000Y-118872000D02*
X137414000Y-118872000D01*
X117348000Y-109220000D02*
X127000000Y-118872000D01*
X109474000Y-109220000D02*
X117348000Y-109220000D01*
%TO.N,Net-(Q16-Pad3)*%
X168656000Y-138678691D02*
X165856691Y-141478000D01*
X168656000Y-137160000D02*
X168656000Y-138678691D01*
X151130000Y-141478000D02*
X147828000Y-144780000D01*
X165856691Y-141478000D02*
X151130000Y-141478000D01*
%TO.N,Net-(Q19-Pad3)*%
X169926000Y-142494000D02*
X167640000Y-144780000D01*
X171196000Y-142494000D02*
X169926000Y-142494000D01*
X177038000Y-136652000D02*
X171196000Y-142494000D01*
%TO.N,Net-(R27-Pad1)*%
X117622000Y-107970000D02*
X109474000Y-107970000D01*
X127635000Y-117983000D02*
X117622000Y-107970000D01*
X137795000Y-117983000D02*
X127635000Y-117983000D01*
X140462000Y-120650000D02*
X137795000Y-117983000D01*
X143510000Y-120650000D02*
X140462000Y-120650000D01*
%TO.N,Net-(R28-Pad2)*%
X113792000Y-101092000D02*
X109474000Y-101092000D01*
X128778000Y-116078000D02*
X113792000Y-101092000D01*
X135382000Y-116078000D02*
X128778000Y-116078000D01*
%TO.N,Net-(Q15-Pad3)*%
X160477025Y-133908975D02*
X161493025Y-133908975D01*
X153777500Y-140608500D02*
X160477025Y-133908975D01*
X149459500Y-140608500D02*
X153777500Y-140608500D01*
X145288000Y-144780000D02*
X149459500Y-140608500D01*
%TO.N,Net-(Q18-Pad3)*%
X168148000Y-141732000D02*
X170180000Y-141732000D01*
X165100000Y-144780000D02*
X168148000Y-141732000D01*
X170180000Y-141732000D02*
X177038000Y-134874000D01*
%TO.N,Net-(Q24-Pad3)*%
X156464000Y-135382000D02*
X159715025Y-132130975D01*
X134620000Y-135382000D02*
X156464000Y-135382000D01*
X125222000Y-144780000D02*
X134620000Y-135382000D01*
%TO.N,Net-(C16-Pad2)*%
X107950000Y-100285000D02*
X108393000Y-99842000D01*
X109017884Y-102564116D02*
X107950000Y-101496232D01*
X114375116Y-102564116D02*
X109017884Y-102564116D01*
X107950000Y-101496232D02*
X107950000Y-100285000D01*
X128905000Y-117094000D02*
X114375116Y-102564116D01*
X108393000Y-99842000D02*
X109474000Y-99842000D01*
X136398000Y-117094000D02*
X128905000Y-117094000D01*
%TO.N,Net-(Q25-Pad3)*%
X157226000Y-136144000D02*
X160477025Y-132892975D01*
X136398000Y-136144000D02*
X157226000Y-136144000D01*
X127762000Y-144780000D02*
X136398000Y-136144000D01*
D31*
%TO.N,/D+*%
X111760000Y-79756000D02*
X111760000Y-87664988D01*
X111760000Y-87664988D02*
X112268002Y-88172990D01*
X108966000Y-76962000D02*
X111760000Y-79756000D01*
%TO.N,/D-*%
X110744000Y-88392000D02*
X111252000Y-88900000D01*
X110744000Y-81280000D02*
X110744000Y-88392000D01*
X108966000Y-79502000D02*
X110744000Y-81280000D01*
%TD*%
%TO.N,GND*%
X196321001Y-148059000D02*
X167364374Y-148059000D01*
X170219765Y-145203609D01*
X176495446Y-145203609D01*
X176549886Y-145409128D01*
X176643375Y-145600077D01*
X176772319Y-145769118D01*
X176931764Y-145909756D01*
X177115583Y-146016585D01*
X177150112Y-146032129D01*
X177312000Y-145920743D01*
X177312000Y-145034000D01*
X176640218Y-145034000D01*
X176495446Y-145203609D01*
X170219765Y-145203609D01*
X170908385Y-144514990D01*
X176630820Y-144514990D01*
X176640218Y-144526000D01*
X177312000Y-144526000D01*
X177312000Y-144514990D01*
X177727928Y-144514990D01*
X177727928Y-145255000D01*
X177744512Y-145423377D01*
X177793625Y-145585283D01*
X177820000Y-145634627D01*
X177820000Y-145920743D01*
X177981888Y-146032129D01*
X178016417Y-146016585D01*
X178103447Y-145966006D01*
X178111503Y-145972618D01*
X178260717Y-146052375D01*
X178422623Y-146101488D01*
X178591000Y-146118072D01*
X179041000Y-146118072D01*
X179209377Y-146101488D01*
X179371283Y-146052375D01*
X179520497Y-145972618D01*
X179651284Y-145865284D01*
X179758618Y-145734497D01*
X179838375Y-145585283D01*
X179887488Y-145423377D01*
X179904072Y-145255000D01*
X179904072Y-144305000D01*
X179887488Y-144136623D01*
X179838375Y-143974717D01*
X179814474Y-143930000D01*
X183169928Y-143930000D01*
X183169928Y-145630000D01*
X183182188Y-145754482D01*
X183218498Y-145874180D01*
X183277463Y-145984494D01*
X183356815Y-146081185D01*
X183453506Y-146160537D01*
X183563820Y-146219502D01*
X183683518Y-146255812D01*
X183808000Y-146268072D01*
X185508000Y-146268072D01*
X185632482Y-146255812D01*
X185752180Y-146219502D01*
X185862494Y-146160537D01*
X185959185Y-146081185D01*
X186038537Y-145984494D01*
X186097502Y-145874180D01*
X186119513Y-145801620D01*
X186251368Y-145933475D01*
X186494589Y-146095990D01*
X186764842Y-146207932D01*
X187051740Y-146265000D01*
X187344260Y-146265000D01*
X187631158Y-146207932D01*
X187734617Y-146165078D01*
X189784132Y-146165078D01*
X190108179Y-146598146D01*
X190715531Y-146896406D01*
X191369401Y-147070447D01*
X192044661Y-147113581D01*
X192715361Y-147024148D01*
X193355725Y-146805587D01*
X193743821Y-146598146D01*
X194067868Y-146165078D01*
X191926000Y-144023210D01*
X189784132Y-146165078D01*
X187734617Y-146165078D01*
X187901411Y-146095990D01*
X188144632Y-145933475D01*
X188351475Y-145726632D01*
X188513990Y-145483411D01*
X188625932Y-145213158D01*
X188683000Y-144926260D01*
X188683000Y-144796594D01*
X188784413Y-145093725D01*
X188991854Y-145481821D01*
X189424922Y-145805868D01*
X191566790Y-143664000D01*
X192285210Y-143664000D01*
X194427078Y-145805868D01*
X194860146Y-145481821D01*
X195158406Y-144874469D01*
X195332447Y-144220599D01*
X195375581Y-143545339D01*
X195286148Y-142874639D01*
X195067587Y-142234275D01*
X194860146Y-141846179D01*
X194427078Y-141522132D01*
X192285210Y-143664000D01*
X191566790Y-143664000D01*
X189424922Y-141522132D01*
X188991854Y-141846179D01*
X188693594Y-142453531D01*
X188519553Y-143107401D01*
X188476419Y-143782661D01*
X188516382Y-144082365D01*
X188513990Y-144076589D01*
X188351475Y-143833368D01*
X188144632Y-143626525D01*
X187901411Y-143464010D01*
X187631158Y-143352068D01*
X187344260Y-143295000D01*
X187051740Y-143295000D01*
X186764842Y-143352068D01*
X186494589Y-143464010D01*
X186251368Y-143626525D01*
X186119513Y-143758380D01*
X186097502Y-143685820D01*
X186038537Y-143575506D01*
X185959185Y-143478815D01*
X185862494Y-143399463D01*
X185752180Y-143340498D01*
X185632482Y-143304188D01*
X185508000Y-143291928D01*
X183808000Y-143291928D01*
X183683518Y-143304188D01*
X183563820Y-143340498D01*
X183453506Y-143399463D01*
X183356815Y-143478815D01*
X183277463Y-143575506D01*
X183218498Y-143685820D01*
X183182188Y-143805518D01*
X183169928Y-143930000D01*
X179814474Y-143930000D01*
X179758618Y-143825503D01*
X179651284Y-143694716D01*
X179520497Y-143587382D01*
X179447679Y-143548459D01*
X179402541Y-143493459D01*
X179371039Y-143467606D01*
X179037887Y-143134455D01*
X179012031Y-143102949D01*
X178886332Y-142999791D01*
X178742924Y-142923137D01*
X178587316Y-142875934D01*
X178466043Y-142863990D01*
X178466040Y-142863990D01*
X178425490Y-142859996D01*
X178384940Y-142863990D01*
X171993442Y-142863990D01*
X176568361Y-138289073D01*
X176515339Y-138463863D01*
X176472186Y-138902000D01*
X176515339Y-139340137D01*
X176643138Y-139761436D01*
X176850674Y-140149707D01*
X177129970Y-140490030D01*
X177470293Y-140769326D01*
X177858564Y-140976862D01*
X178279863Y-141104661D01*
X178608204Y-141137000D01*
X182607336Y-141137000D01*
X182548933Y-141148617D01*
X182342376Y-141234176D01*
X182156480Y-141358388D01*
X181998388Y-141516480D01*
X181874176Y-141702376D01*
X181788617Y-141908933D01*
X181745000Y-142128212D01*
X181745000Y-142351788D01*
X181788617Y-142571067D01*
X181874176Y-142777624D01*
X181998388Y-142963520D01*
X182156480Y-143121612D01*
X182342376Y-143245824D01*
X182548933Y-143331383D01*
X182768212Y-143375000D01*
X182991788Y-143375000D01*
X183211067Y-143331383D01*
X183417624Y-143245824D01*
X183603520Y-143121612D01*
X183659632Y-143065500D01*
X185887450Y-143065500D01*
X185928000Y-143069494D01*
X185968550Y-143065500D01*
X185968553Y-143065500D01*
X186089826Y-143053556D01*
X186245434Y-143006353D01*
X186388842Y-142929699D01*
X186514541Y-142826541D01*
X186540398Y-142795034D01*
X188172510Y-141162922D01*
X189784132Y-141162922D01*
X191926000Y-143304790D01*
X194067868Y-141162922D01*
X193743821Y-140729854D01*
X193136469Y-140431594D01*
X192482599Y-140257553D01*
X191807339Y-140214419D01*
X191136639Y-140303852D01*
X190496275Y-140522413D01*
X190108179Y-140729854D01*
X189784132Y-141162922D01*
X188172510Y-141162922D01*
X193341045Y-135994389D01*
X193372541Y-135968541D01*
X193398389Y-135937045D01*
X193398392Y-135937042D01*
X193475699Y-135842843D01*
X193552353Y-135699434D01*
X193595420Y-135557459D01*
X193599556Y-135543826D01*
X193611500Y-135422553D01*
X193611500Y-135422551D01*
X193615494Y-135382000D01*
X193611500Y-135341450D01*
X193611500Y-116631075D01*
X193708290Y-116710509D01*
X193896780Y-116811259D01*
X194101303Y-116873300D01*
X194260706Y-116889000D01*
X194867294Y-116889000D01*
X195026697Y-116873300D01*
X195231220Y-116811259D01*
X195419710Y-116710509D01*
X195584922Y-116574922D01*
X195720509Y-116409710D01*
X195821259Y-116221220D01*
X195883300Y-116016697D01*
X195904249Y-115804000D01*
X195883300Y-115591303D01*
X195821259Y-115386780D01*
X195754239Y-115261395D01*
X195756618Y-115258497D01*
X195836375Y-115109283D01*
X195885488Y-114947377D01*
X195902072Y-114779000D01*
X195902072Y-114329000D01*
X195885488Y-114160623D01*
X195836375Y-113998717D01*
X195756618Y-113849503D01*
X195649284Y-113718716D01*
X195518497Y-113611382D01*
X195369283Y-113531625D01*
X195207377Y-113482512D01*
X195039000Y-113465928D01*
X194089000Y-113465928D01*
X193920623Y-113482512D01*
X193758717Y-113531625D01*
X193611500Y-113610315D01*
X193611500Y-71922550D01*
X193615494Y-71881999D01*
X193611500Y-71841447D01*
X193599556Y-71720174D01*
X193552353Y-71564566D01*
X193475700Y-71421159D01*
X193475699Y-71421157D01*
X193398391Y-71326958D01*
X193372541Y-71295459D01*
X193341041Y-71269608D01*
X190096398Y-68024966D01*
X190070541Y-67993459D01*
X189944842Y-67890301D01*
X189801434Y-67813647D01*
X189645826Y-67766444D01*
X189524553Y-67754500D01*
X189524550Y-67754500D01*
X189484000Y-67750506D01*
X189443450Y-67754500D01*
X158040992Y-67754500D01*
X157052507Y-66766016D01*
X157248886Y-66634799D01*
X157441799Y-66441886D01*
X157593371Y-66215043D01*
X157636000Y-66112127D01*
X157678629Y-66215043D01*
X157830201Y-66441886D01*
X158023114Y-66634799D01*
X158249957Y-66786371D01*
X158502011Y-66890775D01*
X158769589Y-66944000D01*
X159042411Y-66944000D01*
X159309989Y-66890775D01*
X159562043Y-66786371D01*
X159788886Y-66634799D01*
X159981799Y-66441886D01*
X160133371Y-66215043D01*
X160176000Y-66112127D01*
X160218629Y-66215043D01*
X160370201Y-66441886D01*
X160563114Y-66634799D01*
X160789957Y-66786371D01*
X161042011Y-66890775D01*
X161309589Y-66944000D01*
X161582411Y-66944000D01*
X161849989Y-66890775D01*
X162102043Y-66786371D01*
X162328886Y-66634799D01*
X162521799Y-66441886D01*
X162673371Y-66215043D01*
X162716000Y-66112127D01*
X162758629Y-66215043D01*
X162910201Y-66441886D01*
X163103114Y-66634799D01*
X163329957Y-66786371D01*
X163582011Y-66890775D01*
X163849589Y-66944000D01*
X164122411Y-66944000D01*
X164389989Y-66890775D01*
X164642043Y-66786371D01*
X164868886Y-66634799D01*
X165061799Y-66441886D01*
X165213371Y-66215043D01*
X165256000Y-66112127D01*
X165298629Y-66215043D01*
X165450201Y-66441886D01*
X165643114Y-66634799D01*
X165869957Y-66786371D01*
X166122011Y-66890775D01*
X166389589Y-66944000D01*
X166662411Y-66944000D01*
X166929989Y-66890775D01*
X167182043Y-66786371D01*
X167408886Y-66634799D01*
X167601799Y-66441886D01*
X167753371Y-66215043D01*
X167796000Y-66112127D01*
X167838629Y-66215043D01*
X167990201Y-66441886D01*
X168183114Y-66634799D01*
X168409957Y-66786371D01*
X168662011Y-66890775D01*
X168929589Y-66944000D01*
X169202411Y-66944000D01*
X169469989Y-66890775D01*
X169722043Y-66786371D01*
X169948886Y-66634799D01*
X170141799Y-66441886D01*
X170293371Y-66215043D01*
X170336000Y-66112127D01*
X170378629Y-66215043D01*
X170530201Y-66441886D01*
X170723114Y-66634799D01*
X170949957Y-66786371D01*
X171202011Y-66890775D01*
X171469589Y-66944000D01*
X171742411Y-66944000D01*
X172009989Y-66890775D01*
X172262043Y-66786371D01*
X172488886Y-66634799D01*
X172681799Y-66441886D01*
X172833371Y-66215043D01*
X172876000Y-66112127D01*
X172918629Y-66215043D01*
X173070201Y-66441886D01*
X173263114Y-66634799D01*
X173489957Y-66786371D01*
X173742011Y-66890775D01*
X174009589Y-66944000D01*
X174282411Y-66944000D01*
X174549989Y-66890775D01*
X174802043Y-66786371D01*
X175028886Y-66634799D01*
X175221799Y-66441886D01*
X175373371Y-66215043D01*
X175416000Y-66112127D01*
X175458629Y-66215043D01*
X175610201Y-66441886D01*
X175803114Y-66634799D01*
X176029957Y-66786371D01*
X176282011Y-66890775D01*
X176549589Y-66944000D01*
X176822411Y-66944000D01*
X177089989Y-66890775D01*
X177342043Y-66786371D01*
X177568886Y-66634799D01*
X177761799Y-66441886D01*
X177913371Y-66215043D01*
X177956000Y-66112127D01*
X177998629Y-66215043D01*
X178150201Y-66441886D01*
X178343114Y-66634799D01*
X178569957Y-66786371D01*
X178822011Y-66890775D01*
X179089589Y-66944000D01*
X179362411Y-66944000D01*
X179629989Y-66890775D01*
X179882043Y-66786371D01*
X180108886Y-66634799D01*
X180301799Y-66441886D01*
X180453371Y-66215043D01*
X180496000Y-66112127D01*
X180538629Y-66215043D01*
X180690201Y-66441886D01*
X180883114Y-66634799D01*
X181109957Y-66786371D01*
X181362011Y-66890775D01*
X181629589Y-66944000D01*
X181902411Y-66944000D01*
X182169989Y-66890775D01*
X182422043Y-66786371D01*
X182648886Y-66634799D01*
X182841799Y-66441886D01*
X182993371Y-66215043D01*
X183036000Y-66112127D01*
X183078629Y-66215043D01*
X183230201Y-66441886D01*
X183423114Y-66634799D01*
X183649957Y-66786371D01*
X183902011Y-66890775D01*
X184169589Y-66944000D01*
X184442411Y-66944000D01*
X184709989Y-66890775D01*
X184962043Y-66786371D01*
X185188886Y-66634799D01*
X185381799Y-66441886D01*
X185533371Y-66215043D01*
X185637775Y-65962989D01*
X185691000Y-65695411D01*
X185691000Y-65422589D01*
X185637775Y-65155011D01*
X185533371Y-64902957D01*
X185381799Y-64676114D01*
X185188886Y-64483201D01*
X184962043Y-64331629D01*
X184859127Y-64289000D01*
X184962043Y-64246371D01*
X185188886Y-64094799D01*
X185381799Y-63901886D01*
X185533371Y-63675043D01*
X185637775Y-63422989D01*
X185691000Y-63155411D01*
X185691000Y-62882589D01*
X185637775Y-62615011D01*
X185533371Y-62362957D01*
X185381799Y-62136114D01*
X185188886Y-61943201D01*
X184962043Y-61791629D01*
X184859127Y-61749000D01*
X184962043Y-61706371D01*
X185188886Y-61554799D01*
X185381799Y-61361886D01*
X185533371Y-61135043D01*
X185637775Y-60882989D01*
X185691000Y-60615411D01*
X185691000Y-60440078D01*
X187244132Y-60440078D01*
X187568179Y-60873146D01*
X188175531Y-61171406D01*
X188829401Y-61345447D01*
X189504661Y-61388581D01*
X190175361Y-61299148D01*
X190815725Y-61080587D01*
X191203821Y-60873146D01*
X191527868Y-60440078D01*
X189386000Y-58298210D01*
X187244132Y-60440078D01*
X185691000Y-60440078D01*
X185691000Y-60342589D01*
X185637775Y-60075011D01*
X185533371Y-59822957D01*
X185381799Y-59596114D01*
X185188886Y-59403201D01*
X184962043Y-59251629D01*
X184859127Y-59209000D01*
X184962043Y-59166371D01*
X185188886Y-59014799D01*
X185381799Y-58821886D01*
X185533371Y-58595043D01*
X185637775Y-58342989D01*
X185691000Y-58075411D01*
X185691000Y-58057661D01*
X185936419Y-58057661D01*
X186025852Y-58728361D01*
X186244413Y-59368725D01*
X186451854Y-59756821D01*
X186884922Y-60080868D01*
X189026790Y-57939000D01*
X189745210Y-57939000D01*
X191887078Y-60080868D01*
X192320146Y-59756821D01*
X192618406Y-59149469D01*
X192792447Y-58495599D01*
X192835581Y-57820339D01*
X192746148Y-57149639D01*
X192527587Y-56509275D01*
X192320146Y-56121179D01*
X191887078Y-55797132D01*
X189745210Y-57939000D01*
X189026790Y-57939000D01*
X186884922Y-55797132D01*
X186451854Y-56121179D01*
X186153594Y-56728531D01*
X185979553Y-57382401D01*
X185936419Y-58057661D01*
X185691000Y-58057661D01*
X185691000Y-57802589D01*
X185637775Y-57535011D01*
X185533371Y-57282957D01*
X185381799Y-57056114D01*
X185188886Y-56863201D01*
X184962043Y-56711629D01*
X184709989Y-56607225D01*
X184442411Y-56554000D01*
X184169589Y-56554000D01*
X183902011Y-56607225D01*
X183649957Y-56711629D01*
X183423114Y-56863201D01*
X183230201Y-57056114D01*
X183078629Y-57282957D01*
X183036000Y-57385873D01*
X182993371Y-57282957D01*
X182841799Y-57056114D01*
X182648886Y-56863201D01*
X182422043Y-56711629D01*
X182169989Y-56607225D01*
X181902411Y-56554000D01*
X181629589Y-56554000D01*
X181362011Y-56607225D01*
X181109957Y-56711629D01*
X180883114Y-56863201D01*
X180690201Y-57056114D01*
X180538629Y-57282957D01*
X180496000Y-57385873D01*
X180453371Y-57282957D01*
X180301799Y-57056114D01*
X180108886Y-56863201D01*
X179882043Y-56711629D01*
X179629989Y-56607225D01*
X179362411Y-56554000D01*
X179089589Y-56554000D01*
X178822011Y-56607225D01*
X178569957Y-56711629D01*
X178343114Y-56863201D01*
X178150201Y-57056114D01*
X177998629Y-57282957D01*
X177956000Y-57385873D01*
X177913371Y-57282957D01*
X177761799Y-57056114D01*
X177568886Y-56863201D01*
X177342043Y-56711629D01*
X177089989Y-56607225D01*
X176822411Y-56554000D01*
X176549589Y-56554000D01*
X176282011Y-56607225D01*
X176029957Y-56711629D01*
X175803114Y-56863201D01*
X175610201Y-57056114D01*
X175458629Y-57282957D01*
X175416000Y-57385873D01*
X175373371Y-57282957D01*
X175221799Y-57056114D01*
X175028886Y-56863201D01*
X174802043Y-56711629D01*
X174549989Y-56607225D01*
X174282411Y-56554000D01*
X174009589Y-56554000D01*
X173742011Y-56607225D01*
X173489957Y-56711629D01*
X173263114Y-56863201D01*
X173070201Y-57056114D01*
X172918629Y-57282957D01*
X172876000Y-57385873D01*
X172833371Y-57282957D01*
X172681799Y-57056114D01*
X172488886Y-56863201D01*
X172262043Y-56711629D01*
X172009989Y-56607225D01*
X171742411Y-56554000D01*
X171469589Y-56554000D01*
X171202011Y-56607225D01*
X170949957Y-56711629D01*
X170723114Y-56863201D01*
X170530201Y-57056114D01*
X170378629Y-57282957D01*
X170336000Y-57385873D01*
X170293371Y-57282957D01*
X170141799Y-57056114D01*
X169948886Y-56863201D01*
X169722043Y-56711629D01*
X169469989Y-56607225D01*
X169202411Y-56554000D01*
X168929589Y-56554000D01*
X168662011Y-56607225D01*
X168409957Y-56711629D01*
X168183114Y-56863201D01*
X167990201Y-57056114D01*
X167838629Y-57282957D01*
X167796000Y-57385873D01*
X167753371Y-57282957D01*
X167601799Y-57056114D01*
X167408886Y-56863201D01*
X167182043Y-56711629D01*
X166929989Y-56607225D01*
X166662411Y-56554000D01*
X166389589Y-56554000D01*
X166122011Y-56607225D01*
X165869957Y-56711629D01*
X165643114Y-56863201D01*
X165450201Y-57056114D01*
X165298629Y-57282957D01*
X165256000Y-57385873D01*
X165213371Y-57282957D01*
X165061799Y-57056114D01*
X164868886Y-56863201D01*
X164642043Y-56711629D01*
X164389989Y-56607225D01*
X164122411Y-56554000D01*
X163849589Y-56554000D01*
X163582011Y-56607225D01*
X163329957Y-56711629D01*
X163103114Y-56863201D01*
X162910201Y-57056114D01*
X162758629Y-57282957D01*
X162716000Y-57385873D01*
X162673371Y-57282957D01*
X162521799Y-57056114D01*
X162328886Y-56863201D01*
X162102043Y-56711629D01*
X161849989Y-56607225D01*
X161582411Y-56554000D01*
X161309589Y-56554000D01*
X161042011Y-56607225D01*
X160789957Y-56711629D01*
X160563114Y-56863201D01*
X160370201Y-57056114D01*
X160218629Y-57282957D01*
X160172737Y-57393750D01*
X160095453Y-57229455D01*
X159934173Y-57011038D01*
X159733381Y-56828282D01*
X159500793Y-56688210D01*
X159369860Y-56633987D01*
X159160000Y-56739345D01*
X159160000Y-57685000D01*
X159180000Y-57685000D01*
X159180000Y-58193000D01*
X159160000Y-58193000D01*
X159160000Y-59138655D01*
X159300118Y-59209000D01*
X159160000Y-59279345D01*
X159160000Y-60225000D01*
X159180000Y-60225000D01*
X159180000Y-60733000D01*
X159160000Y-60733000D01*
X159160000Y-60753000D01*
X158652000Y-60753000D01*
X158652000Y-60733000D01*
X157703230Y-60733000D01*
X157636000Y-60870981D01*
X157568770Y-60733000D01*
X156620000Y-60733000D01*
X156620000Y-60753000D01*
X156112000Y-60753000D01*
X156112000Y-60733000D01*
X156092000Y-60733000D01*
X156092000Y-60225000D01*
X156112000Y-60225000D01*
X156112000Y-59279345D01*
X155971882Y-59209000D01*
X156112000Y-59138655D01*
X156112000Y-58193000D01*
X156620000Y-58193000D01*
X156620000Y-59138655D01*
X156760118Y-59209000D01*
X156620000Y-59279345D01*
X156620000Y-60225000D01*
X157568770Y-60225000D01*
X157636000Y-60087019D01*
X157703230Y-60225000D01*
X158652000Y-60225000D01*
X158652000Y-59279345D01*
X158511882Y-59209000D01*
X158652000Y-59138655D01*
X158652000Y-58193000D01*
X157703230Y-58193000D01*
X157636000Y-58330981D01*
X157568770Y-58193000D01*
X156620000Y-58193000D01*
X156112000Y-58193000D01*
X156092000Y-58193000D01*
X156092000Y-57685000D01*
X156112000Y-57685000D01*
X156112000Y-56739345D01*
X156620000Y-56739345D01*
X156620000Y-57685000D01*
X157568770Y-57685000D01*
X157636000Y-57547019D01*
X157703230Y-57685000D01*
X158652000Y-57685000D01*
X158652000Y-56739345D01*
X158442140Y-56633987D01*
X158311207Y-56688210D01*
X158078619Y-56828282D01*
X157877827Y-57011038D01*
X157716547Y-57229455D01*
X157636000Y-57400686D01*
X157555453Y-57229455D01*
X157394173Y-57011038D01*
X157193381Y-56828282D01*
X156960793Y-56688210D01*
X156829860Y-56633987D01*
X156620000Y-56739345D01*
X156112000Y-56739345D01*
X155902140Y-56633987D01*
X155771207Y-56688210D01*
X155538619Y-56828282D01*
X155337827Y-57011038D01*
X155176547Y-57229455D01*
X155099263Y-57393750D01*
X155053371Y-57282957D01*
X154901799Y-57056114D01*
X154708886Y-56863201D01*
X154482043Y-56711629D01*
X154229989Y-56607225D01*
X153962411Y-56554000D01*
X153689589Y-56554000D01*
X153422011Y-56607225D01*
X153169957Y-56711629D01*
X152943114Y-56863201D01*
X152750201Y-57056114D01*
X152598629Y-57282957D01*
X152556000Y-57385873D01*
X152513371Y-57282957D01*
X152361799Y-57056114D01*
X152168886Y-56863201D01*
X151942043Y-56711629D01*
X151689989Y-56607225D01*
X151422411Y-56554000D01*
X151149589Y-56554000D01*
X150882011Y-56607225D01*
X150629957Y-56711629D01*
X150403114Y-56863201D01*
X150210201Y-57056114D01*
X150058629Y-57282957D01*
X150016000Y-57385873D01*
X149973371Y-57282957D01*
X149821799Y-57056114D01*
X149628886Y-56863201D01*
X149402043Y-56711629D01*
X149149989Y-56607225D01*
X148882411Y-56554000D01*
X148609589Y-56554000D01*
X148342011Y-56607225D01*
X148089957Y-56711629D01*
X147863114Y-56863201D01*
X147670201Y-57056114D01*
X147518629Y-57282957D01*
X147472737Y-57393750D01*
X147395453Y-57229455D01*
X147234173Y-57011038D01*
X147033381Y-56828282D01*
X146800793Y-56688210D01*
X146669860Y-56633987D01*
X146460000Y-56739345D01*
X146460000Y-57685000D01*
X146480000Y-57685000D01*
X146480000Y-58193000D01*
X146460000Y-58193000D01*
X146460000Y-59138655D01*
X146600118Y-59209000D01*
X146460000Y-59279345D01*
X146460000Y-60225000D01*
X146480000Y-60225000D01*
X146480000Y-60733000D01*
X146460000Y-60733000D01*
X146460000Y-60753000D01*
X145952000Y-60753000D01*
X145952000Y-60733000D01*
X145932000Y-60733000D01*
X145932000Y-60225000D01*
X145952000Y-60225000D01*
X145952000Y-59279345D01*
X145811882Y-59209000D01*
X145952000Y-59138655D01*
X145952000Y-58193000D01*
X145932000Y-58193000D01*
X145932000Y-57685000D01*
X145952000Y-57685000D01*
X145952000Y-56739345D01*
X145742140Y-56633987D01*
X145611207Y-56688210D01*
X145378619Y-56828282D01*
X145177827Y-57011038D01*
X145016547Y-57229455D01*
X144939263Y-57393750D01*
X144893371Y-57282957D01*
X144741799Y-57056114D01*
X144548886Y-56863201D01*
X144322043Y-56711629D01*
X144069989Y-56607225D01*
X143802411Y-56554000D01*
X143529589Y-56554000D01*
X143262011Y-56607225D01*
X143009957Y-56711629D01*
X142783114Y-56863201D01*
X142590201Y-57056114D01*
X142438629Y-57282957D01*
X142396000Y-57385873D01*
X142353371Y-57282957D01*
X142201799Y-57056114D01*
X142008886Y-56863201D01*
X141782043Y-56711629D01*
X141529989Y-56607225D01*
X141262411Y-56554000D01*
X140989589Y-56554000D01*
X140722011Y-56607225D01*
X140469957Y-56711629D01*
X140243114Y-56863201D01*
X140050201Y-57056114D01*
X139898629Y-57282957D01*
X139856000Y-57385873D01*
X139813371Y-57282957D01*
X139661799Y-57056114D01*
X139468886Y-56863201D01*
X139242043Y-56711629D01*
X138989989Y-56607225D01*
X138722411Y-56554000D01*
X138449589Y-56554000D01*
X138182011Y-56607225D01*
X137929957Y-56711629D01*
X137703114Y-56863201D01*
X137510201Y-57056114D01*
X137358629Y-57282957D01*
X137316000Y-57385873D01*
X137273371Y-57282957D01*
X137121799Y-57056114D01*
X136928886Y-56863201D01*
X136702043Y-56711629D01*
X136449989Y-56607225D01*
X136182411Y-56554000D01*
X135909589Y-56554000D01*
X135642011Y-56607225D01*
X135389957Y-56711629D01*
X135163114Y-56863201D01*
X134970201Y-57056114D01*
X134818629Y-57282957D01*
X134776000Y-57385873D01*
X134733371Y-57282957D01*
X134581799Y-57056114D01*
X134388886Y-56863201D01*
X134162043Y-56711629D01*
X133909989Y-56607225D01*
X133642411Y-56554000D01*
X133369589Y-56554000D01*
X133102011Y-56607225D01*
X132849957Y-56711629D01*
X132623114Y-56863201D01*
X132430201Y-57056114D01*
X132278629Y-57282957D01*
X132236000Y-57385873D01*
X132193371Y-57282957D01*
X132041799Y-57056114D01*
X131848886Y-56863201D01*
X131622043Y-56711629D01*
X131369989Y-56607225D01*
X131102411Y-56554000D01*
X130829589Y-56554000D01*
X130562011Y-56607225D01*
X130309957Y-56711629D01*
X130083114Y-56863201D01*
X129890201Y-57056114D01*
X129738629Y-57282957D01*
X129696000Y-57385873D01*
X129653371Y-57282957D01*
X129501799Y-57056114D01*
X129308886Y-56863201D01*
X129082043Y-56711629D01*
X128829989Y-56607225D01*
X128562411Y-56554000D01*
X128289589Y-56554000D01*
X128022011Y-56607225D01*
X127769957Y-56711629D01*
X127543114Y-56863201D01*
X127350201Y-57056114D01*
X127198629Y-57282957D01*
X127156000Y-57385873D01*
X127113371Y-57282957D01*
X126961799Y-57056114D01*
X126768886Y-56863201D01*
X126542043Y-56711629D01*
X126289989Y-56607225D01*
X126022411Y-56554000D01*
X125749589Y-56554000D01*
X125482011Y-56607225D01*
X125229957Y-56711629D01*
X125003114Y-56863201D01*
X124810201Y-57056114D01*
X124658629Y-57282957D01*
X124616000Y-57385873D01*
X124573371Y-57282957D01*
X124421799Y-57056114D01*
X124228886Y-56863201D01*
X124002043Y-56711629D01*
X123749989Y-56607225D01*
X123482411Y-56554000D01*
X123209589Y-56554000D01*
X122942011Y-56607225D01*
X122689957Y-56711629D01*
X122463114Y-56863201D01*
X122270201Y-57056114D01*
X122118629Y-57282957D01*
X122076000Y-57385873D01*
X122033371Y-57282957D01*
X121881799Y-57056114D01*
X121688886Y-56863201D01*
X121462043Y-56711629D01*
X121209989Y-56607225D01*
X120942411Y-56554000D01*
X120669589Y-56554000D01*
X120402011Y-56607225D01*
X120149957Y-56711629D01*
X119923114Y-56863201D01*
X119730201Y-57056114D01*
X119578629Y-57282957D01*
X119474225Y-57535011D01*
X119421000Y-57802589D01*
X119421000Y-58075411D01*
X119474225Y-58342989D01*
X119578629Y-58595043D01*
X119730201Y-58821886D01*
X119923114Y-59014799D01*
X120039483Y-59092555D01*
X119931518Y-59103188D01*
X119811820Y-59139498D01*
X119701506Y-59198463D01*
X119604815Y-59277815D01*
X119525463Y-59374506D01*
X119466498Y-59484820D01*
X119430188Y-59604518D01*
X119417928Y-59729000D01*
X119417928Y-61229000D01*
X119430188Y-61353482D01*
X119466498Y-61473180D01*
X119525463Y-61583494D01*
X119604815Y-61680185D01*
X119701506Y-61759537D01*
X119811820Y-61818502D01*
X119931518Y-61854812D01*
X120039483Y-61865445D01*
X119923114Y-61943201D01*
X119730201Y-62136114D01*
X119578629Y-62362957D01*
X119474225Y-62615011D01*
X119421000Y-62882589D01*
X119421000Y-63155411D01*
X119474225Y-63422989D01*
X119578629Y-63675043D01*
X119730201Y-63901886D01*
X119923114Y-64094799D01*
X120039483Y-64172555D01*
X119931518Y-64183188D01*
X119811820Y-64219498D01*
X119701506Y-64278463D01*
X119604815Y-64357815D01*
X119525463Y-64454506D01*
X119466498Y-64564820D01*
X119430188Y-64684518D01*
X119417928Y-64809000D01*
X119417928Y-66309000D01*
X119430188Y-66433482D01*
X119466498Y-66553180D01*
X119525463Y-66663494D01*
X119604815Y-66760185D01*
X119701506Y-66839537D01*
X119811820Y-66898502D01*
X119931518Y-66934812D01*
X120056000Y-66947072D01*
X121556000Y-66947072D01*
X121680482Y-66934812D01*
X121800180Y-66898502D01*
X121910494Y-66839537D01*
X122007185Y-66760185D01*
X122086537Y-66663494D01*
X122145502Y-66553180D01*
X122181812Y-66433482D01*
X122192445Y-66325517D01*
X122270201Y-66441886D01*
X122463114Y-66634799D01*
X122689957Y-66786371D01*
X122942011Y-66890775D01*
X123209589Y-66944000D01*
X123482411Y-66944000D01*
X123749989Y-66890775D01*
X124002043Y-66786371D01*
X124228886Y-66634799D01*
X124421799Y-66441886D01*
X124573371Y-66215043D01*
X124616000Y-66112127D01*
X124658629Y-66215043D01*
X124810201Y-66441886D01*
X125003114Y-66634799D01*
X125229957Y-66786371D01*
X125482011Y-66890775D01*
X125749589Y-66944000D01*
X126022411Y-66944000D01*
X126289989Y-66890775D01*
X126542043Y-66786371D01*
X126768886Y-66634799D01*
X126961799Y-66441886D01*
X127113371Y-66215043D01*
X127156000Y-66112127D01*
X127198629Y-66215043D01*
X127350201Y-66441886D01*
X127543114Y-66634799D01*
X127769957Y-66786371D01*
X128022011Y-66890775D01*
X128289589Y-66944000D01*
X128562411Y-66944000D01*
X128829989Y-66890775D01*
X129082043Y-66786371D01*
X129308886Y-66634799D01*
X129501799Y-66441886D01*
X129653371Y-66215043D01*
X129696000Y-66112127D01*
X129738629Y-66215043D01*
X129890201Y-66441886D01*
X130083114Y-66634799D01*
X130309957Y-66786371D01*
X130562011Y-66890775D01*
X130829589Y-66944000D01*
X131102411Y-66944000D01*
X131369989Y-66890775D01*
X131622043Y-66786371D01*
X131848886Y-66634799D01*
X132041799Y-66441886D01*
X132193371Y-66215043D01*
X132236000Y-66112127D01*
X132278629Y-66215043D01*
X132430201Y-66441886D01*
X132623114Y-66634799D01*
X132849957Y-66786371D01*
X133102011Y-66890775D01*
X133369589Y-66944000D01*
X133642411Y-66944000D01*
X133909989Y-66890775D01*
X134162043Y-66786371D01*
X134388886Y-66634799D01*
X134581799Y-66441886D01*
X134733371Y-66215043D01*
X134776000Y-66112127D01*
X134818629Y-66215043D01*
X134970201Y-66441886D01*
X135163114Y-66634799D01*
X135389957Y-66786371D01*
X135642011Y-66890775D01*
X135909589Y-66944000D01*
X136182411Y-66944000D01*
X136449989Y-66890775D01*
X136702043Y-66786371D01*
X136928886Y-66634799D01*
X137121799Y-66441886D01*
X137273371Y-66215043D01*
X137316000Y-66112127D01*
X137358629Y-66215043D01*
X137510201Y-66441886D01*
X137703114Y-66634799D01*
X137929957Y-66786371D01*
X138182011Y-66890775D01*
X138449589Y-66944000D01*
X138722411Y-66944000D01*
X138989989Y-66890775D01*
X139242043Y-66786371D01*
X139468886Y-66634799D01*
X139661799Y-66441886D01*
X139813371Y-66215043D01*
X139856000Y-66112127D01*
X139898629Y-66215043D01*
X140050201Y-66441886D01*
X140243114Y-66634799D01*
X140469957Y-66786371D01*
X140722011Y-66890775D01*
X140989589Y-66944000D01*
X141262411Y-66944000D01*
X141529989Y-66890775D01*
X141782043Y-66786371D01*
X142008886Y-66634799D01*
X142201799Y-66441886D01*
X142353371Y-66215043D01*
X142396000Y-66112127D01*
X142438629Y-66215043D01*
X142590201Y-66441886D01*
X142783114Y-66634799D01*
X143009957Y-66786371D01*
X143262011Y-66890775D01*
X143529589Y-66944000D01*
X143802411Y-66944000D01*
X144069989Y-66890775D01*
X144322043Y-66786371D01*
X144548886Y-66634799D01*
X144741799Y-66441886D01*
X144893371Y-66215043D01*
X144936000Y-66112127D01*
X144978629Y-66215043D01*
X145130201Y-66441886D01*
X145323114Y-66634799D01*
X145549957Y-66786371D01*
X145802011Y-66890775D01*
X146069589Y-66944000D01*
X146342411Y-66944000D01*
X146609989Y-66890775D01*
X146862043Y-66786371D01*
X147088886Y-66634799D01*
X147281799Y-66441886D01*
X147433371Y-66215043D01*
X147476000Y-66112127D01*
X147518629Y-66215043D01*
X147670201Y-66441886D01*
X147863114Y-66634799D01*
X148089957Y-66786371D01*
X148342011Y-66890775D01*
X148609589Y-66944000D01*
X148882411Y-66944000D01*
X149149989Y-66890775D01*
X149402043Y-66786371D01*
X149628886Y-66634799D01*
X149821799Y-66441886D01*
X149973371Y-66215043D01*
X150016000Y-66112127D01*
X150058629Y-66215043D01*
X150210201Y-66441886D01*
X150403114Y-66634799D01*
X150629957Y-66786371D01*
X150882011Y-66890775D01*
X151149589Y-66944000D01*
X151422411Y-66944000D01*
X151689989Y-66890775D01*
X151942043Y-66786371D01*
X152116434Y-66669846D01*
X152883565Y-67436978D01*
X152756226Y-67522063D01*
X152714289Y-67564000D01*
X131863422Y-67564000D01*
X131825999Y-67560314D01*
X131788576Y-67564000D01*
X131788574Y-67564000D01*
X131775789Y-67565259D01*
X131673939Y-67545000D01*
X131470061Y-67545000D01*
X131270102Y-67584774D01*
X131081744Y-67662795D01*
X130912226Y-67776063D01*
X130768063Y-67920226D01*
X130654795Y-68089744D01*
X130576774Y-68278102D01*
X130537000Y-68478061D01*
X130537000Y-68681939D01*
X130576774Y-68881898D01*
X130654795Y-69070256D01*
X130768063Y-69239774D01*
X130912226Y-69383937D01*
X131081744Y-69497205D01*
X131270102Y-69575226D01*
X131470061Y-69615000D01*
X131673939Y-69615000D01*
X131873898Y-69575226D01*
X132062256Y-69497205D01*
X132231774Y-69383937D01*
X132375937Y-69239774D01*
X132477349Y-69088000D01*
X137273315Y-69088000D01*
X136997970Y-69313970D01*
X136736969Y-69632000D01*
X127169031Y-69632000D01*
X126908030Y-69313970D01*
X126567707Y-69034674D01*
X126179436Y-68827138D01*
X125758137Y-68699339D01*
X125429796Y-68667000D01*
X118410204Y-68667000D01*
X118081863Y-68699339D01*
X117660564Y-68827138D01*
X117272293Y-69034674D01*
X116931970Y-69313970D01*
X116652674Y-69654293D01*
X116445138Y-70042564D01*
X116317339Y-70463863D01*
X116274186Y-70902000D01*
X116317339Y-71340137D01*
X116445138Y-71761436D01*
X116652674Y-72149707D01*
X116931970Y-72490030D01*
X117272293Y-72769326D01*
X117660564Y-72976862D01*
X118081863Y-73104661D01*
X118099187Y-73106367D01*
X113023483Y-78182072D01*
X112979867Y-78217867D01*
X112837032Y-78391912D01*
X112730897Y-78590478D01*
X112665539Y-78805934D01*
X112649000Y-78973855D01*
X112649000Y-78973861D01*
X112643471Y-79030000D01*
X112649000Y-79086139D01*
X112649000Y-87210529D01*
X112569900Y-87177764D01*
X112522000Y-87168236D01*
X112522000Y-79793423D01*
X112525686Y-79756000D01*
X112522000Y-79718574D01*
X112510974Y-79606622D01*
X112467402Y-79462985D01*
X112433768Y-79400061D01*
X112396645Y-79330607D01*
X112361857Y-79288219D01*
X112301422Y-79214578D01*
X112272347Y-79190717D01*
X110407679Y-77326049D01*
X110451000Y-77108260D01*
X110451000Y-76815740D01*
X110393932Y-76528842D01*
X110281990Y-76258589D01*
X110119475Y-76015368D01*
X109912632Y-75808525D01*
X109669411Y-75646010D01*
X109399158Y-75534068D01*
X109112260Y-75477000D01*
X108819740Y-75477000D01*
X108532842Y-75534068D01*
X108262589Y-75646010D01*
X108019368Y-75808525D01*
X107812525Y-76015368D01*
X107650010Y-76258589D01*
X107538068Y-76528842D01*
X107521000Y-76614648D01*
X107521000Y-60440078D01*
X113584132Y-60440078D01*
X113908179Y-60873146D01*
X114515531Y-61171406D01*
X115169401Y-61345447D01*
X115844661Y-61388581D01*
X116515361Y-61299148D01*
X117155725Y-61080587D01*
X117543821Y-60873146D01*
X117867868Y-60440078D01*
X115726000Y-58298210D01*
X113584132Y-60440078D01*
X107521000Y-60440078D01*
X107521000Y-58057661D01*
X112276419Y-58057661D01*
X112365852Y-58728361D01*
X112584413Y-59368725D01*
X112791854Y-59756821D01*
X113224922Y-60080868D01*
X115366790Y-57939000D01*
X116085210Y-57939000D01*
X118227078Y-60080868D01*
X118660146Y-59756821D01*
X118958406Y-59149469D01*
X119132447Y-58495599D01*
X119175581Y-57820339D01*
X119086148Y-57149639D01*
X118867587Y-56509275D01*
X118660146Y-56121179D01*
X118227078Y-55797132D01*
X116085210Y-57939000D01*
X115366790Y-57939000D01*
X113224922Y-55797132D01*
X112791854Y-56121179D01*
X112493594Y-56728531D01*
X112319553Y-57382401D01*
X112276419Y-58057661D01*
X107521000Y-58057661D01*
X107521000Y-55437922D01*
X113584132Y-55437922D01*
X115726000Y-57579790D01*
X117867868Y-55437922D01*
X187244132Y-55437922D01*
X189386000Y-57579790D01*
X191527868Y-55437922D01*
X191203821Y-55004854D01*
X190596469Y-54706594D01*
X189942599Y-54532553D01*
X189267339Y-54489419D01*
X188596639Y-54578852D01*
X187956275Y-54797413D01*
X187568179Y-55004854D01*
X187244132Y-55437922D01*
X117867868Y-55437922D01*
X117543821Y-55004854D01*
X116936469Y-54706594D01*
X116282599Y-54532553D01*
X115607339Y-54489419D01*
X114936639Y-54578852D01*
X114296275Y-54797413D01*
X113908179Y-55004854D01*
X113584132Y-55437922D01*
X107521000Y-55437922D01*
X107521000Y-53544000D01*
X196321000Y-53544000D01*
X196321001Y-148059000D01*
%TA.AperFunction,Conductor*%
D32*
G36*
X196321001Y-148059000D02*
G01*
X167364374Y-148059000D01*
X170219765Y-145203609D01*
X176495446Y-145203609D01*
X176549886Y-145409128D01*
X176643375Y-145600077D01*
X176772319Y-145769118D01*
X176931764Y-145909756D01*
X177115583Y-146016585D01*
X177150112Y-146032129D01*
X177312000Y-145920743D01*
X177312000Y-145034000D01*
X176640218Y-145034000D01*
X176495446Y-145203609D01*
X170219765Y-145203609D01*
X170908385Y-144514990D01*
X176630820Y-144514990D01*
X176640218Y-144526000D01*
X177312000Y-144526000D01*
X177312000Y-144514990D01*
X177727928Y-144514990D01*
X177727928Y-145255000D01*
X177744512Y-145423377D01*
X177793625Y-145585283D01*
X177820000Y-145634627D01*
X177820000Y-145920743D01*
X177981888Y-146032129D01*
X178016417Y-146016585D01*
X178103447Y-145966006D01*
X178111503Y-145972618D01*
X178260717Y-146052375D01*
X178422623Y-146101488D01*
X178591000Y-146118072D01*
X179041000Y-146118072D01*
X179209377Y-146101488D01*
X179371283Y-146052375D01*
X179520497Y-145972618D01*
X179651284Y-145865284D01*
X179758618Y-145734497D01*
X179838375Y-145585283D01*
X179887488Y-145423377D01*
X179904072Y-145255000D01*
X179904072Y-144305000D01*
X179887488Y-144136623D01*
X179838375Y-143974717D01*
X179814474Y-143930000D01*
X183169928Y-143930000D01*
X183169928Y-145630000D01*
X183182188Y-145754482D01*
X183218498Y-145874180D01*
X183277463Y-145984494D01*
X183356815Y-146081185D01*
X183453506Y-146160537D01*
X183563820Y-146219502D01*
X183683518Y-146255812D01*
X183808000Y-146268072D01*
X185508000Y-146268072D01*
X185632482Y-146255812D01*
X185752180Y-146219502D01*
X185862494Y-146160537D01*
X185959185Y-146081185D01*
X186038537Y-145984494D01*
X186097502Y-145874180D01*
X186119513Y-145801620D01*
X186251368Y-145933475D01*
X186494589Y-146095990D01*
X186764842Y-146207932D01*
X187051740Y-146265000D01*
X187344260Y-146265000D01*
X187631158Y-146207932D01*
X187734617Y-146165078D01*
X189784132Y-146165078D01*
X190108179Y-146598146D01*
X190715531Y-146896406D01*
X191369401Y-147070447D01*
X192044661Y-147113581D01*
X192715361Y-147024148D01*
X193355725Y-146805587D01*
X193743821Y-146598146D01*
X194067868Y-146165078D01*
X191926000Y-144023210D01*
X189784132Y-146165078D01*
X187734617Y-146165078D01*
X187901411Y-146095990D01*
X188144632Y-145933475D01*
X188351475Y-145726632D01*
X188513990Y-145483411D01*
X188625932Y-145213158D01*
X188683000Y-144926260D01*
X188683000Y-144796594D01*
X188784413Y-145093725D01*
X188991854Y-145481821D01*
X189424922Y-145805868D01*
X191566790Y-143664000D01*
X192285210Y-143664000D01*
X194427078Y-145805868D01*
X194860146Y-145481821D01*
X195158406Y-144874469D01*
X195332447Y-144220599D01*
X195375581Y-143545339D01*
X195286148Y-142874639D01*
X195067587Y-142234275D01*
X194860146Y-141846179D01*
X194427078Y-141522132D01*
X192285210Y-143664000D01*
X191566790Y-143664000D01*
X189424922Y-141522132D01*
X188991854Y-141846179D01*
X188693594Y-142453531D01*
X188519553Y-143107401D01*
X188476419Y-143782661D01*
X188516382Y-144082365D01*
X188513990Y-144076589D01*
X188351475Y-143833368D01*
X188144632Y-143626525D01*
X187901411Y-143464010D01*
X187631158Y-143352068D01*
X187344260Y-143295000D01*
X187051740Y-143295000D01*
X186764842Y-143352068D01*
X186494589Y-143464010D01*
X186251368Y-143626525D01*
X186119513Y-143758380D01*
X186097502Y-143685820D01*
X186038537Y-143575506D01*
X185959185Y-143478815D01*
X185862494Y-143399463D01*
X185752180Y-143340498D01*
X185632482Y-143304188D01*
X185508000Y-143291928D01*
X183808000Y-143291928D01*
X183683518Y-143304188D01*
X183563820Y-143340498D01*
X183453506Y-143399463D01*
X183356815Y-143478815D01*
X183277463Y-143575506D01*
X183218498Y-143685820D01*
X183182188Y-143805518D01*
X183169928Y-143930000D01*
X179814474Y-143930000D01*
X179758618Y-143825503D01*
X179651284Y-143694716D01*
X179520497Y-143587382D01*
X179447679Y-143548459D01*
X179402541Y-143493459D01*
X179371039Y-143467606D01*
X179037887Y-143134455D01*
X179012031Y-143102949D01*
X178886332Y-142999791D01*
X178742924Y-142923137D01*
X178587316Y-142875934D01*
X178466043Y-142863990D01*
X178466040Y-142863990D01*
X178425490Y-142859996D01*
X178384940Y-142863990D01*
X171993442Y-142863990D01*
X176568361Y-138289073D01*
X176515339Y-138463863D01*
X176472186Y-138902000D01*
X176515339Y-139340137D01*
X176643138Y-139761436D01*
X176850674Y-140149707D01*
X177129970Y-140490030D01*
X177470293Y-140769326D01*
X177858564Y-140976862D01*
X178279863Y-141104661D01*
X178608204Y-141137000D01*
X182607336Y-141137000D01*
X182548933Y-141148617D01*
X182342376Y-141234176D01*
X182156480Y-141358388D01*
X181998388Y-141516480D01*
X181874176Y-141702376D01*
X181788617Y-141908933D01*
X181745000Y-142128212D01*
X181745000Y-142351788D01*
X181788617Y-142571067D01*
X181874176Y-142777624D01*
X181998388Y-142963520D01*
X182156480Y-143121612D01*
X182342376Y-143245824D01*
X182548933Y-143331383D01*
X182768212Y-143375000D01*
X182991788Y-143375000D01*
X183211067Y-143331383D01*
X183417624Y-143245824D01*
X183603520Y-143121612D01*
X183659632Y-143065500D01*
X185887450Y-143065500D01*
X185928000Y-143069494D01*
X185968550Y-143065500D01*
X185968553Y-143065500D01*
X186089826Y-143053556D01*
X186245434Y-143006353D01*
X186388842Y-142929699D01*
X186514541Y-142826541D01*
X186540398Y-142795034D01*
X188172510Y-141162922D01*
X189784132Y-141162922D01*
X191926000Y-143304790D01*
X194067868Y-141162922D01*
X193743821Y-140729854D01*
X193136469Y-140431594D01*
X192482599Y-140257553D01*
X191807339Y-140214419D01*
X191136639Y-140303852D01*
X190496275Y-140522413D01*
X190108179Y-140729854D01*
X189784132Y-141162922D01*
X188172510Y-141162922D01*
X193341045Y-135994389D01*
X193372541Y-135968541D01*
X193398389Y-135937045D01*
X193398392Y-135937042D01*
X193475699Y-135842843D01*
X193552353Y-135699434D01*
X193595420Y-135557459D01*
X193599556Y-135543826D01*
X193611500Y-135422553D01*
X193611500Y-135422551D01*
X193615494Y-135382000D01*
X193611500Y-135341450D01*
X193611500Y-116631075D01*
X193708290Y-116710509D01*
X193896780Y-116811259D01*
X194101303Y-116873300D01*
X194260706Y-116889000D01*
X194867294Y-116889000D01*
X195026697Y-116873300D01*
X195231220Y-116811259D01*
X195419710Y-116710509D01*
X195584922Y-116574922D01*
X195720509Y-116409710D01*
X195821259Y-116221220D01*
X195883300Y-116016697D01*
X195904249Y-115804000D01*
X195883300Y-115591303D01*
X195821259Y-115386780D01*
X195754239Y-115261395D01*
X195756618Y-115258497D01*
X195836375Y-115109283D01*
X195885488Y-114947377D01*
X195902072Y-114779000D01*
X195902072Y-114329000D01*
X195885488Y-114160623D01*
X195836375Y-113998717D01*
X195756618Y-113849503D01*
X195649284Y-113718716D01*
X195518497Y-113611382D01*
X195369283Y-113531625D01*
X195207377Y-113482512D01*
X195039000Y-113465928D01*
X194089000Y-113465928D01*
X193920623Y-113482512D01*
X193758717Y-113531625D01*
X193611500Y-113610315D01*
X193611500Y-71922550D01*
X193615494Y-71881999D01*
X193611500Y-71841447D01*
X193599556Y-71720174D01*
X193552353Y-71564566D01*
X193475700Y-71421159D01*
X193475699Y-71421157D01*
X193398391Y-71326958D01*
X193372541Y-71295459D01*
X193341041Y-71269608D01*
X190096398Y-68024966D01*
X190070541Y-67993459D01*
X189944842Y-67890301D01*
X189801434Y-67813647D01*
X189645826Y-67766444D01*
X189524553Y-67754500D01*
X189524550Y-67754500D01*
X189484000Y-67750506D01*
X189443450Y-67754500D01*
X158040992Y-67754500D01*
X157052507Y-66766016D01*
X157248886Y-66634799D01*
X157441799Y-66441886D01*
X157593371Y-66215043D01*
X157636000Y-66112127D01*
X157678629Y-66215043D01*
X157830201Y-66441886D01*
X158023114Y-66634799D01*
X158249957Y-66786371D01*
X158502011Y-66890775D01*
X158769589Y-66944000D01*
X159042411Y-66944000D01*
X159309989Y-66890775D01*
X159562043Y-66786371D01*
X159788886Y-66634799D01*
X159981799Y-66441886D01*
X160133371Y-66215043D01*
X160176000Y-66112127D01*
X160218629Y-66215043D01*
X160370201Y-66441886D01*
X160563114Y-66634799D01*
X160789957Y-66786371D01*
X161042011Y-66890775D01*
X161309589Y-66944000D01*
X161582411Y-66944000D01*
X161849989Y-66890775D01*
X162102043Y-66786371D01*
X162328886Y-66634799D01*
X162521799Y-66441886D01*
X162673371Y-66215043D01*
X162716000Y-66112127D01*
X162758629Y-66215043D01*
X162910201Y-66441886D01*
X163103114Y-66634799D01*
X163329957Y-66786371D01*
X163582011Y-66890775D01*
X163849589Y-66944000D01*
X164122411Y-66944000D01*
X164389989Y-66890775D01*
X164642043Y-66786371D01*
X164868886Y-66634799D01*
X165061799Y-66441886D01*
X165213371Y-66215043D01*
X165256000Y-66112127D01*
X165298629Y-66215043D01*
X165450201Y-66441886D01*
X165643114Y-66634799D01*
X165869957Y-66786371D01*
X166122011Y-66890775D01*
X166389589Y-66944000D01*
X166662411Y-66944000D01*
X166929989Y-66890775D01*
X167182043Y-66786371D01*
X167408886Y-66634799D01*
X167601799Y-66441886D01*
X167753371Y-66215043D01*
X167796000Y-66112127D01*
X167838629Y-66215043D01*
X167990201Y-66441886D01*
X168183114Y-66634799D01*
X168409957Y-66786371D01*
X168662011Y-66890775D01*
X168929589Y-66944000D01*
X169202411Y-66944000D01*
X169469989Y-66890775D01*
X169722043Y-66786371D01*
X169948886Y-66634799D01*
X170141799Y-66441886D01*
X170293371Y-66215043D01*
X170336000Y-66112127D01*
X170378629Y-66215043D01*
X170530201Y-66441886D01*
X170723114Y-66634799D01*
X170949957Y-66786371D01*
X171202011Y-66890775D01*
X171469589Y-66944000D01*
X171742411Y-66944000D01*
X172009989Y-66890775D01*
X172262043Y-66786371D01*
X172488886Y-66634799D01*
X172681799Y-66441886D01*
X172833371Y-66215043D01*
X172876000Y-66112127D01*
X172918629Y-66215043D01*
X173070201Y-66441886D01*
X173263114Y-66634799D01*
X173489957Y-66786371D01*
X173742011Y-66890775D01*
X174009589Y-66944000D01*
X174282411Y-66944000D01*
X174549989Y-66890775D01*
X174802043Y-66786371D01*
X175028886Y-66634799D01*
X175221799Y-66441886D01*
X175373371Y-66215043D01*
X175416000Y-66112127D01*
X175458629Y-66215043D01*
X175610201Y-66441886D01*
X175803114Y-66634799D01*
X176029957Y-66786371D01*
X176282011Y-66890775D01*
X176549589Y-66944000D01*
X176822411Y-66944000D01*
X177089989Y-66890775D01*
X177342043Y-66786371D01*
X177568886Y-66634799D01*
X177761799Y-66441886D01*
X177913371Y-66215043D01*
X177956000Y-66112127D01*
X177998629Y-66215043D01*
X178150201Y-66441886D01*
X178343114Y-66634799D01*
X178569957Y-66786371D01*
X178822011Y-66890775D01*
X179089589Y-66944000D01*
X179362411Y-66944000D01*
X179629989Y-66890775D01*
X179882043Y-66786371D01*
X180108886Y-66634799D01*
X180301799Y-66441886D01*
X180453371Y-66215043D01*
X180496000Y-66112127D01*
X180538629Y-66215043D01*
X180690201Y-66441886D01*
X180883114Y-66634799D01*
X181109957Y-66786371D01*
X181362011Y-66890775D01*
X181629589Y-66944000D01*
X181902411Y-66944000D01*
X182169989Y-66890775D01*
X182422043Y-66786371D01*
X182648886Y-66634799D01*
X182841799Y-66441886D01*
X182993371Y-66215043D01*
X183036000Y-66112127D01*
X183078629Y-66215043D01*
X183230201Y-66441886D01*
X183423114Y-66634799D01*
X183649957Y-66786371D01*
X183902011Y-66890775D01*
X184169589Y-66944000D01*
X184442411Y-66944000D01*
X184709989Y-66890775D01*
X184962043Y-66786371D01*
X185188886Y-66634799D01*
X185381799Y-66441886D01*
X185533371Y-66215043D01*
X185637775Y-65962989D01*
X185691000Y-65695411D01*
X185691000Y-65422589D01*
X185637775Y-65155011D01*
X185533371Y-64902957D01*
X185381799Y-64676114D01*
X185188886Y-64483201D01*
X184962043Y-64331629D01*
X184859127Y-64289000D01*
X184962043Y-64246371D01*
X185188886Y-64094799D01*
X185381799Y-63901886D01*
X185533371Y-63675043D01*
X185637775Y-63422989D01*
X185691000Y-63155411D01*
X185691000Y-62882589D01*
X185637775Y-62615011D01*
X185533371Y-62362957D01*
X185381799Y-62136114D01*
X185188886Y-61943201D01*
X184962043Y-61791629D01*
X184859127Y-61749000D01*
X184962043Y-61706371D01*
X185188886Y-61554799D01*
X185381799Y-61361886D01*
X185533371Y-61135043D01*
X185637775Y-60882989D01*
X185691000Y-60615411D01*
X185691000Y-60440078D01*
X187244132Y-60440078D01*
X187568179Y-60873146D01*
X188175531Y-61171406D01*
X188829401Y-61345447D01*
X189504661Y-61388581D01*
X190175361Y-61299148D01*
X190815725Y-61080587D01*
X191203821Y-60873146D01*
X191527868Y-60440078D01*
X189386000Y-58298210D01*
X187244132Y-60440078D01*
X185691000Y-60440078D01*
X185691000Y-60342589D01*
X185637775Y-60075011D01*
X185533371Y-59822957D01*
X185381799Y-59596114D01*
X185188886Y-59403201D01*
X184962043Y-59251629D01*
X184859127Y-59209000D01*
X184962043Y-59166371D01*
X185188886Y-59014799D01*
X185381799Y-58821886D01*
X185533371Y-58595043D01*
X185637775Y-58342989D01*
X185691000Y-58075411D01*
X185691000Y-58057661D01*
X185936419Y-58057661D01*
X186025852Y-58728361D01*
X186244413Y-59368725D01*
X186451854Y-59756821D01*
X186884922Y-60080868D01*
X189026790Y-57939000D01*
X189745210Y-57939000D01*
X191887078Y-60080868D01*
X192320146Y-59756821D01*
X192618406Y-59149469D01*
X192792447Y-58495599D01*
X192835581Y-57820339D01*
X192746148Y-57149639D01*
X192527587Y-56509275D01*
X192320146Y-56121179D01*
X191887078Y-55797132D01*
X189745210Y-57939000D01*
X189026790Y-57939000D01*
X186884922Y-55797132D01*
X186451854Y-56121179D01*
X186153594Y-56728531D01*
X185979553Y-57382401D01*
X185936419Y-58057661D01*
X185691000Y-58057661D01*
X185691000Y-57802589D01*
X185637775Y-57535011D01*
X185533371Y-57282957D01*
X185381799Y-57056114D01*
X185188886Y-56863201D01*
X184962043Y-56711629D01*
X184709989Y-56607225D01*
X184442411Y-56554000D01*
X184169589Y-56554000D01*
X183902011Y-56607225D01*
X183649957Y-56711629D01*
X183423114Y-56863201D01*
X183230201Y-57056114D01*
X183078629Y-57282957D01*
X183036000Y-57385873D01*
X182993371Y-57282957D01*
X182841799Y-57056114D01*
X182648886Y-56863201D01*
X182422043Y-56711629D01*
X182169989Y-56607225D01*
X181902411Y-56554000D01*
X181629589Y-56554000D01*
X181362011Y-56607225D01*
X181109957Y-56711629D01*
X180883114Y-56863201D01*
X180690201Y-57056114D01*
X180538629Y-57282957D01*
X180496000Y-57385873D01*
X180453371Y-57282957D01*
X180301799Y-57056114D01*
X180108886Y-56863201D01*
X179882043Y-56711629D01*
X179629989Y-56607225D01*
X179362411Y-56554000D01*
X179089589Y-56554000D01*
X178822011Y-56607225D01*
X178569957Y-56711629D01*
X178343114Y-56863201D01*
X178150201Y-57056114D01*
X177998629Y-57282957D01*
X177956000Y-57385873D01*
X177913371Y-57282957D01*
X177761799Y-57056114D01*
X177568886Y-56863201D01*
X177342043Y-56711629D01*
X177089989Y-56607225D01*
X176822411Y-56554000D01*
X176549589Y-56554000D01*
X176282011Y-56607225D01*
X176029957Y-56711629D01*
X175803114Y-56863201D01*
X175610201Y-57056114D01*
X175458629Y-57282957D01*
X175416000Y-57385873D01*
X175373371Y-57282957D01*
X175221799Y-57056114D01*
X175028886Y-56863201D01*
X174802043Y-56711629D01*
X174549989Y-56607225D01*
X174282411Y-56554000D01*
X174009589Y-56554000D01*
X173742011Y-56607225D01*
X173489957Y-56711629D01*
X173263114Y-56863201D01*
X173070201Y-57056114D01*
X172918629Y-57282957D01*
X172876000Y-57385873D01*
X172833371Y-57282957D01*
X172681799Y-57056114D01*
X172488886Y-56863201D01*
X172262043Y-56711629D01*
X172009989Y-56607225D01*
X171742411Y-56554000D01*
X171469589Y-56554000D01*
X171202011Y-56607225D01*
X170949957Y-56711629D01*
X170723114Y-56863201D01*
X170530201Y-57056114D01*
X170378629Y-57282957D01*
X170336000Y-57385873D01*
X170293371Y-57282957D01*
X170141799Y-57056114D01*
X169948886Y-56863201D01*
X169722043Y-56711629D01*
X169469989Y-56607225D01*
X169202411Y-56554000D01*
X168929589Y-56554000D01*
X168662011Y-56607225D01*
X168409957Y-56711629D01*
X168183114Y-56863201D01*
X167990201Y-57056114D01*
X167838629Y-57282957D01*
X167796000Y-57385873D01*
X167753371Y-57282957D01*
X167601799Y-57056114D01*
X167408886Y-56863201D01*
X167182043Y-56711629D01*
X166929989Y-56607225D01*
X166662411Y-56554000D01*
X166389589Y-56554000D01*
X166122011Y-56607225D01*
X165869957Y-56711629D01*
X165643114Y-56863201D01*
X165450201Y-57056114D01*
X165298629Y-57282957D01*
X165256000Y-57385873D01*
X165213371Y-57282957D01*
X165061799Y-57056114D01*
X164868886Y-56863201D01*
X164642043Y-56711629D01*
X164389989Y-56607225D01*
X164122411Y-56554000D01*
X163849589Y-56554000D01*
X163582011Y-56607225D01*
X163329957Y-56711629D01*
X163103114Y-56863201D01*
X162910201Y-57056114D01*
X162758629Y-57282957D01*
X162716000Y-57385873D01*
X162673371Y-57282957D01*
X162521799Y-57056114D01*
X162328886Y-56863201D01*
X162102043Y-56711629D01*
X161849989Y-56607225D01*
X161582411Y-56554000D01*
X161309589Y-56554000D01*
X161042011Y-56607225D01*
X160789957Y-56711629D01*
X160563114Y-56863201D01*
X160370201Y-57056114D01*
X160218629Y-57282957D01*
X160172737Y-57393750D01*
X160095453Y-57229455D01*
X159934173Y-57011038D01*
X159733381Y-56828282D01*
X159500793Y-56688210D01*
X159369860Y-56633987D01*
X159160000Y-56739345D01*
X159160000Y-57685000D01*
X159180000Y-57685000D01*
X159180000Y-58193000D01*
X159160000Y-58193000D01*
X159160000Y-59138655D01*
X159300118Y-59209000D01*
X159160000Y-59279345D01*
X159160000Y-60225000D01*
X159180000Y-60225000D01*
X159180000Y-60733000D01*
X159160000Y-60733000D01*
X159160000Y-60753000D01*
X158652000Y-60753000D01*
X158652000Y-60733000D01*
X157703230Y-60733000D01*
X157636000Y-60870981D01*
X157568770Y-60733000D01*
X156620000Y-60733000D01*
X156620000Y-60753000D01*
X156112000Y-60753000D01*
X156112000Y-60733000D01*
X156092000Y-60733000D01*
X156092000Y-60225000D01*
X156112000Y-60225000D01*
X156112000Y-59279345D01*
X155971882Y-59209000D01*
X156112000Y-59138655D01*
X156112000Y-58193000D01*
X156620000Y-58193000D01*
X156620000Y-59138655D01*
X156760118Y-59209000D01*
X156620000Y-59279345D01*
X156620000Y-60225000D01*
X157568770Y-60225000D01*
X157636000Y-60087019D01*
X157703230Y-60225000D01*
X158652000Y-60225000D01*
X158652000Y-59279345D01*
X158511882Y-59209000D01*
X158652000Y-59138655D01*
X158652000Y-58193000D01*
X157703230Y-58193000D01*
X157636000Y-58330981D01*
X157568770Y-58193000D01*
X156620000Y-58193000D01*
X156112000Y-58193000D01*
X156092000Y-58193000D01*
X156092000Y-57685000D01*
X156112000Y-57685000D01*
X156112000Y-56739345D01*
X156620000Y-56739345D01*
X156620000Y-57685000D01*
X157568770Y-57685000D01*
X157636000Y-57547019D01*
X157703230Y-57685000D01*
X158652000Y-57685000D01*
X158652000Y-56739345D01*
X158442140Y-56633987D01*
X158311207Y-56688210D01*
X158078619Y-56828282D01*
X157877827Y-57011038D01*
X157716547Y-57229455D01*
X157636000Y-57400686D01*
X157555453Y-57229455D01*
X157394173Y-57011038D01*
X157193381Y-56828282D01*
X156960793Y-56688210D01*
X156829860Y-56633987D01*
X156620000Y-56739345D01*
X156112000Y-56739345D01*
X155902140Y-56633987D01*
X155771207Y-56688210D01*
X155538619Y-56828282D01*
X155337827Y-57011038D01*
X155176547Y-57229455D01*
X155099263Y-57393750D01*
X155053371Y-57282957D01*
X154901799Y-57056114D01*
X154708886Y-56863201D01*
X154482043Y-56711629D01*
X154229989Y-56607225D01*
X153962411Y-56554000D01*
X153689589Y-56554000D01*
X153422011Y-56607225D01*
X153169957Y-56711629D01*
X152943114Y-56863201D01*
X152750201Y-57056114D01*
X152598629Y-57282957D01*
X152556000Y-57385873D01*
X152513371Y-57282957D01*
X152361799Y-57056114D01*
X152168886Y-56863201D01*
X151942043Y-56711629D01*
X151689989Y-56607225D01*
X151422411Y-56554000D01*
X151149589Y-56554000D01*
X150882011Y-56607225D01*
X150629957Y-56711629D01*
X150403114Y-56863201D01*
X150210201Y-57056114D01*
X150058629Y-57282957D01*
X150016000Y-57385873D01*
X149973371Y-57282957D01*
X149821799Y-57056114D01*
X149628886Y-56863201D01*
X149402043Y-56711629D01*
X149149989Y-56607225D01*
X148882411Y-56554000D01*
X148609589Y-56554000D01*
X148342011Y-56607225D01*
X148089957Y-56711629D01*
X147863114Y-56863201D01*
X147670201Y-57056114D01*
X147518629Y-57282957D01*
X147472737Y-57393750D01*
X147395453Y-57229455D01*
X147234173Y-57011038D01*
X147033381Y-56828282D01*
X146800793Y-56688210D01*
X146669860Y-56633987D01*
X146460000Y-56739345D01*
X146460000Y-57685000D01*
X146480000Y-57685000D01*
X146480000Y-58193000D01*
X146460000Y-58193000D01*
X146460000Y-59138655D01*
X146600118Y-59209000D01*
X146460000Y-59279345D01*
X146460000Y-60225000D01*
X146480000Y-60225000D01*
X146480000Y-60733000D01*
X146460000Y-60733000D01*
X146460000Y-60753000D01*
X145952000Y-60753000D01*
X145952000Y-60733000D01*
X145932000Y-60733000D01*
X145932000Y-60225000D01*
X145952000Y-60225000D01*
X145952000Y-59279345D01*
X145811882Y-59209000D01*
X145952000Y-59138655D01*
X145952000Y-58193000D01*
X145932000Y-58193000D01*
X145932000Y-57685000D01*
X145952000Y-57685000D01*
X145952000Y-56739345D01*
X145742140Y-56633987D01*
X145611207Y-56688210D01*
X145378619Y-56828282D01*
X145177827Y-57011038D01*
X145016547Y-57229455D01*
X144939263Y-57393750D01*
X144893371Y-57282957D01*
X144741799Y-57056114D01*
X144548886Y-56863201D01*
X144322043Y-56711629D01*
X144069989Y-56607225D01*
X143802411Y-56554000D01*
X143529589Y-56554000D01*
X143262011Y-56607225D01*
X143009957Y-56711629D01*
X142783114Y-56863201D01*
X142590201Y-57056114D01*
X142438629Y-57282957D01*
X142396000Y-57385873D01*
X142353371Y-57282957D01*
X142201799Y-57056114D01*
X142008886Y-56863201D01*
X141782043Y-56711629D01*
X141529989Y-56607225D01*
X141262411Y-56554000D01*
X140989589Y-56554000D01*
X140722011Y-56607225D01*
X140469957Y-56711629D01*
X140243114Y-56863201D01*
X140050201Y-57056114D01*
X139898629Y-57282957D01*
X139856000Y-57385873D01*
X139813371Y-57282957D01*
X139661799Y-57056114D01*
X139468886Y-56863201D01*
X139242043Y-56711629D01*
X138989989Y-56607225D01*
X138722411Y-56554000D01*
X138449589Y-56554000D01*
X138182011Y-56607225D01*
X137929957Y-56711629D01*
X137703114Y-56863201D01*
X137510201Y-57056114D01*
X137358629Y-57282957D01*
X137316000Y-57385873D01*
X137273371Y-57282957D01*
X137121799Y-57056114D01*
X136928886Y-56863201D01*
X136702043Y-56711629D01*
X136449989Y-56607225D01*
X136182411Y-56554000D01*
X135909589Y-56554000D01*
X135642011Y-56607225D01*
X135389957Y-56711629D01*
X135163114Y-56863201D01*
X134970201Y-57056114D01*
X134818629Y-57282957D01*
X134776000Y-57385873D01*
X134733371Y-57282957D01*
X134581799Y-57056114D01*
X134388886Y-56863201D01*
X134162043Y-56711629D01*
X133909989Y-56607225D01*
X133642411Y-56554000D01*
X133369589Y-56554000D01*
X133102011Y-56607225D01*
X132849957Y-56711629D01*
X132623114Y-56863201D01*
X132430201Y-57056114D01*
X132278629Y-57282957D01*
X132236000Y-57385873D01*
X132193371Y-57282957D01*
X132041799Y-57056114D01*
X131848886Y-56863201D01*
X131622043Y-56711629D01*
X131369989Y-56607225D01*
X131102411Y-56554000D01*
X130829589Y-56554000D01*
X130562011Y-56607225D01*
X130309957Y-56711629D01*
X130083114Y-56863201D01*
X129890201Y-57056114D01*
X129738629Y-57282957D01*
X129696000Y-57385873D01*
X129653371Y-57282957D01*
X129501799Y-57056114D01*
X129308886Y-56863201D01*
X129082043Y-56711629D01*
X128829989Y-56607225D01*
X128562411Y-56554000D01*
X128289589Y-56554000D01*
X128022011Y-56607225D01*
X127769957Y-56711629D01*
X127543114Y-56863201D01*
X127350201Y-57056114D01*
X127198629Y-57282957D01*
X127156000Y-57385873D01*
X127113371Y-57282957D01*
X126961799Y-57056114D01*
X126768886Y-56863201D01*
X126542043Y-56711629D01*
X126289989Y-56607225D01*
X126022411Y-56554000D01*
X125749589Y-56554000D01*
X125482011Y-56607225D01*
X125229957Y-56711629D01*
X125003114Y-56863201D01*
X124810201Y-57056114D01*
X124658629Y-57282957D01*
X124616000Y-57385873D01*
X124573371Y-57282957D01*
X124421799Y-57056114D01*
X124228886Y-56863201D01*
X124002043Y-56711629D01*
X123749989Y-56607225D01*
X123482411Y-56554000D01*
X123209589Y-56554000D01*
X122942011Y-56607225D01*
X122689957Y-56711629D01*
X122463114Y-56863201D01*
X122270201Y-57056114D01*
X122118629Y-57282957D01*
X122076000Y-57385873D01*
X122033371Y-57282957D01*
X121881799Y-57056114D01*
X121688886Y-56863201D01*
X121462043Y-56711629D01*
X121209989Y-56607225D01*
X120942411Y-56554000D01*
X120669589Y-56554000D01*
X120402011Y-56607225D01*
X120149957Y-56711629D01*
X119923114Y-56863201D01*
X119730201Y-57056114D01*
X119578629Y-57282957D01*
X119474225Y-57535011D01*
X119421000Y-57802589D01*
X119421000Y-58075411D01*
X119474225Y-58342989D01*
X119578629Y-58595043D01*
X119730201Y-58821886D01*
X119923114Y-59014799D01*
X120039483Y-59092555D01*
X119931518Y-59103188D01*
X119811820Y-59139498D01*
X119701506Y-59198463D01*
X119604815Y-59277815D01*
X119525463Y-59374506D01*
X119466498Y-59484820D01*
X119430188Y-59604518D01*
X119417928Y-59729000D01*
X119417928Y-61229000D01*
X119430188Y-61353482D01*
X119466498Y-61473180D01*
X119525463Y-61583494D01*
X119604815Y-61680185D01*
X119701506Y-61759537D01*
X119811820Y-61818502D01*
X119931518Y-61854812D01*
X120039483Y-61865445D01*
X119923114Y-61943201D01*
X119730201Y-62136114D01*
X119578629Y-62362957D01*
X119474225Y-62615011D01*
X119421000Y-62882589D01*
X119421000Y-63155411D01*
X119474225Y-63422989D01*
X119578629Y-63675043D01*
X119730201Y-63901886D01*
X119923114Y-64094799D01*
X120039483Y-64172555D01*
X119931518Y-64183188D01*
X119811820Y-64219498D01*
X119701506Y-64278463D01*
X119604815Y-64357815D01*
X119525463Y-64454506D01*
X119466498Y-64564820D01*
X119430188Y-64684518D01*
X119417928Y-64809000D01*
X119417928Y-66309000D01*
X119430188Y-66433482D01*
X119466498Y-66553180D01*
X119525463Y-66663494D01*
X119604815Y-66760185D01*
X119701506Y-66839537D01*
X119811820Y-66898502D01*
X119931518Y-66934812D01*
X120056000Y-66947072D01*
X121556000Y-66947072D01*
X121680482Y-66934812D01*
X121800180Y-66898502D01*
X121910494Y-66839537D01*
X122007185Y-66760185D01*
X122086537Y-66663494D01*
X122145502Y-66553180D01*
X122181812Y-66433482D01*
X122192445Y-66325517D01*
X122270201Y-66441886D01*
X122463114Y-66634799D01*
X122689957Y-66786371D01*
X122942011Y-66890775D01*
X123209589Y-66944000D01*
X123482411Y-66944000D01*
X123749989Y-66890775D01*
X124002043Y-66786371D01*
X124228886Y-66634799D01*
X124421799Y-66441886D01*
X124573371Y-66215043D01*
X124616000Y-66112127D01*
X124658629Y-66215043D01*
X124810201Y-66441886D01*
X125003114Y-66634799D01*
X125229957Y-66786371D01*
X125482011Y-66890775D01*
X125749589Y-66944000D01*
X126022411Y-66944000D01*
X126289989Y-66890775D01*
X126542043Y-66786371D01*
X126768886Y-66634799D01*
X126961799Y-66441886D01*
X127113371Y-66215043D01*
X127156000Y-66112127D01*
X127198629Y-66215043D01*
X127350201Y-66441886D01*
X127543114Y-66634799D01*
X127769957Y-66786371D01*
X128022011Y-66890775D01*
X128289589Y-66944000D01*
X128562411Y-66944000D01*
X128829989Y-66890775D01*
X129082043Y-66786371D01*
X129308886Y-66634799D01*
X129501799Y-66441886D01*
X129653371Y-66215043D01*
X129696000Y-66112127D01*
X129738629Y-66215043D01*
X129890201Y-66441886D01*
X130083114Y-66634799D01*
X130309957Y-66786371D01*
X130562011Y-66890775D01*
X130829589Y-66944000D01*
X131102411Y-66944000D01*
X131369989Y-66890775D01*
X131622043Y-66786371D01*
X131848886Y-66634799D01*
X132041799Y-66441886D01*
X132193371Y-66215043D01*
X132236000Y-66112127D01*
X132278629Y-66215043D01*
X132430201Y-66441886D01*
X132623114Y-66634799D01*
X132849957Y-66786371D01*
X133102011Y-66890775D01*
X133369589Y-66944000D01*
X133642411Y-66944000D01*
X133909989Y-66890775D01*
X134162043Y-66786371D01*
X134388886Y-66634799D01*
X134581799Y-66441886D01*
X134733371Y-66215043D01*
X134776000Y-66112127D01*
X134818629Y-66215043D01*
X134970201Y-66441886D01*
X135163114Y-66634799D01*
X135389957Y-66786371D01*
X135642011Y-66890775D01*
X135909589Y-66944000D01*
X136182411Y-66944000D01*
X136449989Y-66890775D01*
X136702043Y-66786371D01*
X136928886Y-66634799D01*
X137121799Y-66441886D01*
X137273371Y-66215043D01*
X137316000Y-66112127D01*
X137358629Y-66215043D01*
X137510201Y-66441886D01*
X137703114Y-66634799D01*
X137929957Y-66786371D01*
X138182011Y-66890775D01*
X138449589Y-66944000D01*
X138722411Y-66944000D01*
X138989989Y-66890775D01*
X139242043Y-66786371D01*
X139468886Y-66634799D01*
X139661799Y-66441886D01*
X139813371Y-66215043D01*
X139856000Y-66112127D01*
X139898629Y-66215043D01*
X140050201Y-66441886D01*
X140243114Y-66634799D01*
X140469957Y-66786371D01*
X140722011Y-66890775D01*
X140989589Y-66944000D01*
X141262411Y-66944000D01*
X141529989Y-66890775D01*
X141782043Y-66786371D01*
X142008886Y-66634799D01*
X142201799Y-66441886D01*
X142353371Y-66215043D01*
X142396000Y-66112127D01*
X142438629Y-66215043D01*
X142590201Y-66441886D01*
X142783114Y-66634799D01*
X143009957Y-66786371D01*
X143262011Y-66890775D01*
X143529589Y-66944000D01*
X143802411Y-66944000D01*
X144069989Y-66890775D01*
X144322043Y-66786371D01*
X144548886Y-66634799D01*
X144741799Y-66441886D01*
X144893371Y-66215043D01*
X144936000Y-66112127D01*
X144978629Y-66215043D01*
X145130201Y-66441886D01*
X145323114Y-66634799D01*
X145549957Y-66786371D01*
X145802011Y-66890775D01*
X146069589Y-66944000D01*
X146342411Y-66944000D01*
X146609989Y-66890775D01*
X146862043Y-66786371D01*
X147088886Y-66634799D01*
X147281799Y-66441886D01*
X147433371Y-66215043D01*
X147476000Y-66112127D01*
X147518629Y-66215043D01*
X147670201Y-66441886D01*
X147863114Y-66634799D01*
X148089957Y-66786371D01*
X148342011Y-66890775D01*
X148609589Y-66944000D01*
X148882411Y-66944000D01*
X149149989Y-66890775D01*
X149402043Y-66786371D01*
X149628886Y-66634799D01*
X149821799Y-66441886D01*
X149973371Y-66215043D01*
X150016000Y-66112127D01*
X150058629Y-66215043D01*
X150210201Y-66441886D01*
X150403114Y-66634799D01*
X150629957Y-66786371D01*
X150882011Y-66890775D01*
X151149589Y-66944000D01*
X151422411Y-66944000D01*
X151689989Y-66890775D01*
X151942043Y-66786371D01*
X152116434Y-66669846D01*
X152883565Y-67436978D01*
X152756226Y-67522063D01*
X152714289Y-67564000D01*
X131863422Y-67564000D01*
X131825999Y-67560314D01*
X131788576Y-67564000D01*
X131788574Y-67564000D01*
X131775789Y-67565259D01*
X131673939Y-67545000D01*
X131470061Y-67545000D01*
X131270102Y-67584774D01*
X131081744Y-67662795D01*
X130912226Y-67776063D01*
X130768063Y-67920226D01*
X130654795Y-68089744D01*
X130576774Y-68278102D01*
X130537000Y-68478061D01*
X130537000Y-68681939D01*
X130576774Y-68881898D01*
X130654795Y-69070256D01*
X130768063Y-69239774D01*
X130912226Y-69383937D01*
X131081744Y-69497205D01*
X131270102Y-69575226D01*
X131470061Y-69615000D01*
X131673939Y-69615000D01*
X131873898Y-69575226D01*
X132062256Y-69497205D01*
X132231774Y-69383937D01*
X132375937Y-69239774D01*
X132477349Y-69088000D01*
X137273315Y-69088000D01*
X136997970Y-69313970D01*
X136736969Y-69632000D01*
X127169031Y-69632000D01*
X126908030Y-69313970D01*
X126567707Y-69034674D01*
X126179436Y-68827138D01*
X125758137Y-68699339D01*
X125429796Y-68667000D01*
X118410204Y-68667000D01*
X118081863Y-68699339D01*
X117660564Y-68827138D01*
X117272293Y-69034674D01*
X116931970Y-69313970D01*
X116652674Y-69654293D01*
X116445138Y-70042564D01*
X116317339Y-70463863D01*
X116274186Y-70902000D01*
X116317339Y-71340137D01*
X116445138Y-71761436D01*
X116652674Y-72149707D01*
X116931970Y-72490030D01*
X117272293Y-72769326D01*
X117660564Y-72976862D01*
X118081863Y-73104661D01*
X118099187Y-73106367D01*
X113023483Y-78182072D01*
X112979867Y-78217867D01*
X112837032Y-78391912D01*
X112730897Y-78590478D01*
X112665539Y-78805934D01*
X112649000Y-78973855D01*
X112649000Y-78973861D01*
X112643471Y-79030000D01*
X112649000Y-79086139D01*
X112649000Y-87210529D01*
X112569900Y-87177764D01*
X112522000Y-87168236D01*
X112522000Y-79793423D01*
X112525686Y-79756000D01*
X112522000Y-79718574D01*
X112510974Y-79606622D01*
X112467402Y-79462985D01*
X112433768Y-79400061D01*
X112396645Y-79330607D01*
X112361857Y-79288219D01*
X112301422Y-79214578D01*
X112272347Y-79190717D01*
X110407679Y-77326049D01*
X110451000Y-77108260D01*
X110451000Y-76815740D01*
X110393932Y-76528842D01*
X110281990Y-76258589D01*
X110119475Y-76015368D01*
X109912632Y-75808525D01*
X109669411Y-75646010D01*
X109399158Y-75534068D01*
X109112260Y-75477000D01*
X108819740Y-75477000D01*
X108532842Y-75534068D01*
X108262589Y-75646010D01*
X108019368Y-75808525D01*
X107812525Y-76015368D01*
X107650010Y-76258589D01*
X107538068Y-76528842D01*
X107521000Y-76614648D01*
X107521000Y-60440078D01*
X113584132Y-60440078D01*
X113908179Y-60873146D01*
X114515531Y-61171406D01*
X115169401Y-61345447D01*
X115844661Y-61388581D01*
X116515361Y-61299148D01*
X117155725Y-61080587D01*
X117543821Y-60873146D01*
X117867868Y-60440078D01*
X115726000Y-58298210D01*
X113584132Y-60440078D01*
X107521000Y-60440078D01*
X107521000Y-58057661D01*
X112276419Y-58057661D01*
X112365852Y-58728361D01*
X112584413Y-59368725D01*
X112791854Y-59756821D01*
X113224922Y-60080868D01*
X115366790Y-57939000D01*
X116085210Y-57939000D01*
X118227078Y-60080868D01*
X118660146Y-59756821D01*
X118958406Y-59149469D01*
X119132447Y-58495599D01*
X119175581Y-57820339D01*
X119086148Y-57149639D01*
X118867587Y-56509275D01*
X118660146Y-56121179D01*
X118227078Y-55797132D01*
X116085210Y-57939000D01*
X115366790Y-57939000D01*
X113224922Y-55797132D01*
X112791854Y-56121179D01*
X112493594Y-56728531D01*
X112319553Y-57382401D01*
X112276419Y-58057661D01*
X107521000Y-58057661D01*
X107521000Y-55437922D01*
X113584132Y-55437922D01*
X115726000Y-57579790D01*
X117867868Y-55437922D01*
X187244132Y-55437922D01*
X189386000Y-57579790D01*
X191527868Y-55437922D01*
X191203821Y-55004854D01*
X190596469Y-54706594D01*
X189942599Y-54532553D01*
X189267339Y-54489419D01*
X188596639Y-54578852D01*
X187956275Y-54797413D01*
X187568179Y-55004854D01*
X187244132Y-55437922D01*
X117867868Y-55437922D01*
X117543821Y-55004854D01*
X116936469Y-54706594D01*
X116282599Y-54532553D01*
X115607339Y-54489419D01*
X114936639Y-54578852D01*
X114296275Y-54797413D01*
X113908179Y-55004854D01*
X113584132Y-55437922D01*
X107521000Y-55437922D01*
X107521000Y-53544000D01*
X196321000Y-53544000D01*
X196321001Y-148059000D01*
G37*
%TD.AperFunction*%
D31*
X191960500Y-72223933D02*
X191960501Y-135040065D01*
X187727241Y-139273326D01*
X187763814Y-138902000D01*
X187720661Y-138463863D01*
X187592862Y-138042564D01*
X187385326Y-137654293D01*
X187106030Y-137313970D01*
X186765707Y-137034674D01*
X186377436Y-136827138D01*
X185956137Y-136699339D01*
X185627796Y-136667000D01*
X178608204Y-136667000D01*
X178279863Y-136699339D01*
X178071275Y-136762613D01*
X178073000Y-136753939D01*
X178073000Y-136550061D01*
X178033226Y-136350102D01*
X177955205Y-136161744D01*
X177841937Y-135992226D01*
X177697774Y-135848063D01*
X177570468Y-135763000D01*
X177697774Y-135677937D01*
X177841937Y-135533774D01*
X177955205Y-135364256D01*
X178033226Y-135175898D01*
X178073000Y-134975939D01*
X178073000Y-134772061D01*
X178033226Y-134572102D01*
X177955205Y-134383744D01*
X177841937Y-134214226D01*
X177697774Y-134070063D01*
X177528256Y-133956795D01*
X177339898Y-133878774D01*
X177139939Y-133839000D01*
X176936061Y-133839000D01*
X176736102Y-133878774D01*
X176547744Y-133956795D01*
X176378226Y-134070063D01*
X176234063Y-134214226D01*
X176120795Y-134383744D01*
X176042774Y-134572102D01*
X176010572Y-134733994D01*
X169838068Y-140906500D01*
X168188550Y-140906500D01*
X168148000Y-140902506D01*
X168107449Y-140906500D01*
X168107447Y-140906500D01*
X167986174Y-140918444D01*
X167830566Y-140965647D01*
X167687157Y-141042301D01*
X167654208Y-141069342D01*
X167561459Y-141145459D01*
X167535608Y-141176959D01*
X165420640Y-143291928D01*
X164250000Y-143291928D01*
X164125518Y-143304188D01*
X164005820Y-143340498D01*
X163895506Y-143399463D01*
X163798815Y-143478815D01*
X163719463Y-143575506D01*
X163660498Y-143685820D01*
X163624188Y-143805518D01*
X163611928Y-143930000D01*
X163611928Y-145630000D01*
X163624188Y-145754482D01*
X163660498Y-145874180D01*
X163719463Y-145984494D01*
X163798815Y-146081185D01*
X163895506Y-146160537D01*
X164005820Y-146219502D01*
X164125518Y-146255812D01*
X164250000Y-146268072D01*
X165950000Y-146268072D01*
X166074482Y-146255812D01*
X166194180Y-146219502D01*
X166304494Y-146160537D01*
X166401185Y-146081185D01*
X166480537Y-145984494D01*
X166539502Y-145874180D01*
X166561513Y-145801620D01*
X166693368Y-145933475D01*
X166936589Y-146095990D01*
X166976138Y-146112372D01*
X166086010Y-147002500D01*
X149820932Y-147002500D01*
X151619823Y-145203609D01*
X156429446Y-145203609D01*
X156483886Y-145409128D01*
X156577375Y-145600077D01*
X156706319Y-145769118D01*
X156865764Y-145909756D01*
X157049583Y-146016585D01*
X157084112Y-146032129D01*
X157246000Y-145920743D01*
X157246000Y-145034000D01*
X156574218Y-145034000D01*
X156429446Y-145203609D01*
X151619823Y-145203609D01*
X152308443Y-144514990D01*
X156564820Y-144514990D01*
X156574218Y-144526000D01*
X157246000Y-144526000D01*
X157246000Y-144514990D01*
X157661928Y-144514990D01*
X157661928Y-145255000D01*
X157678512Y-145423377D01*
X157727625Y-145585283D01*
X157754000Y-145634627D01*
X157754000Y-145920743D01*
X157915888Y-146032129D01*
X157950417Y-146016585D01*
X158037447Y-145966006D01*
X158045503Y-145972618D01*
X158194717Y-146052375D01*
X158356623Y-146101488D01*
X158525000Y-146118072D01*
X158975000Y-146118072D01*
X159143377Y-146101488D01*
X159305283Y-146052375D01*
X159454497Y-145972618D01*
X159585284Y-145865284D01*
X159692618Y-145734497D01*
X159772375Y-145585283D01*
X159821488Y-145423377D01*
X159838072Y-145255000D01*
X159838072Y-144305000D01*
X159821488Y-144136623D01*
X159772375Y-143974717D01*
X159692618Y-143825503D01*
X159585284Y-143694716D01*
X159454497Y-143587382D01*
X159381679Y-143548459D01*
X159336541Y-143493459D01*
X159305039Y-143467606D01*
X158971887Y-143134455D01*
X158946031Y-143102949D01*
X158820332Y-142999791D01*
X158676924Y-142923137D01*
X158521316Y-142875934D01*
X158400043Y-142863990D01*
X158400040Y-142863990D01*
X158359490Y-142859996D01*
X158318940Y-142863990D01*
X152007060Y-142863990D01*
X151966509Y-142859996D01*
X151925959Y-142863990D01*
X151925957Y-142863990D01*
X151804684Y-142875934D01*
X151649076Y-142923137D01*
X151573526Y-142963520D01*
X151505667Y-142999791D01*
X151465891Y-143032435D01*
X151379969Y-143102949D01*
X151354116Y-143134451D01*
X149242159Y-145246408D01*
X149255932Y-145213158D01*
X149313000Y-144926260D01*
X149313000Y-144633740D01*
X149284578Y-144490854D01*
X151471933Y-142303500D01*
X165816141Y-142303500D01*
X165856691Y-142307494D01*
X165897241Y-142303500D01*
X165897244Y-142303500D01*
X166018517Y-142291556D01*
X166174125Y-142244353D01*
X166317533Y-142167699D01*
X166443232Y-142064541D01*
X166469089Y-142033034D01*
X169211045Y-139291080D01*
X169242541Y-139265232D01*
X169268389Y-139233736D01*
X169268392Y-139233733D01*
X169345699Y-139139534D01*
X169422353Y-138996125D01*
X169434221Y-138957000D01*
X169469556Y-138840517D01*
X169481500Y-138719244D01*
X169481500Y-138719242D01*
X169485494Y-138678691D01*
X169481500Y-138638141D01*
X169481500Y-137787503D01*
X169573205Y-137650256D01*
X169651226Y-137461898D01*
X169691000Y-137261939D01*
X169691000Y-137058061D01*
X169651226Y-136858102D01*
X169573205Y-136669744D01*
X169459937Y-136500226D01*
X169315774Y-136356063D01*
X169146256Y-136242795D01*
X168957898Y-136164774D01*
X168757939Y-136125000D01*
X168554061Y-136125000D01*
X168354102Y-136164774D01*
X168165744Y-136242795D01*
X167996226Y-136356063D01*
X167852063Y-136500226D01*
X167738795Y-136669744D01*
X167660774Y-136858102D01*
X167621000Y-137058061D01*
X167621000Y-137261939D01*
X167660774Y-137461898D01*
X167738795Y-137650256D01*
X167830500Y-137787503D01*
X167830501Y-138336756D01*
X167659030Y-138508227D01*
X167654661Y-138463863D01*
X167526862Y-138042564D01*
X167319326Y-137654293D01*
X167040030Y-137313970D01*
X166699707Y-137034674D01*
X166311436Y-136827138D01*
X165890137Y-136699339D01*
X165561796Y-136667000D01*
X158886433Y-136667000D01*
X160818958Y-134734475D01*
X160865522Y-134734475D01*
X161002769Y-134826180D01*
X161191127Y-134904201D01*
X161391086Y-134943975D01*
X161594964Y-134943975D01*
X161794923Y-134904201D01*
X161983281Y-134826180D01*
X162152799Y-134712912D01*
X162296962Y-134568749D01*
X162304737Y-134557112D01*
X162326774Y-134667898D01*
X162404795Y-134856256D01*
X162518063Y-135025774D01*
X162662226Y-135169937D01*
X162831744Y-135283205D01*
X163020102Y-135361226D01*
X163220061Y-135401000D01*
X163423939Y-135401000D01*
X163623898Y-135361226D01*
X163812256Y-135283205D01*
X163981774Y-135169937D01*
X164125937Y-135025774D01*
X164239205Y-134856256D01*
X164317226Y-134667898D01*
X164357000Y-134467939D01*
X164357000Y-134264061D01*
X164317226Y-134064102D01*
X164239205Y-133875744D01*
X164125937Y-133706226D01*
X163981774Y-133562063D01*
X163812256Y-133448795D01*
X163623898Y-133370774D01*
X163462005Y-133338572D01*
X159726933Y-129603500D01*
X177759450Y-129603500D01*
X177800000Y-129607494D01*
X177840550Y-129603500D01*
X177840553Y-129603500D01*
X177961826Y-129591556D01*
X178117434Y-129544353D01*
X178260842Y-129467699D01*
X178386541Y-129364541D01*
X178412398Y-129333034D01*
X180530501Y-127214932D01*
X180530501Y-129166496D01*
X180438795Y-129303744D01*
X180360774Y-129492102D01*
X180321000Y-129692061D01*
X180321000Y-129895939D01*
X180360774Y-130095898D01*
X180438795Y-130284256D01*
X180552063Y-130453774D01*
X180696226Y-130597937D01*
X180865744Y-130711205D01*
X181054102Y-130789226D01*
X181254061Y-130829000D01*
X181457939Y-130829000D01*
X181657898Y-130789226D01*
X181846256Y-130711205D01*
X182015774Y-130597937D01*
X182159937Y-130453774D01*
X182273205Y-130284256D01*
X182326986Y-130154418D01*
X186626500Y-134453933D01*
X186626501Y-135008506D01*
X186534795Y-135145754D01*
X186456774Y-135334112D01*
X186417000Y-135534071D01*
X186417000Y-135737949D01*
X186456774Y-135937908D01*
X186534795Y-136126266D01*
X186648063Y-136295784D01*
X186792226Y-136439947D01*
X186961744Y-136553215D01*
X187150102Y-136631236D01*
X187350061Y-136671010D01*
X187553939Y-136671010D01*
X187753898Y-136631236D01*
X187942256Y-136553215D01*
X188111774Y-136439947D01*
X188255937Y-136295784D01*
X188369205Y-136126266D01*
X188447226Y-135937908D01*
X188487000Y-135737949D01*
X188487000Y-135534071D01*
X188447226Y-135334112D01*
X188369205Y-135145754D01*
X188277500Y-135008507D01*
X188277500Y-134152550D01*
X188281494Y-134111999D01*
X188277364Y-134070063D01*
X188265556Y-133950174D01*
X188218353Y-133794566D01*
X188171134Y-133706226D01*
X188141699Y-133651157D01*
X188064391Y-133556958D01*
X188038541Y-133525459D01*
X188007041Y-133499608D01*
X182943500Y-128436068D01*
X182943500Y-120944542D01*
X182947493Y-120903999D01*
X182943500Y-120863456D01*
X182943500Y-120863447D01*
X182931556Y-120742174D01*
X182884353Y-120586566D01*
X182807699Y-120443158D01*
X182807698Y-120443156D01*
X182730391Y-120348958D01*
X182704541Y-120317459D01*
X182673041Y-120291608D01*
X180190398Y-117808966D01*
X180164541Y-117777459D01*
X180038842Y-117674301D01*
X179895434Y-117597647D01*
X179739826Y-117550444D01*
X179618553Y-117538500D01*
X179618550Y-117538500D01*
X179578000Y-117534506D01*
X179537450Y-117538500D01*
X177078550Y-117538500D01*
X177037999Y-117534506D01*
X176997449Y-117538500D01*
X176997447Y-117538500D01*
X176876174Y-117550444D01*
X176732589Y-117594000D01*
X176720566Y-117597647D01*
X176577157Y-117674301D01*
X176538056Y-117706391D01*
X176451459Y-117777459D01*
X176425609Y-117808958D01*
X169809567Y-124425001D01*
X161772710Y-124425001D01*
X161839937Y-124357774D01*
X161953205Y-124188256D01*
X162031226Y-123999898D01*
X162071000Y-123799939D01*
X162071000Y-123596061D01*
X162031226Y-123396102D01*
X161953205Y-123207744D01*
X161839937Y-123038226D01*
X161695774Y-122894063D01*
X161526256Y-122780795D01*
X161337898Y-122702774D01*
X161176004Y-122670572D01*
X160845500Y-122340068D01*
X160845500Y-102260061D01*
X168129000Y-102260061D01*
X168129000Y-102463939D01*
X168168774Y-102663898D01*
X168246795Y-102852256D01*
X168338501Y-102989504D01*
X168338500Y-115704497D01*
X168246795Y-115841744D01*
X168168774Y-116030102D01*
X168129000Y-116230061D01*
X168129000Y-116433939D01*
X168168774Y-116633898D01*
X168246795Y-116822256D01*
X168360063Y-116991774D01*
X168504226Y-117135937D01*
X168673744Y-117249205D01*
X168862102Y-117327226D01*
X169062061Y-117367000D01*
X169265939Y-117367000D01*
X169465898Y-117327226D01*
X169654256Y-117249205D01*
X169823774Y-117135937D01*
X169967937Y-116991774D01*
X170081205Y-116822256D01*
X170159226Y-116633898D01*
X170199000Y-116433939D01*
X170199000Y-116230061D01*
X170159226Y-116030102D01*
X170081205Y-115841744D01*
X169989500Y-115704497D01*
X169989500Y-104292061D01*
X175241000Y-104292061D01*
X175241000Y-104495939D01*
X175280774Y-104695898D01*
X175358795Y-104884256D01*
X175450500Y-105021503D01*
X175450501Y-106814496D01*
X175358795Y-106951744D01*
X175280774Y-107140102D01*
X175241000Y-107340061D01*
X175241000Y-107543939D01*
X175280774Y-107743898D01*
X175358795Y-107932256D01*
X175472063Y-108101774D01*
X175616226Y-108245937D01*
X175785744Y-108359205D01*
X175974102Y-108437226D01*
X176174061Y-108477000D01*
X176377939Y-108477000D01*
X176577898Y-108437226D01*
X176766256Y-108359205D01*
X176935774Y-108245937D01*
X177079937Y-108101774D01*
X177193205Y-107932256D01*
X177271226Y-107743898D01*
X177311000Y-107543939D01*
X177311000Y-107340061D01*
X177271226Y-107140102D01*
X177193205Y-106951744D01*
X177101500Y-106814497D01*
X177101500Y-105021503D01*
X177193205Y-104884256D01*
X177271226Y-104695898D01*
X177311000Y-104495939D01*
X177311000Y-104292061D01*
X177271226Y-104092102D01*
X177193205Y-103903744D01*
X177079937Y-103734226D01*
X176935774Y-103590063D01*
X176766256Y-103476795D01*
X176577898Y-103398774D01*
X176377939Y-103359000D01*
X176174061Y-103359000D01*
X175974102Y-103398774D01*
X175785744Y-103476795D01*
X175616226Y-103590063D01*
X175472063Y-103734226D01*
X175358795Y-103903744D01*
X175280774Y-104092102D01*
X175241000Y-104292061D01*
X169989500Y-104292061D01*
X169989500Y-102989503D01*
X170081205Y-102852256D01*
X170159226Y-102663898D01*
X170199000Y-102463939D01*
X170199000Y-102260061D01*
X170159226Y-102060102D01*
X170081205Y-101871744D01*
X169967937Y-101702226D01*
X169823774Y-101558063D01*
X169654256Y-101444795D01*
X169465898Y-101366774D01*
X169265939Y-101327000D01*
X169062061Y-101327000D01*
X168862102Y-101366774D01*
X168673744Y-101444795D01*
X168504226Y-101558063D01*
X168360063Y-101702226D01*
X168246795Y-101871744D01*
X168168774Y-102060102D01*
X168129000Y-102260061D01*
X160845500Y-102260061D01*
X160845500Y-99608542D01*
X160849493Y-99567999D01*
X160845500Y-99527456D01*
X160845500Y-99527447D01*
X160833556Y-99406174D01*
X160786353Y-99250566D01*
X160709699Y-99107158D01*
X160606541Y-98981459D01*
X160575041Y-98955608D01*
X159650428Y-98030996D01*
X159618226Y-97869102D01*
X159540205Y-97680744D01*
X159426937Y-97511226D01*
X159349772Y-97434061D01*
X162033000Y-97434061D01*
X162033000Y-97637939D01*
X162072774Y-97837898D01*
X162150795Y-98026256D01*
X162264063Y-98195774D01*
X162408226Y-98339937D01*
X162577744Y-98453205D01*
X162766102Y-98531226D01*
X162966061Y-98571000D01*
X163169939Y-98571000D01*
X163369898Y-98531226D01*
X163558256Y-98453205D01*
X163727774Y-98339937D01*
X163871937Y-98195774D01*
X163985205Y-98026256D01*
X164063226Y-97837898D01*
X164103000Y-97637939D01*
X164103000Y-97434061D01*
X164063226Y-97234102D01*
X163985205Y-97045744D01*
X163893500Y-96908497D01*
X163893500Y-95677932D01*
X164902005Y-94669428D01*
X165063898Y-94637226D01*
X165252256Y-94559205D01*
X165421774Y-94445937D01*
X165565937Y-94301774D01*
X165679205Y-94132256D01*
X165757226Y-93943898D01*
X165797000Y-93743939D01*
X165797000Y-93540061D01*
X165757226Y-93340102D01*
X165679205Y-93151744D01*
X165587500Y-93014497D01*
X165587500Y-91643503D01*
X165679205Y-91506256D01*
X165757226Y-91317898D01*
X165797000Y-91117939D01*
X165797000Y-90914061D01*
X165757226Y-90714102D01*
X165679205Y-90525744D01*
X165565937Y-90356226D01*
X165421774Y-90212063D01*
X165252256Y-90098795D01*
X165063898Y-90020774D01*
X164863939Y-89981000D01*
X164660061Y-89981000D01*
X164460102Y-90020774D01*
X164271744Y-90098795D01*
X164102226Y-90212063D01*
X163958063Y-90356226D01*
X163844795Y-90525744D01*
X163766774Y-90714102D01*
X163727000Y-90914061D01*
X163727000Y-91117939D01*
X163766774Y-91317898D01*
X163844795Y-91506256D01*
X163936500Y-91643503D01*
X163936501Y-93014496D01*
X163844795Y-93151744D01*
X163766774Y-93340102D01*
X163734572Y-93501995D01*
X162512966Y-94723602D01*
X162481459Y-94749459D01*
X162412214Y-94833835D01*
X162378301Y-94875158D01*
X162369508Y-94891609D01*
X162301647Y-95018567D01*
X162254444Y-95174175D01*
X162253224Y-95186567D01*
X162238506Y-95336000D01*
X162242500Y-95376551D01*
X162242501Y-96908496D01*
X162150795Y-97045744D01*
X162072774Y-97234102D01*
X162033000Y-97434061D01*
X159349772Y-97434061D01*
X159282774Y-97367063D01*
X159113256Y-97253795D01*
X158924898Y-97175774D01*
X158724939Y-97136000D01*
X158521061Y-97136000D01*
X158321102Y-97175774D01*
X158132744Y-97253795D01*
X157963226Y-97367063D01*
X157819063Y-97511226D01*
X157730250Y-97644145D01*
X157716256Y-97634795D01*
X157527898Y-97556774D01*
X157327939Y-97517000D01*
X157124061Y-97517000D01*
X156924102Y-97556774D01*
X156735744Y-97634795D01*
X156566226Y-97748063D01*
X156422063Y-97892226D01*
X156308795Y-98061744D01*
X156230774Y-98250102D01*
X156191000Y-98450061D01*
X156191000Y-98653939D01*
X156230774Y-98853898D01*
X156308795Y-99042256D01*
X156422063Y-99211774D01*
X156566226Y-99355937D01*
X156735744Y-99469205D01*
X156924102Y-99547226D01*
X157085996Y-99579429D01*
X158178506Y-100671939D01*
X158178507Y-107068496D01*
X158086801Y-107205744D01*
X158008780Y-107394102D01*
X157969006Y-107594061D01*
X157969006Y-107797939D01*
X158008780Y-107997898D01*
X158086801Y-108186256D01*
X158200069Y-108355774D01*
X158344232Y-108499937D01*
X158513750Y-108613205D01*
X158702108Y-108691226D01*
X158902067Y-108731000D01*
X159105945Y-108731000D01*
X159194500Y-108713385D01*
X159194501Y-118149068D01*
X131895022Y-90849589D01*
X137553000Y-90849589D01*
X137553000Y-91122411D01*
X137606225Y-91389989D01*
X137710629Y-91642043D01*
X137862201Y-91868886D01*
X138055114Y-92061799D01*
X138281957Y-92213371D01*
X138534011Y-92317775D01*
X138801589Y-92371000D01*
X139074411Y-92371000D01*
X139341989Y-92317775D01*
X139594043Y-92213371D01*
X139820886Y-92061799D01*
X140013799Y-91868886D01*
X140165371Y-91642043D01*
X140269775Y-91389989D01*
X140323000Y-91122411D01*
X140323000Y-90849589D01*
X140269775Y-90582011D01*
X140165371Y-90329957D01*
X140013799Y-90103114D01*
X139820886Y-89910201D01*
X139594043Y-89758629D01*
X139341989Y-89654225D01*
X139074411Y-89601000D01*
X138801589Y-89601000D01*
X138534011Y-89654225D01*
X138281957Y-89758629D01*
X138055114Y-89910201D01*
X137862201Y-90103114D01*
X137710629Y-90329957D01*
X137606225Y-90582011D01*
X137553000Y-90849589D01*
X131895022Y-90849589D01*
X130406398Y-89360966D01*
X130380541Y-89329459D01*
X130254842Y-89226301D01*
X130111434Y-89149647D01*
X129955826Y-89102444D01*
X129834553Y-89090500D01*
X129834550Y-89090500D01*
X129794000Y-89086506D01*
X129753450Y-89090500D01*
X125341503Y-89090500D01*
X125204256Y-88998795D01*
X125015898Y-88920774D01*
X124815939Y-88881000D01*
X124612061Y-88881000D01*
X124412102Y-88920774D01*
X124223744Y-88998795D01*
X124054226Y-89112063D01*
X123910063Y-89256226D01*
X123796795Y-89425744D01*
X123718774Y-89614102D01*
X123679000Y-89814061D01*
X123679000Y-89931026D01*
X123650102Y-89936774D01*
X123461744Y-90014795D01*
X123292226Y-90128063D01*
X123148063Y-90272226D01*
X123034795Y-90441744D01*
X122956774Y-90630102D01*
X122917000Y-90830061D01*
X122917000Y-91033939D01*
X122956774Y-91233898D01*
X123034795Y-91422256D01*
X123148063Y-91591774D01*
X123292226Y-91735937D01*
X123461744Y-91849205D01*
X123650102Y-91927226D01*
X123850061Y-91967000D01*
X124053939Y-91967000D01*
X124253898Y-91927226D01*
X124264564Y-91922808D01*
X124264564Y-91984523D01*
X124304338Y-92184482D01*
X124382359Y-92372840D01*
X124495627Y-92542358D01*
X124639790Y-92686521D01*
X124809308Y-92799789D01*
X124997666Y-92877810D01*
X125197625Y-92917584D01*
X125401503Y-92917584D01*
X125601462Y-92877810D01*
X125789820Y-92799789D01*
X125927067Y-92708084D01*
X129386652Y-92708084D01*
X152336501Y-115657935D01*
X152336500Y-119730070D01*
X150838502Y-118232072D01*
X150868000Y-118232072D01*
X150992482Y-118219812D01*
X151112180Y-118183502D01*
X151222494Y-118124537D01*
X151319185Y-118045185D01*
X151398537Y-117948494D01*
X151457502Y-117838180D01*
X151493812Y-117718482D01*
X151506072Y-117594000D01*
X151506072Y-116594000D01*
X151493812Y-116469518D01*
X151457502Y-116349820D01*
X151398537Y-116239506D01*
X151319185Y-116142815D01*
X151222494Y-116063463D01*
X151112180Y-116004498D01*
X150992482Y-115968188D01*
X150868000Y-115955928D01*
X149868000Y-115955928D01*
X149743518Y-115968188D01*
X149623820Y-116004498D01*
X149540774Y-116048888D01*
X149429067Y-116002617D01*
X149209788Y-115959000D01*
X148986212Y-115959000D01*
X148766933Y-116002617D01*
X148560376Y-116088176D01*
X148374480Y-116212388D01*
X148216388Y-116370480D01*
X148092176Y-116556376D01*
X148006617Y-116762933D01*
X147963000Y-116982212D01*
X147963000Y-117205788D01*
X148006617Y-117425067D01*
X148053603Y-117538500D01*
X143089933Y-117538500D01*
X132415929Y-106864497D01*
X132390072Y-106832990D01*
X132264373Y-106729832D01*
X132120965Y-106653178D01*
X131965357Y-106605975D01*
X131844084Y-106594031D01*
X131844081Y-106594031D01*
X131803531Y-106590037D01*
X131762981Y-106594031D01*
X129992984Y-106594031D01*
X129855737Y-106502326D01*
X129667379Y-106424305D01*
X129467420Y-106384531D01*
X129263542Y-106384531D01*
X129063583Y-106424305D01*
X128875225Y-106502326D01*
X128705707Y-106615594D01*
X128658367Y-106662934D01*
X127638252Y-105642820D01*
X132378130Y-105642820D01*
X132418680Y-105646814D01*
X132459230Y-105642820D01*
X132459233Y-105642820D01*
X132580506Y-105630876D01*
X132736114Y-105583673D01*
X132879522Y-105507019D01*
X133005221Y-105403861D01*
X133031078Y-105372354D01*
X134252004Y-104151428D01*
X134413898Y-104119226D01*
X134602256Y-104041205D01*
X134771774Y-103927937D01*
X134915937Y-103783774D01*
X135029205Y-103614256D01*
X135107226Y-103425898D01*
X135147000Y-103225939D01*
X135147000Y-103022061D01*
X135107226Y-102822102D01*
X135029205Y-102633744D01*
X134915937Y-102464226D01*
X134771774Y-102320063D01*
X134602256Y-102206795D01*
X134413898Y-102128774D01*
X134213939Y-102089000D01*
X134010061Y-102089000D01*
X133810102Y-102128774D01*
X133621744Y-102206795D01*
X133516988Y-102276791D01*
X133420059Y-102131726D01*
X133275896Y-101987563D01*
X133106378Y-101874295D01*
X132918020Y-101796274D01*
X132718061Y-101756500D01*
X132514183Y-101756500D01*
X132314224Y-101796274D01*
X132244754Y-101825049D01*
X132231768Y-101812063D01*
X132062250Y-101698795D01*
X131873892Y-101620774D01*
X131673933Y-101581000D01*
X131591000Y-101581000D01*
X131591000Y-101498061D01*
X131573384Y-101409500D01*
X133738497Y-101409500D01*
X133875744Y-101501205D01*
X134064102Y-101579226D01*
X134264061Y-101619000D01*
X134467939Y-101619000D01*
X134667898Y-101579226D01*
X134856256Y-101501205D01*
X135025774Y-101387937D01*
X135169937Y-101243774D01*
X135283205Y-101074256D01*
X135361226Y-100885898D01*
X135401000Y-100685939D01*
X135401000Y-100482061D01*
X135361226Y-100282102D01*
X135283205Y-100093744D01*
X135169937Y-99924226D01*
X135069660Y-99823949D01*
X135100294Y-99669939D01*
X135100294Y-99466061D01*
X135060520Y-99266102D01*
X134982499Y-99077744D01*
X134869231Y-98908226D01*
X134725068Y-98764063D01*
X134555550Y-98650795D01*
X134367192Y-98572774D01*
X134167233Y-98533000D01*
X133963355Y-98533000D01*
X133763396Y-98572774D01*
X133575038Y-98650795D01*
X133405520Y-98764063D01*
X133363583Y-98806000D01*
X129398606Y-98806000D01*
X129101975Y-98509370D01*
X129101975Y-98450061D01*
X129062201Y-98250102D01*
X128984180Y-98061744D01*
X128870912Y-97892226D01*
X128726749Y-97748063D01*
X128557231Y-97634795D01*
X128368873Y-97556774D01*
X128168914Y-97517000D01*
X127965036Y-97517000D01*
X127933501Y-97523273D01*
X127933501Y-96525163D01*
X128063898Y-96499226D01*
X128252256Y-96421205D01*
X128421774Y-96307937D01*
X128565937Y-96163774D01*
X128679205Y-95994256D01*
X128757226Y-95805898D01*
X128797000Y-95605939D01*
X128797000Y-95402061D01*
X128757226Y-95202102D01*
X128679205Y-95013744D01*
X128565937Y-94844226D01*
X128421774Y-94700063D01*
X128252256Y-94586795D01*
X128063898Y-94508774D01*
X127863939Y-94469000D01*
X127660061Y-94469000D01*
X127460102Y-94508774D01*
X127271744Y-94586795D01*
X127102226Y-94700063D01*
X126958063Y-94844226D01*
X126844795Y-95013744D01*
X126766774Y-95202102D01*
X126734572Y-95363996D01*
X126552967Y-95545601D01*
X126521460Y-95571458D01*
X126454186Y-95653433D01*
X126418302Y-95697157D01*
X126365019Y-95796842D01*
X126341648Y-95840566D01*
X126294445Y-95996174D01*
X126283988Y-96102353D01*
X126278507Y-96157999D01*
X126282501Y-96198550D01*
X126282502Y-99127441D01*
X126278507Y-99168001D01*
X126294446Y-99329827D01*
X126341648Y-99485434D01*
X126418302Y-99628843D01*
X126460429Y-99680174D01*
X126521461Y-99754542D01*
X126552962Y-99780394D01*
X127547067Y-100774500D01*
X120436550Y-100774500D01*
X120396000Y-100770506D01*
X120355449Y-100774500D01*
X120355447Y-100774500D01*
X120234174Y-100786444D01*
X120108845Y-100824462D01*
X120078566Y-100833647D01*
X119935157Y-100910301D01*
X119873596Y-100960823D01*
X119809459Y-101013459D01*
X119783606Y-101044961D01*
X119239996Y-101588572D01*
X119078102Y-101620774D01*
X118889744Y-101698795D01*
X118720226Y-101812063D01*
X118576063Y-101956226D01*
X118462795Y-102125744D01*
X118384774Y-102314102D01*
X118345000Y-102514061D01*
X118345000Y-102612487D01*
X114935000Y-99202487D01*
X114935000Y-85969589D01*
X137553000Y-85969589D01*
X137553000Y-86242411D01*
X137606225Y-86509989D01*
X137710629Y-86762043D01*
X137862201Y-86988886D01*
X138055114Y-87181799D01*
X138281957Y-87333371D01*
X138534011Y-87437775D01*
X138801589Y-87491000D01*
X139074411Y-87491000D01*
X139341989Y-87437775D01*
X139594043Y-87333371D01*
X139820886Y-87181799D01*
X140013799Y-86988886D01*
X140165371Y-86762043D01*
X140269775Y-86509989D01*
X140323000Y-86242411D01*
X140323000Y-85969589D01*
X140269775Y-85702011D01*
X140165371Y-85449957D01*
X140013799Y-85223114D01*
X139820886Y-85030201D01*
X139594043Y-84878629D01*
X139341989Y-84774225D01*
X139074411Y-84721000D01*
X138801589Y-84721000D01*
X138534011Y-84774225D01*
X138281957Y-84878629D01*
X138055114Y-85030201D01*
X137862201Y-85223114D01*
X137710629Y-85449957D01*
X137606225Y-85702011D01*
X137553000Y-85969589D01*
X114935000Y-85969589D01*
X114935000Y-79503445D01*
X121301446Y-73137000D01*
X125429796Y-73137000D01*
X125758137Y-73104661D01*
X126179436Y-72976862D01*
X126567707Y-72769326D01*
X126908030Y-72490030D01*
X127169031Y-72172000D01*
X127532289Y-72172000D01*
X127466063Y-72238226D01*
X127352795Y-72407744D01*
X127274774Y-72596102D01*
X127235000Y-72796061D01*
X127235000Y-72999939D01*
X127274774Y-73199898D01*
X127352795Y-73388256D01*
X127466063Y-73557774D01*
X127610226Y-73701937D01*
X127779744Y-73815205D01*
X127968102Y-73893226D01*
X128168061Y-73933000D01*
X128371939Y-73933000D01*
X128571898Y-73893226D01*
X128760256Y-73815205D01*
X128929774Y-73701937D01*
X128971711Y-73660000D01*
X140146369Y-73660000D01*
X137155654Y-76650716D01*
X137126578Y-76674578D01*
X137102721Y-76703648D01*
X136082370Y-77724000D01*
X135829711Y-77724000D01*
X135787774Y-77682063D01*
X135618256Y-77568795D01*
X135429898Y-77490774D01*
X135229939Y-77451000D01*
X135026061Y-77451000D01*
X134826102Y-77490774D01*
X134637744Y-77568795D01*
X134468226Y-77682063D01*
X134324063Y-77826226D01*
X134210795Y-77995744D01*
X134132774Y-78184102D01*
X134093000Y-78384061D01*
X134093000Y-78587939D01*
X134132774Y-78787898D01*
X134210795Y-78976256D01*
X134324063Y-79145774D01*
X134468226Y-79289937D01*
X134604759Y-79381165D01*
X134601000Y-79400061D01*
X134601000Y-79603939D01*
X134640774Y-79803898D01*
X134718795Y-79992256D01*
X134832063Y-80161774D01*
X134976226Y-80305937D01*
X135145744Y-80419205D01*
X135230953Y-80454500D01*
X134660550Y-80454500D01*
X134620000Y-80450506D01*
X134579449Y-80454500D01*
X134579447Y-80454500D01*
X134458174Y-80466444D01*
X134302566Y-80513647D01*
X134159157Y-80590301D01*
X134102715Y-80636622D01*
X134033459Y-80693459D01*
X134007606Y-80724961D01*
X133262068Y-81470500D01*
X129122885Y-81470500D01*
X129110541Y-81455459D01*
X128984842Y-81352301D01*
X128841434Y-81275647D01*
X128685826Y-81228444D01*
X128564553Y-81216500D01*
X128483447Y-81216500D01*
X128362174Y-81228444D01*
X128254851Y-81261000D01*
X128168061Y-81261000D01*
X127968102Y-81300774D01*
X127779744Y-81378795D01*
X127610226Y-81492063D01*
X127466063Y-81636226D01*
X127352795Y-81805744D01*
X127274774Y-81994102D01*
X127235000Y-82194061D01*
X127235000Y-82397939D01*
X127274774Y-82597898D01*
X127352795Y-82786256D01*
X127466063Y-82955774D01*
X127610226Y-83099937D01*
X127779744Y-83213205D01*
X127968102Y-83291226D01*
X128168061Y-83331000D01*
X128371939Y-83331000D01*
X128571898Y-83291226D01*
X128760256Y-83213205D01*
X128897503Y-83121500D01*
X133563450Y-83121500D01*
X133604000Y-83125494D01*
X133644550Y-83121500D01*
X133644553Y-83121500D01*
X133765826Y-83109556D01*
X133921434Y-83062353D01*
X134064842Y-82985699D01*
X134190541Y-82882541D01*
X134216398Y-82851034D01*
X134961933Y-82105500D01*
X143168068Y-82105500D01*
X149034500Y-87971933D01*
X149034501Y-91145440D01*
X149030506Y-91186000D01*
X149046445Y-91347826D01*
X149093647Y-91503433D01*
X149170301Y-91646842D01*
X149226052Y-91714774D01*
X149273460Y-91772541D01*
X149304961Y-91798393D01*
X150356572Y-92850004D01*
X150388774Y-93011898D01*
X150466795Y-93200256D01*
X150580063Y-93369774D01*
X150724226Y-93513937D01*
X150893744Y-93627205D01*
X151082102Y-93705226D01*
X151282061Y-93745000D01*
X151485939Y-93745000D01*
X151685898Y-93705226D01*
X151874256Y-93627205D01*
X152043774Y-93513937D01*
X152187937Y-93369774D01*
X152301205Y-93200256D01*
X152379226Y-93011898D01*
X152419000Y-92811939D01*
X152419000Y-92608061D01*
X152379226Y-92408102D01*
X152301205Y-92219744D01*
X152187937Y-92050226D01*
X152043774Y-91906063D01*
X151874256Y-91792795D01*
X151725547Y-91731197D01*
X151747256Y-91722205D01*
X151916774Y-91608937D01*
X152060937Y-91464774D01*
X152174205Y-91295256D01*
X152252226Y-91106898D01*
X152292000Y-90906939D01*
X152292000Y-90703061D01*
X152252226Y-90503102D01*
X152174205Y-90314744D01*
X152060937Y-90145226D01*
X151955500Y-90039789D01*
X151955500Y-87162542D01*
X151959493Y-87121999D01*
X151955500Y-87081456D01*
X151955500Y-87081447D01*
X151943556Y-86960174D01*
X151896353Y-86804566D01*
X151819699Y-86661158D01*
X151716541Y-86535459D01*
X151685040Y-86509607D01*
X144122398Y-78946966D01*
X144096541Y-78915459D01*
X143970842Y-78812301D01*
X143827434Y-78735647D01*
X143671826Y-78688444D01*
X143550553Y-78676500D01*
X143550550Y-78676500D01*
X143510000Y-78672506D01*
X143469450Y-78676500D01*
X137285130Y-78676500D01*
X138180352Y-77781279D01*
X138209422Y-77757422D01*
X138233284Y-77728346D01*
X141285631Y-74676000D01*
X152968289Y-74676000D01*
X153010226Y-74717937D01*
X153179744Y-74831205D01*
X153368102Y-74909226D01*
X153568061Y-74949000D01*
X153771939Y-74949000D01*
X153971898Y-74909226D01*
X154160256Y-74831205D01*
X154329774Y-74717937D01*
X154473937Y-74573774D01*
X154587205Y-74404256D01*
X154665226Y-74215898D01*
X154705000Y-74015939D01*
X154705000Y-73812061D01*
X154665226Y-73612102D01*
X154587205Y-73423744D01*
X154473937Y-73254226D01*
X154329774Y-73110063D01*
X154225989Y-73040716D01*
X154333205Y-72880256D01*
X154411226Y-72691898D01*
X154451000Y-72491939D01*
X154451000Y-72288061D01*
X154427914Y-72172000D01*
X156802969Y-72172000D01*
X157063970Y-72490030D01*
X157404293Y-72769326D01*
X157792564Y-72976862D01*
X158213863Y-73104661D01*
X158542204Y-73137000D01*
X165561796Y-73137000D01*
X165890137Y-73104661D01*
X166311436Y-72976862D01*
X166699707Y-72769326D01*
X167040030Y-72490030D01*
X167301031Y-72172000D01*
X176868969Y-72172000D01*
X177129970Y-72490030D01*
X177470293Y-72769326D01*
X177858564Y-72976862D01*
X178279863Y-73104661D01*
X178608204Y-73137000D01*
X185627796Y-73137000D01*
X185956137Y-73104661D01*
X186377436Y-72976862D01*
X186765707Y-72769326D01*
X187106030Y-72490030D01*
X187385326Y-72149707D01*
X187592862Y-71761436D01*
X187720661Y-71340137D01*
X187763814Y-70902000D01*
X187720661Y-70463863D01*
X187592862Y-70042564D01*
X187385326Y-69654293D01*
X187181147Y-69405500D01*
X189142068Y-69405500D01*
X191960500Y-72223933D01*
%TA.AperFunction,Conductor*%
D32*
G36*
X191960500Y-72223933D02*
G01*
X191960501Y-135040065D01*
X187727241Y-139273326D01*
X187763814Y-138902000D01*
X187720661Y-138463863D01*
X187592862Y-138042564D01*
X187385326Y-137654293D01*
X187106030Y-137313970D01*
X186765707Y-137034674D01*
X186377436Y-136827138D01*
X185956137Y-136699339D01*
X185627796Y-136667000D01*
X178608204Y-136667000D01*
X178279863Y-136699339D01*
X178071275Y-136762613D01*
X178073000Y-136753939D01*
X178073000Y-136550061D01*
X178033226Y-136350102D01*
X177955205Y-136161744D01*
X177841937Y-135992226D01*
X177697774Y-135848063D01*
X177570468Y-135763000D01*
X177697774Y-135677937D01*
X177841937Y-135533774D01*
X177955205Y-135364256D01*
X178033226Y-135175898D01*
X178073000Y-134975939D01*
X178073000Y-134772061D01*
X178033226Y-134572102D01*
X177955205Y-134383744D01*
X177841937Y-134214226D01*
X177697774Y-134070063D01*
X177528256Y-133956795D01*
X177339898Y-133878774D01*
X177139939Y-133839000D01*
X176936061Y-133839000D01*
X176736102Y-133878774D01*
X176547744Y-133956795D01*
X176378226Y-134070063D01*
X176234063Y-134214226D01*
X176120795Y-134383744D01*
X176042774Y-134572102D01*
X176010572Y-134733994D01*
X169838068Y-140906500D01*
X168188550Y-140906500D01*
X168148000Y-140902506D01*
X168107449Y-140906500D01*
X168107447Y-140906500D01*
X167986174Y-140918444D01*
X167830566Y-140965647D01*
X167687157Y-141042301D01*
X167654208Y-141069342D01*
X167561459Y-141145459D01*
X167535608Y-141176959D01*
X165420640Y-143291928D01*
X164250000Y-143291928D01*
X164125518Y-143304188D01*
X164005820Y-143340498D01*
X163895506Y-143399463D01*
X163798815Y-143478815D01*
X163719463Y-143575506D01*
X163660498Y-143685820D01*
X163624188Y-143805518D01*
X163611928Y-143930000D01*
X163611928Y-145630000D01*
X163624188Y-145754482D01*
X163660498Y-145874180D01*
X163719463Y-145984494D01*
X163798815Y-146081185D01*
X163895506Y-146160537D01*
X164005820Y-146219502D01*
X164125518Y-146255812D01*
X164250000Y-146268072D01*
X165950000Y-146268072D01*
X166074482Y-146255812D01*
X166194180Y-146219502D01*
X166304494Y-146160537D01*
X166401185Y-146081185D01*
X166480537Y-145984494D01*
X166539502Y-145874180D01*
X166561513Y-145801620D01*
X166693368Y-145933475D01*
X166936589Y-146095990D01*
X166976138Y-146112372D01*
X166086010Y-147002500D01*
X149820932Y-147002500D01*
X151619823Y-145203609D01*
X156429446Y-145203609D01*
X156483886Y-145409128D01*
X156577375Y-145600077D01*
X156706319Y-145769118D01*
X156865764Y-145909756D01*
X157049583Y-146016585D01*
X157084112Y-146032129D01*
X157246000Y-145920743D01*
X157246000Y-145034000D01*
X156574218Y-145034000D01*
X156429446Y-145203609D01*
X151619823Y-145203609D01*
X152308443Y-144514990D01*
X156564820Y-144514990D01*
X156574218Y-144526000D01*
X157246000Y-144526000D01*
X157246000Y-144514990D01*
X157661928Y-144514990D01*
X157661928Y-145255000D01*
X157678512Y-145423377D01*
X157727625Y-145585283D01*
X157754000Y-145634627D01*
X157754000Y-145920743D01*
X157915888Y-146032129D01*
X157950417Y-146016585D01*
X158037447Y-145966006D01*
X158045503Y-145972618D01*
X158194717Y-146052375D01*
X158356623Y-146101488D01*
X158525000Y-146118072D01*
X158975000Y-146118072D01*
X159143377Y-146101488D01*
X159305283Y-146052375D01*
X159454497Y-145972618D01*
X159585284Y-145865284D01*
X159692618Y-145734497D01*
X159772375Y-145585283D01*
X159821488Y-145423377D01*
X159838072Y-145255000D01*
X159838072Y-144305000D01*
X159821488Y-144136623D01*
X159772375Y-143974717D01*
X159692618Y-143825503D01*
X159585284Y-143694716D01*
X159454497Y-143587382D01*
X159381679Y-143548459D01*
X159336541Y-143493459D01*
X159305039Y-143467606D01*
X158971887Y-143134455D01*
X158946031Y-143102949D01*
X158820332Y-142999791D01*
X158676924Y-142923137D01*
X158521316Y-142875934D01*
X158400043Y-142863990D01*
X158400040Y-142863990D01*
X158359490Y-142859996D01*
X158318940Y-142863990D01*
X152007060Y-142863990D01*
X151966509Y-142859996D01*
X151925959Y-142863990D01*
X151925957Y-142863990D01*
X151804684Y-142875934D01*
X151649076Y-142923137D01*
X151573526Y-142963520D01*
X151505667Y-142999791D01*
X151465891Y-143032435D01*
X151379969Y-143102949D01*
X151354116Y-143134451D01*
X149242159Y-145246408D01*
X149255932Y-145213158D01*
X149313000Y-144926260D01*
X149313000Y-144633740D01*
X149284578Y-144490854D01*
X151471933Y-142303500D01*
X165816141Y-142303500D01*
X165856691Y-142307494D01*
X165897241Y-142303500D01*
X165897244Y-142303500D01*
X166018517Y-142291556D01*
X166174125Y-142244353D01*
X166317533Y-142167699D01*
X166443232Y-142064541D01*
X166469089Y-142033034D01*
X169211045Y-139291080D01*
X169242541Y-139265232D01*
X169268389Y-139233736D01*
X169268392Y-139233733D01*
X169345699Y-139139534D01*
X169422353Y-138996125D01*
X169434221Y-138957000D01*
X169469556Y-138840517D01*
X169481500Y-138719244D01*
X169481500Y-138719242D01*
X169485494Y-138678691D01*
X169481500Y-138638141D01*
X169481500Y-137787503D01*
X169573205Y-137650256D01*
X169651226Y-137461898D01*
X169691000Y-137261939D01*
X169691000Y-137058061D01*
X169651226Y-136858102D01*
X169573205Y-136669744D01*
X169459937Y-136500226D01*
X169315774Y-136356063D01*
X169146256Y-136242795D01*
X168957898Y-136164774D01*
X168757939Y-136125000D01*
X168554061Y-136125000D01*
X168354102Y-136164774D01*
X168165744Y-136242795D01*
X167996226Y-136356063D01*
X167852063Y-136500226D01*
X167738795Y-136669744D01*
X167660774Y-136858102D01*
X167621000Y-137058061D01*
X167621000Y-137261939D01*
X167660774Y-137461898D01*
X167738795Y-137650256D01*
X167830500Y-137787503D01*
X167830501Y-138336756D01*
X167659030Y-138508227D01*
X167654661Y-138463863D01*
X167526862Y-138042564D01*
X167319326Y-137654293D01*
X167040030Y-137313970D01*
X166699707Y-137034674D01*
X166311436Y-136827138D01*
X165890137Y-136699339D01*
X165561796Y-136667000D01*
X158886433Y-136667000D01*
X160818958Y-134734475D01*
X160865522Y-134734475D01*
X161002769Y-134826180D01*
X161191127Y-134904201D01*
X161391086Y-134943975D01*
X161594964Y-134943975D01*
X161794923Y-134904201D01*
X161983281Y-134826180D01*
X162152799Y-134712912D01*
X162296962Y-134568749D01*
X162304737Y-134557112D01*
X162326774Y-134667898D01*
X162404795Y-134856256D01*
X162518063Y-135025774D01*
X162662226Y-135169937D01*
X162831744Y-135283205D01*
X163020102Y-135361226D01*
X163220061Y-135401000D01*
X163423939Y-135401000D01*
X163623898Y-135361226D01*
X163812256Y-135283205D01*
X163981774Y-135169937D01*
X164125937Y-135025774D01*
X164239205Y-134856256D01*
X164317226Y-134667898D01*
X164357000Y-134467939D01*
X164357000Y-134264061D01*
X164317226Y-134064102D01*
X164239205Y-133875744D01*
X164125937Y-133706226D01*
X163981774Y-133562063D01*
X163812256Y-133448795D01*
X163623898Y-133370774D01*
X163462005Y-133338572D01*
X159726933Y-129603500D01*
X177759450Y-129603500D01*
X177800000Y-129607494D01*
X177840550Y-129603500D01*
X177840553Y-129603500D01*
X177961826Y-129591556D01*
X178117434Y-129544353D01*
X178260842Y-129467699D01*
X178386541Y-129364541D01*
X178412398Y-129333034D01*
X180530501Y-127214932D01*
X180530501Y-129166496D01*
X180438795Y-129303744D01*
X180360774Y-129492102D01*
X180321000Y-129692061D01*
X180321000Y-129895939D01*
X180360774Y-130095898D01*
X180438795Y-130284256D01*
X180552063Y-130453774D01*
X180696226Y-130597937D01*
X180865744Y-130711205D01*
X181054102Y-130789226D01*
X181254061Y-130829000D01*
X181457939Y-130829000D01*
X181657898Y-130789226D01*
X181846256Y-130711205D01*
X182015774Y-130597937D01*
X182159937Y-130453774D01*
X182273205Y-130284256D01*
X182326986Y-130154418D01*
X186626500Y-134453933D01*
X186626501Y-135008506D01*
X186534795Y-135145754D01*
X186456774Y-135334112D01*
X186417000Y-135534071D01*
X186417000Y-135737949D01*
X186456774Y-135937908D01*
X186534795Y-136126266D01*
X186648063Y-136295784D01*
X186792226Y-136439947D01*
X186961744Y-136553215D01*
X187150102Y-136631236D01*
X187350061Y-136671010D01*
X187553939Y-136671010D01*
X187753898Y-136631236D01*
X187942256Y-136553215D01*
X188111774Y-136439947D01*
X188255937Y-136295784D01*
X188369205Y-136126266D01*
X188447226Y-135937908D01*
X188487000Y-135737949D01*
X188487000Y-135534071D01*
X188447226Y-135334112D01*
X188369205Y-135145754D01*
X188277500Y-135008507D01*
X188277500Y-134152550D01*
X188281494Y-134111999D01*
X188277364Y-134070063D01*
X188265556Y-133950174D01*
X188218353Y-133794566D01*
X188171134Y-133706226D01*
X188141699Y-133651157D01*
X188064391Y-133556958D01*
X188038541Y-133525459D01*
X188007041Y-133499608D01*
X182943500Y-128436068D01*
X182943500Y-120944542D01*
X182947493Y-120903999D01*
X182943500Y-120863456D01*
X182943500Y-120863447D01*
X182931556Y-120742174D01*
X182884353Y-120586566D01*
X182807699Y-120443158D01*
X182807698Y-120443156D01*
X182730391Y-120348958D01*
X182704541Y-120317459D01*
X182673041Y-120291608D01*
X180190398Y-117808966D01*
X180164541Y-117777459D01*
X180038842Y-117674301D01*
X179895434Y-117597647D01*
X179739826Y-117550444D01*
X179618553Y-117538500D01*
X179618550Y-117538500D01*
X179578000Y-117534506D01*
X179537450Y-117538500D01*
X177078550Y-117538500D01*
X177037999Y-117534506D01*
X176997449Y-117538500D01*
X176997447Y-117538500D01*
X176876174Y-117550444D01*
X176732589Y-117594000D01*
X176720566Y-117597647D01*
X176577157Y-117674301D01*
X176538056Y-117706391D01*
X176451459Y-117777459D01*
X176425609Y-117808958D01*
X169809567Y-124425001D01*
X161772710Y-124425001D01*
X161839937Y-124357774D01*
X161953205Y-124188256D01*
X162031226Y-123999898D01*
X162071000Y-123799939D01*
X162071000Y-123596061D01*
X162031226Y-123396102D01*
X161953205Y-123207744D01*
X161839937Y-123038226D01*
X161695774Y-122894063D01*
X161526256Y-122780795D01*
X161337898Y-122702774D01*
X161176004Y-122670572D01*
X160845500Y-122340068D01*
X160845500Y-102260061D01*
X168129000Y-102260061D01*
X168129000Y-102463939D01*
X168168774Y-102663898D01*
X168246795Y-102852256D01*
X168338501Y-102989504D01*
X168338500Y-115704497D01*
X168246795Y-115841744D01*
X168168774Y-116030102D01*
X168129000Y-116230061D01*
X168129000Y-116433939D01*
X168168774Y-116633898D01*
X168246795Y-116822256D01*
X168360063Y-116991774D01*
X168504226Y-117135937D01*
X168673744Y-117249205D01*
X168862102Y-117327226D01*
X169062061Y-117367000D01*
X169265939Y-117367000D01*
X169465898Y-117327226D01*
X169654256Y-117249205D01*
X169823774Y-117135937D01*
X169967937Y-116991774D01*
X170081205Y-116822256D01*
X170159226Y-116633898D01*
X170199000Y-116433939D01*
X170199000Y-116230061D01*
X170159226Y-116030102D01*
X170081205Y-115841744D01*
X169989500Y-115704497D01*
X169989500Y-104292061D01*
X175241000Y-104292061D01*
X175241000Y-104495939D01*
X175280774Y-104695898D01*
X175358795Y-104884256D01*
X175450500Y-105021503D01*
X175450501Y-106814496D01*
X175358795Y-106951744D01*
X175280774Y-107140102D01*
X175241000Y-107340061D01*
X175241000Y-107543939D01*
X175280774Y-107743898D01*
X175358795Y-107932256D01*
X175472063Y-108101774D01*
X175616226Y-108245937D01*
X175785744Y-108359205D01*
X175974102Y-108437226D01*
X176174061Y-108477000D01*
X176377939Y-108477000D01*
X176577898Y-108437226D01*
X176766256Y-108359205D01*
X176935774Y-108245937D01*
X177079937Y-108101774D01*
X177193205Y-107932256D01*
X177271226Y-107743898D01*
X177311000Y-107543939D01*
X177311000Y-107340061D01*
X177271226Y-107140102D01*
X177193205Y-106951744D01*
X177101500Y-106814497D01*
X177101500Y-105021503D01*
X177193205Y-104884256D01*
X177271226Y-104695898D01*
X177311000Y-104495939D01*
X177311000Y-104292061D01*
X177271226Y-104092102D01*
X177193205Y-103903744D01*
X177079937Y-103734226D01*
X176935774Y-103590063D01*
X176766256Y-103476795D01*
X176577898Y-103398774D01*
X176377939Y-103359000D01*
X176174061Y-103359000D01*
X175974102Y-103398774D01*
X175785744Y-103476795D01*
X175616226Y-103590063D01*
X175472063Y-103734226D01*
X175358795Y-103903744D01*
X175280774Y-104092102D01*
X175241000Y-104292061D01*
X169989500Y-104292061D01*
X169989500Y-102989503D01*
X170081205Y-102852256D01*
X170159226Y-102663898D01*
X170199000Y-102463939D01*
X170199000Y-102260061D01*
X170159226Y-102060102D01*
X170081205Y-101871744D01*
X169967937Y-101702226D01*
X169823774Y-101558063D01*
X169654256Y-101444795D01*
X169465898Y-101366774D01*
X169265939Y-101327000D01*
X169062061Y-101327000D01*
X168862102Y-101366774D01*
X168673744Y-101444795D01*
X168504226Y-101558063D01*
X168360063Y-101702226D01*
X168246795Y-101871744D01*
X168168774Y-102060102D01*
X168129000Y-102260061D01*
X160845500Y-102260061D01*
X160845500Y-99608542D01*
X160849493Y-99567999D01*
X160845500Y-99527456D01*
X160845500Y-99527447D01*
X160833556Y-99406174D01*
X160786353Y-99250566D01*
X160709699Y-99107158D01*
X160606541Y-98981459D01*
X160575041Y-98955608D01*
X159650428Y-98030996D01*
X159618226Y-97869102D01*
X159540205Y-97680744D01*
X159426937Y-97511226D01*
X159349772Y-97434061D01*
X162033000Y-97434061D01*
X162033000Y-97637939D01*
X162072774Y-97837898D01*
X162150795Y-98026256D01*
X162264063Y-98195774D01*
X162408226Y-98339937D01*
X162577744Y-98453205D01*
X162766102Y-98531226D01*
X162966061Y-98571000D01*
X163169939Y-98571000D01*
X163369898Y-98531226D01*
X163558256Y-98453205D01*
X163727774Y-98339937D01*
X163871937Y-98195774D01*
X163985205Y-98026256D01*
X164063226Y-97837898D01*
X164103000Y-97637939D01*
X164103000Y-97434061D01*
X164063226Y-97234102D01*
X163985205Y-97045744D01*
X163893500Y-96908497D01*
X163893500Y-95677932D01*
X164902005Y-94669428D01*
X165063898Y-94637226D01*
X165252256Y-94559205D01*
X165421774Y-94445937D01*
X165565937Y-94301774D01*
X165679205Y-94132256D01*
X165757226Y-93943898D01*
X165797000Y-93743939D01*
X165797000Y-93540061D01*
X165757226Y-93340102D01*
X165679205Y-93151744D01*
X165587500Y-93014497D01*
X165587500Y-91643503D01*
X165679205Y-91506256D01*
X165757226Y-91317898D01*
X165797000Y-91117939D01*
X165797000Y-90914061D01*
X165757226Y-90714102D01*
X165679205Y-90525744D01*
X165565937Y-90356226D01*
X165421774Y-90212063D01*
X165252256Y-90098795D01*
X165063898Y-90020774D01*
X164863939Y-89981000D01*
X164660061Y-89981000D01*
X164460102Y-90020774D01*
X164271744Y-90098795D01*
X164102226Y-90212063D01*
X163958063Y-90356226D01*
X163844795Y-90525744D01*
X163766774Y-90714102D01*
X163727000Y-90914061D01*
X163727000Y-91117939D01*
X163766774Y-91317898D01*
X163844795Y-91506256D01*
X163936500Y-91643503D01*
X163936501Y-93014496D01*
X163844795Y-93151744D01*
X163766774Y-93340102D01*
X163734572Y-93501995D01*
X162512966Y-94723602D01*
X162481459Y-94749459D01*
X162412214Y-94833835D01*
X162378301Y-94875158D01*
X162369508Y-94891609D01*
X162301647Y-95018567D01*
X162254444Y-95174175D01*
X162253224Y-95186567D01*
X162238506Y-95336000D01*
X162242500Y-95376551D01*
X162242501Y-96908496D01*
X162150795Y-97045744D01*
X162072774Y-97234102D01*
X162033000Y-97434061D01*
X159349772Y-97434061D01*
X159282774Y-97367063D01*
X159113256Y-97253795D01*
X158924898Y-97175774D01*
X158724939Y-97136000D01*
X158521061Y-97136000D01*
X158321102Y-97175774D01*
X158132744Y-97253795D01*
X157963226Y-97367063D01*
X157819063Y-97511226D01*
X157730250Y-97644145D01*
X157716256Y-97634795D01*
X157527898Y-97556774D01*
X157327939Y-97517000D01*
X157124061Y-97517000D01*
X156924102Y-97556774D01*
X156735744Y-97634795D01*
X156566226Y-97748063D01*
X156422063Y-97892226D01*
X156308795Y-98061744D01*
X156230774Y-98250102D01*
X156191000Y-98450061D01*
X156191000Y-98653939D01*
X156230774Y-98853898D01*
X156308795Y-99042256D01*
X156422063Y-99211774D01*
X156566226Y-99355937D01*
X156735744Y-99469205D01*
X156924102Y-99547226D01*
X157085996Y-99579429D01*
X158178506Y-100671939D01*
X158178507Y-107068496D01*
X158086801Y-107205744D01*
X158008780Y-107394102D01*
X157969006Y-107594061D01*
X157969006Y-107797939D01*
X158008780Y-107997898D01*
X158086801Y-108186256D01*
X158200069Y-108355774D01*
X158344232Y-108499937D01*
X158513750Y-108613205D01*
X158702108Y-108691226D01*
X158902067Y-108731000D01*
X159105945Y-108731000D01*
X159194500Y-108713385D01*
X159194501Y-118149068D01*
X131895022Y-90849589D01*
X137553000Y-90849589D01*
X137553000Y-91122411D01*
X137606225Y-91389989D01*
X137710629Y-91642043D01*
X137862201Y-91868886D01*
X138055114Y-92061799D01*
X138281957Y-92213371D01*
X138534011Y-92317775D01*
X138801589Y-92371000D01*
X139074411Y-92371000D01*
X139341989Y-92317775D01*
X139594043Y-92213371D01*
X139820886Y-92061799D01*
X140013799Y-91868886D01*
X140165371Y-91642043D01*
X140269775Y-91389989D01*
X140323000Y-91122411D01*
X140323000Y-90849589D01*
X140269775Y-90582011D01*
X140165371Y-90329957D01*
X140013799Y-90103114D01*
X139820886Y-89910201D01*
X139594043Y-89758629D01*
X139341989Y-89654225D01*
X139074411Y-89601000D01*
X138801589Y-89601000D01*
X138534011Y-89654225D01*
X138281957Y-89758629D01*
X138055114Y-89910201D01*
X137862201Y-90103114D01*
X137710629Y-90329957D01*
X137606225Y-90582011D01*
X137553000Y-90849589D01*
X131895022Y-90849589D01*
X130406398Y-89360966D01*
X130380541Y-89329459D01*
X130254842Y-89226301D01*
X130111434Y-89149647D01*
X129955826Y-89102444D01*
X129834553Y-89090500D01*
X129834550Y-89090500D01*
X129794000Y-89086506D01*
X129753450Y-89090500D01*
X125341503Y-89090500D01*
X125204256Y-88998795D01*
X125015898Y-88920774D01*
X124815939Y-88881000D01*
X124612061Y-88881000D01*
X124412102Y-88920774D01*
X124223744Y-88998795D01*
X124054226Y-89112063D01*
X123910063Y-89256226D01*
X123796795Y-89425744D01*
X123718774Y-89614102D01*
X123679000Y-89814061D01*
X123679000Y-89931026D01*
X123650102Y-89936774D01*
X123461744Y-90014795D01*
X123292226Y-90128063D01*
X123148063Y-90272226D01*
X123034795Y-90441744D01*
X122956774Y-90630102D01*
X122917000Y-90830061D01*
X122917000Y-91033939D01*
X122956774Y-91233898D01*
X123034795Y-91422256D01*
X123148063Y-91591774D01*
X123292226Y-91735937D01*
X123461744Y-91849205D01*
X123650102Y-91927226D01*
X123850061Y-91967000D01*
X124053939Y-91967000D01*
X124253898Y-91927226D01*
X124264564Y-91922808D01*
X124264564Y-91984523D01*
X124304338Y-92184482D01*
X124382359Y-92372840D01*
X124495627Y-92542358D01*
X124639790Y-92686521D01*
X124809308Y-92799789D01*
X124997666Y-92877810D01*
X125197625Y-92917584D01*
X125401503Y-92917584D01*
X125601462Y-92877810D01*
X125789820Y-92799789D01*
X125927067Y-92708084D01*
X129386652Y-92708084D01*
X152336501Y-115657935D01*
X152336500Y-119730070D01*
X150838502Y-118232072D01*
X150868000Y-118232072D01*
X150992482Y-118219812D01*
X151112180Y-118183502D01*
X151222494Y-118124537D01*
X151319185Y-118045185D01*
X151398537Y-117948494D01*
X151457502Y-117838180D01*
X151493812Y-117718482D01*
X151506072Y-117594000D01*
X151506072Y-116594000D01*
X151493812Y-116469518D01*
X151457502Y-116349820D01*
X151398537Y-116239506D01*
X151319185Y-116142815D01*
X151222494Y-116063463D01*
X151112180Y-116004498D01*
X150992482Y-115968188D01*
X150868000Y-115955928D01*
X149868000Y-115955928D01*
X149743518Y-115968188D01*
X149623820Y-116004498D01*
X149540774Y-116048888D01*
X149429067Y-116002617D01*
X149209788Y-115959000D01*
X148986212Y-115959000D01*
X148766933Y-116002617D01*
X148560376Y-116088176D01*
X148374480Y-116212388D01*
X148216388Y-116370480D01*
X148092176Y-116556376D01*
X148006617Y-116762933D01*
X147963000Y-116982212D01*
X147963000Y-117205788D01*
X148006617Y-117425067D01*
X148053603Y-117538500D01*
X143089933Y-117538500D01*
X132415929Y-106864497D01*
X132390072Y-106832990D01*
X132264373Y-106729832D01*
X132120965Y-106653178D01*
X131965357Y-106605975D01*
X131844084Y-106594031D01*
X131844081Y-106594031D01*
X131803531Y-106590037D01*
X131762981Y-106594031D01*
X129992984Y-106594031D01*
X129855737Y-106502326D01*
X129667379Y-106424305D01*
X129467420Y-106384531D01*
X129263542Y-106384531D01*
X129063583Y-106424305D01*
X128875225Y-106502326D01*
X128705707Y-106615594D01*
X128658367Y-106662934D01*
X127638252Y-105642820D01*
X132378130Y-105642820D01*
X132418680Y-105646814D01*
X132459230Y-105642820D01*
X132459233Y-105642820D01*
X132580506Y-105630876D01*
X132736114Y-105583673D01*
X132879522Y-105507019D01*
X133005221Y-105403861D01*
X133031078Y-105372354D01*
X134252004Y-104151428D01*
X134413898Y-104119226D01*
X134602256Y-104041205D01*
X134771774Y-103927937D01*
X134915937Y-103783774D01*
X135029205Y-103614256D01*
X135107226Y-103425898D01*
X135147000Y-103225939D01*
X135147000Y-103022061D01*
X135107226Y-102822102D01*
X135029205Y-102633744D01*
X134915937Y-102464226D01*
X134771774Y-102320063D01*
X134602256Y-102206795D01*
X134413898Y-102128774D01*
X134213939Y-102089000D01*
X134010061Y-102089000D01*
X133810102Y-102128774D01*
X133621744Y-102206795D01*
X133516988Y-102276791D01*
X133420059Y-102131726D01*
X133275896Y-101987563D01*
X133106378Y-101874295D01*
X132918020Y-101796274D01*
X132718061Y-101756500D01*
X132514183Y-101756500D01*
X132314224Y-101796274D01*
X132244754Y-101825049D01*
X132231768Y-101812063D01*
X132062250Y-101698795D01*
X131873892Y-101620774D01*
X131673933Y-101581000D01*
X131591000Y-101581000D01*
X131591000Y-101498061D01*
X131573384Y-101409500D01*
X133738497Y-101409500D01*
X133875744Y-101501205D01*
X134064102Y-101579226D01*
X134264061Y-101619000D01*
X134467939Y-101619000D01*
X134667898Y-101579226D01*
X134856256Y-101501205D01*
X135025774Y-101387937D01*
X135169937Y-101243774D01*
X135283205Y-101074256D01*
X135361226Y-100885898D01*
X135401000Y-100685939D01*
X135401000Y-100482061D01*
X135361226Y-100282102D01*
X135283205Y-100093744D01*
X135169937Y-99924226D01*
X135069660Y-99823949D01*
X135100294Y-99669939D01*
X135100294Y-99466061D01*
X135060520Y-99266102D01*
X134982499Y-99077744D01*
X134869231Y-98908226D01*
X134725068Y-98764063D01*
X134555550Y-98650795D01*
X134367192Y-98572774D01*
X134167233Y-98533000D01*
X133963355Y-98533000D01*
X133763396Y-98572774D01*
X133575038Y-98650795D01*
X133405520Y-98764063D01*
X133363583Y-98806000D01*
X129398606Y-98806000D01*
X129101975Y-98509370D01*
X129101975Y-98450061D01*
X129062201Y-98250102D01*
X128984180Y-98061744D01*
X128870912Y-97892226D01*
X128726749Y-97748063D01*
X128557231Y-97634795D01*
X128368873Y-97556774D01*
X128168914Y-97517000D01*
X127965036Y-97517000D01*
X127933501Y-97523273D01*
X127933501Y-96525163D01*
X128063898Y-96499226D01*
X128252256Y-96421205D01*
X128421774Y-96307937D01*
X128565937Y-96163774D01*
X128679205Y-95994256D01*
X128757226Y-95805898D01*
X128797000Y-95605939D01*
X128797000Y-95402061D01*
X128757226Y-95202102D01*
X128679205Y-95013744D01*
X128565937Y-94844226D01*
X128421774Y-94700063D01*
X128252256Y-94586795D01*
X128063898Y-94508774D01*
X127863939Y-94469000D01*
X127660061Y-94469000D01*
X127460102Y-94508774D01*
X127271744Y-94586795D01*
X127102226Y-94700063D01*
X126958063Y-94844226D01*
X126844795Y-95013744D01*
X126766774Y-95202102D01*
X126734572Y-95363996D01*
X126552967Y-95545601D01*
X126521460Y-95571458D01*
X126454186Y-95653433D01*
X126418302Y-95697157D01*
X126365019Y-95796842D01*
X126341648Y-95840566D01*
X126294445Y-95996174D01*
X126283988Y-96102353D01*
X126278507Y-96157999D01*
X126282501Y-96198550D01*
X126282502Y-99127441D01*
X126278507Y-99168001D01*
X126294446Y-99329827D01*
X126341648Y-99485434D01*
X126418302Y-99628843D01*
X126460429Y-99680174D01*
X126521461Y-99754542D01*
X126552962Y-99780394D01*
X127547067Y-100774500D01*
X120436550Y-100774500D01*
X120396000Y-100770506D01*
X120355449Y-100774500D01*
X120355447Y-100774500D01*
X120234174Y-100786444D01*
X120108845Y-100824462D01*
X120078566Y-100833647D01*
X119935157Y-100910301D01*
X119873596Y-100960823D01*
X119809459Y-101013459D01*
X119783606Y-101044961D01*
X119239996Y-101588572D01*
X119078102Y-101620774D01*
X118889744Y-101698795D01*
X118720226Y-101812063D01*
X118576063Y-101956226D01*
X118462795Y-102125744D01*
X118384774Y-102314102D01*
X118345000Y-102514061D01*
X118345000Y-102612487D01*
X114935000Y-99202487D01*
X114935000Y-85969589D01*
X137553000Y-85969589D01*
X137553000Y-86242411D01*
X137606225Y-86509989D01*
X137710629Y-86762043D01*
X137862201Y-86988886D01*
X138055114Y-87181799D01*
X138281957Y-87333371D01*
X138534011Y-87437775D01*
X138801589Y-87491000D01*
X139074411Y-87491000D01*
X139341989Y-87437775D01*
X139594043Y-87333371D01*
X139820886Y-87181799D01*
X140013799Y-86988886D01*
X140165371Y-86762043D01*
X140269775Y-86509989D01*
X140323000Y-86242411D01*
X140323000Y-85969589D01*
X140269775Y-85702011D01*
X140165371Y-85449957D01*
X140013799Y-85223114D01*
X139820886Y-85030201D01*
X139594043Y-84878629D01*
X139341989Y-84774225D01*
X139074411Y-84721000D01*
X138801589Y-84721000D01*
X138534011Y-84774225D01*
X138281957Y-84878629D01*
X138055114Y-85030201D01*
X137862201Y-85223114D01*
X137710629Y-85449957D01*
X137606225Y-85702011D01*
X137553000Y-85969589D01*
X114935000Y-85969589D01*
X114935000Y-79503445D01*
X121301446Y-73137000D01*
X125429796Y-73137000D01*
X125758137Y-73104661D01*
X126179436Y-72976862D01*
X126567707Y-72769326D01*
X126908030Y-72490030D01*
X127169031Y-72172000D01*
X127532289Y-72172000D01*
X127466063Y-72238226D01*
X127352795Y-72407744D01*
X127274774Y-72596102D01*
X127235000Y-72796061D01*
X127235000Y-72999939D01*
X127274774Y-73199898D01*
X127352795Y-73388256D01*
X127466063Y-73557774D01*
X127610226Y-73701937D01*
X127779744Y-73815205D01*
X127968102Y-73893226D01*
X128168061Y-73933000D01*
X128371939Y-73933000D01*
X128571898Y-73893226D01*
X128760256Y-73815205D01*
X128929774Y-73701937D01*
X128971711Y-73660000D01*
X140146369Y-73660000D01*
X137155654Y-76650716D01*
X137126578Y-76674578D01*
X137102721Y-76703648D01*
X136082370Y-77724000D01*
X135829711Y-77724000D01*
X135787774Y-77682063D01*
X135618256Y-77568795D01*
X135429898Y-77490774D01*
X135229939Y-77451000D01*
X135026061Y-77451000D01*
X134826102Y-77490774D01*
X134637744Y-77568795D01*
X134468226Y-77682063D01*
X134324063Y-77826226D01*
X134210795Y-77995744D01*
X134132774Y-78184102D01*
X134093000Y-78384061D01*
X134093000Y-78587939D01*
X134132774Y-78787898D01*
X134210795Y-78976256D01*
X134324063Y-79145774D01*
X134468226Y-79289937D01*
X134604759Y-79381165D01*
X134601000Y-79400061D01*
X134601000Y-79603939D01*
X134640774Y-79803898D01*
X134718795Y-79992256D01*
X134832063Y-80161774D01*
X134976226Y-80305937D01*
X135145744Y-80419205D01*
X135230953Y-80454500D01*
X134660550Y-80454500D01*
X134620000Y-80450506D01*
X134579449Y-80454500D01*
X134579447Y-80454500D01*
X134458174Y-80466444D01*
X134302566Y-80513647D01*
X134159157Y-80590301D01*
X134102715Y-80636622D01*
X134033459Y-80693459D01*
X134007606Y-80724961D01*
X133262068Y-81470500D01*
X129122885Y-81470500D01*
X129110541Y-81455459D01*
X128984842Y-81352301D01*
X128841434Y-81275647D01*
X128685826Y-81228444D01*
X128564553Y-81216500D01*
X128483447Y-81216500D01*
X128362174Y-81228444D01*
X128254851Y-81261000D01*
X128168061Y-81261000D01*
X127968102Y-81300774D01*
X127779744Y-81378795D01*
X127610226Y-81492063D01*
X127466063Y-81636226D01*
X127352795Y-81805744D01*
X127274774Y-81994102D01*
X127235000Y-82194061D01*
X127235000Y-82397939D01*
X127274774Y-82597898D01*
X127352795Y-82786256D01*
X127466063Y-82955774D01*
X127610226Y-83099937D01*
X127779744Y-83213205D01*
X127968102Y-83291226D01*
X128168061Y-83331000D01*
X128371939Y-83331000D01*
X128571898Y-83291226D01*
X128760256Y-83213205D01*
X128897503Y-83121500D01*
X133563450Y-83121500D01*
X133604000Y-83125494D01*
X133644550Y-83121500D01*
X133644553Y-83121500D01*
X133765826Y-83109556D01*
X133921434Y-83062353D01*
X134064842Y-82985699D01*
X134190541Y-82882541D01*
X134216398Y-82851034D01*
X134961933Y-82105500D01*
X143168068Y-82105500D01*
X149034500Y-87971933D01*
X149034501Y-91145440D01*
X149030506Y-91186000D01*
X149046445Y-91347826D01*
X149093647Y-91503433D01*
X149170301Y-91646842D01*
X149226052Y-91714774D01*
X149273460Y-91772541D01*
X149304961Y-91798393D01*
X150356572Y-92850004D01*
X150388774Y-93011898D01*
X150466795Y-93200256D01*
X150580063Y-93369774D01*
X150724226Y-93513937D01*
X150893744Y-93627205D01*
X151082102Y-93705226D01*
X151282061Y-93745000D01*
X151485939Y-93745000D01*
X151685898Y-93705226D01*
X151874256Y-93627205D01*
X152043774Y-93513937D01*
X152187937Y-93369774D01*
X152301205Y-93200256D01*
X152379226Y-93011898D01*
X152419000Y-92811939D01*
X152419000Y-92608061D01*
X152379226Y-92408102D01*
X152301205Y-92219744D01*
X152187937Y-92050226D01*
X152043774Y-91906063D01*
X151874256Y-91792795D01*
X151725547Y-91731197D01*
X151747256Y-91722205D01*
X151916774Y-91608937D01*
X152060937Y-91464774D01*
X152174205Y-91295256D01*
X152252226Y-91106898D01*
X152292000Y-90906939D01*
X152292000Y-90703061D01*
X152252226Y-90503102D01*
X152174205Y-90314744D01*
X152060937Y-90145226D01*
X151955500Y-90039789D01*
X151955500Y-87162542D01*
X151959493Y-87121999D01*
X151955500Y-87081456D01*
X151955500Y-87081447D01*
X151943556Y-86960174D01*
X151896353Y-86804566D01*
X151819699Y-86661158D01*
X151716541Y-86535459D01*
X151685040Y-86509607D01*
X144122398Y-78946966D01*
X144096541Y-78915459D01*
X143970842Y-78812301D01*
X143827434Y-78735647D01*
X143671826Y-78688444D01*
X143550553Y-78676500D01*
X143550550Y-78676500D01*
X143510000Y-78672506D01*
X143469450Y-78676500D01*
X137285130Y-78676500D01*
X138180352Y-77781279D01*
X138209422Y-77757422D01*
X138233284Y-77728346D01*
X141285631Y-74676000D01*
X152968289Y-74676000D01*
X153010226Y-74717937D01*
X153179744Y-74831205D01*
X153368102Y-74909226D01*
X153568061Y-74949000D01*
X153771939Y-74949000D01*
X153971898Y-74909226D01*
X154160256Y-74831205D01*
X154329774Y-74717937D01*
X154473937Y-74573774D01*
X154587205Y-74404256D01*
X154665226Y-74215898D01*
X154705000Y-74015939D01*
X154705000Y-73812061D01*
X154665226Y-73612102D01*
X154587205Y-73423744D01*
X154473937Y-73254226D01*
X154329774Y-73110063D01*
X154225989Y-73040716D01*
X154333205Y-72880256D01*
X154411226Y-72691898D01*
X154451000Y-72491939D01*
X154451000Y-72288061D01*
X154427914Y-72172000D01*
X156802969Y-72172000D01*
X157063970Y-72490030D01*
X157404293Y-72769326D01*
X157792564Y-72976862D01*
X158213863Y-73104661D01*
X158542204Y-73137000D01*
X165561796Y-73137000D01*
X165890137Y-73104661D01*
X166311436Y-72976862D01*
X166699707Y-72769326D01*
X167040030Y-72490030D01*
X167301031Y-72172000D01*
X176868969Y-72172000D01*
X177129970Y-72490030D01*
X177470293Y-72769326D01*
X177858564Y-72976862D01*
X178279863Y-73104661D01*
X178608204Y-73137000D01*
X185627796Y-73137000D01*
X185956137Y-73104661D01*
X186377436Y-72976862D01*
X186765707Y-72769326D01*
X187106030Y-72490030D01*
X187385326Y-72149707D01*
X187592862Y-71761436D01*
X187720661Y-71340137D01*
X187763814Y-70902000D01*
X187720661Y-70463863D01*
X187592862Y-70042564D01*
X187385326Y-69654293D01*
X187181147Y-69405500D01*
X189142068Y-69405500D01*
X191960500Y-72223933D01*
G37*
%TD.AperFunction*%
D31*
X108405490Y-103119155D02*
X108431343Y-103150657D01*
X108476237Y-103187500D01*
X108557041Y-103253815D01*
X108654109Y-103305699D01*
X108700450Y-103330469D01*
X108856058Y-103377672D01*
X108977331Y-103389616D01*
X108977333Y-103389616D01*
X109017883Y-103393610D01*
X109058434Y-103389616D01*
X114033184Y-103389616D01*
X117807060Y-107163492D01*
X117783826Y-107156444D01*
X117662553Y-107144500D01*
X117662550Y-107144500D01*
X117622000Y-107140506D01*
X117581450Y-107144500D01*
X110428419Y-107144500D01*
X110329710Y-107063491D01*
X110141220Y-106962741D01*
X109936697Y-106900700D01*
X109777294Y-106885000D01*
X109170706Y-106885000D01*
X109011303Y-106900700D01*
X108806780Y-106962741D01*
X108618290Y-107063491D01*
X108453078Y-107199078D01*
X108317491Y-107364290D01*
X108216741Y-107552780D01*
X108154700Y-107757303D01*
X108133751Y-107970000D01*
X108154700Y-108182697D01*
X108216741Y-108387220D01*
X108283761Y-108512605D01*
X108281382Y-108515503D01*
X108201625Y-108664717D01*
X108152512Y-108826623D01*
X108135928Y-108995000D01*
X108135928Y-109445000D01*
X108152512Y-109613377D01*
X108201625Y-109775283D01*
X108281382Y-109924497D01*
X108388716Y-110055284D01*
X108519503Y-110162618D01*
X108668717Y-110242375D01*
X108830623Y-110291488D01*
X108999000Y-110308072D01*
X109949000Y-110308072D01*
X110117377Y-110291488D01*
X110279283Y-110242375D01*
X110428497Y-110162618D01*
X110559284Y-110055284D01*
X110567314Y-110045500D01*
X117006068Y-110045500D01*
X126387607Y-119427040D01*
X126413459Y-119458541D01*
X126477596Y-119511177D01*
X126539157Y-119561699D01*
X126586197Y-119586842D01*
X126682566Y-119638353D01*
X126838174Y-119685556D01*
X126959447Y-119697500D01*
X126959449Y-119697500D01*
X126999999Y-119701494D01*
X127040550Y-119697500D01*
X137072068Y-119697500D01*
X139774089Y-122399523D01*
X139799937Y-122431019D01*
X139831433Y-122456867D01*
X139831436Y-122456870D01*
X139925635Y-122534177D01*
X140042055Y-122596405D01*
X140069044Y-122610831D01*
X140224652Y-122658034D01*
X140345925Y-122669978D01*
X140345927Y-122669978D01*
X140386478Y-122673972D01*
X140427028Y-122669978D01*
X142968385Y-122669978D01*
X143105632Y-122761683D01*
X143293990Y-122839704D01*
X143493949Y-122879478D01*
X143697827Y-122879478D01*
X143897786Y-122839704D01*
X144086144Y-122761683D01*
X144255662Y-122648415D01*
X144399825Y-122504252D01*
X144513093Y-122334734D01*
X144591114Y-122146376D01*
X144630888Y-121946417D01*
X144630888Y-121742539D01*
X144591114Y-121542580D01*
X144513093Y-121354222D01*
X144399825Y-121184704D01*
X144398435Y-121183314D01*
X144427205Y-121140256D01*
X144505226Y-120951898D01*
X144545000Y-120751939D01*
X144545000Y-120548061D01*
X144527384Y-120459500D01*
X148248068Y-120459500D01*
X159091431Y-131302864D01*
X159055251Y-131327038D01*
X158911088Y-131471201D01*
X158797820Y-131640719D01*
X158719799Y-131829077D01*
X158687597Y-131990969D01*
X156122068Y-134556500D01*
X134660550Y-134556500D01*
X134619999Y-134552506D01*
X134579449Y-134556500D01*
X134579447Y-134556500D01*
X134458174Y-134568444D01*
X134322886Y-134609483D01*
X134302566Y-134615647D01*
X134159157Y-134692301D01*
X134097596Y-134742823D01*
X134033459Y-134795459D01*
X134007608Y-134826959D01*
X125542640Y-143291928D01*
X124372000Y-143291928D01*
X124247518Y-143304188D01*
X124127820Y-143340498D01*
X124017506Y-143399463D01*
X123920815Y-143478815D01*
X123841463Y-143575506D01*
X123782498Y-143685820D01*
X123746188Y-143805518D01*
X123733928Y-143930000D01*
X123733928Y-145478500D01*
X122319619Y-145478500D01*
X118780083Y-141938966D01*
X118754226Y-141907459D01*
X118628527Y-141804301D01*
X118485119Y-141727647D01*
X118329511Y-141680444D01*
X118208238Y-141668500D01*
X118208235Y-141668500D01*
X118167685Y-141664506D01*
X118127135Y-141668500D01*
X116705501Y-141668500D01*
X116568254Y-141576795D01*
X116379896Y-141498774D01*
X116179937Y-141459000D01*
X115976059Y-141459000D01*
X115776100Y-141498774D01*
X115587742Y-141576795D01*
X115418224Y-141690063D01*
X115274061Y-141834226D01*
X115160793Y-142003744D01*
X115082772Y-142192102D01*
X115068199Y-142265367D01*
X115057587Y-142234275D01*
X114850146Y-141846179D01*
X114417078Y-141522132D01*
X112275210Y-143664000D01*
X114417078Y-145805868D01*
X114850146Y-145481821D01*
X114986771Y-145203609D01*
X116297446Y-145203609D01*
X116351886Y-145409128D01*
X116445375Y-145600077D01*
X116574319Y-145769118D01*
X116733764Y-145909756D01*
X116917583Y-146016585D01*
X116952112Y-146032129D01*
X117114000Y-145920743D01*
X117114000Y-145034000D01*
X116442218Y-145034000D01*
X116297446Y-145203609D01*
X114986771Y-145203609D01*
X115148406Y-144874469D01*
X115286303Y-144356391D01*
X116297446Y-144356391D01*
X116442218Y-144526000D01*
X117114000Y-144526000D01*
X117114000Y-143639257D01*
X116952112Y-143527871D01*
X116917583Y-143543415D01*
X116733764Y-143650244D01*
X116574319Y-143790882D01*
X116445375Y-143959923D01*
X116351886Y-144150872D01*
X116297446Y-144356391D01*
X115286303Y-144356391D01*
X115322447Y-144220599D01*
X115365581Y-143545339D01*
X115319416Y-143199129D01*
X115418224Y-143297937D01*
X115587742Y-143411205D01*
X115776100Y-143489226D01*
X115976059Y-143529000D01*
X116179937Y-143529000D01*
X116379896Y-143489226D01*
X116568254Y-143411205D01*
X116705501Y-143319500D01*
X117825753Y-143319500D01*
X118030890Y-143524637D01*
X117913503Y-143587382D01*
X117905447Y-143593994D01*
X117818417Y-143543415D01*
X117783888Y-143527871D01*
X117622000Y-143639257D01*
X117622000Y-143925373D01*
X117595625Y-143974717D01*
X117546512Y-144136623D01*
X117529928Y-144305000D01*
X117529928Y-145255000D01*
X117546512Y-145423377D01*
X117595625Y-145585283D01*
X117622000Y-145634627D01*
X117622000Y-145920743D01*
X117783888Y-146032129D01*
X117818417Y-146016585D01*
X117905447Y-145966006D01*
X117913503Y-145972618D01*
X118062717Y-146052375D01*
X118224623Y-146101488D01*
X118393000Y-146118072D01*
X118843000Y-146118072D01*
X119011377Y-146101488D01*
X119173283Y-146052375D01*
X119322497Y-145972618D01*
X119453284Y-145865284D01*
X119560618Y-145734497D01*
X119640375Y-145585283D01*
X119689488Y-145423377D01*
X119706072Y-145255000D01*
X119706072Y-145199820D01*
X120746751Y-146240500D01*
X114001433Y-146240500D01*
X114057868Y-146165078D01*
X111916000Y-144023210D01*
X111901858Y-144037353D01*
X111542648Y-143678143D01*
X111556790Y-143664000D01*
X109414922Y-141522132D01*
X109283500Y-141620470D01*
X109283500Y-141162922D01*
X109774132Y-141162922D01*
X111916000Y-143304790D01*
X114057868Y-141162922D01*
X113733821Y-140729854D01*
X113126469Y-140431594D01*
X112472599Y-140257553D01*
X111797339Y-140214419D01*
X111126639Y-140303852D01*
X110486275Y-140522413D01*
X110098179Y-140729854D01*
X109774132Y-141162922D01*
X109283500Y-141162922D01*
X109283500Y-139787932D01*
X110122004Y-138949428D01*
X110283898Y-138917226D01*
X110320656Y-138902000D01*
X116274186Y-138902000D01*
X116317339Y-139340137D01*
X116445138Y-139761436D01*
X116652674Y-140149707D01*
X116931970Y-140490030D01*
X117272293Y-140769326D01*
X117660564Y-140976862D01*
X118081863Y-141104661D01*
X118410204Y-141137000D01*
X125429796Y-141137000D01*
X125758137Y-141104661D01*
X126179436Y-140976862D01*
X126567707Y-140769326D01*
X126908030Y-140490030D01*
X127187326Y-140149707D01*
X127394862Y-139761436D01*
X127522661Y-139340137D01*
X127565814Y-138902000D01*
X127522661Y-138463863D01*
X127394862Y-138042564D01*
X127187326Y-137654293D01*
X126908030Y-137313970D01*
X126567707Y-137034674D01*
X126179436Y-136827138D01*
X125758137Y-136699339D01*
X125429796Y-136667000D01*
X118410204Y-136667000D01*
X118081863Y-136699339D01*
X117660564Y-136827138D01*
X117272293Y-137034674D01*
X116931970Y-137313970D01*
X116652674Y-137654293D01*
X116445138Y-138042564D01*
X116317339Y-138463863D01*
X116274186Y-138902000D01*
X110320656Y-138902000D01*
X110472256Y-138839205D01*
X110641774Y-138725937D01*
X110785937Y-138581774D01*
X110899205Y-138412256D01*
X110977226Y-138223898D01*
X111017000Y-138023939D01*
X111017000Y-137820061D01*
X110977226Y-137620102D01*
X110899205Y-137431744D01*
X110785937Y-137262226D01*
X110641774Y-137118063D01*
X110472256Y-137004795D01*
X110283898Y-136926774D01*
X110083939Y-136887000D01*
X109880061Y-136887000D01*
X109747000Y-136913467D01*
X109747000Y-136804061D01*
X109707226Y-136604102D01*
X109629205Y-136415744D01*
X109515937Y-136246226D01*
X109371774Y-136102063D01*
X109202256Y-135988795D01*
X109013898Y-135910774D01*
X108813939Y-135871000D01*
X108610061Y-135871000D01*
X108410102Y-135910774D01*
X108221744Y-135988795D01*
X108052226Y-136102063D01*
X107908063Y-136246226D01*
X107794795Y-136415744D01*
X107716774Y-136604102D01*
X107684572Y-136765996D01*
X107521000Y-136929568D01*
X107521000Y-128086000D01*
X124266928Y-128086000D01*
X124266928Y-130486000D01*
X124279188Y-130610482D01*
X124315498Y-130730180D01*
X124374463Y-130840494D01*
X124453815Y-130937185D01*
X124550506Y-131016537D01*
X124660820Y-131075502D01*
X124780518Y-131111812D01*
X124905000Y-131124072D01*
X126555000Y-131124072D01*
X126679482Y-131111812D01*
X126799180Y-131075502D01*
X126909494Y-131016537D01*
X127006185Y-130937185D01*
X127085537Y-130840494D01*
X127144502Y-130730180D01*
X127180812Y-130610482D01*
X127193072Y-130486000D01*
X127193072Y-130444212D01*
X135263000Y-130444212D01*
X135263000Y-130667788D01*
X135306617Y-130887067D01*
X135392176Y-131093624D01*
X135516388Y-131279520D01*
X135674480Y-131437612D01*
X135860376Y-131561824D01*
X136066933Y-131647383D01*
X136286212Y-131691000D01*
X136509788Y-131691000D01*
X136729067Y-131647383D01*
X136935624Y-131561824D01*
X137121520Y-131437612D01*
X137279612Y-131279520D01*
X137403824Y-131093624D01*
X137489383Y-130887067D01*
X137530406Y-130680829D01*
X139062830Y-129148406D01*
X139269067Y-129107383D01*
X139475624Y-129021824D01*
X139661520Y-128897612D01*
X139819612Y-128739520D01*
X139943824Y-128553624D01*
X140029383Y-128347067D01*
X140073000Y-128127788D01*
X140073000Y-127904212D01*
X140029383Y-127684933D01*
X139943824Y-127478376D01*
X139819612Y-127292480D01*
X139661520Y-127134388D01*
X139475624Y-127010176D01*
X139269067Y-126924617D01*
X139049788Y-126881000D01*
X138826212Y-126881000D01*
X138606933Y-126924617D01*
X138400376Y-127010176D01*
X138214480Y-127134388D01*
X138056388Y-127292480D01*
X137932176Y-127478376D01*
X137846617Y-127684933D01*
X137805594Y-127891170D01*
X136273171Y-129423594D01*
X136066933Y-129464617D01*
X135860376Y-129550176D01*
X135674480Y-129674388D01*
X135516388Y-129832480D01*
X135392176Y-130018376D01*
X135306617Y-130224933D01*
X135263000Y-130444212D01*
X127193072Y-130444212D01*
X127193072Y-128412212D01*
X133484998Y-128412212D01*
X133484998Y-128635788D01*
X133528615Y-128855067D01*
X133614174Y-129061624D01*
X133738386Y-129247520D01*
X133896478Y-129405612D01*
X134082374Y-129529824D01*
X134288931Y-129615383D01*
X134508210Y-129659000D01*
X134731786Y-129659000D01*
X134951065Y-129615383D01*
X135157622Y-129529824D01*
X135343518Y-129405612D01*
X135501610Y-129247520D01*
X135625822Y-129061624D01*
X135711381Y-128855067D01*
X135752403Y-128648832D01*
X137030830Y-127370406D01*
X137237067Y-127329383D01*
X137443624Y-127243824D01*
X137629520Y-127119612D01*
X137787612Y-126961520D01*
X137911824Y-126775624D01*
X137997383Y-126569067D01*
X138041000Y-126349788D01*
X138041000Y-126126212D01*
X137997383Y-125906933D01*
X137911824Y-125700376D01*
X137787612Y-125514480D01*
X137629520Y-125356388D01*
X137443624Y-125232176D01*
X137237067Y-125146617D01*
X137017788Y-125103000D01*
X136794212Y-125103000D01*
X136574933Y-125146617D01*
X136368376Y-125232176D01*
X136182480Y-125356388D01*
X136024388Y-125514480D01*
X135900176Y-125700376D01*
X135814617Y-125906933D01*
X135773594Y-126113170D01*
X134495171Y-127391594D01*
X134288931Y-127432617D01*
X134082374Y-127518176D01*
X133896478Y-127642388D01*
X133738386Y-127800480D01*
X133614174Y-127986376D01*
X133528615Y-128192933D01*
X133484998Y-128412212D01*
X127193072Y-128412212D01*
X127193072Y-128086000D01*
X127180812Y-127961518D01*
X127144502Y-127841820D01*
X127085537Y-127731506D01*
X127006185Y-127634815D01*
X126909494Y-127555463D01*
X126799180Y-127496498D01*
X126679482Y-127460188D01*
X126555000Y-127447928D01*
X124905000Y-127447928D01*
X124780518Y-127460188D01*
X124660820Y-127496498D01*
X124550506Y-127555463D01*
X124453815Y-127634815D01*
X124374463Y-127731506D01*
X124315498Y-127841820D01*
X124279188Y-127961518D01*
X124266928Y-128086000D01*
X107521000Y-128086000D01*
X107521000Y-102234664D01*
X108405490Y-103119155D01*
%TA.AperFunction,Conductor*%
D32*
G36*
X108405490Y-103119155D02*
G01*
X108431343Y-103150657D01*
X108476237Y-103187500D01*
X108557041Y-103253815D01*
X108654109Y-103305699D01*
X108700450Y-103330469D01*
X108856058Y-103377672D01*
X108977331Y-103389616D01*
X108977333Y-103389616D01*
X109017883Y-103393610D01*
X109058434Y-103389616D01*
X114033184Y-103389616D01*
X117807060Y-107163492D01*
X117783826Y-107156444D01*
X117662553Y-107144500D01*
X117662550Y-107144500D01*
X117622000Y-107140506D01*
X117581450Y-107144500D01*
X110428419Y-107144500D01*
X110329710Y-107063491D01*
X110141220Y-106962741D01*
X109936697Y-106900700D01*
X109777294Y-106885000D01*
X109170706Y-106885000D01*
X109011303Y-106900700D01*
X108806780Y-106962741D01*
X108618290Y-107063491D01*
X108453078Y-107199078D01*
X108317491Y-107364290D01*
X108216741Y-107552780D01*
X108154700Y-107757303D01*
X108133751Y-107970000D01*
X108154700Y-108182697D01*
X108216741Y-108387220D01*
X108283761Y-108512605D01*
X108281382Y-108515503D01*
X108201625Y-108664717D01*
X108152512Y-108826623D01*
X108135928Y-108995000D01*
X108135928Y-109445000D01*
X108152512Y-109613377D01*
X108201625Y-109775283D01*
X108281382Y-109924497D01*
X108388716Y-110055284D01*
X108519503Y-110162618D01*
X108668717Y-110242375D01*
X108830623Y-110291488D01*
X108999000Y-110308072D01*
X109949000Y-110308072D01*
X110117377Y-110291488D01*
X110279283Y-110242375D01*
X110428497Y-110162618D01*
X110559284Y-110055284D01*
X110567314Y-110045500D01*
X117006068Y-110045500D01*
X126387607Y-119427040D01*
X126413459Y-119458541D01*
X126477596Y-119511177D01*
X126539157Y-119561699D01*
X126586197Y-119586842D01*
X126682566Y-119638353D01*
X126838174Y-119685556D01*
X126959447Y-119697500D01*
X126959449Y-119697500D01*
X126999999Y-119701494D01*
X127040550Y-119697500D01*
X137072068Y-119697500D01*
X139774089Y-122399523D01*
X139799937Y-122431019D01*
X139831433Y-122456867D01*
X139831436Y-122456870D01*
X139925635Y-122534177D01*
X140042055Y-122596405D01*
X140069044Y-122610831D01*
X140224652Y-122658034D01*
X140345925Y-122669978D01*
X140345927Y-122669978D01*
X140386478Y-122673972D01*
X140427028Y-122669978D01*
X142968385Y-122669978D01*
X143105632Y-122761683D01*
X143293990Y-122839704D01*
X143493949Y-122879478D01*
X143697827Y-122879478D01*
X143897786Y-122839704D01*
X144086144Y-122761683D01*
X144255662Y-122648415D01*
X144399825Y-122504252D01*
X144513093Y-122334734D01*
X144591114Y-122146376D01*
X144630888Y-121946417D01*
X144630888Y-121742539D01*
X144591114Y-121542580D01*
X144513093Y-121354222D01*
X144399825Y-121184704D01*
X144398435Y-121183314D01*
X144427205Y-121140256D01*
X144505226Y-120951898D01*
X144545000Y-120751939D01*
X144545000Y-120548061D01*
X144527384Y-120459500D01*
X148248068Y-120459500D01*
X159091431Y-131302864D01*
X159055251Y-131327038D01*
X158911088Y-131471201D01*
X158797820Y-131640719D01*
X158719799Y-131829077D01*
X158687597Y-131990969D01*
X156122068Y-134556500D01*
X134660550Y-134556500D01*
X134619999Y-134552506D01*
X134579449Y-134556500D01*
X134579447Y-134556500D01*
X134458174Y-134568444D01*
X134322886Y-134609483D01*
X134302566Y-134615647D01*
X134159157Y-134692301D01*
X134097596Y-134742823D01*
X134033459Y-134795459D01*
X134007608Y-134826959D01*
X125542640Y-143291928D01*
X124372000Y-143291928D01*
X124247518Y-143304188D01*
X124127820Y-143340498D01*
X124017506Y-143399463D01*
X123920815Y-143478815D01*
X123841463Y-143575506D01*
X123782498Y-143685820D01*
X123746188Y-143805518D01*
X123733928Y-143930000D01*
X123733928Y-145478500D01*
X122319619Y-145478500D01*
X118780083Y-141938966D01*
X118754226Y-141907459D01*
X118628527Y-141804301D01*
X118485119Y-141727647D01*
X118329511Y-141680444D01*
X118208238Y-141668500D01*
X118208235Y-141668500D01*
X118167685Y-141664506D01*
X118127135Y-141668500D01*
X116705501Y-141668500D01*
X116568254Y-141576795D01*
X116379896Y-141498774D01*
X116179937Y-141459000D01*
X115976059Y-141459000D01*
X115776100Y-141498774D01*
X115587742Y-141576795D01*
X115418224Y-141690063D01*
X115274061Y-141834226D01*
X115160793Y-142003744D01*
X115082772Y-142192102D01*
X115068199Y-142265367D01*
X115057587Y-142234275D01*
X114850146Y-141846179D01*
X114417078Y-141522132D01*
X112275210Y-143664000D01*
X114417078Y-145805868D01*
X114850146Y-145481821D01*
X114986771Y-145203609D01*
X116297446Y-145203609D01*
X116351886Y-145409128D01*
X116445375Y-145600077D01*
X116574319Y-145769118D01*
X116733764Y-145909756D01*
X116917583Y-146016585D01*
X116952112Y-146032129D01*
X117114000Y-145920743D01*
X117114000Y-145034000D01*
X116442218Y-145034000D01*
X116297446Y-145203609D01*
X114986771Y-145203609D01*
X115148406Y-144874469D01*
X115286303Y-144356391D01*
X116297446Y-144356391D01*
X116442218Y-144526000D01*
X117114000Y-144526000D01*
X117114000Y-143639257D01*
X116952112Y-143527871D01*
X116917583Y-143543415D01*
X116733764Y-143650244D01*
X116574319Y-143790882D01*
X116445375Y-143959923D01*
X116351886Y-144150872D01*
X116297446Y-144356391D01*
X115286303Y-144356391D01*
X115322447Y-144220599D01*
X115365581Y-143545339D01*
X115319416Y-143199129D01*
X115418224Y-143297937D01*
X115587742Y-143411205D01*
X115776100Y-143489226D01*
X115976059Y-143529000D01*
X116179937Y-143529000D01*
X116379896Y-143489226D01*
X116568254Y-143411205D01*
X116705501Y-143319500D01*
X117825753Y-143319500D01*
X118030890Y-143524637D01*
X117913503Y-143587382D01*
X117905447Y-143593994D01*
X117818417Y-143543415D01*
X117783888Y-143527871D01*
X117622000Y-143639257D01*
X117622000Y-143925373D01*
X117595625Y-143974717D01*
X117546512Y-144136623D01*
X117529928Y-144305000D01*
X117529928Y-145255000D01*
X117546512Y-145423377D01*
X117595625Y-145585283D01*
X117622000Y-145634627D01*
X117622000Y-145920743D01*
X117783888Y-146032129D01*
X117818417Y-146016585D01*
X117905447Y-145966006D01*
X117913503Y-145972618D01*
X118062717Y-146052375D01*
X118224623Y-146101488D01*
X118393000Y-146118072D01*
X118843000Y-146118072D01*
X119011377Y-146101488D01*
X119173283Y-146052375D01*
X119322497Y-145972618D01*
X119453284Y-145865284D01*
X119560618Y-145734497D01*
X119640375Y-145585283D01*
X119689488Y-145423377D01*
X119706072Y-145255000D01*
X119706072Y-145199820D01*
X120746751Y-146240500D01*
X114001433Y-146240500D01*
X114057868Y-146165078D01*
X111916000Y-144023210D01*
X111901858Y-144037353D01*
X111542648Y-143678143D01*
X111556790Y-143664000D01*
X109414922Y-141522132D01*
X109283500Y-141620470D01*
X109283500Y-141162922D01*
X109774132Y-141162922D01*
X111916000Y-143304790D01*
X114057868Y-141162922D01*
X113733821Y-140729854D01*
X113126469Y-140431594D01*
X112472599Y-140257553D01*
X111797339Y-140214419D01*
X111126639Y-140303852D01*
X110486275Y-140522413D01*
X110098179Y-140729854D01*
X109774132Y-141162922D01*
X109283500Y-141162922D01*
X109283500Y-139787932D01*
X110122004Y-138949428D01*
X110283898Y-138917226D01*
X110320656Y-138902000D01*
X116274186Y-138902000D01*
X116317339Y-139340137D01*
X116445138Y-139761436D01*
X116652674Y-140149707D01*
X116931970Y-140490030D01*
X117272293Y-140769326D01*
X117660564Y-140976862D01*
X118081863Y-141104661D01*
X118410204Y-141137000D01*
X125429796Y-141137000D01*
X125758137Y-141104661D01*
X126179436Y-140976862D01*
X126567707Y-140769326D01*
X126908030Y-140490030D01*
X127187326Y-140149707D01*
X127394862Y-139761436D01*
X127522661Y-139340137D01*
X127565814Y-138902000D01*
X127522661Y-138463863D01*
X127394862Y-138042564D01*
X127187326Y-137654293D01*
X126908030Y-137313970D01*
X126567707Y-137034674D01*
X126179436Y-136827138D01*
X125758137Y-136699339D01*
X125429796Y-136667000D01*
X118410204Y-136667000D01*
X118081863Y-136699339D01*
X117660564Y-136827138D01*
X117272293Y-137034674D01*
X116931970Y-137313970D01*
X116652674Y-137654293D01*
X116445138Y-138042564D01*
X116317339Y-138463863D01*
X116274186Y-138902000D01*
X110320656Y-138902000D01*
X110472256Y-138839205D01*
X110641774Y-138725937D01*
X110785937Y-138581774D01*
X110899205Y-138412256D01*
X110977226Y-138223898D01*
X111017000Y-138023939D01*
X111017000Y-137820061D01*
X110977226Y-137620102D01*
X110899205Y-137431744D01*
X110785937Y-137262226D01*
X110641774Y-137118063D01*
X110472256Y-137004795D01*
X110283898Y-136926774D01*
X110083939Y-136887000D01*
X109880061Y-136887000D01*
X109747000Y-136913467D01*
X109747000Y-136804061D01*
X109707226Y-136604102D01*
X109629205Y-136415744D01*
X109515937Y-136246226D01*
X109371774Y-136102063D01*
X109202256Y-135988795D01*
X109013898Y-135910774D01*
X108813939Y-135871000D01*
X108610061Y-135871000D01*
X108410102Y-135910774D01*
X108221744Y-135988795D01*
X108052226Y-136102063D01*
X107908063Y-136246226D01*
X107794795Y-136415744D01*
X107716774Y-136604102D01*
X107684572Y-136765996D01*
X107521000Y-136929568D01*
X107521000Y-128086000D01*
X124266928Y-128086000D01*
X124266928Y-130486000D01*
X124279188Y-130610482D01*
X124315498Y-130730180D01*
X124374463Y-130840494D01*
X124453815Y-130937185D01*
X124550506Y-131016537D01*
X124660820Y-131075502D01*
X124780518Y-131111812D01*
X124905000Y-131124072D01*
X126555000Y-131124072D01*
X126679482Y-131111812D01*
X126799180Y-131075502D01*
X126909494Y-131016537D01*
X127006185Y-130937185D01*
X127085537Y-130840494D01*
X127144502Y-130730180D01*
X127180812Y-130610482D01*
X127193072Y-130486000D01*
X127193072Y-130444212D01*
X135263000Y-130444212D01*
X135263000Y-130667788D01*
X135306617Y-130887067D01*
X135392176Y-131093624D01*
X135516388Y-131279520D01*
X135674480Y-131437612D01*
X135860376Y-131561824D01*
X136066933Y-131647383D01*
X136286212Y-131691000D01*
X136509788Y-131691000D01*
X136729067Y-131647383D01*
X136935624Y-131561824D01*
X137121520Y-131437612D01*
X137279612Y-131279520D01*
X137403824Y-131093624D01*
X137489383Y-130887067D01*
X137530406Y-130680829D01*
X139062830Y-129148406D01*
X139269067Y-129107383D01*
X139475624Y-129021824D01*
X139661520Y-128897612D01*
X139819612Y-128739520D01*
X139943824Y-128553624D01*
X140029383Y-128347067D01*
X140073000Y-128127788D01*
X140073000Y-127904212D01*
X140029383Y-127684933D01*
X139943824Y-127478376D01*
X139819612Y-127292480D01*
X139661520Y-127134388D01*
X139475624Y-127010176D01*
X139269067Y-126924617D01*
X139049788Y-126881000D01*
X138826212Y-126881000D01*
X138606933Y-126924617D01*
X138400376Y-127010176D01*
X138214480Y-127134388D01*
X138056388Y-127292480D01*
X137932176Y-127478376D01*
X137846617Y-127684933D01*
X137805594Y-127891170D01*
X136273171Y-129423594D01*
X136066933Y-129464617D01*
X135860376Y-129550176D01*
X135674480Y-129674388D01*
X135516388Y-129832480D01*
X135392176Y-130018376D01*
X135306617Y-130224933D01*
X135263000Y-130444212D01*
X127193072Y-130444212D01*
X127193072Y-128412212D01*
X133484998Y-128412212D01*
X133484998Y-128635788D01*
X133528615Y-128855067D01*
X133614174Y-129061624D01*
X133738386Y-129247520D01*
X133896478Y-129405612D01*
X134082374Y-129529824D01*
X134288931Y-129615383D01*
X134508210Y-129659000D01*
X134731786Y-129659000D01*
X134951065Y-129615383D01*
X135157622Y-129529824D01*
X135343518Y-129405612D01*
X135501610Y-129247520D01*
X135625822Y-129061624D01*
X135711381Y-128855067D01*
X135752403Y-128648832D01*
X137030830Y-127370406D01*
X137237067Y-127329383D01*
X137443624Y-127243824D01*
X137629520Y-127119612D01*
X137787612Y-126961520D01*
X137911824Y-126775624D01*
X137997383Y-126569067D01*
X138041000Y-126349788D01*
X138041000Y-126126212D01*
X137997383Y-125906933D01*
X137911824Y-125700376D01*
X137787612Y-125514480D01*
X137629520Y-125356388D01*
X137443624Y-125232176D01*
X137237067Y-125146617D01*
X137017788Y-125103000D01*
X136794212Y-125103000D01*
X136574933Y-125146617D01*
X136368376Y-125232176D01*
X136182480Y-125356388D01*
X136024388Y-125514480D01*
X135900176Y-125700376D01*
X135814617Y-125906933D01*
X135773594Y-126113170D01*
X134495171Y-127391594D01*
X134288931Y-127432617D01*
X134082374Y-127518176D01*
X133896478Y-127642388D01*
X133738386Y-127800480D01*
X133614174Y-127986376D01*
X133528615Y-128192933D01*
X133484998Y-128412212D01*
X127193072Y-128412212D01*
X127193072Y-128086000D01*
X127180812Y-127961518D01*
X127144502Y-127841820D01*
X127085537Y-127731506D01*
X127006185Y-127634815D01*
X126909494Y-127555463D01*
X126799180Y-127496498D01*
X126679482Y-127460188D01*
X126555000Y-127447928D01*
X124905000Y-127447928D01*
X124780518Y-127460188D01*
X124660820Y-127496498D01*
X124550506Y-127555463D01*
X124453815Y-127634815D01*
X124374463Y-127731506D01*
X124315498Y-127841820D01*
X124279188Y-127961518D01*
X124266928Y-128086000D01*
X107521000Y-128086000D01*
X107521000Y-102234664D01*
X108405490Y-103119155D01*
G37*
%TD.AperFunction*%
D31*
X137338293Y-137034674D02*
X136997970Y-137313970D01*
X136718674Y-137654293D01*
X136511138Y-138042564D01*
X136383339Y-138463863D01*
X136340186Y-138902000D01*
X136383339Y-139340137D01*
X136511138Y-139761436D01*
X136718674Y-140149707D01*
X136997970Y-140490030D01*
X137338293Y-140769326D01*
X137726564Y-140976862D01*
X138147863Y-141104661D01*
X138476204Y-141137000D01*
X145495796Y-141137000D01*
X145824137Y-141104661D01*
X146245436Y-140976862D01*
X146633707Y-140769326D01*
X146974030Y-140490030D01*
X147253326Y-140149707D01*
X147460862Y-139761436D01*
X147588661Y-139340137D01*
X147631814Y-138902000D01*
X147588661Y-138463863D01*
X147460862Y-138042564D01*
X147253326Y-137654293D01*
X146974030Y-137313970D01*
X146633707Y-137034674D01*
X146511776Y-136969500D01*
X156249068Y-136969500D01*
X153435568Y-139783000D01*
X149500050Y-139783000D01*
X149459500Y-139779006D01*
X149418949Y-139783000D01*
X149418947Y-139783000D01*
X149297674Y-139794944D01*
X149142066Y-139842147D01*
X148998657Y-139918801D01*
X148904458Y-139996108D01*
X148904455Y-139996111D01*
X148872959Y-140021959D01*
X148847111Y-140053455D01*
X145608640Y-143291928D01*
X144438000Y-143291928D01*
X144313518Y-143304188D01*
X144193820Y-143340498D01*
X144083506Y-143399463D01*
X143986815Y-143478815D01*
X143907463Y-143575506D01*
X143848498Y-143685820D01*
X143812188Y-143805518D01*
X143799928Y-143930000D01*
X143799928Y-145630000D01*
X143812188Y-145754482D01*
X143848498Y-145874180D01*
X143907463Y-145984494D01*
X143986815Y-146081185D01*
X144083506Y-146160537D01*
X144193820Y-146219502D01*
X144263041Y-146240500D01*
X134580932Y-146240500D01*
X135617824Y-145203609D01*
X136363446Y-145203609D01*
X136417886Y-145409128D01*
X136511375Y-145600077D01*
X136640319Y-145769118D01*
X136799764Y-145909756D01*
X136983583Y-146016585D01*
X137018112Y-146032129D01*
X137180000Y-145920743D01*
X137180000Y-145034000D01*
X136508218Y-145034000D01*
X136363446Y-145203609D01*
X135617824Y-145203609D01*
X136410231Y-144411203D01*
X136508218Y-144526000D01*
X137180000Y-144526000D01*
X137180000Y-144506000D01*
X137595928Y-144506000D01*
X137595928Y-145255000D01*
X137612512Y-145423377D01*
X137661625Y-145585283D01*
X137688000Y-145634627D01*
X137688000Y-145920743D01*
X137849888Y-146032129D01*
X137884417Y-146016585D01*
X137971447Y-145966006D01*
X137979503Y-145972618D01*
X138128717Y-146052375D01*
X138290623Y-146101488D01*
X138459000Y-146118072D01*
X138909000Y-146118072D01*
X139077377Y-146101488D01*
X139239283Y-146052375D01*
X139388497Y-145972618D01*
X139519284Y-145865284D01*
X139626618Y-145734497D01*
X139706375Y-145585283D01*
X139755488Y-145423377D01*
X139772072Y-145255000D01*
X139772072Y-144305000D01*
X139755488Y-144136623D01*
X139706375Y-143974717D01*
X139626618Y-143825503D01*
X139519284Y-143694716D01*
X139388497Y-143587382D01*
X139315680Y-143548460D01*
X139296392Y-143524958D01*
X139296389Y-143524955D01*
X139270541Y-143493459D01*
X139239044Y-143467610D01*
X138726397Y-142954965D01*
X138700541Y-142923459D01*
X138574842Y-142820301D01*
X138431434Y-142743647D01*
X138275826Y-142696444D01*
X138154553Y-142684500D01*
X138154550Y-142684500D01*
X138114000Y-142680506D01*
X138073450Y-142684500D01*
X136184550Y-142684500D01*
X136144000Y-142680506D01*
X136103449Y-142684500D01*
X136103447Y-142684500D01*
X135982174Y-142696444D01*
X135826566Y-142743647D01*
X135683157Y-142820301D01*
X135588958Y-142897608D01*
X135588957Y-142897609D01*
X135557459Y-142923459D01*
X135531611Y-142954955D01*
X133008068Y-145478500D01*
X129080024Y-145478500D01*
X129189932Y-145213158D01*
X129247000Y-144926260D01*
X129247000Y-144633740D01*
X129218578Y-144490854D01*
X136739933Y-136969500D01*
X137460224Y-136969500D01*
X137338293Y-137034674D01*
%TA.AperFunction,Conductor*%
D32*
G36*
X137338293Y-137034674D02*
G01*
X136997970Y-137313970D01*
X136718674Y-137654293D01*
X136511138Y-138042564D01*
X136383339Y-138463863D01*
X136340186Y-138902000D01*
X136383339Y-139340137D01*
X136511138Y-139761436D01*
X136718674Y-140149707D01*
X136997970Y-140490030D01*
X137338293Y-140769326D01*
X137726564Y-140976862D01*
X138147863Y-141104661D01*
X138476204Y-141137000D01*
X145495796Y-141137000D01*
X145824137Y-141104661D01*
X146245436Y-140976862D01*
X146633707Y-140769326D01*
X146974030Y-140490030D01*
X147253326Y-140149707D01*
X147460862Y-139761436D01*
X147588661Y-139340137D01*
X147631814Y-138902000D01*
X147588661Y-138463863D01*
X147460862Y-138042564D01*
X147253326Y-137654293D01*
X146974030Y-137313970D01*
X146633707Y-137034674D01*
X146511776Y-136969500D01*
X156249068Y-136969500D01*
X153435568Y-139783000D01*
X149500050Y-139783000D01*
X149459500Y-139779006D01*
X149418949Y-139783000D01*
X149418947Y-139783000D01*
X149297674Y-139794944D01*
X149142066Y-139842147D01*
X148998657Y-139918801D01*
X148904458Y-139996108D01*
X148904455Y-139996111D01*
X148872959Y-140021959D01*
X148847111Y-140053455D01*
X145608640Y-143291928D01*
X144438000Y-143291928D01*
X144313518Y-143304188D01*
X144193820Y-143340498D01*
X144083506Y-143399463D01*
X143986815Y-143478815D01*
X143907463Y-143575506D01*
X143848498Y-143685820D01*
X143812188Y-143805518D01*
X143799928Y-143930000D01*
X143799928Y-145630000D01*
X143812188Y-145754482D01*
X143848498Y-145874180D01*
X143907463Y-145984494D01*
X143986815Y-146081185D01*
X144083506Y-146160537D01*
X144193820Y-146219502D01*
X144263041Y-146240500D01*
X134580932Y-146240500D01*
X135617824Y-145203609D01*
X136363446Y-145203609D01*
X136417886Y-145409128D01*
X136511375Y-145600077D01*
X136640319Y-145769118D01*
X136799764Y-145909756D01*
X136983583Y-146016585D01*
X137018112Y-146032129D01*
X137180000Y-145920743D01*
X137180000Y-145034000D01*
X136508218Y-145034000D01*
X136363446Y-145203609D01*
X135617824Y-145203609D01*
X136410231Y-144411203D01*
X136508218Y-144526000D01*
X137180000Y-144526000D01*
X137180000Y-144506000D01*
X137595928Y-144506000D01*
X137595928Y-145255000D01*
X137612512Y-145423377D01*
X137661625Y-145585283D01*
X137688000Y-145634627D01*
X137688000Y-145920743D01*
X137849888Y-146032129D01*
X137884417Y-146016585D01*
X137971447Y-145966006D01*
X137979503Y-145972618D01*
X138128717Y-146052375D01*
X138290623Y-146101488D01*
X138459000Y-146118072D01*
X138909000Y-146118072D01*
X139077377Y-146101488D01*
X139239283Y-146052375D01*
X139388497Y-145972618D01*
X139519284Y-145865284D01*
X139626618Y-145734497D01*
X139706375Y-145585283D01*
X139755488Y-145423377D01*
X139772072Y-145255000D01*
X139772072Y-144305000D01*
X139755488Y-144136623D01*
X139706375Y-143974717D01*
X139626618Y-143825503D01*
X139519284Y-143694716D01*
X139388497Y-143587382D01*
X139315680Y-143548460D01*
X139296392Y-143524958D01*
X139296389Y-143524955D01*
X139270541Y-143493459D01*
X139239044Y-143467610D01*
X138726397Y-142954965D01*
X138700541Y-142923459D01*
X138574842Y-142820301D01*
X138431434Y-142743647D01*
X138275826Y-142696444D01*
X138154553Y-142684500D01*
X138154550Y-142684500D01*
X138114000Y-142680506D01*
X138073450Y-142684500D01*
X136184550Y-142684500D01*
X136144000Y-142680506D01*
X136103449Y-142684500D01*
X136103447Y-142684500D01*
X135982174Y-142696444D01*
X135826566Y-142743647D01*
X135683157Y-142820301D01*
X135588958Y-142897608D01*
X135588957Y-142897609D01*
X135557459Y-142923459D01*
X135531611Y-142954955D01*
X133008068Y-145478500D01*
X129080024Y-145478500D01*
X129189932Y-145213158D01*
X129247000Y-144926260D01*
X129247000Y-144633740D01*
X129218578Y-144490854D01*
X136739933Y-136969500D01*
X137460224Y-136969500D01*
X137338293Y-137034674D01*
G37*
%TD.AperFunction*%
D31*
X177781000Y-120243939D02*
X177820774Y-120443898D01*
X177898795Y-120632256D01*
X178012063Y-120801774D01*
X178156226Y-120945937D01*
X178325744Y-121059205D01*
X178514102Y-121137226D01*
X178675996Y-121169429D01*
X179514501Y-122007934D01*
X179514501Y-122488178D01*
X179466399Y-122478610D01*
X179262521Y-122478610D01*
X179062562Y-122518384D01*
X178874204Y-122596405D01*
X178704686Y-122709673D01*
X178560523Y-122853836D01*
X178447255Y-123023354D01*
X178369234Y-123211712D01*
X178337032Y-123373605D01*
X177431885Y-124278753D01*
X177318612Y-124301284D01*
X177130254Y-124379305D01*
X176960736Y-124492573D01*
X176816573Y-124636736D01*
X176703305Y-124806254D01*
X176625284Y-124994612D01*
X176585510Y-125194571D01*
X176585510Y-125398449D01*
X176625284Y-125598408D01*
X176703305Y-125786766D01*
X176816573Y-125956284D01*
X176960736Y-126100447D01*
X177130254Y-126213715D01*
X177314164Y-126289894D01*
X176639057Y-126965001D01*
X175532988Y-126965001D01*
X175532988Y-126898061D01*
X175493214Y-126698102D01*
X175415193Y-126509744D01*
X175301925Y-126340226D01*
X175157762Y-126196063D01*
X174988244Y-126082795D01*
X174799886Y-126004774D01*
X174599927Y-125965000D01*
X174396049Y-125965000D01*
X174196090Y-126004774D01*
X174007732Y-126082795D01*
X173870485Y-126174500D01*
X171664932Y-126174500D01*
X177781000Y-120058433D01*
X177781000Y-120243939D01*
%TA.AperFunction,Conductor*%
D32*
G36*
X177781000Y-120243939D02*
G01*
X177820774Y-120443898D01*
X177898795Y-120632256D01*
X178012063Y-120801774D01*
X178156226Y-120945937D01*
X178325744Y-121059205D01*
X178514102Y-121137226D01*
X178675996Y-121169429D01*
X179514501Y-122007934D01*
X179514501Y-122488178D01*
X179466399Y-122478610D01*
X179262521Y-122478610D01*
X179062562Y-122518384D01*
X178874204Y-122596405D01*
X178704686Y-122709673D01*
X178560523Y-122853836D01*
X178447255Y-123023354D01*
X178369234Y-123211712D01*
X178337032Y-123373605D01*
X177431885Y-124278753D01*
X177318612Y-124301284D01*
X177130254Y-124379305D01*
X176960736Y-124492573D01*
X176816573Y-124636736D01*
X176703305Y-124806254D01*
X176625284Y-124994612D01*
X176585510Y-125194571D01*
X176585510Y-125398449D01*
X176625284Y-125598408D01*
X176703305Y-125786766D01*
X176816573Y-125956284D01*
X176960736Y-126100447D01*
X177130254Y-126213715D01*
X177314164Y-126289894D01*
X176639057Y-126965001D01*
X175532988Y-126965001D01*
X175532988Y-126898061D01*
X175493214Y-126698102D01*
X175415193Y-126509744D01*
X175301925Y-126340226D01*
X175157762Y-126196063D01*
X174988244Y-126082795D01*
X174799886Y-126004774D01*
X174599927Y-125965000D01*
X174396049Y-125965000D01*
X174196090Y-126004774D01*
X174007732Y-126082795D01*
X173870485Y-126174500D01*
X171664932Y-126174500D01*
X177781000Y-120058433D01*
X177781000Y-120243939D01*
G37*
%TD.AperFunction*%
D31*
X125457000Y-105765939D02*
X125496774Y-105965898D01*
X125574795Y-106154256D01*
X125688063Y-106323774D01*
X125832226Y-106467937D01*
X126001744Y-106581205D01*
X126190102Y-106659226D01*
X126351996Y-106691429D01*
X133499607Y-113839040D01*
X133525459Y-113870541D01*
X133651158Y-113973699D01*
X133794566Y-114050353D01*
X133950174Y-114097556D01*
X134071447Y-114109500D01*
X134071456Y-114109500D01*
X134111999Y-114113493D01*
X134152542Y-114109500D01*
X134405068Y-114109500D01*
X135338568Y-115043000D01*
X135280061Y-115043000D01*
X135080102Y-115082774D01*
X134891744Y-115160795D01*
X134754497Y-115252500D01*
X130312917Y-115252500D01*
X130408236Y-115233540D01*
X130632992Y-115140443D01*
X130835267Y-115005287D01*
X131007287Y-114833267D01*
X131142443Y-114630992D01*
X131235540Y-114406236D01*
X131283000Y-114167637D01*
X131283000Y-113924363D01*
X131235540Y-113685764D01*
X131142443Y-113461008D01*
X131007287Y-113258733D01*
X130835267Y-113086713D01*
X130632992Y-112951557D01*
X130408236Y-112858460D01*
X130169637Y-112811000D01*
X129926363Y-112811000D01*
X129687764Y-112858460D01*
X129580235Y-112903000D01*
X128635514Y-112903000D01*
X121699546Y-105967032D01*
X121789485Y-105877093D01*
X121902753Y-105707575D01*
X121929576Y-105642820D01*
X125457000Y-105642820D01*
X125457000Y-105765939D01*
%TA.AperFunction,Conductor*%
D32*
G36*
X125457000Y-105765939D02*
G01*
X125496774Y-105965898D01*
X125574795Y-106154256D01*
X125688063Y-106323774D01*
X125832226Y-106467937D01*
X126001744Y-106581205D01*
X126190102Y-106659226D01*
X126351996Y-106691429D01*
X133499607Y-113839040D01*
X133525459Y-113870541D01*
X133651158Y-113973699D01*
X133794566Y-114050353D01*
X133950174Y-114097556D01*
X134071447Y-114109500D01*
X134071456Y-114109500D01*
X134111999Y-114113493D01*
X134152542Y-114109500D01*
X134405068Y-114109500D01*
X135338568Y-115043000D01*
X135280061Y-115043000D01*
X135080102Y-115082774D01*
X134891744Y-115160795D01*
X134754497Y-115252500D01*
X130312917Y-115252500D01*
X130408236Y-115233540D01*
X130632992Y-115140443D01*
X130835267Y-115005287D01*
X131007287Y-114833267D01*
X131142443Y-114630992D01*
X131235540Y-114406236D01*
X131283000Y-114167637D01*
X131283000Y-113924363D01*
X131235540Y-113685764D01*
X131142443Y-113461008D01*
X131007287Y-113258733D01*
X130835267Y-113086713D01*
X130632992Y-112951557D01*
X130408236Y-112858460D01*
X130169637Y-112811000D01*
X129926363Y-112811000D01*
X129687764Y-112858460D01*
X129580235Y-112903000D01*
X128635514Y-112903000D01*
X121699546Y-105967032D01*
X121789485Y-105877093D01*
X121902753Y-105707575D01*
X121929576Y-105642820D01*
X125457000Y-105642820D01*
X125457000Y-105765939D01*
G37*
%TD.AperFunction*%
D31*
X112649001Y-99619783D02*
X112643471Y-99675932D01*
X112665539Y-99899999D01*
X112724312Y-100093744D01*
X112730898Y-100115455D01*
X112811633Y-100266500D01*
X110727368Y-100266500D01*
X110731259Y-100259220D01*
X110793300Y-100054697D01*
X110814249Y-99842000D01*
X110793300Y-99629303D01*
X110731259Y-99424780D01*
X110630509Y-99236290D01*
X110494922Y-99071078D01*
X110329710Y-98935491D01*
X110141220Y-98834741D01*
X109936697Y-98772700D01*
X109777294Y-98757000D01*
X109170706Y-98757000D01*
X109011303Y-98772700D01*
X108806780Y-98834741D01*
X108618290Y-98935491D01*
X108519581Y-99016500D01*
X108433550Y-99016500D01*
X108393000Y-99012506D01*
X108352449Y-99016500D01*
X108352447Y-99016500D01*
X108231174Y-99028444D01*
X108075566Y-99075647D01*
X107932158Y-99152301D01*
X107806459Y-99255459D01*
X107780606Y-99286961D01*
X107521000Y-99546568D01*
X107521000Y-90738056D01*
X107526498Y-90756180D01*
X107585463Y-90866494D01*
X107664815Y-90963185D01*
X107761506Y-91042537D01*
X107871820Y-91101502D01*
X107991518Y-91137812D01*
X108116000Y-91150072D01*
X109816000Y-91150072D01*
X109940482Y-91137812D01*
X110060180Y-91101502D01*
X110170494Y-91042537D01*
X110267185Y-90963185D01*
X110346537Y-90866494D01*
X110405502Y-90756180D01*
X110441812Y-90636482D01*
X110454072Y-90512000D01*
X110454072Y-89565783D01*
X110592226Y-89703937D01*
X110761744Y-89817205D01*
X110950102Y-89895226D01*
X111150061Y-89935000D01*
X111353939Y-89935000D01*
X111553898Y-89895226D01*
X111742256Y-89817205D01*
X111911774Y-89703937D01*
X112055937Y-89559774D01*
X112169205Y-89390256D01*
X112244703Y-89207990D01*
X112369941Y-89207990D01*
X112569900Y-89168216D01*
X112649000Y-89135451D01*
X112649001Y-99619783D01*
%TA.AperFunction,Conductor*%
D32*
G36*
X112649001Y-99619783D02*
G01*
X112643471Y-99675932D01*
X112665539Y-99899999D01*
X112724312Y-100093744D01*
X112730898Y-100115455D01*
X112811633Y-100266500D01*
X110727368Y-100266500D01*
X110731259Y-100259220D01*
X110793300Y-100054697D01*
X110814249Y-99842000D01*
X110793300Y-99629303D01*
X110731259Y-99424780D01*
X110630509Y-99236290D01*
X110494922Y-99071078D01*
X110329710Y-98935491D01*
X110141220Y-98834741D01*
X109936697Y-98772700D01*
X109777294Y-98757000D01*
X109170706Y-98757000D01*
X109011303Y-98772700D01*
X108806780Y-98834741D01*
X108618290Y-98935491D01*
X108519581Y-99016500D01*
X108433550Y-99016500D01*
X108393000Y-99012506D01*
X108352449Y-99016500D01*
X108352447Y-99016500D01*
X108231174Y-99028444D01*
X108075566Y-99075647D01*
X107932158Y-99152301D01*
X107806459Y-99255459D01*
X107780606Y-99286961D01*
X107521000Y-99546568D01*
X107521000Y-90738056D01*
X107526498Y-90756180D01*
X107585463Y-90866494D01*
X107664815Y-90963185D01*
X107761506Y-91042537D01*
X107871820Y-91101502D01*
X107991518Y-91137812D01*
X108116000Y-91150072D01*
X109816000Y-91150072D01*
X109940482Y-91137812D01*
X110060180Y-91101502D01*
X110170494Y-91042537D01*
X110267185Y-90963185D01*
X110346537Y-90866494D01*
X110405502Y-90756180D01*
X110441812Y-90636482D01*
X110454072Y-90512000D01*
X110454072Y-89565783D01*
X110592226Y-89703937D01*
X110761744Y-89817205D01*
X110950102Y-89895226D01*
X111150061Y-89935000D01*
X111353939Y-89935000D01*
X111553898Y-89895226D01*
X111742256Y-89817205D01*
X111911774Y-89703937D01*
X112055937Y-89559774D01*
X112169205Y-89390256D01*
X112244703Y-89207990D01*
X112369941Y-89207990D01*
X112569900Y-89168216D01*
X112649000Y-89135451D01*
X112649001Y-99619783D01*
G37*
%TD.AperFunction*%
D31*
X109220000Y-81788000D02*
X109240000Y-81788000D01*
X109240000Y-82296000D01*
X109220000Y-82296000D01*
X109220000Y-82316000D01*
X108712000Y-82316000D01*
X108712000Y-82296000D01*
X108692000Y-82296000D01*
X108692000Y-81788000D01*
X108712000Y-81788000D01*
X108712000Y-81768000D01*
X109220000Y-81768000D01*
X109220000Y-81788000D01*
%TA.AperFunction,Conductor*%
D32*
G36*
X109220000Y-81788000D02*
G01*
X109240000Y-81788000D01*
X109240000Y-82296000D01*
X109220000Y-82296000D01*
X109220000Y-82316000D01*
X108712000Y-82316000D01*
X108712000Y-82296000D01*
X108692000Y-82296000D01*
X108692000Y-81788000D01*
X108712000Y-81788000D01*
X108712000Y-81768000D01*
X109220000Y-81768000D01*
X109220000Y-81788000D01*
G37*
%TD.AperFunction*%
D31*
X160218629Y-61135043D02*
X160370201Y-61361886D01*
X160563114Y-61554799D01*
X160789957Y-61706371D01*
X160892873Y-61749000D01*
X160789957Y-61791629D01*
X160563114Y-61943201D01*
X160370201Y-62136114D01*
X160218629Y-62362957D01*
X160176000Y-62465873D01*
X160133371Y-62362957D01*
X159981799Y-62136114D01*
X159788886Y-61943201D01*
X159562043Y-61791629D01*
X159456767Y-61748022D01*
X159500793Y-61729790D01*
X159733381Y-61589718D01*
X159934173Y-61406962D01*
X160095453Y-61188545D01*
X160172737Y-61024250D01*
X160218629Y-61135043D01*
%TA.AperFunction,Conductor*%
D32*
G36*
X160218629Y-61135043D02*
G01*
X160370201Y-61361886D01*
X160563114Y-61554799D01*
X160789957Y-61706371D01*
X160892873Y-61749000D01*
X160789957Y-61791629D01*
X160563114Y-61943201D01*
X160370201Y-62136114D01*
X160218629Y-62362957D01*
X160176000Y-62465873D01*
X160133371Y-62362957D01*
X159981799Y-62136114D01*
X159788886Y-61943201D01*
X159562043Y-61791629D01*
X159456767Y-61748022D01*
X159500793Y-61729790D01*
X159733381Y-61589718D01*
X159934173Y-61406962D01*
X160095453Y-61188545D01*
X160172737Y-61024250D01*
X160218629Y-61135043D01*
G37*
%TD.AperFunction*%
D31*
X157716547Y-61188545D02*
X157877827Y-61406962D01*
X158078619Y-61589718D01*
X158311207Y-61729790D01*
X158355233Y-61748022D01*
X158249957Y-61791629D01*
X158023114Y-61943201D01*
X157830201Y-62136114D01*
X157678629Y-62362957D01*
X157636000Y-62465873D01*
X157593371Y-62362957D01*
X157441799Y-62136114D01*
X157248886Y-61943201D01*
X157022043Y-61791629D01*
X156916767Y-61748022D01*
X156960793Y-61729790D01*
X157193381Y-61589718D01*
X157394173Y-61406962D01*
X157555453Y-61188545D01*
X157636000Y-61017314D01*
X157716547Y-61188545D01*
%TA.AperFunction,Conductor*%
D32*
G36*
X157716547Y-61188545D02*
G01*
X157877827Y-61406962D01*
X158078619Y-61589718D01*
X158311207Y-61729790D01*
X158355233Y-61748022D01*
X158249957Y-61791629D01*
X158023114Y-61943201D01*
X157830201Y-62136114D01*
X157678629Y-62362957D01*
X157636000Y-62465873D01*
X157593371Y-62362957D01*
X157441799Y-62136114D01*
X157248886Y-61943201D01*
X157022043Y-61791629D01*
X156916767Y-61748022D01*
X156960793Y-61729790D01*
X157193381Y-61589718D01*
X157394173Y-61406962D01*
X157555453Y-61188545D01*
X157636000Y-61017314D01*
X157716547Y-61188545D01*
G37*
%TD.AperFunction*%
D31*
X147518629Y-61135043D02*
X147670201Y-61361886D01*
X147863114Y-61554799D01*
X148089957Y-61706371D01*
X148192873Y-61749000D01*
X148089957Y-61791629D01*
X147863114Y-61943201D01*
X147670201Y-62136114D01*
X147518629Y-62362957D01*
X147476000Y-62465873D01*
X147433371Y-62362957D01*
X147281799Y-62136114D01*
X147088886Y-61943201D01*
X146862043Y-61791629D01*
X146756767Y-61748022D01*
X146800793Y-61729790D01*
X147033381Y-61589718D01*
X147234173Y-61406962D01*
X147395453Y-61188545D01*
X147472737Y-61024250D01*
X147518629Y-61135043D01*
%TA.AperFunction,Conductor*%
D32*
G36*
X147518629Y-61135043D02*
G01*
X147670201Y-61361886D01*
X147863114Y-61554799D01*
X148089957Y-61706371D01*
X148192873Y-61749000D01*
X148089957Y-61791629D01*
X147863114Y-61943201D01*
X147670201Y-62136114D01*
X147518629Y-62362957D01*
X147476000Y-62465873D01*
X147433371Y-62362957D01*
X147281799Y-62136114D01*
X147088886Y-61943201D01*
X146862043Y-61791629D01*
X146756767Y-61748022D01*
X146800793Y-61729790D01*
X147033381Y-61589718D01*
X147234173Y-61406962D01*
X147395453Y-61188545D01*
X147472737Y-61024250D01*
X147518629Y-61135043D01*
G37*
%TD.AperFunction*%
D31*
X145016547Y-61188545D02*
X145177827Y-61406962D01*
X145378619Y-61589718D01*
X145611207Y-61729790D01*
X145655233Y-61748022D01*
X145549957Y-61791629D01*
X145323114Y-61943201D01*
X145130201Y-62136114D01*
X144978629Y-62362957D01*
X144936000Y-62465873D01*
X144893371Y-62362957D01*
X144741799Y-62136114D01*
X144548886Y-61943201D01*
X144322043Y-61791629D01*
X144219127Y-61749000D01*
X144322043Y-61706371D01*
X144548886Y-61554799D01*
X144741799Y-61361886D01*
X144893371Y-61135043D01*
X144939263Y-61024250D01*
X145016547Y-61188545D01*
%TA.AperFunction,Conductor*%
D32*
G36*
X145016547Y-61188545D02*
G01*
X145177827Y-61406962D01*
X145378619Y-61589718D01*
X145611207Y-61729790D01*
X145655233Y-61748022D01*
X145549957Y-61791629D01*
X145323114Y-61943201D01*
X145130201Y-62136114D01*
X144978629Y-62362957D01*
X144936000Y-62465873D01*
X144893371Y-62362957D01*
X144741799Y-62136114D01*
X144548886Y-61943201D01*
X144322043Y-61791629D01*
X144219127Y-61749000D01*
X144322043Y-61706371D01*
X144548886Y-61554799D01*
X144741799Y-61361886D01*
X144893371Y-61135043D01*
X144939263Y-61024250D01*
X145016547Y-61188545D01*
G37*
%TD.AperFunction*%
%TD*%
M02*
