%TF.GenerationSoftware,KiCad,Pcbnew,(5.1.9)-1*%
%TF.CreationDate,2022-01-29T13:33:30-05:00*%
%TF.ProjectId,BatteryMaster,42617474-6572-4794-9d61-737465722e6b,rev?*%
%TF.SameCoordinates,Original*%
%TF.FileFunction,Legend,Top*%
%TF.FilePolarity,Positive*%
%FSLAX46Y46*%
G04 Gerber Fmt 4.6, Leading zero omitted, Abs format (unit mm)*
G04 Created by KiCad (PCBNEW (5.1.9)-1) date 2022-01-29 13:33:30*
%MOMM*%
%LPD*%
G01*
G04 APERTURE LIST*
%ADD10C,0.120000*%
%ADD11C,0.150000*%
%ADD12C,0.300000*%
G04 APERTURE END LIST*
D10*
%TO.C,BT1*%
X112920000Y-70902000D02*
X116920000Y-70902000D01*
X130920000Y-70902000D02*
X126920000Y-70902000D01*
X130920000Y-138902000D02*
X126920000Y-138902000D01*
X112920000Y-138902000D02*
X116920000Y-138902000D01*
X130920000Y-138902000D02*
X130920000Y-70902000D01*
X112920000Y-138902000D02*
X112920000Y-70902000D01*
%TO.C,TH4*%
X120168000Y-147080000D02*
X120168000Y-143480000D01*
X120168000Y-143480000D02*
X115818000Y-143480000D01*
X115818000Y-143480000D02*
X115818000Y-147080000D01*
X115818000Y-147080000D02*
X120168000Y-147080000D01*
X120478000Y-145080000D02*
X120478000Y-143170000D01*
X120478000Y-143170000D02*
X118568000Y-143170000D01*
X120168000Y-144780000D02*
X119868000Y-144780000D01*
X119868000Y-144780000D02*
X119868000Y-143780000D01*
X119868000Y-143780000D02*
X116118000Y-143780000D01*
X116118000Y-143780000D02*
X116118000Y-144780000D01*
X116118000Y-144780000D02*
X115818000Y-144780000D01*
X120168000Y-145530000D02*
X119868000Y-145530000D01*
X119868000Y-145530000D02*
X119868000Y-146630000D01*
X119868000Y-146630000D02*
X119568000Y-146630000D01*
X119568000Y-146630000D02*
X119568000Y-147080000D01*
X115818000Y-145530000D02*
X116118000Y-145530000D01*
X116118000Y-145530000D02*
X116118000Y-146630000D01*
X116118000Y-146630000D02*
X116418000Y-146630000D01*
X116418000Y-146630000D02*
X116418000Y-147080000D01*
X119568000Y-146630000D02*
X118368000Y-146630000D01*
X118368000Y-146630000D02*
X118368000Y-146930000D01*
X118368000Y-146930000D02*
X117618000Y-146930000D01*
X117618000Y-146930000D02*
X117618000Y-146630000D01*
X117618000Y-146630000D02*
X116418000Y-146630000D01*
%TO.C,TH3*%
X180366000Y-147080000D02*
X180366000Y-143480000D01*
X180366000Y-143480000D02*
X176016000Y-143480000D01*
X176016000Y-143480000D02*
X176016000Y-147080000D01*
X176016000Y-147080000D02*
X180366000Y-147080000D01*
X180676000Y-145080000D02*
X180676000Y-143170000D01*
X180676000Y-143170000D02*
X178766000Y-143170000D01*
X180366000Y-144780000D02*
X180066000Y-144780000D01*
X180066000Y-144780000D02*
X180066000Y-143780000D01*
X180066000Y-143780000D02*
X176316000Y-143780000D01*
X176316000Y-143780000D02*
X176316000Y-144780000D01*
X176316000Y-144780000D02*
X176016000Y-144780000D01*
X180366000Y-145530000D02*
X180066000Y-145530000D01*
X180066000Y-145530000D02*
X180066000Y-146630000D01*
X180066000Y-146630000D02*
X179766000Y-146630000D01*
X179766000Y-146630000D02*
X179766000Y-147080000D01*
X176016000Y-145530000D02*
X176316000Y-145530000D01*
X176316000Y-145530000D02*
X176316000Y-146630000D01*
X176316000Y-146630000D02*
X176616000Y-146630000D01*
X176616000Y-146630000D02*
X176616000Y-147080000D01*
X179766000Y-146630000D02*
X178566000Y-146630000D01*
X178566000Y-146630000D02*
X178566000Y-146930000D01*
X178566000Y-146930000D02*
X177816000Y-146930000D01*
X177816000Y-146930000D02*
X177816000Y-146630000D01*
X177816000Y-146630000D02*
X176616000Y-146630000D01*
%TO.C,TH2*%
X160300000Y-147080000D02*
X160300000Y-143480000D01*
X160300000Y-143480000D02*
X155950000Y-143480000D01*
X155950000Y-143480000D02*
X155950000Y-147080000D01*
X155950000Y-147080000D02*
X160300000Y-147080000D01*
X160610000Y-145080000D02*
X160610000Y-143170000D01*
X160610000Y-143170000D02*
X158700000Y-143170000D01*
X160300000Y-144780000D02*
X160000000Y-144780000D01*
X160000000Y-144780000D02*
X160000000Y-143780000D01*
X160000000Y-143780000D02*
X156250000Y-143780000D01*
X156250000Y-143780000D02*
X156250000Y-144780000D01*
X156250000Y-144780000D02*
X155950000Y-144780000D01*
X160300000Y-145530000D02*
X160000000Y-145530000D01*
X160000000Y-145530000D02*
X160000000Y-146630000D01*
X160000000Y-146630000D02*
X159700000Y-146630000D01*
X159700000Y-146630000D02*
X159700000Y-147080000D01*
X155950000Y-145530000D02*
X156250000Y-145530000D01*
X156250000Y-145530000D02*
X156250000Y-146630000D01*
X156250000Y-146630000D02*
X156550000Y-146630000D01*
X156550000Y-146630000D02*
X156550000Y-147080000D01*
X159700000Y-146630000D02*
X158500000Y-146630000D01*
X158500000Y-146630000D02*
X158500000Y-146930000D01*
X158500000Y-146930000D02*
X157750000Y-146930000D01*
X157750000Y-146930000D02*
X157750000Y-146630000D01*
X157750000Y-146630000D02*
X156550000Y-146630000D01*
%TO.C,TH1*%
X140234000Y-147080000D02*
X140234000Y-143480000D01*
X140234000Y-143480000D02*
X135884000Y-143480000D01*
X135884000Y-143480000D02*
X135884000Y-147080000D01*
X135884000Y-147080000D02*
X140234000Y-147080000D01*
X140544000Y-145080000D02*
X140544000Y-143170000D01*
X140544000Y-143170000D02*
X138634000Y-143170000D01*
X140234000Y-144780000D02*
X139934000Y-144780000D01*
X139934000Y-144780000D02*
X139934000Y-143780000D01*
X139934000Y-143780000D02*
X136184000Y-143780000D01*
X136184000Y-143780000D02*
X136184000Y-144780000D01*
X136184000Y-144780000D02*
X135884000Y-144780000D01*
X140234000Y-145530000D02*
X139934000Y-145530000D01*
X139934000Y-145530000D02*
X139934000Y-146630000D01*
X139934000Y-146630000D02*
X139634000Y-146630000D01*
X139634000Y-146630000D02*
X139634000Y-147080000D01*
X135884000Y-145530000D02*
X136184000Y-145530000D01*
X136184000Y-145530000D02*
X136184000Y-146630000D01*
X136184000Y-146630000D02*
X136484000Y-146630000D01*
X136484000Y-146630000D02*
X136484000Y-147080000D01*
X139634000Y-146630000D02*
X138434000Y-146630000D01*
X138434000Y-146630000D02*
X138434000Y-146930000D01*
X138434000Y-146930000D02*
X137684000Y-146930000D01*
X137684000Y-146930000D02*
X137684000Y-146630000D01*
X137684000Y-146630000D02*
X136484000Y-146630000D01*
%TO.C,J1*%
X110296000Y-75632000D02*
X107636000Y-75632000D01*
X110296000Y-88392000D02*
X110296000Y-75632000D01*
X107636000Y-88392000D02*
X107636000Y-75632000D01*
X110296000Y-88392000D02*
X107636000Y-88392000D01*
X110296000Y-89662000D02*
X110296000Y-90992000D01*
X110296000Y-90992000D02*
X108966000Y-90992000D01*
%TO.C,SW1*%
X196864000Y-113004000D02*
X193264000Y-113004000D01*
X193264000Y-113004000D02*
X193264000Y-117354000D01*
X193264000Y-117354000D02*
X196864000Y-117354000D01*
X196864000Y-117354000D02*
X196864000Y-113004000D01*
X194864000Y-112694000D02*
X192954000Y-112694000D01*
X192954000Y-112694000D02*
X192954000Y-114604000D01*
X194564000Y-113004000D02*
X194564000Y-113304000D01*
X194564000Y-113304000D02*
X193564000Y-113304000D01*
X193564000Y-113304000D02*
X193564000Y-117054000D01*
X193564000Y-117054000D02*
X194564000Y-117054000D01*
X194564000Y-117054000D02*
X194564000Y-117354000D01*
X195314000Y-113004000D02*
X195314000Y-113304000D01*
X195314000Y-113304000D02*
X196414000Y-113304000D01*
X196414000Y-113304000D02*
X196414000Y-113604000D01*
X196414000Y-113604000D02*
X196864000Y-113604000D01*
X195314000Y-117354000D02*
X195314000Y-117054000D01*
X195314000Y-117054000D02*
X196414000Y-117054000D01*
X196414000Y-117054000D02*
X196414000Y-116754000D01*
X196414000Y-116754000D02*
X196864000Y-116754000D01*
X196414000Y-113604000D02*
X196414000Y-114804000D01*
X196414000Y-114804000D02*
X196714000Y-114804000D01*
X196714000Y-114804000D02*
X196714000Y-115554000D01*
X196714000Y-115554000D02*
X196414000Y-115554000D01*
X196414000Y-115554000D02*
X196414000Y-116754000D01*
%TO.C,BT4*%
X191118000Y-138902000D02*
X187118000Y-138902000D01*
X173118000Y-138902000D02*
X177118000Y-138902000D01*
X173118000Y-70902000D02*
X177118000Y-70902000D01*
X191118000Y-70902000D02*
X187118000Y-70902000D01*
X173118000Y-70902000D02*
X173118000Y-138902000D01*
X191118000Y-70902000D02*
X191118000Y-138902000D01*
%TO.C,BT2*%
X171052000Y-138902000D02*
X167052000Y-138902000D01*
X153052000Y-138902000D02*
X157052000Y-138902000D01*
X153052000Y-70902000D02*
X157052000Y-70902000D01*
X171052000Y-70902000D02*
X167052000Y-70902000D01*
X153052000Y-70902000D02*
X153052000Y-138902000D01*
X171052000Y-70902000D02*
X171052000Y-138902000D01*
%TO.C,BT3*%
X132986000Y-70902000D02*
X136986000Y-70902000D01*
X150986000Y-70902000D02*
X146986000Y-70902000D01*
X150986000Y-138902000D02*
X146986000Y-138902000D01*
X132986000Y-138902000D02*
X136986000Y-138902000D01*
X150986000Y-138902000D02*
X150986000Y-70902000D01*
X132986000Y-138902000D02*
X132986000Y-70902000D01*
%TO.C,SW3*%
X107174000Y-110770000D02*
X110774000Y-110770000D01*
X110774000Y-110770000D02*
X110774000Y-106420000D01*
X110774000Y-106420000D02*
X107174000Y-106420000D01*
X107174000Y-106420000D02*
X107174000Y-110770000D01*
X109174000Y-111080000D02*
X111084000Y-111080000D01*
X111084000Y-111080000D02*
X111084000Y-109170000D01*
X109474000Y-110770000D02*
X109474000Y-110470000D01*
X109474000Y-110470000D02*
X110474000Y-110470000D01*
X110474000Y-110470000D02*
X110474000Y-106720000D01*
X110474000Y-106720000D02*
X109474000Y-106720000D01*
X109474000Y-106720000D02*
X109474000Y-106420000D01*
X108724000Y-110770000D02*
X108724000Y-110470000D01*
X108724000Y-110470000D02*
X107624000Y-110470000D01*
X107624000Y-110470000D02*
X107624000Y-110170000D01*
X107624000Y-110170000D02*
X107174000Y-110170000D01*
X108724000Y-106420000D02*
X108724000Y-106720000D01*
X108724000Y-106720000D02*
X107624000Y-106720000D01*
X107624000Y-106720000D02*
X107624000Y-107020000D01*
X107624000Y-107020000D02*
X107174000Y-107020000D01*
X107624000Y-110170000D02*
X107624000Y-108970000D01*
X107624000Y-108970000D02*
X107324000Y-108970000D01*
X107324000Y-108970000D02*
X107324000Y-108220000D01*
X107324000Y-108220000D02*
X107624000Y-108220000D01*
X107624000Y-108220000D02*
X107624000Y-107020000D01*
%TO.C,SW2*%
X107174000Y-102642000D02*
X110774000Y-102642000D01*
X110774000Y-102642000D02*
X110774000Y-98292000D01*
X110774000Y-98292000D02*
X107174000Y-98292000D01*
X107174000Y-98292000D02*
X107174000Y-102642000D01*
X109174000Y-102952000D02*
X111084000Y-102952000D01*
X111084000Y-102952000D02*
X111084000Y-101042000D01*
X109474000Y-102642000D02*
X109474000Y-102342000D01*
X109474000Y-102342000D02*
X110474000Y-102342000D01*
X110474000Y-102342000D02*
X110474000Y-98592000D01*
X110474000Y-98592000D02*
X109474000Y-98592000D01*
X109474000Y-98592000D02*
X109474000Y-98292000D01*
X108724000Y-102642000D02*
X108724000Y-102342000D01*
X108724000Y-102342000D02*
X107624000Y-102342000D01*
X107624000Y-102342000D02*
X107624000Y-102042000D01*
X107624000Y-102042000D02*
X107174000Y-102042000D01*
X108724000Y-98292000D02*
X108724000Y-98592000D01*
X108724000Y-98592000D02*
X107624000Y-98592000D01*
X107624000Y-98592000D02*
X107624000Y-98892000D01*
X107624000Y-98892000D02*
X107174000Y-98892000D01*
X107624000Y-102042000D02*
X107624000Y-100842000D01*
X107624000Y-100842000D02*
X107324000Y-100842000D01*
X107324000Y-100842000D02*
X107324000Y-100092000D01*
X107324000Y-100092000D02*
X107624000Y-100092000D01*
X107624000Y-100092000D02*
X107624000Y-98892000D01*
%TO.C,R56*%
X129092000Y-146110000D02*
X129092000Y-143450000D01*
X126492000Y-146110000D02*
X129092000Y-146110000D01*
X126492000Y-143450000D02*
X129092000Y-143450000D01*
X126492000Y-146110000D02*
X126492000Y-143450000D01*
X125222000Y-146110000D02*
X123892000Y-146110000D01*
X123892000Y-146110000D02*
X123892000Y-144780000D01*
%TO.C,R49*%
X188528000Y-146110000D02*
X188528000Y-143450000D01*
X185928000Y-146110000D02*
X188528000Y-146110000D01*
X185928000Y-143450000D02*
X188528000Y-143450000D01*
X185928000Y-146110000D02*
X185928000Y-143450000D01*
X184658000Y-146110000D02*
X183328000Y-146110000D01*
X183328000Y-146110000D02*
X183328000Y-144780000D01*
%TO.C,R42*%
X168970000Y-146110000D02*
X168970000Y-143450000D01*
X166370000Y-146110000D02*
X168970000Y-146110000D01*
X166370000Y-143450000D02*
X168970000Y-143450000D01*
X166370000Y-146110000D02*
X166370000Y-143450000D01*
X165100000Y-146110000D02*
X163770000Y-146110000D01*
X163770000Y-146110000D02*
X163770000Y-144780000D01*
%TO.C,R35*%
X149158000Y-146110000D02*
X149158000Y-143450000D01*
X146558000Y-146110000D02*
X149158000Y-146110000D01*
X146558000Y-143450000D02*
X149158000Y-143450000D01*
X146558000Y-146110000D02*
X146558000Y-143450000D01*
X145288000Y-146110000D02*
X143958000Y-146110000D01*
X143958000Y-146110000D02*
X143958000Y-144780000D01*
%TO.C,BT1*%
D11*
X122348571Y-105687714D02*
X122396190Y-105544857D01*
X122443809Y-105497238D01*
X122539047Y-105449619D01*
X122681904Y-105449619D01*
X122777142Y-105497238D01*
X122824761Y-105544857D01*
X122872380Y-105640095D01*
X122872380Y-106021047D01*
X121872380Y-106021047D01*
X121872380Y-105687714D01*
X121920000Y-105592476D01*
X121967619Y-105544857D01*
X122062857Y-105497238D01*
X122158095Y-105497238D01*
X122253333Y-105544857D01*
X122300952Y-105592476D01*
X122348571Y-105687714D01*
X122348571Y-106021047D01*
X121872380Y-105163904D02*
X121872380Y-104592476D01*
X122872380Y-104878190D02*
X121872380Y-104878190D01*
X122872380Y-103735333D02*
X122872380Y-104306761D01*
X122872380Y-104021047D02*
X121872380Y-104021047D01*
X122015238Y-104116285D01*
X122110476Y-104211523D01*
X122158095Y-104306761D01*
D12*
X113411142Y-69302285D02*
X115696857Y-69302285D01*
X122134285Y-144779857D02*
X122134285Y-142494142D01*
X123277142Y-143637000D02*
X120991428Y-143637000D01*
%TO.C,TH4*%
D11*
X116712285Y-147632380D02*
X117283714Y-147632380D01*
X116998000Y-148632380D02*
X116998000Y-147632380D01*
X117617047Y-148632380D02*
X117617047Y-147632380D01*
X117617047Y-148108571D02*
X118188476Y-148108571D01*
X118188476Y-148632380D02*
X118188476Y-147632380D01*
X119093238Y-147965714D02*
X119093238Y-148632380D01*
X118855142Y-147584761D02*
X118617047Y-148299047D01*
X119236095Y-148299047D01*
%TO.C,TH3*%
X176910285Y-147632380D02*
X177481714Y-147632380D01*
X177196000Y-148632380D02*
X177196000Y-147632380D01*
X177815047Y-148632380D02*
X177815047Y-147632380D01*
X177815047Y-148108571D02*
X178386476Y-148108571D01*
X178386476Y-148632380D02*
X178386476Y-147632380D01*
X178767428Y-147632380D02*
X179386476Y-147632380D01*
X179053142Y-148013333D01*
X179196000Y-148013333D01*
X179291238Y-148060952D01*
X179338857Y-148108571D01*
X179386476Y-148203809D01*
X179386476Y-148441904D01*
X179338857Y-148537142D01*
X179291238Y-148584761D01*
X179196000Y-148632380D01*
X178910285Y-148632380D01*
X178815047Y-148584761D01*
X178767428Y-148537142D01*
%TO.C,TH2*%
X156844285Y-147632380D02*
X157415714Y-147632380D01*
X157130000Y-148632380D02*
X157130000Y-147632380D01*
X157749047Y-148632380D02*
X157749047Y-147632380D01*
X157749047Y-148108571D02*
X158320476Y-148108571D01*
X158320476Y-148632380D02*
X158320476Y-147632380D01*
X158749047Y-147727619D02*
X158796666Y-147680000D01*
X158891904Y-147632380D01*
X159130000Y-147632380D01*
X159225238Y-147680000D01*
X159272857Y-147727619D01*
X159320476Y-147822857D01*
X159320476Y-147918095D01*
X159272857Y-148060952D01*
X158701428Y-148632380D01*
X159320476Y-148632380D01*
%TO.C,TH1*%
X136778285Y-147632380D02*
X137349714Y-147632380D01*
X137064000Y-148632380D02*
X137064000Y-147632380D01*
X137683047Y-148632380D02*
X137683047Y-147632380D01*
X137683047Y-148108571D02*
X138254476Y-148108571D01*
X138254476Y-148632380D02*
X138254476Y-147632380D01*
X139254476Y-148632380D02*
X138683047Y-148632380D01*
X138968761Y-148632380D02*
X138968761Y-147632380D01*
X138873523Y-147775238D01*
X138778285Y-147870476D01*
X138683047Y-147918095D01*
%TO.C,J1*%
X108632666Y-91444380D02*
X108632666Y-92158666D01*
X108585047Y-92301523D01*
X108489809Y-92396761D01*
X108346952Y-92444380D01*
X108251714Y-92444380D01*
X109632666Y-92444380D02*
X109061238Y-92444380D01*
X109346952Y-92444380D02*
X109346952Y-91444380D01*
X109251714Y-91587238D01*
X109156476Y-91682476D01*
X109061238Y-91730095D01*
%TO.C,SW1*%
X193230666Y-112164761D02*
X193373523Y-112212380D01*
X193611619Y-112212380D01*
X193706857Y-112164761D01*
X193754476Y-112117142D01*
X193802095Y-112021904D01*
X193802095Y-111926666D01*
X193754476Y-111831428D01*
X193706857Y-111783809D01*
X193611619Y-111736190D01*
X193421142Y-111688571D01*
X193325904Y-111640952D01*
X193278285Y-111593333D01*
X193230666Y-111498095D01*
X193230666Y-111402857D01*
X193278285Y-111307619D01*
X193325904Y-111260000D01*
X193421142Y-111212380D01*
X193659238Y-111212380D01*
X193802095Y-111260000D01*
X194135428Y-111212380D02*
X194373523Y-112212380D01*
X194564000Y-111498095D01*
X194754476Y-112212380D01*
X194992571Y-111212380D01*
X195897333Y-112212380D02*
X195325904Y-112212380D01*
X195611619Y-112212380D02*
X195611619Y-111212380D01*
X195516380Y-111355238D01*
X195421142Y-111450476D01*
X195325904Y-111498095D01*
%TO.C,BT4*%
X181546571Y-105687714D02*
X181594190Y-105544857D01*
X181641809Y-105497238D01*
X181737047Y-105449619D01*
X181879904Y-105449619D01*
X181975142Y-105497238D01*
X182022761Y-105544857D01*
X182070380Y-105640095D01*
X182070380Y-106021047D01*
X181070380Y-106021047D01*
X181070380Y-105687714D01*
X181118000Y-105592476D01*
X181165619Y-105544857D01*
X181260857Y-105497238D01*
X181356095Y-105497238D01*
X181451333Y-105544857D01*
X181498952Y-105592476D01*
X181546571Y-105687714D01*
X181546571Y-106021047D01*
X181070380Y-105163904D02*
X181070380Y-104592476D01*
X182070380Y-104878190D02*
X181070380Y-104878190D01*
X181403714Y-103830571D02*
X182070380Y-103830571D01*
X181022761Y-104068666D02*
X181737047Y-104306761D01*
X181737047Y-103687714D01*
D12*
X180975142Y-143851285D02*
X183260857Y-143851285D01*
X173863142Y-69048285D02*
X176148857Y-69048285D01*
X175006000Y-70191142D02*
X175006000Y-67905428D01*
%TO.C,BT2*%
D11*
X161480571Y-105687714D02*
X161528190Y-105544857D01*
X161575809Y-105497238D01*
X161671047Y-105449619D01*
X161813904Y-105449619D01*
X161909142Y-105497238D01*
X161956761Y-105544857D01*
X162004380Y-105640095D01*
X162004380Y-106021047D01*
X161004380Y-106021047D01*
X161004380Y-105687714D01*
X161052000Y-105592476D01*
X161099619Y-105544857D01*
X161194857Y-105497238D01*
X161290095Y-105497238D01*
X161385333Y-105544857D01*
X161432952Y-105592476D01*
X161480571Y-105687714D01*
X161480571Y-106021047D01*
X161004380Y-105163904D02*
X161004380Y-104592476D01*
X162004380Y-104878190D02*
X161004380Y-104878190D01*
X161099619Y-104306761D02*
X161052000Y-104259142D01*
X161004380Y-104163904D01*
X161004380Y-103925809D01*
X161052000Y-103830571D01*
X161099619Y-103782952D01*
X161194857Y-103735333D01*
X161290095Y-103735333D01*
X161432952Y-103782952D01*
X162004380Y-104354380D01*
X162004380Y-103735333D01*
D12*
X160909142Y-143851285D02*
X163194857Y-143851285D01*
X153797142Y-69048285D02*
X156082857Y-69048285D01*
X154940000Y-70191142D02*
X154940000Y-67905428D01*
%TO.C,BT3*%
D11*
X142414571Y-105687714D02*
X142462190Y-105544857D01*
X142509809Y-105497238D01*
X142605047Y-105449619D01*
X142747904Y-105449619D01*
X142843142Y-105497238D01*
X142890761Y-105544857D01*
X142938380Y-105640095D01*
X142938380Y-106021047D01*
X141938380Y-106021047D01*
X141938380Y-105687714D01*
X141986000Y-105592476D01*
X142033619Y-105544857D01*
X142128857Y-105497238D01*
X142224095Y-105497238D01*
X142319333Y-105544857D01*
X142366952Y-105592476D01*
X142414571Y-105687714D01*
X142414571Y-106021047D01*
X141938380Y-105163904D02*
X141938380Y-104592476D01*
X142938380Y-104878190D02*
X141938380Y-104878190D01*
X141938380Y-104354380D02*
X141938380Y-103735333D01*
X142319333Y-104068666D01*
X142319333Y-103925809D01*
X142366952Y-103830571D01*
X142414571Y-103782952D01*
X142509809Y-103735333D01*
X142747904Y-103735333D01*
X142843142Y-103782952D01*
X142890761Y-103830571D01*
X142938380Y-103925809D01*
X142938380Y-104211523D01*
X142890761Y-104306761D01*
X142843142Y-104354380D01*
D12*
X133731142Y-69302285D02*
X136016857Y-69302285D01*
X142200285Y-144779857D02*
X142200285Y-142494142D01*
X143343142Y-143637000D02*
X141057428Y-143637000D01*
%TO.C,SW3*%
D11*
X108140666Y-105560761D02*
X108283523Y-105608380D01*
X108521619Y-105608380D01*
X108616857Y-105560761D01*
X108664476Y-105513142D01*
X108712095Y-105417904D01*
X108712095Y-105322666D01*
X108664476Y-105227428D01*
X108616857Y-105179809D01*
X108521619Y-105132190D01*
X108331142Y-105084571D01*
X108235904Y-105036952D01*
X108188285Y-104989333D01*
X108140666Y-104894095D01*
X108140666Y-104798857D01*
X108188285Y-104703619D01*
X108235904Y-104656000D01*
X108331142Y-104608380D01*
X108569238Y-104608380D01*
X108712095Y-104656000D01*
X109045428Y-104608380D02*
X109283523Y-105608380D01*
X109474000Y-104894095D01*
X109664476Y-105608380D01*
X109902571Y-104608380D01*
X110188285Y-104608380D02*
X110807333Y-104608380D01*
X110474000Y-104989333D01*
X110616857Y-104989333D01*
X110712095Y-105036952D01*
X110759714Y-105084571D01*
X110807333Y-105179809D01*
X110807333Y-105417904D01*
X110759714Y-105513142D01*
X110712095Y-105560761D01*
X110616857Y-105608380D01*
X110331142Y-105608380D01*
X110235904Y-105560761D01*
X110188285Y-105513142D01*
%TO.C,SW2*%
X108140666Y-97432761D02*
X108283523Y-97480380D01*
X108521619Y-97480380D01*
X108616857Y-97432761D01*
X108664476Y-97385142D01*
X108712095Y-97289904D01*
X108712095Y-97194666D01*
X108664476Y-97099428D01*
X108616857Y-97051809D01*
X108521619Y-97004190D01*
X108331142Y-96956571D01*
X108235904Y-96908952D01*
X108188285Y-96861333D01*
X108140666Y-96766095D01*
X108140666Y-96670857D01*
X108188285Y-96575619D01*
X108235904Y-96528000D01*
X108331142Y-96480380D01*
X108569238Y-96480380D01*
X108712095Y-96528000D01*
X109045428Y-96480380D02*
X109283523Y-97480380D01*
X109474000Y-96766095D01*
X109664476Y-97480380D01*
X109902571Y-96480380D01*
X110235904Y-96575619D02*
X110283523Y-96528000D01*
X110378761Y-96480380D01*
X110616857Y-96480380D01*
X110712095Y-96528000D01*
X110759714Y-96575619D01*
X110807333Y-96670857D01*
X110807333Y-96766095D01*
X110759714Y-96908952D01*
X110188285Y-97480380D01*
X110807333Y-97480380D01*
%TO.C,R56*%
X125849142Y-142692380D02*
X125515809Y-142216190D01*
X125277714Y-142692380D02*
X125277714Y-141692380D01*
X125658666Y-141692380D01*
X125753904Y-141740000D01*
X125801523Y-141787619D01*
X125849142Y-141882857D01*
X125849142Y-142025714D01*
X125801523Y-142120952D01*
X125753904Y-142168571D01*
X125658666Y-142216190D01*
X125277714Y-142216190D01*
X126753904Y-141692380D02*
X126277714Y-141692380D01*
X126230095Y-142168571D01*
X126277714Y-142120952D01*
X126372952Y-142073333D01*
X126611047Y-142073333D01*
X126706285Y-142120952D01*
X126753904Y-142168571D01*
X126801523Y-142263809D01*
X126801523Y-142501904D01*
X126753904Y-142597142D01*
X126706285Y-142644761D01*
X126611047Y-142692380D01*
X126372952Y-142692380D01*
X126277714Y-142644761D01*
X126230095Y-142597142D01*
X127658666Y-141692380D02*
X127468190Y-141692380D01*
X127372952Y-141740000D01*
X127325333Y-141787619D01*
X127230095Y-141930476D01*
X127182476Y-142120952D01*
X127182476Y-142501904D01*
X127230095Y-142597142D01*
X127277714Y-142644761D01*
X127372952Y-142692380D01*
X127563428Y-142692380D01*
X127658666Y-142644761D01*
X127706285Y-142597142D01*
X127753904Y-142501904D01*
X127753904Y-142263809D01*
X127706285Y-142168571D01*
X127658666Y-142120952D01*
X127563428Y-142073333D01*
X127372952Y-142073333D01*
X127277714Y-142120952D01*
X127230095Y-142168571D01*
X127182476Y-142263809D01*
%TO.C,R49*%
X185285142Y-142692380D02*
X184951809Y-142216190D01*
X184713714Y-142692380D02*
X184713714Y-141692380D01*
X185094666Y-141692380D01*
X185189904Y-141740000D01*
X185237523Y-141787619D01*
X185285142Y-141882857D01*
X185285142Y-142025714D01*
X185237523Y-142120952D01*
X185189904Y-142168571D01*
X185094666Y-142216190D01*
X184713714Y-142216190D01*
X186142285Y-142025714D02*
X186142285Y-142692380D01*
X185904190Y-141644761D02*
X185666095Y-142359047D01*
X186285142Y-142359047D01*
X186713714Y-142692380D02*
X186904190Y-142692380D01*
X186999428Y-142644761D01*
X187047047Y-142597142D01*
X187142285Y-142454285D01*
X187189904Y-142263809D01*
X187189904Y-141882857D01*
X187142285Y-141787619D01*
X187094666Y-141740000D01*
X186999428Y-141692380D01*
X186808952Y-141692380D01*
X186713714Y-141740000D01*
X186666095Y-141787619D01*
X186618476Y-141882857D01*
X186618476Y-142120952D01*
X186666095Y-142216190D01*
X186713714Y-142263809D01*
X186808952Y-142311428D01*
X186999428Y-142311428D01*
X187094666Y-142263809D01*
X187142285Y-142216190D01*
X187189904Y-142120952D01*
%TO.C,R42*%
X165727142Y-142692380D02*
X165393809Y-142216190D01*
X165155714Y-142692380D02*
X165155714Y-141692380D01*
X165536666Y-141692380D01*
X165631904Y-141740000D01*
X165679523Y-141787619D01*
X165727142Y-141882857D01*
X165727142Y-142025714D01*
X165679523Y-142120952D01*
X165631904Y-142168571D01*
X165536666Y-142216190D01*
X165155714Y-142216190D01*
X166584285Y-142025714D02*
X166584285Y-142692380D01*
X166346190Y-141644761D02*
X166108095Y-142359047D01*
X166727142Y-142359047D01*
X167060476Y-141787619D02*
X167108095Y-141740000D01*
X167203333Y-141692380D01*
X167441428Y-141692380D01*
X167536666Y-141740000D01*
X167584285Y-141787619D01*
X167631904Y-141882857D01*
X167631904Y-141978095D01*
X167584285Y-142120952D01*
X167012857Y-142692380D01*
X167631904Y-142692380D01*
%TO.C,R35*%
X145915142Y-142692380D02*
X145581809Y-142216190D01*
X145343714Y-142692380D02*
X145343714Y-141692380D01*
X145724666Y-141692380D01*
X145819904Y-141740000D01*
X145867523Y-141787619D01*
X145915142Y-141882857D01*
X145915142Y-142025714D01*
X145867523Y-142120952D01*
X145819904Y-142168571D01*
X145724666Y-142216190D01*
X145343714Y-142216190D01*
X146248476Y-141692380D02*
X146867523Y-141692380D01*
X146534190Y-142073333D01*
X146677047Y-142073333D01*
X146772285Y-142120952D01*
X146819904Y-142168571D01*
X146867523Y-142263809D01*
X146867523Y-142501904D01*
X146819904Y-142597142D01*
X146772285Y-142644761D01*
X146677047Y-142692380D01*
X146391333Y-142692380D01*
X146296095Y-142644761D01*
X146248476Y-142597142D01*
X147772285Y-141692380D02*
X147296095Y-141692380D01*
X147248476Y-142168571D01*
X147296095Y-142120952D01*
X147391333Y-142073333D01*
X147629428Y-142073333D01*
X147724666Y-142120952D01*
X147772285Y-142168571D01*
X147819904Y-142263809D01*
X147819904Y-142501904D01*
X147772285Y-142597142D01*
X147724666Y-142644761D01*
X147629428Y-142692380D01*
X147391333Y-142692380D01*
X147296095Y-142644761D01*
X147248476Y-142597142D01*
%TO.C,MH4*%
X190592666Y-140316380D02*
X190592666Y-139316380D01*
X190926000Y-140030666D01*
X191259333Y-139316380D01*
X191259333Y-140316380D01*
X191735523Y-140316380D02*
X191735523Y-139316380D01*
X191735523Y-139792571D02*
X192306952Y-139792571D01*
X192306952Y-140316380D02*
X192306952Y-139316380D01*
X193211714Y-139649714D02*
X193211714Y-140316380D01*
X192973619Y-139268761D02*
X192735523Y-139983047D01*
X193354571Y-139983047D01*
%TO.C,MH3*%
X110582666Y-140316380D02*
X110582666Y-139316380D01*
X110916000Y-140030666D01*
X111249333Y-139316380D01*
X111249333Y-140316380D01*
X111725523Y-140316380D02*
X111725523Y-139316380D01*
X111725523Y-139792571D02*
X112296952Y-139792571D01*
X112296952Y-140316380D02*
X112296952Y-139316380D01*
X112677904Y-139316380D02*
X113296952Y-139316380D01*
X112963619Y-139697333D01*
X113106476Y-139697333D01*
X113201714Y-139744952D01*
X113249333Y-139792571D01*
X113296952Y-139887809D01*
X113296952Y-140125904D01*
X113249333Y-140221142D01*
X113201714Y-140268761D01*
X113106476Y-140316380D01*
X112820761Y-140316380D01*
X112725523Y-140268761D01*
X112677904Y-140221142D01*
%TO.C,MH2*%
X188052666Y-54591380D02*
X188052666Y-53591380D01*
X188386000Y-54305666D01*
X188719333Y-53591380D01*
X188719333Y-54591380D01*
X189195523Y-54591380D02*
X189195523Y-53591380D01*
X189195523Y-54067571D02*
X189766952Y-54067571D01*
X189766952Y-54591380D02*
X189766952Y-53591380D01*
X190195523Y-53686619D02*
X190243142Y-53639000D01*
X190338380Y-53591380D01*
X190576476Y-53591380D01*
X190671714Y-53639000D01*
X190719333Y-53686619D01*
X190766952Y-53781857D01*
X190766952Y-53877095D01*
X190719333Y-54019952D01*
X190147904Y-54591380D01*
X190766952Y-54591380D01*
%TO.C,MH1*%
X114392666Y-54591380D02*
X114392666Y-53591380D01*
X114726000Y-54305666D01*
X115059333Y-53591380D01*
X115059333Y-54591380D01*
X115535523Y-54591380D02*
X115535523Y-53591380D01*
X115535523Y-54067571D02*
X116106952Y-54067571D01*
X116106952Y-54591380D02*
X116106952Y-53591380D01*
X117106952Y-54591380D02*
X116535523Y-54591380D01*
X116821238Y-54591380D02*
X116821238Y-53591380D01*
X116726000Y-53734238D01*
X116630761Y-53829476D01*
X116535523Y-53877095D01*
%TD*%
M02*
